%TF.GenerationSoftware,KiCad,Pcbnew,(7.0.0)*%
%TF.CreationDate,2023-04-01T02:08:27+13:00*%
%TF.ProjectId,pico_expansion_board,7069636f-5f65-4787-9061-6e73696f6e5f,rev?*%
%TF.SameCoordinates,Original*%
%TF.FileFunction,Copper,L1,Top*%
%TF.FilePolarity,Positive*%
%FSLAX46Y46*%
G04 Gerber Fmt 4.6, Leading zero omitted, Abs format (unit mm)*
G04 Created by KiCad (PCBNEW (7.0.0)) date 2023-04-01 02:08:27*
%MOMM*%
%LPD*%
G01*
G04 APERTURE LIST*
G04 Aperture macros list*
%AMRoundRect*
0 Rectangle with rounded corners*
0 $1 Rounding radius*
0 $2 $3 $4 $5 $6 $7 $8 $9 X,Y pos of 4 corners*
0 Add a 4 corners polygon primitive as box body*
4,1,4,$2,$3,$4,$5,$6,$7,$8,$9,$2,$3,0*
0 Add four circle primitives for the rounded corners*
1,1,$1+$1,$2,$3*
1,1,$1+$1,$4,$5*
1,1,$1+$1,$6,$7*
1,1,$1+$1,$8,$9*
0 Add four rect primitives between the rounded corners*
20,1,$1+$1,$2,$3,$4,$5,0*
20,1,$1+$1,$4,$5,$6,$7,0*
20,1,$1+$1,$6,$7,$8,$9,0*
20,1,$1+$1,$8,$9,$2,$3,0*%
G04 Aperture macros list end*
%TA.AperFunction,ComponentPad*%
%ADD10R,1.350000X1.350000*%
%TD*%
%TA.AperFunction,ComponentPad*%
%ADD11O,1.350000X1.350000*%
%TD*%
%TA.AperFunction,SMDPad,CuDef*%
%ADD12RoundRect,0.250000X-0.450000X0.325000X-0.450000X-0.325000X0.450000X-0.325000X0.450000X0.325000X0*%
%TD*%
%TA.AperFunction,ComponentPad*%
%ADD13C,6.400000*%
%TD*%
%TA.AperFunction,ComponentPad*%
%ADD14C,4.000000*%
%TD*%
%TA.AperFunction,ComponentPad*%
%ADD15R,1.600000X1.600000*%
%TD*%
%TA.AperFunction,ComponentPad*%
%ADD16C,1.600000*%
%TD*%
%TA.AperFunction,SMDPad,CuDef*%
%ADD17RoundRect,0.250000X0.450000X-0.350000X0.450000X0.350000X-0.450000X0.350000X-0.450000X-0.350000X0*%
%TD*%
%TA.AperFunction,SMDPad,CuDef*%
%ADD18RoundRect,0.150000X0.725000X0.150000X-0.725000X0.150000X-0.725000X-0.150000X0.725000X-0.150000X0*%
%TD*%
%TA.AperFunction,SMDPad,CuDef*%
%ADD19RoundRect,0.250000X-0.450000X0.350000X-0.450000X-0.350000X0.450000X-0.350000X0.450000X0.350000X0*%
%TD*%
%TA.AperFunction,SMDPad,CuDef*%
%ADD20RoundRect,0.250000X0.337500X0.475000X-0.337500X0.475000X-0.337500X-0.475000X0.337500X-0.475000X0*%
%TD*%
%TA.AperFunction,SMDPad,CuDef*%
%ADD21RoundRect,0.250000X0.550000X-1.500000X0.550000X1.500000X-0.550000X1.500000X-0.550000X-1.500000X0*%
%TD*%
%TA.AperFunction,SMDPad,CuDef*%
%ADD22R,1.550000X1.300000*%
%TD*%
%TA.AperFunction,SMDPad,CuDef*%
%ADD23R,2.000000X2.000000*%
%TD*%
%TA.AperFunction,SMDPad,CuDef*%
%ADD24R,3.000000X4.000000*%
%TD*%
%TA.AperFunction,SMDPad,CuDef*%
%ADD25R,2.000000X1.500000*%
%TD*%
%TA.AperFunction,SMDPad,CuDef*%
%ADD26R,2.000000X3.800000*%
%TD*%
%TA.AperFunction,SMDPad,CuDef*%
%ADD27RoundRect,0.250000X-0.475000X0.337500X-0.475000X-0.337500X0.475000X-0.337500X0.475000X0.337500X0*%
%TD*%
%TA.AperFunction,SMDPad,CuDef*%
%ADD28RoundRect,0.250000X-0.337500X-0.475000X0.337500X-0.475000X0.337500X0.475000X-0.337500X0.475000X0*%
%TD*%
%TA.AperFunction,ComponentPad*%
%ADD29RoundRect,0.250000X0.600000X-0.600000X0.600000X0.600000X-0.600000X0.600000X-0.600000X-0.600000X0*%
%TD*%
%TA.AperFunction,ComponentPad*%
%ADD30C,1.700000*%
%TD*%
%TA.AperFunction,ComponentPad*%
%ADD31R,3.000000X3.000000*%
%TD*%
%TA.AperFunction,ComponentPad*%
%ADD32C,3.000000*%
%TD*%
%TA.AperFunction,SMDPad,CuDef*%
%ADD33RoundRect,0.150000X-0.512500X-0.150000X0.512500X-0.150000X0.512500X0.150000X-0.512500X0.150000X0*%
%TD*%
%TA.AperFunction,ComponentPad*%
%ADD34RoundRect,0.250000X-0.725000X0.600000X-0.725000X-0.600000X0.725000X-0.600000X0.725000X0.600000X0*%
%TD*%
%TA.AperFunction,ComponentPad*%
%ADD35O,1.950000X1.700000*%
%TD*%
%TA.AperFunction,ComponentPad*%
%ADD36O,1.700000X1.700000*%
%TD*%
%TA.AperFunction,SMDPad,CuDef*%
%ADD37R,3.500000X1.700000*%
%TD*%
%TA.AperFunction,ComponentPad*%
%ADD38R,1.700000X1.700000*%
%TD*%
%TA.AperFunction,SMDPad,CuDef*%
%ADD39R,1.700000X3.500000*%
%TD*%
%TA.AperFunction,SMDPad,CuDef*%
%ADD40RoundRect,0.250000X0.475000X-0.337500X0.475000X0.337500X-0.475000X0.337500X-0.475000X-0.337500X0*%
%TD*%
%TA.AperFunction,SMDPad,CuDef*%
%ADD41R,1.800000X1.700000*%
%TD*%
%TA.AperFunction,ComponentPad*%
%ADD42R,1.800000X1.800000*%
%TD*%
%TA.AperFunction,ComponentPad*%
%ADD43C,1.800000*%
%TD*%
%TA.AperFunction,SMDPad,CuDef*%
%ADD44RoundRect,0.150000X-0.825000X-0.150000X0.825000X-0.150000X0.825000X0.150000X-0.825000X0.150000X0*%
%TD*%
%TA.AperFunction,SMDPad,CuDef*%
%ADD45RoundRect,0.250000X-1.950000X-1.000000X1.950000X-1.000000X1.950000X1.000000X-1.950000X1.000000X0*%
%TD*%
%TA.AperFunction,SMDPad,CuDef*%
%ADD46R,0.650000X1.525000*%
%TD*%
%TA.AperFunction,SMDPad,CuDef*%
%ADD47R,3.100000X2.600000*%
%TD*%
%TA.AperFunction,ViaPad*%
%ADD48C,0.800000*%
%TD*%
%TA.AperFunction,ViaPad*%
%ADD49C,1.500000*%
%TD*%
%TA.AperFunction,ViaPad*%
%ADD50C,1.000000*%
%TD*%
%TA.AperFunction,Conductor*%
%ADD51C,1.000000*%
%TD*%
%TA.AperFunction,Conductor*%
%ADD52C,0.762000*%
%TD*%
%TA.AperFunction,Conductor*%
%ADD53C,0.609600*%
%TD*%
%TA.AperFunction,Conductor*%
%ADD54C,1.500000*%
%TD*%
G04 APERTURE END LIST*
D10*
%TO.P,JP7,1,A*%
%TO.N,3.3V_REG*%
X130555999Y-90359999D03*
D11*
%TO.P,JP7,2,C*%
%TO.N,+3.3V*%
X130555999Y-88359999D03*
%TO.P,JP7,3,B*%
%TO.N,3.3V_PICO*%
X130555999Y-86359999D03*
%TD*%
D10*
%TO.P,JP6,1,A*%
%TO.N,RS232_PIN3*%
X137667999Y-80961999D03*
D11*
%TO.P,JP6,2,C*%
%TO.N,SCALE_RXD*%
X137667999Y-78961999D03*
%TO.P,JP6,3,B*%
%TO.N,RS232_PIN2*%
X137667999Y-76961999D03*
%TD*%
D10*
%TO.P,JP5,1,A*%
%TO.N,RS232_PIN2*%
X130555999Y-80961999D03*
D11*
%TO.P,JP5,2,C*%
%TO.N,SCALE_TXD*%
X130555999Y-78961999D03*
%TO.P,JP5,3,B*%
%TO.N,RS232_PIN3*%
X130555999Y-76961999D03*
%TD*%
D12*
%TO.P,D2,1,K*%
%TO.N,GND*%
X141732000Y-85589000D03*
%TO.P,D2,2,A*%
%TO.N,Net-(D2-A)*%
X141732000Y-87639000D03*
%TD*%
D13*
%TO.P,H4,1*%
%TO.N,N/C*%
X156718000Y-135890000D03*
%TD*%
D14*
%TO.P,J6,0,PAD*%
%TO.N,GND*%
X152331669Y-116650000D03*
X152331669Y-91650000D03*
D15*
%TO.P,J6,1,1*%
%TO.N,unconnected-(J6-Pad1)*%
X150911668Y-109689999D03*
D16*
%TO.P,J6,2,2*%
%TO.N,RS232_PIN2*%
X150911669Y-106920000D03*
%TO.P,J6,3,3*%
%TO.N,RS232_PIN3*%
X150911669Y-104150000D03*
%TO.P,J6,4,4*%
%TO.N,unconnected-(J6-Pad4)*%
X150911669Y-101380000D03*
%TO.P,J6,5,5*%
%TO.N,unconnected-(J6-Pad5)*%
X150911669Y-98610000D03*
%TO.P,J6,6,6*%
%TO.N,unconnected-(J6-Pad6)*%
X153751669Y-108305000D03*
%TO.P,J6,7,7*%
%TO.N,unconnected-(J6-Pad7)*%
X153751669Y-105535000D03*
%TO.P,J6,8,8*%
%TO.N,unconnected-(J6-Pad8)*%
X153751669Y-102765000D03*
%TO.P,J6,9,9*%
%TO.N,unconnected-(J6-Pad9)*%
X153751669Y-99995000D03*
%TD*%
D17*
%TO.P,R5,1*%
%TO.N,+3.3V*%
X109220000Y-109712000D03*
%TO.P,R5,2*%
%TO.N,EEPROM_SCL*%
X109220000Y-107712000D03*
%TD*%
D13*
%TO.P,H2,1*%
%TO.N,N/C*%
X75184000Y-79248000D03*
%TD*%
D18*
%TO.P,U3,1,A0*%
%TO.N,GND*%
X117383000Y-109347000D03*
%TO.P,U3,2,A1*%
X117383000Y-108077000D03*
%TO.P,U3,3,A2*%
X117383000Y-106807000D03*
%TO.P,U3,4,GND*%
X117383000Y-105537000D03*
%TO.P,U3,5,SDA*%
%TO.N,EEPROM_SDA*%
X112233000Y-105537000D03*
%TO.P,U3,6,SCL*%
%TO.N,EEPROM_SCL*%
X112233000Y-106807000D03*
%TO.P,U3,7,WP*%
%TO.N,GND*%
X112233000Y-108077000D03*
%TO.P,U3,8,VCC*%
%TO.N,+3.3V*%
X112233000Y-109347000D03*
%TD*%
D19*
%TO.P,R7,1*%
%TO.N,Net-(D2-A)*%
X141732000Y-90186000D03*
%TO.P,R7,2*%
%TO.N,3.3V_REG*%
X141732000Y-92186000D03*
%TD*%
D20*
%TO.P,C14,1*%
%TO.N,+5V*%
X115277500Y-116728000D03*
%TO.P,C14,2*%
%TO.N,GND*%
X113202500Y-116728000D03*
%TD*%
D21*
%TO.P,C8,1*%
%TO.N,VCC*%
X88646000Y-122334000D03*
%TO.P,C8,2*%
%TO.N,GND*%
X88646000Y-116934000D03*
%TD*%
D22*
%TO.P,SW1,1,1*%
%TO.N,PICO_RESET_BTN*%
X149948999Y-122971999D03*
X157898999Y-122971999D03*
%TO.P,SW1,2,2*%
%TO.N,GND*%
X149948999Y-127471999D03*
X157898999Y-127471999D03*
%TD*%
D23*
%TO.P,TP5,1,1*%
%TO.N,SCALE_RXD*%
X134111999Y-77215999D03*
%TD*%
D19*
%TO.P,R9,1*%
%TO.N,Net-(D4-A)*%
X145288000Y-90186000D03*
%TO.P,R9,2*%
%TO.N,VCC*%
X145288000Y-92186000D03*
%TD*%
D17*
%TO.P,R4,1*%
%TO.N,MOTOR_UART*%
X98298000Y-92948000D03*
%TO.P,R4,2*%
%TO.N,UART1_TX*%
X98298000Y-90948000D03*
%TD*%
D24*
%TO.P,L1,1,1*%
%TO.N,/PH_NET*%
X133058499Y-131083999D03*
%TO.P,L1,2,2*%
%TO.N,+5V*%
X133058499Y-120883999D03*
%TD*%
D23*
%TO.P,TP3,1,1*%
%TO.N,SCALE_UART_RX*%
X91693999Y-78993999D03*
%TD*%
D12*
%TO.P,D4,1,K*%
%TO.N,GND*%
X145288000Y-85589000D03*
%TO.P,D4,2,A*%
%TO.N,Net-(D4-A)*%
X145288000Y-87639000D03*
%TD*%
D25*
%TO.P,U5,1,GND*%
%TO.N,GND*%
X133755999Y-94713999D03*
%TO.P,U5,2,VO*%
%TO.N,3.3V_REG*%
X133755999Y-97013999D03*
D26*
X140055999Y-97013999D03*
D25*
%TO.P,U5,3,VI*%
%TO.N,+5V*%
X133755999Y-99313999D03*
%TD*%
D27*
%TO.P,C6,1*%
%TO.N,Net-(U1-C2+)*%
X107566000Y-91672500D03*
%TO.P,C6,2*%
%TO.N,Net-(U1-C2-)*%
X107566000Y-93747500D03*
%TD*%
%TO.P,C2,1*%
%TO.N,Net-(U1-C1+)*%
X107566000Y-87100500D03*
%TO.P,C2,2*%
%TO.N,Net-(U1-C1-)*%
X107566000Y-89175500D03*
%TD*%
D28*
%TO.P,C4,1*%
%TO.N,VCC*%
X141202500Y-121666000D03*
%TO.P,C4,2*%
%TO.N,GND*%
X143277500Y-121666000D03*
%TD*%
D19*
%TO.P,R8,1*%
%TO.N,Net-(D3-A)*%
X137922000Y-90186000D03*
%TO.P,R8,2*%
%TO.N,+5V*%
X137922000Y-92186000D03*
%TD*%
D13*
%TO.P,H3,1*%
%TO.N,N/C*%
X156718000Y-79248000D03*
%TD*%
D29*
%TO.P,J8,1,Pin_1*%
%TO.N,unconnected-(J8-Pin_1-Pad1)*%
X110490000Y-135890000D03*
D30*
%TO.P,J8,2,Pin_2*%
%TO.N,BTN_ENC*%
X110490000Y-133350000D03*
%TO.P,J8,3,Pin_3*%
%TO.N,LCD_CS*%
X113030000Y-135890000D03*
%TO.P,J8,4,Pin_4*%
%TO.N,LCD_A0*%
X113030000Y-133350000D03*
%TO.P,J8,5,Pin_5*%
%TO.N,LCD_RST*%
X115570000Y-135890000D03*
%TO.P,J8,6,Pin_6*%
%TO.N,NEOPIXEL_5V*%
X115570000Y-133350000D03*
%TO.P,J8,7,Pin_7*%
%TO.N,unconnected-(J8-Pin_7-Pad7)*%
X118110000Y-135890000D03*
%TO.P,J8,8,Pin_8*%
%TO.N,unconnected-(J8-Pin_8-Pad8)*%
X118110000Y-133350000D03*
%TO.P,J8,9,Pin_9*%
%TO.N,GND*%
X120650000Y-135890000D03*
%TO.P,J8,10,Pin_10*%
%TO.N,+5V*%
X120650000Y-133350000D03*
%TD*%
D31*
%TO.P,J1,1,Pin_1*%
%TO.N,GND*%
X147827999Y-78993999D03*
D32*
%TO.P,J1,2,Pin_2*%
%TO.N,VCC*%
X142748000Y-78994000D03*
%TD*%
D23*
%TO.P,TP2,1,1*%
%TO.N,SCALE_UART_TX*%
X96265999Y-78993999D03*
%TD*%
D13*
%TO.P,H1,1*%
%TO.N,N/C*%
X75184000Y-135890000D03*
%TD*%
D28*
%TO.P,C13,1*%
%TO.N,+5V*%
X137879000Y-103378000D03*
%TO.P,C13,2*%
%TO.N,GND*%
X139954000Y-103378000D03*
%TD*%
D21*
%TO.P,C9,1*%
%TO.N,VCC*%
X88646000Y-98540000D03*
%TO.P,C9,2*%
%TO.N,GND*%
X88646000Y-93140000D03*
%TD*%
D33*
%TO.P,U4,1*%
%TO.N,GND*%
X112908500Y-119192000D03*
%TO.P,U4,2*%
%TO.N,NEOPIXEL*%
X112908500Y-120142000D03*
%TO.P,U4,3,GND*%
%TO.N,GND*%
X112908500Y-121092000D03*
%TO.P,U4,4*%
%TO.N,NEOPIXEL_5V*%
X115183500Y-121092000D03*
%TO.P,U4,5,VCC*%
%TO.N,+5V*%
X115183500Y-119192000D03*
%TD*%
D34*
%TO.P,J4,1,Pin_1*%
%TO.N,Net-(J2-B2)*%
X75184000Y-89528000D03*
D35*
%TO.P,J4,2,Pin_2*%
%TO.N,Net-(J2-B1)*%
X75183999Y-92027999D03*
%TO.P,J4,3,Pin_3*%
%TO.N,Net-(J2-A1)*%
X75183999Y-94527999D03*
%TO.P,J4,4,Pin_4*%
%TO.N,Net-(J2-A2)*%
X75183999Y-97027999D03*
%TD*%
D28*
%TO.P,C3,1*%
%TO.N,VCC*%
X141202500Y-124714000D03*
%TO.P,C3,2*%
%TO.N,GND*%
X143277500Y-124714000D03*
%TD*%
D34*
%TO.P,J5,1,Pin_1*%
%TO.N,Net-(J3-B2)*%
X75184000Y-113070000D03*
D35*
%TO.P,J5,2,Pin_2*%
%TO.N,Net-(J3-B1)*%
X75183999Y-115569999D03*
%TO.P,J5,3,Pin_3*%
%TO.N,Net-(J3-A1)*%
X75183999Y-118069999D03*
%TO.P,J5,4,Pin_4*%
%TO.N,Net-(J3-A2)*%
X75183999Y-120569999D03*
%TD*%
D28*
%TO.P,C1,1*%
%TO.N,VCC*%
X141202500Y-127762000D03*
%TO.P,C1,2*%
%TO.N,GND*%
X143277500Y-127762000D03*
%TD*%
D36*
%TO.P,U2,1,GPIO0*%
%TO.N,SCALE_UART_TX*%
X104139999Y-77469999D03*
D37*
X103239999Y-77469999D03*
D36*
%TO.P,U2,2,GPIO1*%
%TO.N,SCALE_UART_RX*%
X104139999Y-80009999D03*
D37*
X103239999Y-80009999D03*
D38*
%TO.P,U2,3,GND*%
%TO.N,GND*%
X104139999Y-82549999D03*
D37*
X103239999Y-82549999D03*
D36*
%TO.P,U2,4,GPIO2*%
%TO.N,M1_DIR*%
X104139999Y-85089999D03*
D37*
X103239999Y-85089999D03*
D36*
%TO.P,U2,5,GPIO3*%
%TO.N,M1_STEP*%
X104139999Y-87629999D03*
D37*
X103239999Y-87629999D03*
D36*
%TO.P,U2,6,GPIO4*%
%TO.N,UART1_TX*%
X104139999Y-90169999D03*
D37*
X103239999Y-90169999D03*
D36*
%TO.P,U2,7,GPIO5*%
%TO.N,MOTOR_UART*%
X104139999Y-92709999D03*
D37*
X103239999Y-92709999D03*
D38*
%TO.P,U2,8,GND*%
%TO.N,GND*%
X104139999Y-95249999D03*
D37*
X103239999Y-95249999D03*
D36*
%TO.P,U2,9,GPIO6*%
%TO.N,M1_EN*%
X104139999Y-97789999D03*
D37*
X103239999Y-97789999D03*
D36*
%TO.P,U2,10,GPIO7*%
%TO.N,M2_DIR*%
X104139999Y-100329999D03*
D37*
X103239999Y-100329999D03*
D36*
%TO.P,U2,11,GPIO8*%
%TO.N,M2_STEP*%
X104139999Y-102869999D03*
D37*
X103239999Y-102869999D03*
D36*
%TO.P,U2,12,GPIO9*%
%TO.N,M2_EN*%
X104139999Y-105409999D03*
D37*
X103239999Y-105409999D03*
D38*
%TO.P,U2,13,GND*%
%TO.N,GND*%
X104139999Y-107949999D03*
D37*
X103239999Y-107949999D03*
D36*
%TO.P,U2,14,GPIO10*%
%TO.N,EEPROM_SDA*%
X104139999Y-110489999D03*
D37*
X103239999Y-110489999D03*
D36*
%TO.P,U2,15,GPIO11*%
%TO.N,EEPROM_SCL*%
X104139999Y-113029999D03*
D37*
X103239999Y-113029999D03*
D36*
%TO.P,U2,16,GPIO12*%
%TO.N,BTN_RST*%
X104139999Y-115569999D03*
D37*
X103239999Y-115569999D03*
D36*
%TO.P,U2,17,GPIO13*%
%TO.N,NEOPIXEL*%
X104139999Y-118109999D03*
D37*
X103239999Y-118109999D03*
D38*
%TO.P,U2,18,GND*%
%TO.N,GND*%
X104139999Y-120649999D03*
D37*
X103239999Y-120649999D03*
D36*
%TO.P,U2,19,GPIO14*%
%TO.N,BTN_EN2*%
X104139999Y-123189999D03*
D37*
X103239999Y-123189999D03*
D36*
%TO.P,U2,20,GPIO15*%
%TO.N,BTN_EN1*%
X104139999Y-125729999D03*
D37*
X103239999Y-125729999D03*
D36*
%TO.P,U2,21,GPIO16*%
%TO.N,SPI0_MISO*%
X121919999Y-125729999D03*
D37*
X122819999Y-125729999D03*
D36*
%TO.P,U2,22,GPIO17*%
%TO.N,LCD_CS*%
X121919999Y-123189999D03*
D37*
X122819999Y-123189999D03*
D38*
%TO.P,U2,23,GND*%
%TO.N,GND*%
X121919999Y-120649999D03*
D37*
X122819999Y-120649999D03*
D36*
%TO.P,U2,24,GPIO18*%
%TO.N,LED_SCK*%
X121919999Y-118109999D03*
D37*
X122819999Y-118109999D03*
D36*
%TO.P,U2,25,GPIO19*%
%TO.N,LCD_MOSI*%
X121919999Y-115569999D03*
D37*
X122819999Y-115569999D03*
D36*
%TO.P,U2,26,GPIO20*%
%TO.N,LCD_A0*%
X121919999Y-113029999D03*
D37*
X122819999Y-113029999D03*
D36*
%TO.P,U2,27,GPIO21*%
%TO.N,LCD_RST*%
X121919999Y-110489999D03*
D37*
X122819999Y-110489999D03*
D38*
%TO.P,U2,28,GND*%
%TO.N,GND*%
X121919999Y-107949999D03*
D37*
X122819999Y-107949999D03*
D36*
%TO.P,U2,29,GPIO22*%
%TO.N,BTN_ENC*%
X121919999Y-105409999D03*
D37*
X122819999Y-105409999D03*
D36*
%TO.P,U2,30,RUN*%
%TO.N,PICO_RESET_BTN*%
X121919999Y-102869999D03*
D37*
X122819999Y-102869999D03*
D36*
%TO.P,U2,31,GPIO26_ADC0*%
%TO.N,unconnected-(U2-GPIO26_ADC0-Pad31)*%
X121919999Y-100329999D03*
D37*
X122819999Y-100329999D03*
D36*
%TO.P,U2,32,GPIO27_ADC1*%
%TO.N,unconnected-(U2-GPIO27_ADC1-Pad32)*%
X121919999Y-97789999D03*
D37*
X122819999Y-97789999D03*
D38*
%TO.P,U2,33,AGND*%
%TO.N,GND*%
X121919999Y-95249999D03*
D37*
X122819999Y-95249999D03*
D36*
%TO.P,U2,34,GPIO28_ADC2*%
%TO.N,unconnected-(U2-GPIO28_ADC2-Pad34)*%
X121919999Y-92709999D03*
D37*
X122819999Y-92709999D03*
D36*
%TO.P,U2,35,ADC_VREF*%
%TO.N,unconnected-(U2-ADC_VREF-Pad35)*%
X121919999Y-90169999D03*
D37*
X122819999Y-90169999D03*
D36*
%TO.P,U2,36,3V3*%
%TO.N,3.3V_PICO*%
X121919999Y-87629999D03*
D37*
X122819999Y-87629999D03*
D36*
%TO.P,U2,37,3V3_EN*%
%TO.N,unconnected-(U2-3V3_EN-Pad37)*%
X121919999Y-85089999D03*
D37*
X122819999Y-85089999D03*
D38*
%TO.P,U2,38,GND*%
%TO.N,GND*%
X121919999Y-82549999D03*
D37*
X122819999Y-82549999D03*
D36*
%TO.P,U2,39,VSYS*%
%TO.N,+5V*%
X121919999Y-80009999D03*
D37*
X122819999Y-80009999D03*
D36*
%TO.P,U2,40,VBUS*%
%TO.N,unconnected-(U2-VBUS-Pad40)*%
X121919999Y-77469999D03*
D37*
X122819999Y-77469999D03*
D36*
%TO.P,U2,41,SWCLK*%
%TO.N,unconnected-(U2-SWCLK-Pad41)*%
X110489999Y-125499999D03*
D39*
X110489999Y-126399999D03*
D38*
%TO.P,U2,42,GND*%
%TO.N,unconnected-(U2-GND-Pad42)*%
X113029999Y-125499999D03*
D39*
X113029999Y-126399999D03*
D36*
%TO.P,U2,43,SWDIO*%
%TO.N,unconnected-(U2-SWDIO-Pad43)*%
X115569999Y-125499999D03*
D39*
X115569999Y-126399999D03*
%TD*%
D29*
%TO.P,J9,1,Pin_1*%
%TO.N,unconnected-(J9-Pin_1-Pad1)*%
X86360000Y-135890000D03*
D30*
%TO.P,J9,2,Pin_2*%
%TO.N,LED_SCK*%
X86360000Y-133350000D03*
%TO.P,J9,3,Pin_3*%
%TO.N,BTN_EN1*%
X88900000Y-135890000D03*
%TO.P,J9,4,Pin_4*%
%TO.N,unconnected-(J9-Pin_4-Pad4)*%
X88900000Y-133350000D03*
%TO.P,J9,5,Pin_5*%
%TO.N,BTN_EN2*%
X91440000Y-135890000D03*
%TO.P,J9,6,Pin_6*%
%TO.N,LCD_MOSI*%
X91440000Y-133350000D03*
%TO.P,J9,7,Pin_7*%
%TO.N,unconnected-(J9-Pin_7-Pad7)*%
X93980000Y-135890000D03*
%TO.P,J9,8,Pin_8*%
%TO.N,BTN_RST*%
X93980000Y-133350000D03*
%TO.P,J9,9,Pin_9*%
%TO.N,GND*%
X96520000Y-135890000D03*
%TO.P,J9,10,Pin_10*%
%TO.N,+5V*%
X96520000Y-133350000D03*
%TD*%
D12*
%TO.P,D3,1,K*%
%TO.N,GND*%
X137922000Y-85589000D03*
%TO.P,D3,2,A*%
%TO.N,Net-(D3-A)*%
X137922000Y-87639000D03*
%TD*%
D17*
%TO.P,R6,1*%
%TO.N,NEOPIXEL*%
X109922000Y-120522000D03*
%TO.P,R6,2*%
%TO.N,GND*%
X109922000Y-118522000D03*
%TD*%
%TO.P,R2,1*%
%TO.N,Net-(IC1-VSENSE)*%
X146558000Y-133588000D03*
%TO.P,R2,2*%
%TO.N,GND*%
X146558000Y-131588000D03*
%TD*%
D40*
%TO.P,C15,1*%
%TO.N,3.3V_REG*%
X143510000Y-98065500D03*
%TO.P,C15,2*%
%TO.N,GND*%
X143510000Y-95990500D03*
%TD*%
D28*
%TO.P,C11,1*%
%TO.N,Net-(U1-VS+)*%
X110338500Y-85852000D03*
%TO.P,C11,2*%
%TO.N,GND*%
X112413500Y-85852000D03*
%TD*%
D41*
%TO.P,D1,A*%
%TO.N,GND*%
X142003999Y-118363999D03*
%TO.P,D1,C*%
%TO.N,/PH_NET*%
X137903999Y-118363999D03*
%TD*%
D42*
%TO.P,J3,1,DIR*%
%TO.N,M2_DIR*%
X94995999Y-107949999D03*
D43*
%TO.P,J3,2,STEP*%
%TO.N,M2_STEP*%
X94996000Y-110490000D03*
%TO.P,J3,3,CLK*%
%TO.N,unconnected-(J3-CLK-Pad3)*%
X94996000Y-113030000D03*
%TO.P,J3,4,PDN*%
%TO.N,unconnected-(J3-PDN-Pad4)*%
X94996000Y-115570000D03*
%TO.P,J3,5,UART*%
%TO.N,MOTOR_UART*%
X94996000Y-118110000D03*
%TO.P,J3,6,MS2*%
%TO.N,GND*%
X94996000Y-120650000D03*
%TO.P,J3,7,MS1*%
%TO.N,+3.3V*%
X94996000Y-123190000D03*
%TO.P,J3,8,EN*%
%TO.N,M2_EN*%
X94996000Y-125730000D03*
%TO.P,J3,9,VM*%
%TO.N,VCC*%
X82296000Y-125730000D03*
%TO.P,J3,10,GND*%
%TO.N,GND*%
X82296000Y-123190000D03*
%TO.P,J3,11,A2*%
%TO.N,Net-(J3-A2)*%
X82296000Y-120650000D03*
%TO.P,J3,12,A1*%
%TO.N,Net-(J3-A1)*%
X82296000Y-118110000D03*
%TO.P,J3,13,B1*%
%TO.N,Net-(J3-B1)*%
X82296000Y-115570000D03*
%TO.P,J3,14,B2*%
%TO.N,Net-(J3-B2)*%
X82296000Y-113030000D03*
%TO.P,J3,15,VDD*%
%TO.N,+3.3V*%
X82296000Y-110490000D03*
%TO.P,J3,16,GND*%
%TO.N,GND*%
X82296000Y-107950000D03*
%TD*%
D44*
%TO.P,U1,1,C1+*%
%TO.N,Net-(U1-C1+)*%
X110744000Y-88646000D03*
%TO.P,U1,2,VS+*%
%TO.N,Net-(U1-VS+)*%
X110744000Y-89916000D03*
%TO.P,U1,3,C1-*%
%TO.N,Net-(U1-C1-)*%
X110744000Y-91186000D03*
%TO.P,U1,4,C2+*%
%TO.N,Net-(U1-C2+)*%
X110744000Y-92456000D03*
%TO.P,U1,5,C2-*%
%TO.N,Net-(U1-C2-)*%
X110744000Y-93726000D03*
%TO.P,U1,6,VS-*%
%TO.N,Net-(U1-VS-)*%
X110744000Y-94996000D03*
%TO.P,U1,7,T2OUT*%
%TO.N,unconnected-(U1-T2OUT-Pad7)*%
X110744000Y-96266000D03*
%TO.P,U1,8,R2IN*%
%TO.N,unconnected-(U1-R2IN-Pad8)*%
X110744000Y-97536000D03*
%TO.P,U1,9,R2OUT*%
%TO.N,unconnected-(U1-R2OUT-Pad9)*%
X115694000Y-97536000D03*
%TO.P,U1,10,T2IN*%
%TO.N,unconnected-(U1-T2IN-Pad10)*%
X115694000Y-96266000D03*
%TO.P,U1,11,T1IN*%
%TO.N,SCALE_UART_TX*%
X115694000Y-94996000D03*
%TO.P,U1,12,R1OUT*%
%TO.N,SCALE_UART_RX*%
X115694000Y-93726000D03*
%TO.P,U1,13,R1IN*%
%TO.N,SCALE_RXD*%
X115694000Y-92456000D03*
%TO.P,U1,14,T1OUT*%
%TO.N,SCALE_TXD*%
X115694000Y-91186000D03*
%TO.P,U1,15,GND*%
%TO.N,GND*%
X115694000Y-89916000D03*
%TO.P,U1,16,VCC*%
%TO.N,+3.3V*%
X115694000Y-88646000D03*
%TD*%
D45*
%TO.P,C12,1*%
%TO.N,+5V*%
X134738000Y-110998000D03*
%TO.P,C12,2*%
%TO.N,GND*%
X143138000Y-110998000D03*
%TD*%
D28*
%TO.P,C5,1*%
%TO.N,+3.3V*%
X115548500Y-85852000D03*
%TO.P,C5,2*%
%TO.N,GND*%
X117623500Y-85852000D03*
%TD*%
D19*
%TO.P,R3,1*%
%TO.N,+3.3V*%
X109220000Y-103394000D03*
%TO.P,R3,2*%
%TO.N,EEPROM_SDA*%
X109220000Y-105394000D03*
%TD*%
D40*
%TO.P,C7,1*%
%TO.N,GND*%
X107566000Y-98319500D03*
%TO.P,C7,2*%
%TO.N,Net-(U1-VS-)*%
X107566000Y-96244500D03*
%TD*%
%TO.P,C10,1*%
%TO.N,Net-(IC1-BOOT)*%
X136906000Y-135403500D03*
%TO.P,C10,2*%
%TO.N,/PH_NET*%
X136906000Y-133328500D03*
%TD*%
D42*
%TO.P,J2,1,DIR*%
%TO.N,M1_DIR*%
X94995999Y-84259999D03*
D43*
%TO.P,J2,2,STEP*%
%TO.N,M1_STEP*%
X94996000Y-86800000D03*
%TO.P,J2,3,CLK*%
%TO.N,unconnected-(J2-CLK-Pad3)*%
X94996000Y-89340000D03*
%TO.P,J2,4,PDN*%
%TO.N,unconnected-(J2-PDN-Pad4)*%
X94996000Y-91880000D03*
%TO.P,J2,5,UART*%
%TO.N,MOTOR_UART*%
X94996000Y-94420000D03*
%TO.P,J2,6,MS2*%
%TO.N,GND*%
X94996000Y-96960000D03*
%TO.P,J2,7,MS1*%
X94996000Y-99500000D03*
%TO.P,J2,8,EN*%
%TO.N,M1_EN*%
X94996000Y-102040000D03*
%TO.P,J2,9,VM*%
%TO.N,VCC*%
X82296000Y-102040000D03*
%TO.P,J2,10,GND*%
%TO.N,GND*%
X82296000Y-99500000D03*
%TO.P,J2,11,A2*%
%TO.N,Net-(J2-A2)*%
X82296000Y-96960000D03*
%TO.P,J2,12,A1*%
%TO.N,Net-(J2-A1)*%
X82296000Y-94420000D03*
%TO.P,J2,13,B1*%
%TO.N,Net-(J2-B1)*%
X82296000Y-91880000D03*
%TO.P,J2,14,B2*%
%TO.N,Net-(J2-B2)*%
X82296000Y-89340000D03*
%TO.P,J2,15,VDD*%
%TO.N,+3.3V*%
X82296000Y-86800000D03*
%TO.P,J2,16,GND*%
%TO.N,GND*%
X82296000Y-84260000D03*
%TD*%
D40*
%TO.P,C16,1*%
%TO.N,+5V*%
X130302000Y-97797500D03*
%TO.P,C16,2*%
%TO.N,GND*%
X130302000Y-95722500D03*
%TD*%
D17*
%TO.P,R1,1*%
%TO.N,+5V*%
X146558000Y-138414000D03*
%TO.P,R1,2*%
%TO.N,Net-(IC1-VSENSE)*%
X146558000Y-136414000D03*
%TD*%
D23*
%TO.P,TP4,1,1*%
%TO.N,SCALE_TXD*%
X134111999Y-82549999D03*
%TD*%
%TO.P,TP_UART1,1,1*%
%TO.N,MOTOR_UART*%
X86613999Y-78993999D03*
%TD*%
D46*
%TO.P,IC1,1,BOOT*%
%TO.N,Net-(IC1-BOOT)*%
X139826999Y-136823999D03*
%TO.P,IC1,2,NC_1*%
%TO.N,unconnected-(IC1-NC_1-Pad2)*%
X141096999Y-136823999D03*
%TO.P,IC1,3,NC_2*%
%TO.N,unconnected-(IC1-NC_2-Pad3)*%
X142366999Y-136823999D03*
%TO.P,IC1,4,VSENSE*%
%TO.N,Net-(IC1-VSENSE)*%
X143636999Y-136823999D03*
%TO.P,IC1,5,ENA*%
%TO.N,unconnected-(IC1-ENA-Pad5)*%
X143636999Y-131399999D03*
%TO.P,IC1,6,GND*%
%TO.N,GND*%
X142366999Y-131399999D03*
%TO.P,IC1,7,VIN*%
%TO.N,VCC*%
X141096999Y-131399999D03*
%TO.P,IC1,8,PH*%
%TO.N,/PH_NET*%
X139826999Y-131399999D03*
D47*
%TO.P,IC1,9,EP*%
%TO.N,GND*%
X141731999Y-134111999D03*
%TD*%
D48*
%TO.N,GND*%
X145288000Y-85589000D03*
X117623500Y-88392000D03*
X109922000Y-118522000D03*
D49*
X144526000Y-102870000D03*
D48*
X112413500Y-85852000D03*
X88646000Y-93140000D03*
X143510000Y-94488000D03*
X113030000Y-118110000D03*
D50*
X114808000Y-107442000D03*
D48*
X131826000Y-94714000D03*
D49*
X146812000Y-102870000D03*
D48*
X149949000Y-127472000D03*
X107566000Y-98319500D03*
X111760000Y-121666000D03*
X141732000Y-85589000D03*
D49*
X142240000Y-102870000D03*
D48*
X136652000Y-85344000D03*
D50*
X88646000Y-116934000D03*
D48*
%TO.N,+5V*%
X131818500Y-99314000D03*
X136652000Y-91186000D03*
X115316000Y-118110000D03*
D49*
X133096000Y-102870000D03*
X130810000Y-102870000D03*
X135382000Y-102870000D03*
%TO.N,VCC*%
X138938000Y-106426000D03*
D48*
X145288000Y-92186000D03*
%TO.N,LED_SCK*%
X117602000Y-120650000D03*
%TO.N,LCD_MOSI*%
X95504000Y-129286000D03*
X117348000Y-115570000D03*
%TO.N,SCALE_UART_TX*%
X114231319Y-94706500D03*
X109728000Y-83820000D03*
%TO.N,SCALE_UART_RX*%
X108458000Y-85344000D03*
X112776000Y-92964000D03*
%TO.N,+3.3V*%
X109220000Y-103394000D03*
X112268000Y-110744000D03*
X115548500Y-87376000D03*
X109220000Y-109712000D03*
%TO.N,PICO_RESET_BTN*%
X149949000Y-122972000D03*
%TO.N,RS232_PIN2*%
X149570500Y-95758000D03*
%TD*%
D51*
%TO.N,BTN_ENC*%
X125730000Y-105410000D02*
X121920000Y-105410000D01*
X127000000Y-106680000D02*
X125730000Y-105410000D01*
X110236000Y-138938000D02*
X124460000Y-138938000D01*
X127000000Y-136398000D02*
X127000000Y-106680000D01*
X108204000Y-134433919D02*
X108204000Y-136906000D01*
X124460000Y-138938000D02*
X127000000Y-136398000D01*
X109287919Y-133350000D02*
X108204000Y-134433919D01*
X108204000Y-136906000D02*
X110236000Y-138938000D01*
X110490000Y-133350000D02*
X109287919Y-133350000D01*
D52*
%TO.N,Net-(U1-C1+)*%
X109111500Y-88646000D02*
X107566000Y-87100500D01*
X110744000Y-88646000D02*
X109111500Y-88646000D01*
%TO.N,Net-(U1-C1-)*%
X109576500Y-91186000D02*
X110744000Y-91186000D01*
X107566000Y-89175500D02*
X109576500Y-91186000D01*
D53*
%TO.N,GND*%
X117383000Y-109347000D02*
X115443000Y-109347000D01*
X115443000Y-108077000D02*
X114808000Y-107442000D01*
X113157000Y-108077000D02*
X113792000Y-107442000D01*
D52*
X117623500Y-88392000D02*
X117623500Y-88725290D01*
D51*
X157899000Y-127472000D02*
X149949000Y-127472000D01*
X131310500Y-94714000D02*
X130302000Y-95722500D01*
X117623500Y-85852000D02*
X117623500Y-88392000D01*
D52*
X112334000Y-121092000D02*
X111760000Y-121666000D01*
X117623500Y-88725290D02*
X116432790Y-89916000D01*
X112908500Y-121092000D02*
X112334000Y-121092000D01*
X115443000Y-105537000D02*
X114808000Y-106172000D01*
D51*
X136897000Y-85589000D02*
X136652000Y-85344000D01*
D52*
X113030000Y-118110000D02*
X113030000Y-119070500D01*
X142367000Y-133477000D02*
X141732000Y-134112000D01*
D53*
X115443000Y-106807000D02*
X114808000Y-107442000D01*
X142367000Y-131400000D02*
X142367000Y-133477000D01*
X115443000Y-109347000D02*
X114808000Y-108712000D01*
D52*
X114808000Y-106172000D02*
X114808000Y-107442000D01*
D53*
X112233000Y-108077000D02*
X113157000Y-108077000D01*
D51*
X143510000Y-94488000D02*
X143510000Y-95990500D01*
X137922000Y-85589000D02*
X136897000Y-85589000D01*
D53*
X117383000Y-108077000D02*
X115443000Y-108077000D01*
D52*
X113030000Y-119070500D02*
X112908500Y-119192000D01*
D53*
X113792000Y-107442000D02*
X114808000Y-107442000D01*
D52*
X116432790Y-89916000D02*
X115694000Y-89916000D01*
X117383000Y-105537000D02*
X115443000Y-105537000D01*
D51*
X131826000Y-94714000D02*
X131310500Y-94714000D01*
D52*
X113202500Y-117937500D02*
X113030000Y-118110000D01*
D51*
X133756000Y-94714000D02*
X131826000Y-94714000D01*
D53*
X117383000Y-106807000D02*
X115443000Y-106807000D01*
X114808000Y-108712000D02*
X114808000Y-107442000D01*
D52*
X113202500Y-116728000D02*
X113202500Y-117937500D01*
%TO.N,+5V*%
X133842000Y-138414000D02*
X128524000Y-133096000D01*
X146558000Y-138414000D02*
X133842000Y-138414000D01*
D51*
X136652000Y-91186000D02*
X137652000Y-92186000D01*
X131818500Y-99314000D02*
X133756000Y-99314000D01*
D52*
X115277500Y-118071500D02*
X115316000Y-118110000D01*
D51*
X130302000Y-97797500D02*
X131818500Y-99314000D01*
D52*
X115277500Y-116728000D02*
X115277500Y-118071500D01*
X115183500Y-119192000D02*
X115316000Y-119059500D01*
X128524000Y-125418500D02*
X133058500Y-120884000D01*
D51*
X137652000Y-92186000D02*
X137922000Y-92186000D01*
D52*
X128524000Y-133096000D02*
X128524000Y-125418500D01*
X115316000Y-119059500D02*
X115316000Y-118110000D01*
%TO.N,Net-(U1-C2+)*%
X107566000Y-91672500D02*
X108349500Y-92456000D01*
X108349500Y-92456000D02*
X110744000Y-92456000D01*
%TO.N,Net-(U1-C2-)*%
X110722500Y-93747500D02*
X110744000Y-93726000D01*
X107566000Y-93747500D02*
X110722500Y-93747500D01*
%TO.N,Net-(U1-VS-)*%
X108814500Y-94996000D02*
X110744000Y-94996000D01*
X107566000Y-96244500D02*
X108814500Y-94996000D01*
%TO.N,Net-(U1-VS+)*%
X110338500Y-85852000D02*
X112522000Y-88035500D01*
X112522000Y-88035500D02*
X112522000Y-88876790D01*
X111482790Y-89916000D02*
X110744000Y-89916000D01*
X112522000Y-88876790D02*
X111482790Y-89916000D01*
D51*
%TO.N,VCC*%
X141097000Y-127867500D02*
X141202500Y-127762000D01*
X141097000Y-131400000D02*
X141097000Y-127867500D01*
D54*
X141202500Y-127762000D02*
X141202500Y-124714000D01*
X139954000Y-120417500D02*
X141202500Y-121666000D01*
X85146000Y-102040000D02*
X88646000Y-98540000D01*
X82296000Y-102040000D02*
X85146000Y-102040000D01*
X138938000Y-115748000D02*
X139954000Y-116764000D01*
X139954000Y-116764000D02*
X139954000Y-120417500D01*
X85250000Y-125730000D02*
X88646000Y-122334000D01*
X141202500Y-124714000D02*
X141202500Y-121666000D01*
X82296000Y-125730000D02*
X85250000Y-125730000D01*
X138938000Y-106426000D02*
X138938000Y-115748000D01*
D51*
%TO.N,M1_DIR*%
X95826000Y-85090000D02*
X104140000Y-85090000D01*
X94996000Y-84260000D02*
X95826000Y-85090000D01*
%TO.N,M1_STEP*%
X94996000Y-86800000D02*
X95826000Y-87630000D01*
X95826000Y-87630000D02*
X104140000Y-87630000D01*
%TO.N,M1_EN*%
X102108000Y-97790000D02*
X104140000Y-97790000D01*
X94996000Y-102040000D02*
X97858000Y-102040000D01*
X97858000Y-102040000D02*
X102108000Y-97790000D01*
D54*
%TO.N,Net-(J2-A2)*%
X75184000Y-97028000D02*
X82228000Y-97028000D01*
D51*
X82228000Y-97028000D02*
X82296000Y-96960000D01*
D54*
%TO.N,Net-(J2-A1)*%
X75184000Y-94528000D02*
X82188000Y-94528000D01*
D51*
X82188000Y-94528000D02*
X82296000Y-94420000D01*
%TO.N,Net-(J2-B1)*%
X82148000Y-92028000D02*
X82296000Y-91880000D01*
D54*
X75184000Y-92028000D02*
X82148000Y-92028000D01*
%TO.N,Net-(J2-B2)*%
X75184000Y-89528000D02*
X82108000Y-89528000D01*
D51*
X82108000Y-89528000D02*
X82296000Y-89340000D01*
%TO.N,M2_DIR*%
X94996000Y-107442000D02*
X102108000Y-100330000D01*
X94996000Y-107950000D02*
X94996000Y-107442000D01*
X102108000Y-100330000D02*
X104140000Y-100330000D01*
%TO.N,M2_STEP*%
X97536000Y-107114000D02*
X101780000Y-102870000D01*
X101780000Y-102870000D02*
X104140000Y-102870000D01*
X95656000Y-110490000D02*
X97536000Y-108610000D01*
X94996000Y-110490000D02*
X95656000Y-110490000D01*
X97536000Y-108610000D02*
X97536000Y-107114000D01*
%TO.N,M2_EN*%
X99314000Y-107876000D02*
X99314000Y-109982000D01*
X97536000Y-123190000D02*
X94996000Y-125730000D01*
X104140000Y-105410000D02*
X101780000Y-105410000D01*
X101780000Y-105410000D02*
X99314000Y-107876000D01*
X97536000Y-111760000D02*
X97536000Y-123190000D01*
X99314000Y-109982000D02*
X97536000Y-111760000D01*
D54*
%TO.N,Net-(J3-A2)*%
X75184000Y-120570000D02*
X82216000Y-120570000D01*
D51*
X82216000Y-120570000D02*
X82296000Y-120650000D01*
D54*
%TO.N,Net-(J3-A1)*%
X75184000Y-118070000D02*
X82256000Y-118070000D01*
D51*
X82256000Y-118070000D02*
X82296000Y-118110000D01*
D54*
%TO.N,Net-(J3-B1)*%
X75184000Y-115570000D02*
X82296000Y-115570000D01*
%TO.N,Net-(J3-B2)*%
X75184000Y-113070000D02*
X82256000Y-113070000D01*
D51*
X82256000Y-113070000D02*
X82296000Y-113030000D01*
%TO.N,LCD_CS*%
X124280000Y-123190000D02*
X125270000Y-124180000D01*
X123698000Y-137668000D02*
X114808000Y-137668000D01*
X125270000Y-136096000D02*
X123698000Y-137668000D01*
X114808000Y-137668000D02*
X113030000Y-135890000D01*
X121920000Y-123190000D02*
X124280000Y-123190000D01*
X125270000Y-124180000D02*
X125270000Y-136096000D01*
D53*
%TO.N,NEOPIXEL*%
X110302000Y-120142000D02*
X109922000Y-120522000D01*
X106172000Y-118110000D02*
X104140000Y-118110000D01*
X112908500Y-120142000D02*
X110302000Y-120142000D01*
X109922000Y-120522000D02*
X108584000Y-120522000D01*
X108584000Y-120522000D02*
X106172000Y-118110000D01*
D51*
%TO.N,BTN_EN1*%
X88900000Y-135890000D02*
X91650000Y-138640000D01*
X104140000Y-132159088D02*
X104140000Y-125730000D01*
X97659088Y-138640000D02*
X104140000Y-132159088D01*
X91650000Y-138640000D02*
X97659088Y-138640000D01*
%TO.N,BTN_EN2*%
X100790000Y-133812032D02*
X97162032Y-137440000D01*
X101780000Y-123190000D02*
X100790000Y-124180000D01*
X104140000Y-123190000D02*
X101780000Y-123190000D01*
X97162032Y-137440000D02*
X92990000Y-137440000D01*
X100790000Y-124180000D02*
X100790000Y-133812032D01*
X92990000Y-137440000D02*
X91440000Y-135890000D01*
%TO.N,LED_SCK*%
X120142000Y-118110000D02*
X121920000Y-118110000D01*
X117602000Y-120650000D02*
X120142000Y-118110000D01*
%TO.N,LCD_MOSI*%
X91440000Y-133350000D02*
X95504000Y-129286000D01*
X117348000Y-115570000D02*
X121920000Y-115570000D01*
%TO.N,BTN_RST*%
X101780000Y-115570000D02*
X104140000Y-115570000D01*
X93980000Y-133350000D02*
X99568000Y-127762000D01*
X99568000Y-117782000D02*
X101780000Y-115570000D01*
X99568000Y-127762000D02*
X99568000Y-117782000D01*
D52*
%TO.N,MOTOR_UART*%
X98536000Y-92710000D02*
X98298000Y-92948000D01*
X92710000Y-96706000D02*
X92710000Y-115824000D01*
D51*
X86868000Y-86292000D02*
X94996000Y-94420000D01*
X86868000Y-79248000D02*
X86868000Y-86292000D01*
D52*
X96468000Y-92948000D02*
X94996000Y-94420000D01*
X104140000Y-92710000D02*
X98536000Y-92710000D01*
D51*
X86614000Y-78994000D02*
X86868000Y-79248000D01*
D52*
X94996000Y-94420000D02*
X92710000Y-96706000D01*
X92710000Y-115824000D02*
X94996000Y-118110000D01*
X98298000Y-92948000D02*
X96468000Y-92948000D01*
%TO.N,SCALE_RXD*%
X135922000Y-77216000D02*
X137668000Y-78962000D01*
D53*
X114554000Y-92456000D02*
X114046000Y-91948000D01*
X118110000Y-80280800D02*
X118110000Y-76708000D01*
X118110000Y-76708000D02*
X119681600Y-75136400D01*
D52*
X134112000Y-77216000D02*
X135922000Y-77216000D01*
D53*
X115694000Y-92456000D02*
X114554000Y-92456000D01*
X119681600Y-75136400D02*
X132032400Y-75136400D01*
X132032400Y-75136400D02*
X134112000Y-77216000D01*
X114046000Y-84344800D02*
X118110000Y-80280800D01*
X114046000Y-91948000D02*
X114046000Y-84344800D01*
%TO.N,SCALE_TXD*%
X119126000Y-88646000D02*
X119126000Y-77214400D01*
D52*
X131032000Y-78962000D02*
X130556000Y-78962000D01*
X134112000Y-82550000D02*
X134112000Y-82042000D01*
D53*
X119126000Y-77214400D02*
X120394400Y-75946000D01*
X116586000Y-91186000D02*
X119126000Y-88646000D01*
D52*
X134112000Y-82042000D02*
X131032000Y-78962000D01*
D53*
X115694000Y-91186000D02*
X116586000Y-91186000D01*
X120394400Y-75946000D02*
X127540000Y-75946000D01*
X127540000Y-75946000D02*
X130556000Y-78962000D01*
D52*
%TO.N,UART1_TX*%
X98298000Y-90948000D02*
X103362000Y-90948000D01*
X103362000Y-90948000D02*
X104140000Y-90170000D01*
D51*
%TO.N,SCALE_UART_TX*%
X97790000Y-77470000D02*
X104140000Y-77470000D01*
D52*
X114231319Y-94706500D02*
X114520819Y-94996000D01*
D51*
X96266000Y-78994000D02*
X97790000Y-77470000D01*
D52*
X109728000Y-83058000D02*
X109728000Y-83820000D01*
X114520819Y-94996000D02*
X115694000Y-94996000D01*
X104140000Y-77470000D02*
X109728000Y-83058000D01*
%TO.N,SCALE_UART_RX*%
X104140000Y-80010000D02*
X108458000Y-84328000D01*
D51*
X93980000Y-81280000D02*
X98298000Y-81280000D01*
D52*
X108458000Y-84328000D02*
X108458000Y-85344000D01*
D51*
X91694000Y-78994000D02*
X93980000Y-81280000D01*
X98298000Y-81280000D02*
X99568000Y-80010000D01*
D52*
X112776000Y-92964000D02*
X113538000Y-93726000D01*
X113538000Y-93726000D02*
X115694000Y-93726000D01*
D51*
X99568000Y-80010000D02*
X104140000Y-80010000D01*
%TO.N,EEPROM_SDA*%
X105342081Y-110490000D02*
X106172000Y-109660081D01*
X104140000Y-110490000D02*
X105342081Y-110490000D01*
X106172000Y-107188000D02*
X107966000Y-105394000D01*
D53*
X110871000Y-105537000D02*
X112233000Y-105537000D01*
X110640500Y-105306500D02*
X110871000Y-105537000D01*
D51*
X107966000Y-105394000D02*
X109220000Y-105394000D01*
X106172000Y-109660081D02*
X106172000Y-107188000D01*
D53*
X109220000Y-105306500D02*
X110640500Y-105306500D01*
D51*
%TO.N,EEPROM_SCL*%
X107442000Y-108712000D02*
X108442000Y-107712000D01*
X108442000Y-107712000D02*
X109220000Y-107712000D01*
D53*
X109220000Y-107799500D02*
X110212500Y-106807000D01*
D51*
X107442000Y-110930081D02*
X107442000Y-108712000D01*
X105342081Y-113030000D02*
X107442000Y-110930081D01*
D53*
X110212500Y-106807000D02*
X112233000Y-106807000D01*
D51*
X104140000Y-113030000D02*
X105342081Y-113030000D01*
%TO.N,+3.3V*%
X115548500Y-85852000D02*
X115548500Y-88500500D01*
D52*
X112233000Y-109347000D02*
X112233000Y-110709000D01*
X112233000Y-110709000D02*
X112268000Y-110744000D01*
D51*
X115548500Y-88500500D02*
X115694000Y-88646000D01*
%TO.N,PICO_RESET_BTN*%
X149949000Y-122972000D02*
X157899000Y-122972000D01*
D52*
%TO.N,Net-(IC1-BOOT)*%
X138326500Y-136824000D02*
X136906000Y-135403500D01*
X139827000Y-136824000D02*
X138326500Y-136824000D01*
%TO.N,Net-(IC1-VSENSE)*%
X143637000Y-136824000D02*
X146148000Y-136824000D01*
X146148000Y-136824000D02*
X146558000Y-136414000D01*
X146558000Y-136414000D02*
X146558000Y-133588000D01*
D51*
%TO.N,NEOPIXEL_5V*%
X108458000Y-128270000D02*
X108458000Y-124460000D01*
X108458000Y-124460000D02*
X109728000Y-123190000D01*
X109728000Y-123190000D02*
X113085500Y-123190000D01*
X111506000Y-129286000D02*
X109474000Y-129286000D01*
X109474000Y-129286000D02*
X108458000Y-128270000D01*
X115570000Y-133350000D02*
X111506000Y-129286000D01*
X113085500Y-123190000D02*
X115183500Y-121092000D01*
D54*
%TO.N,3.3V_REG*%
X133052000Y-90360000D02*
X136144000Y-93452000D01*
D51*
X141732000Y-92186000D02*
X140056000Y-93862000D01*
D54*
X135106000Y-97014000D02*
X133756000Y-97014000D01*
X136144000Y-95976000D02*
X135106000Y-97014000D01*
D51*
X140056000Y-93862000D02*
X140056000Y-97014000D01*
D54*
X136144000Y-93452000D02*
X136144000Y-95976000D01*
X130556000Y-90360000D02*
X133052000Y-90360000D01*
D51*
%TO.N,Net-(D2-A)*%
X141732000Y-90186000D02*
X141732000Y-87639000D01*
%TO.N,Net-(D3-A)*%
X137922000Y-87639000D02*
X137922000Y-90186000D01*
%TO.N,Net-(D4-A)*%
X145288000Y-87639000D02*
X145288000Y-90186000D01*
D52*
%TO.N,RS232_PIN2*%
X149570500Y-95758000D02*
X149530669Y-95797831D01*
X149530669Y-95797831D02*
X149530669Y-105539000D01*
X149530669Y-105539000D02*
X150911669Y-106920000D01*
%TO.N,RS232_PIN3*%
X130556000Y-76962000D02*
X133350000Y-79756000D01*
X133350000Y-79756000D02*
X136462000Y-79756000D01*
X136462000Y-79756000D02*
X137668000Y-80962000D01*
D54*
%TO.N,3.3V_PICO*%
X125984000Y-87630000D02*
X127254000Y-86360000D01*
X121920000Y-87630000D02*
X125984000Y-87630000D01*
X127254000Y-86360000D02*
X130556000Y-86360000D01*
%TD*%
%TA.AperFunction,Conductor*%
%TO.N,3.3V_REG*%
G36*
X142876954Y-93486977D02*
G01*
X142921760Y-93528290D01*
X142941471Y-93585960D01*
X142931326Y-93646055D01*
X142895154Y-93692295D01*
X142894429Y-93692748D01*
X142889876Y-93697075D01*
X142889872Y-93697079D01*
X142751503Y-93828609D01*
X142751497Y-93828615D01*
X142746947Y-93832941D01*
X142743357Y-93838098D01*
X142743356Y-93838100D01*
X142634295Y-93994792D01*
X142634292Y-93994797D01*
X142630705Y-93999951D01*
X142628229Y-94005719D01*
X142628227Y-94005724D01*
X142552939Y-94181163D01*
X142552936Y-94181171D01*
X142550460Y-94186942D01*
X142549194Y-94193100D01*
X142549194Y-94193102D01*
X142510765Y-94380100D01*
X142510764Y-94380106D01*
X142509500Y-94386259D01*
X142509500Y-94392547D01*
X142509500Y-95065770D01*
X142500061Y-95113223D01*
X142473181Y-95153451D01*
X142447393Y-95179238D01*
X142447389Y-95179242D01*
X142442288Y-95184344D01*
X142438503Y-95190480D01*
X142438497Y-95190488D01*
X142353977Y-95327519D01*
X142350186Y-95333666D01*
X142295001Y-95500203D01*
X142294313Y-95506933D01*
X142294312Y-95506940D01*
X142284819Y-95599859D01*
X142284818Y-95599877D01*
X142284500Y-95602991D01*
X142284500Y-95606138D01*
X142284500Y-95606139D01*
X142284500Y-96374858D01*
X142284500Y-96374877D01*
X142284501Y-96378008D01*
X142284820Y-96381140D01*
X142284821Y-96381141D01*
X142294312Y-96474061D01*
X142294313Y-96474069D01*
X142295001Y-96480797D01*
X142350186Y-96647334D01*
X142353977Y-96653480D01*
X142438497Y-96790511D01*
X142438500Y-96790515D01*
X142442288Y-96796656D01*
X142566344Y-96920712D01*
X142572488Y-96924502D01*
X142578157Y-96928984D01*
X142577008Y-96930436D01*
X142612832Y-96967853D01*
X142628559Y-97028281D01*
X142612844Y-97088712D01*
X142577266Y-97125886D01*
X142578471Y-97127410D01*
X142561544Y-97140794D01*
X142447794Y-97254544D01*
X142438890Y-97265805D01*
X142354432Y-97402733D01*
X142348370Y-97415732D01*
X142303374Y-97551523D01*
X142302425Y-97562840D01*
X142313466Y-97565500D01*
X144706534Y-97565500D01*
X144717574Y-97562840D01*
X144716625Y-97551523D01*
X144671629Y-97415732D01*
X144665567Y-97402733D01*
X144581109Y-97265805D01*
X144572205Y-97254544D01*
X144458455Y-97140794D01*
X144441529Y-97127410D01*
X144442735Y-97125883D01*
X144407160Y-97088720D01*
X144391440Y-97028282D01*
X144407171Y-96967846D01*
X144442992Y-96930438D01*
X144441843Y-96928984D01*
X144447509Y-96924503D01*
X144453656Y-96920712D01*
X144577712Y-96796656D01*
X144669814Y-96647334D01*
X144724999Y-96480797D01*
X144735500Y-96378009D01*
X144735499Y-95602992D01*
X144724999Y-95500203D01*
X144669814Y-95333666D01*
X144577712Y-95184344D01*
X144546819Y-95153451D01*
X144519939Y-95113223D01*
X144510500Y-95065770D01*
X144510500Y-94440400D01*
X144510500Y-94437258D01*
X144495074Y-94285562D01*
X144434159Y-94091412D01*
X144335409Y-93913498D01*
X144202866Y-93759105D01*
X144197896Y-93755258D01*
X144197893Y-93755255D01*
X144138677Y-93709418D01*
X144118829Y-93694055D01*
X144081282Y-93646052D01*
X144071138Y-93585958D01*
X144090850Y-93528289D01*
X144135655Y-93486977D01*
X144194731Y-93472000D01*
X145418000Y-93472000D01*
X145480000Y-93488613D01*
X145525387Y-93534000D01*
X145542000Y-93596000D01*
X145542000Y-100460000D01*
X145525387Y-100522000D01*
X145480000Y-100567387D01*
X145418000Y-100584000D01*
X135239656Y-100584000D01*
X135174489Y-100565495D01*
X135128772Y-100515504D01*
X135116150Y-100448947D01*
X135140389Y-100385689D01*
X135157511Y-100362815D01*
X135199796Y-100306331D01*
X135250091Y-100171483D01*
X135256500Y-100111873D01*
X135256499Y-98958518D01*
X138556000Y-98958518D01*
X138556353Y-98965114D01*
X138561573Y-99013667D01*
X138565111Y-99028641D01*
X138609547Y-99147777D01*
X138617962Y-99163189D01*
X138693498Y-99264092D01*
X138705907Y-99276501D01*
X138806810Y-99352037D01*
X138822222Y-99360452D01*
X138941358Y-99404888D01*
X138956332Y-99408426D01*
X139004885Y-99413646D01*
X139011482Y-99414000D01*
X139539674Y-99414000D01*
X139552549Y-99410549D01*
X139556000Y-99397674D01*
X140556000Y-99397674D01*
X140559450Y-99410549D01*
X140572326Y-99414000D01*
X141100518Y-99414000D01*
X141107114Y-99413646D01*
X141155667Y-99408426D01*
X141170641Y-99404888D01*
X141289777Y-99360452D01*
X141305189Y-99352037D01*
X141406092Y-99276501D01*
X141418501Y-99264092D01*
X141494037Y-99163189D01*
X141502452Y-99147777D01*
X141546888Y-99028641D01*
X141550426Y-99013667D01*
X141555646Y-98965114D01*
X141556000Y-98958518D01*
X141556000Y-98568159D01*
X142302425Y-98568159D01*
X142303374Y-98579476D01*
X142348370Y-98715267D01*
X142354432Y-98728266D01*
X142438890Y-98865194D01*
X142447794Y-98876455D01*
X142561544Y-98990205D01*
X142572805Y-98999109D01*
X142709733Y-99083567D01*
X142722732Y-99089629D01*
X142875874Y-99140375D01*
X142889041Y-99143194D01*
X142981890Y-99152680D01*
X142988168Y-99153000D01*
X142993674Y-99153000D01*
X143006549Y-99149549D01*
X143010000Y-99136674D01*
X143010000Y-99136673D01*
X144010000Y-99136673D01*
X144013450Y-99149548D01*
X144026326Y-99152999D01*
X144031829Y-99152999D01*
X144038111Y-99152678D01*
X144130959Y-99143194D01*
X144144122Y-99140376D01*
X144297267Y-99089629D01*
X144310266Y-99083567D01*
X144447194Y-98999109D01*
X144458455Y-98990205D01*
X144572205Y-98876455D01*
X144581109Y-98865194D01*
X144665567Y-98728266D01*
X144671629Y-98715267D01*
X144716625Y-98579476D01*
X144717574Y-98568159D01*
X144706534Y-98565500D01*
X144026326Y-98565500D01*
X144013450Y-98568950D01*
X144010000Y-98581826D01*
X144010000Y-99136673D01*
X143010000Y-99136673D01*
X143010000Y-98581826D01*
X143006549Y-98568950D01*
X142993674Y-98565500D01*
X142313466Y-98565500D01*
X142302425Y-98568159D01*
X141556000Y-98568159D01*
X141556000Y-97530326D01*
X141552549Y-97517450D01*
X141539674Y-97514000D01*
X140572326Y-97514000D01*
X140559450Y-97517450D01*
X140556000Y-97530326D01*
X140556000Y-99397674D01*
X139556000Y-99397674D01*
X139556000Y-97530326D01*
X139552549Y-97517450D01*
X139539674Y-97514000D01*
X138572326Y-97514000D01*
X138559450Y-97517450D01*
X138556000Y-97530326D01*
X138556000Y-98958518D01*
X135256499Y-98958518D01*
X135256499Y-98516128D01*
X135250091Y-98456517D01*
X135199796Y-98321669D01*
X135137082Y-98237894D01*
X135115183Y-98189941D01*
X135115183Y-98137225D01*
X135137082Y-98089272D01*
X135194037Y-98013189D01*
X135202452Y-97997777D01*
X135246888Y-97878641D01*
X135250426Y-97863667D01*
X135255646Y-97815114D01*
X135256000Y-97808518D01*
X135256000Y-97530326D01*
X135252549Y-97517450D01*
X135239674Y-97514000D01*
X133380000Y-97514000D01*
X133318000Y-97497387D01*
X133272613Y-97452000D01*
X133256000Y-97390000D01*
X133256000Y-96638000D01*
X133272613Y-96576000D01*
X133318000Y-96530613D01*
X133380000Y-96514000D01*
X135239674Y-96514000D01*
X135252549Y-96510549D01*
X135256000Y-96497674D01*
X138556000Y-96497674D01*
X138559450Y-96510549D01*
X138572326Y-96514000D01*
X139539674Y-96514000D01*
X139552549Y-96510549D01*
X139556000Y-96497674D01*
X140556000Y-96497674D01*
X140559450Y-96510549D01*
X140572326Y-96514000D01*
X141539674Y-96514000D01*
X141552549Y-96510549D01*
X141556000Y-96497674D01*
X141556000Y-95069482D01*
X141555646Y-95062885D01*
X141550426Y-95014332D01*
X141546888Y-94999358D01*
X141502452Y-94880222D01*
X141494037Y-94864810D01*
X141418501Y-94763907D01*
X141406092Y-94751498D01*
X141305189Y-94675962D01*
X141289777Y-94667547D01*
X141170641Y-94623111D01*
X141155667Y-94619573D01*
X141107114Y-94614353D01*
X141100518Y-94614000D01*
X140572326Y-94614000D01*
X140559450Y-94617450D01*
X140556000Y-94630326D01*
X140556000Y-96497674D01*
X139556000Y-96497674D01*
X139556000Y-94630326D01*
X139552549Y-94617450D01*
X139539674Y-94614000D01*
X139011482Y-94614000D01*
X139004885Y-94614353D01*
X138956332Y-94619573D01*
X138941358Y-94623111D01*
X138822222Y-94667547D01*
X138806810Y-94675962D01*
X138705907Y-94751498D01*
X138693498Y-94763907D01*
X138617962Y-94864810D01*
X138609547Y-94880222D01*
X138565111Y-94999358D01*
X138561573Y-95014332D01*
X138556353Y-95062885D01*
X138556000Y-95069482D01*
X138556000Y-96497674D01*
X135256000Y-96497674D01*
X135256000Y-96219482D01*
X135255646Y-96212885D01*
X135250426Y-96164332D01*
X135246888Y-96149358D01*
X135202452Y-96030222D01*
X135194037Y-96014810D01*
X135137082Y-95938727D01*
X135115183Y-95890774D01*
X135115183Y-95838057D01*
X135137083Y-95790104D01*
X135193681Y-95714500D01*
X135199796Y-95706331D01*
X135250091Y-95571483D01*
X135256500Y-95511873D01*
X135256499Y-93916128D01*
X135250091Y-93856517D01*
X135199796Y-93721669D01*
X135194481Y-93714569D01*
X135194480Y-93714567D01*
X135161350Y-93670312D01*
X135137110Y-93607053D01*
X135149732Y-93540496D01*
X135195449Y-93490505D01*
X135260616Y-93472000D01*
X142817878Y-93472000D01*
X142876954Y-93486977D01*
G37*
%TD.AperFunction*%
%TD*%
%TA.AperFunction,Conductor*%
%TO.N,/PH_NET*%
G36*
X137675262Y-116075196D02*
G01*
X137724515Y-116108622D01*
X137747977Y-116152634D01*
X137749706Y-116152030D01*
X137751541Y-116157276D01*
X137752904Y-116162683D01*
X137755208Y-116167757D01*
X137757047Y-116173011D01*
X137757017Y-116173021D01*
X137759041Y-116178601D01*
X137759069Y-116178591D01*
X137761027Y-116183808D01*
X137762507Y-116189170D01*
X137764920Y-116194182D01*
X137764921Y-116194183D01*
X137804657Y-116276699D01*
X137805835Y-116279217D01*
X137845993Y-116367626D01*
X137849164Y-116372203D01*
X137851912Y-116377046D01*
X137851884Y-116377061D01*
X137854871Y-116382189D01*
X137854898Y-116382174D01*
X137857754Y-116386955D01*
X137860171Y-116391973D01*
X137863442Y-116396476D01*
X137863445Y-116396480D01*
X137917259Y-116470549D01*
X137918859Y-116472804D01*
X137974180Y-116552654D01*
X137978122Y-116556596D01*
X137981687Y-116560866D01*
X137981662Y-116560886D01*
X137985520Y-116565403D01*
X137985545Y-116565383D01*
X137989201Y-116569568D01*
X137992478Y-116574078D01*
X137996502Y-116577925D01*
X138062699Y-116641216D01*
X138064688Y-116643162D01*
X138367681Y-116946155D01*
X138394561Y-116986383D01*
X138404000Y-117033836D01*
X138404000Y-119697674D01*
X138407450Y-119710549D01*
X138420326Y-119714000D01*
X138579500Y-119714000D01*
X138641500Y-119730613D01*
X138686887Y-119776000D01*
X138703500Y-119838000D01*
X138703500Y-120340315D01*
X138702720Y-120354197D01*
X138698762Y-120389327D01*
X138699136Y-120394877D01*
X138699136Y-120394887D01*
X138703219Y-120455433D01*
X138703500Y-120463774D01*
X138703500Y-120473655D01*
X138703747Y-120476400D01*
X138703748Y-120476421D01*
X138707153Y-120514249D01*
X138707371Y-120517021D01*
X138713904Y-120613912D01*
X138715265Y-120619313D01*
X138716136Y-120624813D01*
X138716105Y-120624817D01*
X138717099Y-120630665D01*
X138717129Y-120630660D01*
X138718123Y-120636142D01*
X138718623Y-120641688D01*
X138720103Y-120647053D01*
X138720105Y-120647060D01*
X138744465Y-120735324D01*
X138745175Y-120738014D01*
X138767541Y-120826776D01*
X138767542Y-120826781D01*
X138768904Y-120832183D01*
X138771207Y-120837255D01*
X138773047Y-120842511D01*
X138773017Y-120842521D01*
X138775041Y-120848101D01*
X138775069Y-120848091D01*
X138777027Y-120853308D01*
X138778507Y-120858670D01*
X138780920Y-120863682D01*
X138780921Y-120863683D01*
X138820657Y-120946199D01*
X138821835Y-120948717D01*
X138861993Y-121037126D01*
X138865164Y-121041703D01*
X138867912Y-121046546D01*
X138867884Y-121046561D01*
X138870871Y-121051689D01*
X138870898Y-121051674D01*
X138873754Y-121056455D01*
X138876171Y-121061473D01*
X138879442Y-121065976D01*
X138879445Y-121065980D01*
X138933259Y-121140049D01*
X138934859Y-121142304D01*
X138990180Y-121222154D01*
X138994122Y-121226096D01*
X138997687Y-121230366D01*
X138997662Y-121230386D01*
X139001520Y-121234903D01*
X139001545Y-121234883D01*
X139005201Y-121239068D01*
X139008478Y-121243578D01*
X139012502Y-121247425D01*
X139078699Y-121310716D01*
X139080688Y-121312662D01*
X139915681Y-122147655D01*
X139942561Y-122187883D01*
X139952000Y-122235336D01*
X139952000Y-124601453D01*
X139952000Y-127818155D01*
X139952247Y-127820903D01*
X139952248Y-127820918D01*
X139966623Y-127980639D01*
X139966624Y-127980645D01*
X139967123Y-127986188D01*
X139968603Y-127991553D01*
X139968605Y-127991560D01*
X140025524Y-128197798D01*
X140027007Y-128203170D01*
X140029425Y-128208191D01*
X140084220Y-128321975D01*
X140096500Y-128375776D01*
X140096500Y-131450742D01*
X140096816Y-131453853D01*
X140096817Y-131453865D01*
X140110504Y-131588455D01*
X140098468Y-131655609D01*
X140052732Y-131706232D01*
X139987140Y-131725000D01*
X139018326Y-131725000D01*
X139005450Y-131728450D01*
X139002000Y-131741326D01*
X139002000Y-132207018D01*
X139002353Y-132213614D01*
X139007573Y-132262167D01*
X139011111Y-132277141D01*
X139055547Y-132396277D01*
X139063962Y-132411689D01*
X139139498Y-132512592D01*
X139151907Y-132525001D01*
X139252810Y-132600537D01*
X139268222Y-132608952D01*
X139387358Y-132653388D01*
X139402332Y-132656926D01*
X139450885Y-132662146D01*
X139457482Y-132662500D01*
X139557500Y-132662500D01*
X139619500Y-132679113D01*
X139664887Y-132724500D01*
X139681500Y-132786500D01*
X139681500Y-133734000D01*
X139664887Y-133796000D01*
X139619500Y-133841387D01*
X139557500Y-133858000D01*
X138192250Y-133858000D01*
X138149205Y-133850289D01*
X138118847Y-133832429D01*
X138102534Y-133828500D01*
X135709466Y-133828500D01*
X135693152Y-133832429D01*
X135662795Y-133850289D01*
X135619750Y-133858000D01*
X130583991Y-133858000D01*
X130536538Y-133848561D01*
X130496310Y-133821681D01*
X130202450Y-133527821D01*
X131325808Y-133527821D01*
X131335259Y-133534382D01*
X131443858Y-133574888D01*
X131458832Y-133578426D01*
X131507385Y-133583646D01*
X131513982Y-133584000D01*
X134603018Y-133584000D01*
X134609614Y-133583646D01*
X134658169Y-133578426D01*
X134673138Y-133574889D01*
X134781742Y-133534382D01*
X134791190Y-133527821D01*
X134785320Y-133517927D01*
X134093233Y-132825840D01*
X135698425Y-132825840D01*
X135709466Y-132828500D01*
X136389674Y-132828500D01*
X136402549Y-132825049D01*
X136406000Y-132812174D01*
X137406000Y-132812174D01*
X137409450Y-132825049D01*
X137422326Y-132828500D01*
X138102534Y-132828500D01*
X138113574Y-132825840D01*
X138112625Y-132814523D01*
X138067629Y-132678732D01*
X138061567Y-132665733D01*
X137977109Y-132528805D01*
X137968205Y-132517544D01*
X137854455Y-132403794D01*
X137843194Y-132394890D01*
X137706266Y-132310432D01*
X137693267Y-132304370D01*
X137540125Y-132253624D01*
X137526958Y-132250805D01*
X137434109Y-132241319D01*
X137427832Y-132241000D01*
X137422326Y-132241000D01*
X137409450Y-132244450D01*
X137406000Y-132257326D01*
X137406000Y-132812174D01*
X136406000Y-132812174D01*
X136406000Y-132257327D01*
X136402549Y-132244451D01*
X136389674Y-132241001D01*
X136384171Y-132241001D01*
X136377888Y-132241321D01*
X136285040Y-132250805D01*
X136271877Y-132253623D01*
X136118732Y-132304370D01*
X136105733Y-132310432D01*
X135968805Y-132394890D01*
X135957544Y-132403794D01*
X135843794Y-132517544D01*
X135834890Y-132528805D01*
X135750432Y-132665733D01*
X135744370Y-132678732D01*
X135699374Y-132814523D01*
X135698425Y-132825840D01*
X134093233Y-132825840D01*
X133070042Y-131802649D01*
X133058499Y-131795985D01*
X133046957Y-131802649D01*
X131331678Y-133517927D01*
X131325808Y-133527821D01*
X130202450Y-133527821D01*
X129441819Y-132767190D01*
X129414939Y-132726962D01*
X129405500Y-132679509D01*
X129405500Y-132362217D01*
X131058500Y-132362217D01*
X131060730Y-132371507D01*
X131068877Y-132366515D01*
X132339850Y-131095542D01*
X132346513Y-131084000D01*
X133770485Y-131084000D01*
X133777149Y-131095542D01*
X135048122Y-132366515D01*
X135056269Y-132371507D01*
X135058500Y-132362217D01*
X135058500Y-131058674D01*
X139002000Y-131058674D01*
X139005450Y-131071549D01*
X139018326Y-131075000D01*
X139485674Y-131075000D01*
X139498549Y-131071549D01*
X139502000Y-131058674D01*
X139502000Y-130153826D01*
X139498549Y-130140950D01*
X139485674Y-130137500D01*
X139457482Y-130137500D01*
X139450885Y-130137853D01*
X139402332Y-130143073D01*
X139387358Y-130146611D01*
X139268222Y-130191047D01*
X139252810Y-130199462D01*
X139151907Y-130274998D01*
X139139498Y-130287407D01*
X139063962Y-130388310D01*
X139055547Y-130403722D01*
X139011111Y-130522858D01*
X139007573Y-130537832D01*
X139002353Y-130586385D01*
X139002000Y-130592982D01*
X139002000Y-131058674D01*
X135058500Y-131058674D01*
X135058500Y-129805783D01*
X135056269Y-129796492D01*
X135048122Y-129801484D01*
X133777149Y-131072457D01*
X133770485Y-131084000D01*
X132346513Y-131084000D01*
X132346514Y-131083999D01*
X132339850Y-131072457D01*
X131068877Y-129801484D01*
X131060730Y-129796492D01*
X131058500Y-129805783D01*
X131058500Y-132362217D01*
X129405500Y-132362217D01*
X129405500Y-128640177D01*
X131325808Y-128640177D01*
X131331678Y-128650071D01*
X133046957Y-130365350D01*
X133058500Y-130372014D01*
X133070042Y-130365350D01*
X134785320Y-128650071D01*
X134791190Y-128640177D01*
X134781739Y-128633616D01*
X134673142Y-128593112D01*
X134658167Y-128589573D01*
X134609614Y-128584353D01*
X134603018Y-128584000D01*
X131513982Y-128584000D01*
X131507385Y-128584353D01*
X131458832Y-128589573D01*
X131443857Y-128593112D01*
X131335258Y-128633616D01*
X131325808Y-128640177D01*
X129405500Y-128640177D01*
X129405500Y-126359500D01*
X129422113Y-126297500D01*
X129467500Y-126252113D01*
X129529500Y-126235500D01*
X135253947Y-126235500D01*
X135258000Y-126235500D01*
X135388834Y-126218275D01*
X135450834Y-126201662D01*
X135572750Y-126151163D01*
X135677442Y-126070829D01*
X135722829Y-126025442D01*
X135803163Y-125920750D01*
X135853662Y-125798834D01*
X135870275Y-125736834D01*
X135887500Y-125606000D01*
X135887500Y-119258518D01*
X136504000Y-119258518D01*
X136504353Y-119265114D01*
X136509573Y-119313667D01*
X136513111Y-119328641D01*
X136557547Y-119447777D01*
X136565962Y-119463189D01*
X136641498Y-119564092D01*
X136653907Y-119576501D01*
X136754810Y-119652037D01*
X136770222Y-119660452D01*
X136889358Y-119704888D01*
X136904332Y-119708426D01*
X136952885Y-119713646D01*
X136959482Y-119714000D01*
X137387674Y-119714000D01*
X137400549Y-119710549D01*
X137404000Y-119697674D01*
X137404000Y-118880326D01*
X137400549Y-118867450D01*
X137387674Y-118864000D01*
X136520326Y-118864000D01*
X136507450Y-118867450D01*
X136504000Y-118880326D01*
X136504000Y-119258518D01*
X135887500Y-119258518D01*
X135887500Y-117847674D01*
X136504000Y-117847674D01*
X136507450Y-117860549D01*
X136520326Y-117864000D01*
X137387674Y-117864000D01*
X137400549Y-117860549D01*
X137404000Y-117847674D01*
X137404000Y-117030326D01*
X137400549Y-117017450D01*
X137387674Y-117014000D01*
X136959482Y-117014000D01*
X136952885Y-117014353D01*
X136904332Y-117019573D01*
X136889358Y-117023111D01*
X136770222Y-117067547D01*
X136754810Y-117075962D01*
X136653907Y-117151498D01*
X136641498Y-117163907D01*
X136565962Y-117264810D01*
X136557547Y-117280222D01*
X136513111Y-117399358D01*
X136509573Y-117414332D01*
X136504353Y-117462885D01*
X136504000Y-117469482D01*
X136504000Y-117847674D01*
X135887500Y-117847674D01*
X135887500Y-116199500D01*
X135904113Y-116137500D01*
X135949500Y-116092113D01*
X136011500Y-116075500D01*
X137559447Y-116075500D01*
X137563500Y-116075500D01*
X137616106Y-116068574D01*
X137675262Y-116075196D01*
G37*
%TD.AperFunction*%
%TD*%
%TA.AperFunction,Conductor*%
%TO.N,+5V*%
G36*
X138622000Y-101108613D02*
G01*
X138667387Y-101154000D01*
X138684000Y-101216000D01*
X138684000Y-102096089D01*
X138670403Y-102152544D01*
X138632593Y-102196619D01*
X138578863Y-102218646D01*
X138520996Y-102213795D01*
X138375625Y-102165624D01*
X138362458Y-102162805D01*
X138296307Y-102156047D01*
X138282780Y-102158466D01*
X138279000Y-102171675D01*
X138279000Y-104584324D01*
X138282780Y-104597533D01*
X138296307Y-104599951D01*
X138362459Y-104593194D01*
X138375624Y-104590375D01*
X138520996Y-104542205D01*
X138578863Y-104537354D01*
X138632593Y-104559381D01*
X138670403Y-104603456D01*
X138684000Y-104659911D01*
X138684000Y-105103585D01*
X138673279Y-105154023D01*
X138642968Y-105195739D01*
X138598312Y-105221517D01*
X138590196Y-105224154D01*
X138585821Y-105225576D01*
X138579606Y-105227416D01*
X138513907Y-105245020D01*
X138513889Y-105245026D01*
X138508670Y-105246425D01*
X138503771Y-105248709D01*
X138503761Y-105248713D01*
X138485692Y-105257139D01*
X138471612Y-105262685D01*
X138449837Y-105269760D01*
X138449831Y-105269762D01*
X138444536Y-105271483D01*
X138439633Y-105274121D01*
X138439629Y-105274123D01*
X138380161Y-105306124D01*
X138373809Y-105309310D01*
X138315268Y-105336608D01*
X138315247Y-105336619D01*
X138310362Y-105338898D01*
X138305942Y-105341992D01*
X138305933Y-105341998D01*
X138286778Y-105355410D01*
X138274425Y-105363022D01*
X138251224Y-105375508D01*
X138251220Y-105375510D01*
X138246319Y-105378148D01*
X138241971Y-105381615D01*
X138241967Y-105381618D01*
X138191830Y-105421600D01*
X138185645Y-105426224D01*
X138135559Y-105461295D01*
X138135552Y-105461300D01*
X138131123Y-105464402D01*
X138127297Y-105468227D01*
X138127286Y-105468237D01*
X138108327Y-105487195D01*
X138097967Y-105496454D01*
X138074683Y-105515023D01*
X138074678Y-105515026D01*
X138070334Y-105518492D01*
X138066679Y-105522674D01*
X138066672Y-105522682D01*
X138026738Y-105568389D01*
X138021042Y-105574481D01*
X137980229Y-105615295D01*
X137980224Y-105615300D01*
X137976402Y-105619123D01*
X137973299Y-105623553D01*
X137973300Y-105623553D01*
X137955944Y-105648338D01*
X137947756Y-105658791D01*
X137925898Y-105683810D01*
X137925892Y-105683817D01*
X137922235Y-105688004D01*
X137919381Y-105692780D01*
X137919380Y-105692782D01*
X137890009Y-105741938D01*
X137885140Y-105749455D01*
X137854003Y-105793925D01*
X137853995Y-105793938D01*
X137850898Y-105798362D01*
X137848612Y-105803263D01*
X137848612Y-105803264D01*
X137834371Y-105833801D01*
X137828441Y-105844986D01*
X137809642Y-105876453D01*
X137809639Y-105876457D01*
X137806785Y-105881236D01*
X137804832Y-105886439D01*
X137804826Y-105886452D01*
X137785917Y-105936833D01*
X137782208Y-105945662D01*
X137760712Y-105991761D01*
X137760704Y-105991780D01*
X137758425Y-105996670D01*
X137757026Y-106001888D01*
X137757025Y-106001893D01*
X137747416Y-106037754D01*
X137743736Y-106049226D01*
X137729651Y-106086756D01*
X137729648Y-106086766D01*
X137727693Y-106091976D01*
X137726700Y-106097445D01*
X137726698Y-106097454D01*
X137717700Y-106147035D01*
X137715469Y-106156976D01*
X137701793Y-106208023D01*
X137701321Y-106213414D01*
X137701321Y-106213416D01*
X137697786Y-106253814D01*
X137696266Y-106265143D01*
X137687500Y-106313453D01*
X137687500Y-106319019D01*
X137687500Y-106365985D01*
X137687027Y-106376792D01*
X137682723Y-106426000D01*
X137683195Y-106431395D01*
X137687028Y-106475208D01*
X137687500Y-106486015D01*
X137687500Y-115446000D01*
X137670887Y-115508000D01*
X137625500Y-115553387D01*
X137563500Y-115570000D01*
X135382000Y-115570000D01*
X135382000Y-115586326D01*
X135382000Y-125606000D01*
X135365387Y-125668000D01*
X135320000Y-125713387D01*
X135258000Y-125730000D01*
X129410000Y-125730000D01*
X129348000Y-125713387D01*
X129302613Y-125668000D01*
X129286000Y-125606000D01*
X129286000Y-123268883D01*
X131244831Y-123268883D01*
X131253149Y-123279994D01*
X131309308Y-123322036D01*
X131324721Y-123330452D01*
X131443858Y-123374888D01*
X131458832Y-123378426D01*
X131507385Y-123383646D01*
X131513982Y-123384000D01*
X134603018Y-123384000D01*
X134609614Y-123383646D01*
X134658167Y-123378426D01*
X134673141Y-123374888D01*
X134792279Y-123330452D01*
X134807688Y-123322038D01*
X134863849Y-123279994D01*
X134872167Y-123268882D01*
X134865515Y-123256700D01*
X133070042Y-121461227D01*
X133058500Y-121454563D01*
X133046957Y-121461227D01*
X131251483Y-123256700D01*
X131244831Y-123268883D01*
X129286000Y-123268883D01*
X129286000Y-122303639D01*
X131058500Y-122303639D01*
X131060730Y-122312929D01*
X131068877Y-122307937D01*
X132481272Y-120895542D01*
X132487936Y-120884000D01*
X133629063Y-120884000D01*
X133635727Y-120895542D01*
X135048122Y-122307937D01*
X135056269Y-122312929D01*
X135058500Y-122303639D01*
X135058500Y-119464361D01*
X135056269Y-119455070D01*
X135048122Y-119460062D01*
X133635727Y-120872457D01*
X133629063Y-120884000D01*
X132487936Y-120884000D01*
X132481272Y-120872457D01*
X131068877Y-119460062D01*
X131060730Y-119455070D01*
X131058500Y-119464361D01*
X131058500Y-122303639D01*
X129286000Y-122303639D01*
X129286000Y-118499116D01*
X131244830Y-118499116D01*
X131251482Y-118511297D01*
X133046957Y-120306772D01*
X133058500Y-120313436D01*
X133070042Y-120306772D01*
X134865516Y-118511297D01*
X134872168Y-118499116D01*
X134863849Y-118488004D01*
X134807691Y-118445963D01*
X134792278Y-118437547D01*
X134673141Y-118393111D01*
X134658167Y-118389573D01*
X134609614Y-118384353D01*
X134603018Y-118384000D01*
X131513982Y-118384000D01*
X131507385Y-118384353D01*
X131458832Y-118389573D01*
X131443858Y-118393111D01*
X131324722Y-118437547D01*
X131309310Y-118445962D01*
X131253148Y-118488005D01*
X131244830Y-118499116D01*
X129286000Y-118499116D01*
X129286000Y-112044829D01*
X132038001Y-112044829D01*
X132038321Y-112051111D01*
X132047805Y-112143959D01*
X132050623Y-112157122D01*
X132101370Y-112310267D01*
X132107432Y-112323266D01*
X132191890Y-112460194D01*
X132200794Y-112471455D01*
X132314544Y-112585205D01*
X132325805Y-112594109D01*
X132462733Y-112678567D01*
X132475732Y-112684629D01*
X132628874Y-112735375D01*
X132642041Y-112738194D01*
X132734890Y-112747680D01*
X132741168Y-112748000D01*
X134321674Y-112748000D01*
X134334549Y-112744549D01*
X134338000Y-112731674D01*
X134338000Y-112731673D01*
X135138000Y-112731673D01*
X135141450Y-112744548D01*
X135154326Y-112747999D01*
X136734829Y-112747999D01*
X136741111Y-112747678D01*
X136833959Y-112738194D01*
X136847122Y-112735376D01*
X137000267Y-112684629D01*
X137013266Y-112678567D01*
X137150194Y-112594109D01*
X137161455Y-112585205D01*
X137275205Y-112471455D01*
X137284109Y-112460194D01*
X137368567Y-112323266D01*
X137374629Y-112310267D01*
X137425375Y-112157125D01*
X137428194Y-112143958D01*
X137437680Y-112051109D01*
X137438000Y-112044832D01*
X137438000Y-111414326D01*
X137434549Y-111401450D01*
X137421674Y-111398000D01*
X135154326Y-111398000D01*
X135141450Y-111401450D01*
X135138000Y-111414326D01*
X135138000Y-112731673D01*
X134338000Y-112731673D01*
X134338000Y-111414326D01*
X134334549Y-111401450D01*
X134321674Y-111398000D01*
X132054327Y-111398000D01*
X132041451Y-111401450D01*
X132038001Y-111414326D01*
X132038001Y-112044829D01*
X129286000Y-112044829D01*
X129286000Y-110581674D01*
X132038000Y-110581674D01*
X132041450Y-110594549D01*
X132054326Y-110598000D01*
X134321674Y-110598000D01*
X134334549Y-110594549D01*
X134338000Y-110581674D01*
X135138000Y-110581674D01*
X135141450Y-110594549D01*
X135154326Y-110598000D01*
X137421673Y-110598000D01*
X137434548Y-110594549D01*
X137437999Y-110581674D01*
X137437999Y-109951171D01*
X137437678Y-109944888D01*
X137428194Y-109852040D01*
X137425376Y-109838877D01*
X137374629Y-109685732D01*
X137368567Y-109672733D01*
X137284109Y-109535805D01*
X137275205Y-109524544D01*
X137161455Y-109410794D01*
X137150194Y-109401890D01*
X137013266Y-109317432D01*
X137000267Y-109311370D01*
X136847125Y-109260624D01*
X136833958Y-109257805D01*
X136741109Y-109248319D01*
X136734832Y-109248000D01*
X135154326Y-109248000D01*
X135141450Y-109251450D01*
X135138000Y-109264326D01*
X135138000Y-110581674D01*
X134338000Y-110581674D01*
X134338000Y-109264327D01*
X134334549Y-109251451D01*
X134321674Y-109248001D01*
X132741171Y-109248001D01*
X132734888Y-109248321D01*
X132642040Y-109257805D01*
X132628877Y-109260623D01*
X132475732Y-109311370D01*
X132462733Y-109317432D01*
X132325805Y-109401890D01*
X132314544Y-109410794D01*
X132200794Y-109524544D01*
X132191890Y-109535805D01*
X132107432Y-109672733D01*
X132101370Y-109685732D01*
X132050624Y-109838874D01*
X132047805Y-109852041D01*
X132038319Y-109944890D01*
X132038000Y-109951168D01*
X132038000Y-110581674D01*
X129286000Y-110581674D01*
X129286000Y-103899829D01*
X136791501Y-103899829D01*
X136791821Y-103906111D01*
X136801305Y-103998959D01*
X136804123Y-104012122D01*
X136854870Y-104165267D01*
X136860932Y-104178266D01*
X136945390Y-104315194D01*
X136954294Y-104326455D01*
X137068044Y-104440205D01*
X137079305Y-104449109D01*
X137216233Y-104533567D01*
X137229232Y-104539629D01*
X137382374Y-104590375D01*
X137395541Y-104593194D01*
X137461692Y-104599952D01*
X137475219Y-104597533D01*
X137479000Y-104584325D01*
X137479000Y-103794326D01*
X137475549Y-103781450D01*
X137462674Y-103778000D01*
X136807827Y-103778000D01*
X136794951Y-103781450D01*
X136791501Y-103794326D01*
X136791501Y-103899829D01*
X129286000Y-103899829D01*
X129286000Y-102961674D01*
X136791500Y-102961674D01*
X136794950Y-102974549D01*
X136807826Y-102978000D01*
X137462674Y-102978000D01*
X137475549Y-102974549D01*
X137479000Y-102961674D01*
X137479000Y-102171676D01*
X137475219Y-102158466D01*
X137461692Y-102156048D01*
X137395540Y-102162805D01*
X137382375Y-102165624D01*
X137229232Y-102216370D01*
X137216233Y-102222432D01*
X137079305Y-102306890D01*
X137068044Y-102315794D01*
X136954294Y-102429544D01*
X136945390Y-102440805D01*
X136860932Y-102577733D01*
X136854870Y-102590732D01*
X136804124Y-102743874D01*
X136801305Y-102757041D01*
X136791819Y-102849890D01*
X136791500Y-102856168D01*
X136791500Y-102961674D01*
X129286000Y-102961674D01*
X129286000Y-101216000D01*
X129302613Y-101154000D01*
X129348000Y-101108613D01*
X129410000Y-101092000D01*
X138560000Y-101092000D01*
X138622000Y-101108613D01*
G37*
%TD.AperFunction*%
%TD*%
%TA.AperFunction,Conductor*%
%TO.N,GND*%
G36*
X140716000Y-102283640D02*
G01*
X140616766Y-102222432D01*
X140603767Y-102216370D01*
X140450625Y-102165624D01*
X140437458Y-102162805D01*
X140371307Y-102156047D01*
X140357780Y-102158466D01*
X140354000Y-102171675D01*
X140354000Y-104584324D01*
X140357780Y-104597533D01*
X140371307Y-104599951D01*
X140437459Y-104593194D01*
X140450624Y-104590375D01*
X140603767Y-104539629D01*
X140616766Y-104533567D01*
X140716000Y-104472359D01*
X140716000Y-105156000D01*
X139192000Y-105156000D01*
X139192000Y-104472360D01*
X139291233Y-104533567D01*
X139304232Y-104539629D01*
X139457374Y-104590375D01*
X139470541Y-104593194D01*
X139536692Y-104599952D01*
X139550219Y-104597533D01*
X139554000Y-104584325D01*
X139554000Y-102171676D01*
X139550219Y-102158466D01*
X139536692Y-102156048D01*
X139470540Y-102162805D01*
X139457375Y-102165624D01*
X139304232Y-102216370D01*
X139291233Y-102222432D01*
X139192000Y-102283639D01*
X139192000Y-101092000D01*
X140716000Y-101092000D01*
X140716000Y-102283640D01*
G37*
%TD.AperFunction*%
%TD*%
%TA.AperFunction,Conductor*%
%TO.N,GND*%
G36*
X148020000Y-101108613D02*
G01*
X148065387Y-101154000D01*
X148082000Y-101216000D01*
X148082000Y-132464000D01*
X148065387Y-132526000D01*
X148020000Y-132571387D01*
X147958000Y-132588000D01*
X147710446Y-132588000D01*
X147647667Y-132570934D01*
X147602169Y-132524432D01*
X147586476Y-132461295D01*
X147604907Y-132398903D01*
X147688567Y-132263266D01*
X147694629Y-132250267D01*
X147745375Y-132097125D01*
X147748194Y-132083958D01*
X147756229Y-132005307D01*
X147753810Y-131991780D01*
X147740602Y-131988000D01*
X145375399Y-131988000D01*
X145362189Y-131991780D01*
X145359771Y-132005307D01*
X145367805Y-132083959D01*
X145370624Y-132097124D01*
X145421370Y-132250267D01*
X145427432Y-132263266D01*
X145511093Y-132398903D01*
X145529524Y-132461295D01*
X145513831Y-132524432D01*
X145468333Y-132570934D01*
X145405554Y-132588000D01*
X145288000Y-132588000D01*
X145288000Y-132604326D01*
X145288000Y-135512000D01*
X145271387Y-135574000D01*
X145226000Y-135619387D01*
X145164000Y-135636000D01*
X144266853Y-135636000D01*
X144209069Y-135621251D01*
X144204331Y-135617704D01*
X144196027Y-135614606D01*
X144196022Y-135614604D01*
X144076752Y-135570120D01*
X144076750Y-135570119D01*
X144069483Y-135567409D01*
X144061770Y-135566579D01*
X144061767Y-135566579D01*
X144013180Y-135561355D01*
X144013169Y-135561354D01*
X144009873Y-135561000D01*
X144006551Y-135561000D01*
X143906000Y-135561000D01*
X143844000Y-135544387D01*
X143798613Y-135499000D01*
X143782000Y-135437000D01*
X143782000Y-134528326D01*
X143778549Y-134515450D01*
X143765674Y-134512000D01*
X141456000Y-134512000D01*
X141394000Y-134495387D01*
X141348613Y-134450000D01*
X141332000Y-134388000D01*
X141332000Y-133836000D01*
X141348613Y-133774000D01*
X141394000Y-133728613D01*
X141456000Y-133712000D01*
X143765674Y-133712000D01*
X143778549Y-133708549D01*
X143782000Y-133695674D01*
X143782000Y-132786999D01*
X143798613Y-132724999D01*
X143844000Y-132679612D01*
X143905999Y-132662999D01*
X144009872Y-132662999D01*
X144069483Y-132656591D01*
X144204331Y-132606296D01*
X144319546Y-132520046D01*
X144405796Y-132404831D01*
X144456091Y-132269983D01*
X144462500Y-132210373D01*
X144462499Y-131170692D01*
X145359770Y-131170692D01*
X145362189Y-131184219D01*
X145375398Y-131188000D01*
X146141674Y-131188000D01*
X146154549Y-131184549D01*
X146158000Y-131171674D01*
X146958000Y-131171674D01*
X146961450Y-131184549D01*
X146974326Y-131188000D01*
X147740601Y-131188000D01*
X147753810Y-131184219D01*
X147756228Y-131170692D01*
X147748194Y-131092040D01*
X147745375Y-131078875D01*
X147694629Y-130925732D01*
X147688567Y-130912733D01*
X147604109Y-130775805D01*
X147595205Y-130764544D01*
X147481455Y-130650794D01*
X147470194Y-130641890D01*
X147333266Y-130557432D01*
X147320267Y-130551370D01*
X147167125Y-130500624D01*
X147153958Y-130497805D01*
X147061109Y-130488319D01*
X147054832Y-130488000D01*
X146974326Y-130488000D01*
X146961450Y-130491450D01*
X146958000Y-130504326D01*
X146958000Y-131171674D01*
X146158000Y-131171674D01*
X146158000Y-130504327D01*
X146154549Y-130491451D01*
X146141674Y-130488001D01*
X146061171Y-130488001D01*
X146054888Y-130488321D01*
X145962040Y-130497805D01*
X145948877Y-130500623D01*
X145795732Y-130551370D01*
X145782733Y-130557432D01*
X145645805Y-130641890D01*
X145634544Y-130650794D01*
X145520794Y-130764544D01*
X145511890Y-130775805D01*
X145427432Y-130912733D01*
X145421370Y-130925732D01*
X145370624Y-131078874D01*
X145367805Y-131092041D01*
X145359770Y-131170692D01*
X144462499Y-131170692D01*
X144462499Y-130589628D01*
X144456091Y-130530017D01*
X144405796Y-130395169D01*
X144319546Y-130279954D01*
X144204331Y-130193704D01*
X144133965Y-130167459D01*
X144076752Y-130146120D01*
X144076750Y-130146119D01*
X144069483Y-130143409D01*
X144061770Y-130142579D01*
X144061767Y-130142579D01*
X144013180Y-130137355D01*
X144013169Y-130137354D01*
X144009873Y-130137000D01*
X144006550Y-130137000D01*
X143267439Y-130137000D01*
X143267420Y-130137000D01*
X143264128Y-130137001D01*
X143260850Y-130137353D01*
X143260838Y-130137354D01*
X143212231Y-130142579D01*
X143212225Y-130142580D01*
X143204517Y-130143409D01*
X143197252Y-130146118D01*
X143197246Y-130146120D01*
X143077974Y-130190606D01*
X143077971Y-130190607D01*
X143069669Y-130193704D01*
X143062576Y-130199013D01*
X143060896Y-130199931D01*
X143001472Y-130215097D01*
X142942049Y-130199931D01*
X142925779Y-130191047D01*
X142806641Y-130146611D01*
X142791667Y-130143073D01*
X142743114Y-130137853D01*
X142736518Y-130137500D01*
X142708326Y-130137500D01*
X142695450Y-130140950D01*
X142692000Y-130153826D01*
X142692000Y-131601000D01*
X142675387Y-131663000D01*
X142630000Y-131708387D01*
X142568000Y-131725000D01*
X142203694Y-131725000D01*
X142150500Y-131713011D01*
X142107592Y-131679361D01*
X142083269Y-131630559D01*
X142082232Y-131576040D01*
X142096234Y-131507901D01*
X142097500Y-131501741D01*
X142097500Y-128791937D01*
X142104374Y-128751226D01*
X142124233Y-128715028D01*
X142127606Y-128710761D01*
X142132712Y-128705656D01*
X142136502Y-128699511D01*
X142140984Y-128693843D01*
X142142438Y-128694992D01*
X142179846Y-128659171D01*
X142240282Y-128643440D01*
X142300720Y-128659160D01*
X142337883Y-128694735D01*
X142339410Y-128693529D01*
X142352794Y-128710455D01*
X142466544Y-128824205D01*
X142477805Y-128833109D01*
X142614733Y-128917567D01*
X142627732Y-128923629D01*
X142780874Y-128974375D01*
X142794041Y-128977194D01*
X142860192Y-128983952D01*
X142873719Y-128981533D01*
X142877500Y-128968325D01*
X142877500Y-128968324D01*
X143677500Y-128968324D01*
X143681280Y-128981533D01*
X143694807Y-128983951D01*
X143760959Y-128977194D01*
X143774124Y-128974375D01*
X143927267Y-128923629D01*
X143940266Y-128917567D01*
X144077194Y-128833109D01*
X144088455Y-128824205D01*
X144202205Y-128710455D01*
X144211109Y-128699194D01*
X144295567Y-128562266D01*
X144301629Y-128549267D01*
X144352375Y-128396125D01*
X144355194Y-128382958D01*
X144364680Y-128290109D01*
X144365000Y-128283832D01*
X144365000Y-128178326D01*
X144361549Y-128165450D01*
X144348674Y-128162000D01*
X143693826Y-128162000D01*
X143680950Y-128165450D01*
X143677500Y-128178326D01*
X143677500Y-128968324D01*
X142877500Y-128968324D01*
X142877500Y-127345674D01*
X143677500Y-127345674D01*
X143680950Y-127358549D01*
X143693826Y-127362000D01*
X144348673Y-127362000D01*
X144361548Y-127358549D01*
X144364999Y-127345674D01*
X144364999Y-127240171D01*
X144364678Y-127233888D01*
X144355194Y-127141040D01*
X144352376Y-127127877D01*
X144301629Y-126974732D01*
X144295567Y-126961733D01*
X144211109Y-126824805D01*
X144202205Y-126813544D01*
X144088455Y-126699794D01*
X144077194Y-126690890D01*
X143940266Y-126606432D01*
X143927267Y-126600370D01*
X143774125Y-126549624D01*
X143760958Y-126546805D01*
X143694807Y-126540047D01*
X143681280Y-126542466D01*
X143677500Y-126555675D01*
X143677500Y-127345674D01*
X142877500Y-127345674D01*
X142877500Y-126555676D01*
X142873719Y-126542466D01*
X142860192Y-126540048D01*
X142794040Y-126546805D01*
X142780875Y-126549624D01*
X142620878Y-126602642D01*
X142620424Y-126601274D01*
X142568893Y-126610944D01*
X142510377Y-126591791D01*
X142468286Y-126546853D01*
X142453000Y-126487209D01*
X142453000Y-125988791D01*
X142468286Y-125929147D01*
X142510377Y-125884209D01*
X142568893Y-125865056D01*
X142620424Y-125874725D01*
X142620878Y-125873358D01*
X142780874Y-125926375D01*
X142794041Y-125929194D01*
X142860192Y-125935952D01*
X142873719Y-125933533D01*
X142877500Y-125920325D01*
X142877500Y-125920324D01*
X143677500Y-125920324D01*
X143681280Y-125933533D01*
X143694807Y-125935951D01*
X143760959Y-125929194D01*
X143774124Y-125926375D01*
X143927267Y-125875629D01*
X143940266Y-125869567D01*
X144077194Y-125785109D01*
X144088455Y-125776205D01*
X144202205Y-125662455D01*
X144211109Y-125651194D01*
X144295567Y-125514266D01*
X144301629Y-125501267D01*
X144352375Y-125348125D01*
X144355194Y-125334958D01*
X144364680Y-125242109D01*
X144365000Y-125235832D01*
X144365000Y-125130326D01*
X144361549Y-125117450D01*
X144348674Y-125114000D01*
X143693826Y-125114000D01*
X143680950Y-125117450D01*
X143677500Y-125130326D01*
X143677500Y-125920324D01*
X142877500Y-125920324D01*
X142877500Y-124297674D01*
X143677500Y-124297674D01*
X143680950Y-124310549D01*
X143693826Y-124314000D01*
X144348673Y-124314000D01*
X144361548Y-124310549D01*
X144364999Y-124297674D01*
X144364999Y-124192171D01*
X144364678Y-124185888D01*
X144355194Y-124093040D01*
X144352376Y-124079877D01*
X144301629Y-123926732D01*
X144295567Y-123913733D01*
X144211109Y-123776805D01*
X144202205Y-123765544D01*
X144088455Y-123651794D01*
X144077194Y-123642890D01*
X143940266Y-123558432D01*
X143927267Y-123552370D01*
X143774125Y-123501624D01*
X143760958Y-123498805D01*
X143694807Y-123492047D01*
X143681280Y-123494466D01*
X143677500Y-123507675D01*
X143677500Y-124297674D01*
X142877500Y-124297674D01*
X142877500Y-123507676D01*
X142873719Y-123494466D01*
X142860192Y-123492048D01*
X142794040Y-123498805D01*
X142780875Y-123501624D01*
X142620878Y-123554642D01*
X142620424Y-123553274D01*
X142568893Y-123562944D01*
X142510377Y-123543791D01*
X142468286Y-123498853D01*
X142453000Y-123439209D01*
X142453000Y-122940791D01*
X142468286Y-122881147D01*
X142510377Y-122836209D01*
X142568893Y-122817056D01*
X142620424Y-122826725D01*
X142620878Y-122825358D01*
X142780874Y-122878375D01*
X142794041Y-122881194D01*
X142860192Y-122887952D01*
X142873719Y-122885533D01*
X142877500Y-122872325D01*
X142877500Y-122872324D01*
X143677500Y-122872324D01*
X143681280Y-122885533D01*
X143694807Y-122887951D01*
X143760959Y-122881194D01*
X143774124Y-122878375D01*
X143927267Y-122827629D01*
X143940266Y-122821567D01*
X144077194Y-122737109D01*
X144088455Y-122728205D01*
X144202205Y-122614455D01*
X144211109Y-122603194D01*
X144295567Y-122466266D01*
X144301629Y-122453267D01*
X144352375Y-122300125D01*
X144355194Y-122286958D01*
X144364680Y-122194109D01*
X144365000Y-122187832D01*
X144365000Y-122082326D01*
X144361549Y-122069450D01*
X144348674Y-122066000D01*
X143693826Y-122066000D01*
X143680950Y-122069450D01*
X143677500Y-122082326D01*
X143677500Y-122872324D01*
X142877500Y-122872324D01*
X142877500Y-121249674D01*
X143677500Y-121249674D01*
X143680950Y-121262549D01*
X143693826Y-121266000D01*
X144348673Y-121266000D01*
X144361548Y-121262549D01*
X144364999Y-121249674D01*
X144364999Y-121144171D01*
X144364678Y-121137888D01*
X144355194Y-121045040D01*
X144352376Y-121031877D01*
X144301629Y-120878732D01*
X144295567Y-120865733D01*
X144211109Y-120728805D01*
X144202205Y-120717544D01*
X144088455Y-120603794D01*
X144077194Y-120594890D01*
X143940266Y-120510432D01*
X143927267Y-120504370D01*
X143774125Y-120453624D01*
X143760958Y-120450805D01*
X143694807Y-120444047D01*
X143681280Y-120446466D01*
X143677500Y-120459675D01*
X143677500Y-121249674D01*
X142877500Y-121249674D01*
X142877500Y-120459676D01*
X142873719Y-120446466D01*
X142860192Y-120444048D01*
X142794040Y-120450805D01*
X142780875Y-120453624D01*
X142627732Y-120504370D01*
X142614733Y-120510432D01*
X142477805Y-120594890D01*
X142466544Y-120603794D01*
X142352794Y-120717544D01*
X142339410Y-120734471D01*
X142337886Y-120733266D01*
X142300712Y-120768844D01*
X142240281Y-120784559D01*
X142179853Y-120768832D01*
X142142436Y-120733008D01*
X142140984Y-120734157D01*
X142136502Y-120728488D01*
X142132712Y-120722344D01*
X142008656Y-120598288D01*
X142002515Y-120594500D01*
X142002511Y-120594497D01*
X141865480Y-120509977D01*
X141859334Y-120506186D01*
X141852483Y-120503915D01*
X141852475Y-120503912D01*
X141815178Y-120491553D01*
X141766503Y-120461529D01*
X141240819Y-119935845D01*
X141213939Y-119895617D01*
X141204500Y-119848164D01*
X141204500Y-119838000D01*
X141221113Y-119776000D01*
X141266500Y-119730613D01*
X141328500Y-119714000D01*
X141587674Y-119714000D01*
X141600549Y-119710549D01*
X141604000Y-119697674D01*
X142404000Y-119697674D01*
X142407450Y-119710549D01*
X142420326Y-119714000D01*
X142948518Y-119714000D01*
X142955114Y-119713646D01*
X143003667Y-119708426D01*
X143018641Y-119704888D01*
X143137777Y-119660452D01*
X143153189Y-119652037D01*
X143254092Y-119576501D01*
X143266501Y-119564092D01*
X143342037Y-119463189D01*
X143350452Y-119447777D01*
X143394888Y-119328641D01*
X143398426Y-119313667D01*
X143403646Y-119265114D01*
X143404000Y-119258518D01*
X143404000Y-118780326D01*
X143400549Y-118767450D01*
X143387674Y-118764000D01*
X142420326Y-118764000D01*
X142407450Y-118767450D01*
X142404000Y-118780326D01*
X142404000Y-119697674D01*
X141604000Y-119697674D01*
X141604000Y-117947674D01*
X142404000Y-117947674D01*
X142407450Y-117960549D01*
X142420326Y-117964000D01*
X143387674Y-117964000D01*
X143400549Y-117960549D01*
X143404000Y-117947674D01*
X143404000Y-117469482D01*
X143403646Y-117462885D01*
X143398426Y-117414332D01*
X143394888Y-117399358D01*
X143350452Y-117280222D01*
X143342037Y-117264810D01*
X143266501Y-117163907D01*
X143254092Y-117151498D01*
X143153189Y-117075962D01*
X143137777Y-117067547D01*
X143018641Y-117023111D01*
X143003667Y-117019573D01*
X142955114Y-117014353D01*
X142948518Y-117014000D01*
X142420326Y-117014000D01*
X142407450Y-117017450D01*
X142404000Y-117030326D01*
X142404000Y-117947674D01*
X141604000Y-117947674D01*
X141604000Y-117030326D01*
X141600549Y-117017450D01*
X141587674Y-117014000D01*
X141328500Y-117014000D01*
X141266500Y-116997387D01*
X141221113Y-116952000D01*
X141204500Y-116890000D01*
X141204500Y-116841185D01*
X141205280Y-116827302D01*
X141209238Y-116792173D01*
X141204780Y-116726066D01*
X141204500Y-116717726D01*
X141204500Y-116710620D01*
X141204500Y-116707845D01*
X141200845Y-116667240D01*
X141200630Y-116664514D01*
X141194096Y-116567588D01*
X141192734Y-116562185D01*
X141191863Y-116556683D01*
X141191894Y-116556678D01*
X141190901Y-116550835D01*
X141190870Y-116550841D01*
X141189876Y-116545366D01*
X141189377Y-116539812D01*
X141163527Y-116446150D01*
X141162831Y-116443514D01*
X141140455Y-116354710D01*
X141140454Y-116354709D01*
X141139096Y-116349317D01*
X141136794Y-116344251D01*
X141134954Y-116338991D01*
X141134983Y-116338980D01*
X141132961Y-116333402D01*
X141132931Y-116333414D01*
X141130976Y-116328206D01*
X141129493Y-116322830D01*
X141087351Y-116235320D01*
X141086172Y-116232800D01*
X141048308Y-116149440D01*
X141046007Y-116144374D01*
X141042839Y-116139802D01*
X141040086Y-116134949D01*
X141040113Y-116134933D01*
X141037132Y-116129813D01*
X141037105Y-116129830D01*
X141034243Y-116125041D01*
X141031829Y-116120027D01*
X140986964Y-116058275D01*
X140974740Y-116041450D01*
X140973130Y-116039181D01*
X140920995Y-115963929D01*
X140917820Y-115959346D01*
X140913877Y-115955403D01*
X140910313Y-115951134D01*
X140910337Y-115951113D01*
X140906483Y-115946600D01*
X140906460Y-115946621D01*
X140902792Y-115942422D01*
X140899522Y-115937922D01*
X140829299Y-115870782D01*
X140827310Y-115868836D01*
X140224819Y-115266345D01*
X140197939Y-115226117D01*
X140188500Y-115178664D01*
X140188500Y-112044829D01*
X140438001Y-112044829D01*
X140438321Y-112051111D01*
X140447805Y-112143959D01*
X140450623Y-112157122D01*
X140501370Y-112310267D01*
X140507432Y-112323266D01*
X140591890Y-112460194D01*
X140600794Y-112471455D01*
X140714544Y-112585205D01*
X140725805Y-112594109D01*
X140862733Y-112678567D01*
X140875732Y-112684629D01*
X141028874Y-112735375D01*
X141042041Y-112738194D01*
X141134890Y-112747680D01*
X141141168Y-112748000D01*
X142721674Y-112748000D01*
X142734549Y-112744549D01*
X142738000Y-112731674D01*
X142738000Y-112731673D01*
X143538000Y-112731673D01*
X143541450Y-112744548D01*
X143554326Y-112747999D01*
X145134829Y-112747999D01*
X145141111Y-112747678D01*
X145233959Y-112738194D01*
X145247122Y-112735376D01*
X145400267Y-112684629D01*
X145413266Y-112678567D01*
X145550194Y-112594109D01*
X145561455Y-112585205D01*
X145675205Y-112471455D01*
X145684109Y-112460194D01*
X145768567Y-112323266D01*
X145774629Y-112310267D01*
X145825375Y-112157125D01*
X145828194Y-112143958D01*
X145837680Y-112051109D01*
X145838000Y-112044832D01*
X145838000Y-111414326D01*
X145834549Y-111401450D01*
X145821674Y-111398000D01*
X143554326Y-111398000D01*
X143541450Y-111401450D01*
X143538000Y-111414326D01*
X143538000Y-112731673D01*
X142738000Y-112731673D01*
X142738000Y-111414326D01*
X142734549Y-111401450D01*
X142721674Y-111398000D01*
X140454327Y-111398000D01*
X140441451Y-111401450D01*
X140438001Y-111414326D01*
X140438001Y-112044829D01*
X140188500Y-112044829D01*
X140188500Y-110581674D01*
X140438000Y-110581674D01*
X140441450Y-110594549D01*
X140454326Y-110598000D01*
X142721674Y-110598000D01*
X142734549Y-110594549D01*
X142738000Y-110581674D01*
X143538000Y-110581674D01*
X143541450Y-110594549D01*
X143554326Y-110598000D01*
X145821673Y-110598000D01*
X145834548Y-110594549D01*
X145837999Y-110581674D01*
X145837999Y-109951171D01*
X145837678Y-109944888D01*
X145828194Y-109852040D01*
X145825376Y-109838877D01*
X145774629Y-109685732D01*
X145768567Y-109672733D01*
X145684109Y-109535805D01*
X145675205Y-109524544D01*
X145561455Y-109410794D01*
X145550194Y-109401890D01*
X145413266Y-109317432D01*
X145400267Y-109311370D01*
X145247125Y-109260624D01*
X145233958Y-109257805D01*
X145141109Y-109248319D01*
X145134832Y-109248000D01*
X143554326Y-109248000D01*
X143541450Y-109251450D01*
X143538000Y-109264326D01*
X143538000Y-110581674D01*
X142738000Y-110581674D01*
X142738000Y-109264327D01*
X142734549Y-109251451D01*
X142721674Y-109248001D01*
X141141171Y-109248001D01*
X141134888Y-109248321D01*
X141042040Y-109257805D01*
X141028877Y-109260623D01*
X140875732Y-109311370D01*
X140862733Y-109317432D01*
X140725805Y-109401890D01*
X140714544Y-109410794D01*
X140600794Y-109524544D01*
X140591890Y-109535805D01*
X140507432Y-109672733D01*
X140501370Y-109685732D01*
X140450624Y-109838874D01*
X140447805Y-109852041D01*
X140438319Y-109944890D01*
X140438000Y-109951168D01*
X140438000Y-110581674D01*
X140188500Y-110581674D01*
X140188500Y-106486015D01*
X140188972Y-106475208D01*
X140192805Y-106431395D01*
X140193277Y-106426000D01*
X140188615Y-106372719D01*
X140188500Y-106370969D01*
X140188500Y-106369845D01*
X140183638Y-106315827D01*
X140174207Y-106208023D01*
X140173798Y-106206500D01*
X140173377Y-106201812D01*
X140144831Y-106098385D01*
X140144607Y-106097558D01*
X140118978Y-106001908D01*
X140117575Y-105996670D01*
X140116135Y-105993583D01*
X140115516Y-105991645D01*
X140114976Y-105990208D01*
X140113493Y-105984830D01*
X140068428Y-105891250D01*
X140067766Y-105889854D01*
X140027388Y-105803264D01*
X140027387Y-105803262D01*
X140025102Y-105798362D01*
X140022000Y-105793931D01*
X140021678Y-105793374D01*
X140019002Y-105788312D01*
X140018247Y-105787049D01*
X140015829Y-105782027D01*
X139956751Y-105700713D01*
X139955494Y-105698951D01*
X139902703Y-105623558D01*
X139899598Y-105619123D01*
X139895767Y-105615292D01*
X139892290Y-105611148D01*
X139892505Y-105610967D01*
X139890481Y-105608598D01*
X139890458Y-105608619D01*
X139886790Y-105604420D01*
X139883522Y-105599922D01*
X139813322Y-105532804D01*
X139811333Y-105530858D01*
X139748709Y-105468234D01*
X139748708Y-105468233D01*
X139744877Y-105464402D01*
X139740443Y-105461297D01*
X139736656Y-105458119D01*
X139726474Y-105449769D01*
X139724846Y-105448212D01*
X139724843Y-105448210D01*
X139720825Y-105444368D01*
X139642643Y-105392760D01*
X139639849Y-105390860D01*
X139570074Y-105342003D01*
X139570070Y-105342001D01*
X139565639Y-105338898D01*
X139560727Y-105336607D01*
X139560725Y-105336606D01*
X139558256Y-105335454D01*
X139542369Y-105326570D01*
X139537613Y-105323431D01*
X139532968Y-105320365D01*
X139450006Y-105284905D01*
X139446336Y-105283266D01*
X139372232Y-105248711D01*
X139372233Y-105248711D01*
X139367330Y-105246425D01*
X139362105Y-105245024D01*
X139362103Y-105245024D01*
X139356141Y-105243426D01*
X139339511Y-105237676D01*
X139331113Y-105234087D01*
X139331109Y-105234085D01*
X139325988Y-105231897D01*
X139320564Y-105230659D01*
X139320555Y-105230656D01*
X139293424Y-105224464D01*
X139285906Y-105222748D01*
X139236188Y-105198805D01*
X139202051Y-105156000D01*
X140716000Y-105156000D01*
X140716000Y-104472359D01*
X140753694Y-104449109D01*
X140764955Y-104440205D01*
X140878705Y-104326455D01*
X140887609Y-104315194D01*
X140972067Y-104178266D01*
X140978129Y-104165267D01*
X141028875Y-104012125D01*
X141031694Y-103998958D01*
X141041180Y-103906109D01*
X141041500Y-103899832D01*
X141041500Y-103794326D01*
X141038049Y-103781450D01*
X141025174Y-103778000D01*
X140716000Y-103778000D01*
X140716000Y-102978000D01*
X141025173Y-102978000D01*
X141038048Y-102974549D01*
X141041499Y-102961674D01*
X141041499Y-102856171D01*
X141041178Y-102849888D01*
X141031694Y-102757040D01*
X141028876Y-102743877D01*
X140978129Y-102590732D01*
X140972067Y-102577733D01*
X140887609Y-102440805D01*
X140878705Y-102429544D01*
X140764955Y-102315794D01*
X140753694Y-102306890D01*
X140716000Y-102283640D01*
X140716000Y-101092000D01*
X147958000Y-101092000D01*
X148020000Y-101108613D01*
G37*
%TD.AperFunction*%
%TA.AperFunction,Conductor*%
G36*
X139192000Y-105112811D02*
G01*
X139189500Y-105101858D01*
X139189500Y-104673331D01*
X139192000Y-104662951D01*
X139192000Y-105112811D01*
G37*
%TD.AperFunction*%
%TA.AperFunction,Conductor*%
G36*
X139192000Y-102093049D02*
G01*
X139189500Y-102082669D01*
X139189500Y-101216000D01*
X139192000Y-101206670D01*
X139192000Y-102093049D01*
G37*
%TD.AperFunction*%
%TD*%
M02*
