%TF.GenerationSoftware,KiCad,Pcbnew,(7.0.0)*%
%TF.CreationDate,2023-04-01T02:08:27+13:00*%
%TF.ProjectId,pico_expansion_board,7069636f-5f65-4787-9061-6e73696f6e5f,rev?*%
%TF.SameCoordinates,Original*%
%TF.FileFunction,Legend,Bot*%
%TF.FilePolarity,Positive*%
%FSLAX46Y46*%
G04 Gerber Fmt 4.6, Leading zero omitted, Abs format (unit mm)*
G04 Created by KiCad (PCBNEW (7.0.0)) date 2023-04-01 02:08:27*
%MOMM*%
%LPD*%
G01*
G04 APERTURE LIST*
G04 Aperture macros list*
%AMRoundRect*
0 Rectangle with rounded corners*
0 $1 Rounding radius*
0 $2 $3 $4 $5 $6 $7 $8 $9 X,Y pos of 4 corners*
0 Add a 4 corners polygon primitive as box body*
4,1,4,$2,$3,$4,$5,$6,$7,$8,$9,$2,$3,0*
0 Add four circle primitives for the rounded corners*
1,1,$1+$1,$2,$3*
1,1,$1+$1,$4,$5*
1,1,$1+$1,$6,$7*
1,1,$1+$1,$8,$9*
0 Add four rect primitives between the rounded corners*
20,1,$1+$1,$2,$3,$4,$5,0*
20,1,$1+$1,$4,$5,$6,$7,0*
20,1,$1+$1,$6,$7,$8,$9,0*
20,1,$1+$1,$8,$9,$2,$3,0*%
G04 Aperture macros list end*
%ADD10C,0.300000*%
%ADD11C,0.125000*%
%ADD12C,0.187500*%
%ADD13R,1.350000X1.350000*%
%ADD14O,1.350000X1.350000*%
%ADD15C,6.400000*%
%ADD16C,4.000000*%
%ADD17R,1.600000X1.600000*%
%ADD18C,1.600000*%
%ADD19RoundRect,0.250000X0.600000X-0.600000X0.600000X0.600000X-0.600000X0.600000X-0.600000X-0.600000X0*%
%ADD20C,1.700000*%
%ADD21R,3.000000X3.000000*%
%ADD22C,3.000000*%
%ADD23RoundRect,0.250000X-0.725000X0.600000X-0.725000X-0.600000X0.725000X-0.600000X0.725000X0.600000X0*%
%ADD24O,1.950000X1.700000*%
%ADD25O,1.800000X1.800000*%
%ADD26O,1.500000X1.500000*%
%ADD27O,1.700000X1.700000*%
%ADD28R,1.700000X1.700000*%
%ADD29R,1.800000X1.800000*%
%ADD30C,1.800000*%
G04 APERTURE END LIST*
D10*
X118260857Y-138587857D02*
X117760857Y-138587857D01*
X117546571Y-139373571D02*
X118260857Y-139373571D01*
X118260857Y-139373571D02*
X118260857Y-137873571D01*
X118260857Y-137873571D02*
X117546571Y-137873571D01*
X117046571Y-137873571D02*
X116046571Y-139373571D01*
X116046571Y-137873571D02*
X117046571Y-139373571D01*
X115475143Y-139373571D02*
X115475143Y-137873571D01*
X115475143Y-137873571D02*
X114903714Y-137873571D01*
X114903714Y-137873571D02*
X114760857Y-137945000D01*
X114760857Y-137945000D02*
X114689428Y-138016428D01*
X114689428Y-138016428D02*
X114618000Y-138159285D01*
X114618000Y-138159285D02*
X114618000Y-138373571D01*
X114618000Y-138373571D02*
X114689428Y-138516428D01*
X114689428Y-138516428D02*
X114760857Y-138587857D01*
X114760857Y-138587857D02*
X114903714Y-138659285D01*
X114903714Y-138659285D02*
X115475143Y-138659285D01*
X113189428Y-139373571D02*
X114046571Y-139373571D01*
X113618000Y-139373571D02*
X113618000Y-137873571D01*
X113618000Y-137873571D02*
X113760857Y-138087857D01*
X113760857Y-138087857D02*
X113903714Y-138230714D01*
X113903714Y-138230714D02*
X114046571Y-138302142D01*
D11*
X129349523Y-77774761D02*
X129206666Y-77822380D01*
X129206666Y-77822380D02*
X128968571Y-77822380D01*
X128968571Y-77822380D02*
X128873333Y-77774761D01*
X128873333Y-77774761D02*
X128825714Y-77727142D01*
X128825714Y-77727142D02*
X128778095Y-77631904D01*
X128778095Y-77631904D02*
X128778095Y-77536666D01*
X128778095Y-77536666D02*
X128825714Y-77441428D01*
X128825714Y-77441428D02*
X128873333Y-77393809D01*
X128873333Y-77393809D02*
X128968571Y-77346190D01*
X128968571Y-77346190D02*
X129159047Y-77298571D01*
X129159047Y-77298571D02*
X129254285Y-77250952D01*
X129254285Y-77250952D02*
X129301904Y-77203333D01*
X129301904Y-77203333D02*
X129349523Y-77108095D01*
X129349523Y-77108095D02*
X129349523Y-77012857D01*
X129349523Y-77012857D02*
X129301904Y-76917619D01*
X129301904Y-76917619D02*
X129254285Y-76870000D01*
X129254285Y-76870000D02*
X129159047Y-76822380D01*
X129159047Y-76822380D02*
X128920952Y-76822380D01*
X128920952Y-76822380D02*
X128778095Y-76870000D01*
X128492380Y-77155714D02*
X128111428Y-77155714D01*
X128349523Y-76822380D02*
X128349523Y-77679523D01*
X128349523Y-77679523D02*
X128301904Y-77774761D01*
X128301904Y-77774761D02*
X128206666Y-77822380D01*
X128206666Y-77822380D02*
X128111428Y-77822380D01*
X127778094Y-77822380D02*
X127778094Y-77155714D01*
X127778094Y-77346190D02*
X127730475Y-77250952D01*
X127730475Y-77250952D02*
X127682856Y-77203333D01*
X127682856Y-77203333D02*
X127587618Y-77155714D01*
X127587618Y-77155714D02*
X127492380Y-77155714D01*
X126730475Y-77822380D02*
X126730475Y-77298571D01*
X126730475Y-77298571D02*
X126778094Y-77203333D01*
X126778094Y-77203333D02*
X126873332Y-77155714D01*
X126873332Y-77155714D02*
X127063808Y-77155714D01*
X127063808Y-77155714D02*
X127159046Y-77203333D01*
X126730475Y-77774761D02*
X126825713Y-77822380D01*
X126825713Y-77822380D02*
X127063808Y-77822380D01*
X127063808Y-77822380D02*
X127159046Y-77774761D01*
X127159046Y-77774761D02*
X127206665Y-77679523D01*
X127206665Y-77679523D02*
X127206665Y-77584285D01*
X127206665Y-77584285D02*
X127159046Y-77489047D01*
X127159046Y-77489047D02*
X127063808Y-77441428D01*
X127063808Y-77441428D02*
X126825713Y-77441428D01*
X126825713Y-77441428D02*
X126730475Y-77393809D01*
X126254284Y-77822380D02*
X126254284Y-77155714D01*
X126254284Y-76822380D02*
X126301903Y-76870000D01*
X126301903Y-76870000D02*
X126254284Y-76917619D01*
X126254284Y-76917619D02*
X126206665Y-76870000D01*
X126206665Y-76870000D02*
X126254284Y-76822380D01*
X126254284Y-76822380D02*
X126254284Y-76917619D01*
X125349523Y-77155714D02*
X125349523Y-77965238D01*
X125349523Y-77965238D02*
X125397142Y-78060476D01*
X125397142Y-78060476D02*
X125444761Y-78108095D01*
X125444761Y-78108095D02*
X125539999Y-78155714D01*
X125539999Y-78155714D02*
X125682856Y-78155714D01*
X125682856Y-78155714D02*
X125778094Y-78108095D01*
X125349523Y-77774761D02*
X125444761Y-77822380D01*
X125444761Y-77822380D02*
X125635237Y-77822380D01*
X125635237Y-77822380D02*
X125730475Y-77774761D01*
X125730475Y-77774761D02*
X125778094Y-77727142D01*
X125778094Y-77727142D02*
X125825713Y-77631904D01*
X125825713Y-77631904D02*
X125825713Y-77346190D01*
X125825713Y-77346190D02*
X125778094Y-77250952D01*
X125778094Y-77250952D02*
X125730475Y-77203333D01*
X125730475Y-77203333D02*
X125635237Y-77155714D01*
X125635237Y-77155714D02*
X125444761Y-77155714D01*
X125444761Y-77155714D02*
X125349523Y-77203333D01*
X124873332Y-77822380D02*
X124873332Y-76822380D01*
X124444761Y-77822380D02*
X124444761Y-77298571D01*
X124444761Y-77298571D02*
X124492380Y-77203333D01*
X124492380Y-77203333D02*
X124587618Y-77155714D01*
X124587618Y-77155714D02*
X124730475Y-77155714D01*
X124730475Y-77155714D02*
X124825713Y-77203333D01*
X124825713Y-77203333D02*
X124873332Y-77250952D01*
X124111427Y-77155714D02*
X123730475Y-77155714D01*
X123968570Y-76822380D02*
X123968570Y-77679523D01*
X123968570Y-77679523D02*
X123920951Y-77774761D01*
X123920951Y-77774761D02*
X123825713Y-77822380D01*
X123825713Y-77822380D02*
X123730475Y-77822380D01*
X129301904Y-79061428D02*
X128540000Y-79061428D01*
X128063809Y-79061428D02*
X127301905Y-79061428D01*
X126825714Y-79061428D02*
X126063810Y-79061428D01*
X125587619Y-79061428D02*
X124825715Y-79061428D01*
X128101904Y-81062380D02*
X128101904Y-80062380D01*
X128101904Y-80062380D02*
X127530476Y-81062380D01*
X127530476Y-81062380D02*
X127530476Y-80062380D01*
X127054285Y-80062380D02*
X127054285Y-80871904D01*
X127054285Y-80871904D02*
X127006666Y-80967142D01*
X127006666Y-80967142D02*
X126959047Y-81014761D01*
X126959047Y-81014761D02*
X126863809Y-81062380D01*
X126863809Y-81062380D02*
X126673333Y-81062380D01*
X126673333Y-81062380D02*
X126578095Y-81014761D01*
X126578095Y-81014761D02*
X126530476Y-80967142D01*
X126530476Y-80967142D02*
X126482857Y-80871904D01*
X126482857Y-80871904D02*
X126482857Y-80062380D01*
X125530476Y-81062380D02*
X126006666Y-81062380D01*
X126006666Y-81062380D02*
X126006666Y-80062380D01*
X124720952Y-81062380D02*
X125197142Y-81062380D01*
X125197142Y-81062380D02*
X125197142Y-80062380D01*
D12*
X97869428Y-74728380D02*
X97678952Y-74728380D01*
X97678952Y-74728380D02*
X97583714Y-74776000D01*
X97583714Y-74776000D02*
X97488476Y-74871238D01*
X97488476Y-74871238D02*
X97440857Y-75061714D01*
X97440857Y-75061714D02*
X97440857Y-75395047D01*
X97440857Y-75395047D02*
X97488476Y-75585523D01*
X97488476Y-75585523D02*
X97583714Y-75680761D01*
X97583714Y-75680761D02*
X97678952Y-75728380D01*
X97678952Y-75728380D02*
X97869428Y-75728380D01*
X97869428Y-75728380D02*
X97964666Y-75680761D01*
X97964666Y-75680761D02*
X98059904Y-75585523D01*
X98059904Y-75585523D02*
X98107523Y-75395047D01*
X98107523Y-75395047D02*
X98107523Y-75061714D01*
X98107523Y-75061714D02*
X98059904Y-74871238D01*
X98059904Y-74871238D02*
X97964666Y-74776000D01*
X97964666Y-74776000D02*
X97869428Y-74728380D01*
X97012285Y-75061714D02*
X97012285Y-76061714D01*
X97012285Y-75109333D02*
X96917047Y-75061714D01*
X96917047Y-75061714D02*
X96726571Y-75061714D01*
X96726571Y-75061714D02*
X96631333Y-75109333D01*
X96631333Y-75109333D02*
X96583714Y-75156952D01*
X96583714Y-75156952D02*
X96536095Y-75252190D01*
X96536095Y-75252190D02*
X96536095Y-75537904D01*
X96536095Y-75537904D02*
X96583714Y-75633142D01*
X96583714Y-75633142D02*
X96631333Y-75680761D01*
X96631333Y-75680761D02*
X96726571Y-75728380D01*
X96726571Y-75728380D02*
X96917047Y-75728380D01*
X96917047Y-75728380D02*
X97012285Y-75680761D01*
X95726571Y-75680761D02*
X95821809Y-75728380D01*
X95821809Y-75728380D02*
X96012285Y-75728380D01*
X96012285Y-75728380D02*
X96107523Y-75680761D01*
X96107523Y-75680761D02*
X96155142Y-75585523D01*
X96155142Y-75585523D02*
X96155142Y-75204571D01*
X96155142Y-75204571D02*
X96107523Y-75109333D01*
X96107523Y-75109333D02*
X96012285Y-75061714D01*
X96012285Y-75061714D02*
X95821809Y-75061714D01*
X95821809Y-75061714D02*
X95726571Y-75109333D01*
X95726571Y-75109333D02*
X95678952Y-75204571D01*
X95678952Y-75204571D02*
X95678952Y-75299809D01*
X95678952Y-75299809D02*
X96155142Y-75395047D01*
X95250380Y-75061714D02*
X95250380Y-75728380D01*
X95250380Y-75156952D02*
X95202761Y-75109333D01*
X95202761Y-75109333D02*
X95107523Y-75061714D01*
X95107523Y-75061714D02*
X94964666Y-75061714D01*
X94964666Y-75061714D02*
X94869428Y-75109333D01*
X94869428Y-75109333D02*
X94821809Y-75204571D01*
X94821809Y-75204571D02*
X94821809Y-75728380D01*
X94488475Y-74728380D02*
X93917047Y-74728380D01*
X94202761Y-75728380D02*
X94202761Y-74728380D01*
X93583713Y-75728380D02*
X93583713Y-75061714D01*
X93583713Y-75252190D02*
X93536094Y-75156952D01*
X93536094Y-75156952D02*
X93488475Y-75109333D01*
X93488475Y-75109333D02*
X93393237Y-75061714D01*
X93393237Y-75061714D02*
X93297999Y-75061714D01*
X92964665Y-75728380D02*
X92964665Y-75061714D01*
X92964665Y-74728380D02*
X93012284Y-74776000D01*
X93012284Y-74776000D02*
X92964665Y-74823619D01*
X92964665Y-74823619D02*
X92917046Y-74776000D01*
X92917046Y-74776000D02*
X92964665Y-74728380D01*
X92964665Y-74728380D02*
X92964665Y-74823619D01*
X92059904Y-75680761D02*
X92155142Y-75728380D01*
X92155142Y-75728380D02*
X92345618Y-75728380D01*
X92345618Y-75728380D02*
X92440856Y-75680761D01*
X92440856Y-75680761D02*
X92488475Y-75633142D01*
X92488475Y-75633142D02*
X92536094Y-75537904D01*
X92536094Y-75537904D02*
X92536094Y-75252190D01*
X92536094Y-75252190D02*
X92488475Y-75156952D01*
X92488475Y-75156952D02*
X92440856Y-75109333D01*
X92440856Y-75109333D02*
X92345618Y-75061714D01*
X92345618Y-75061714D02*
X92155142Y-75061714D01*
X92155142Y-75061714D02*
X92059904Y-75109333D01*
X91631332Y-75728380D02*
X91631332Y-74728380D01*
X91536094Y-75347428D02*
X91250380Y-75728380D01*
X91250380Y-75061714D02*
X91631332Y-75442666D01*
X90678951Y-75728380D02*
X90774189Y-75680761D01*
X90774189Y-75680761D02*
X90821808Y-75585523D01*
X90821808Y-75585523D02*
X90821808Y-74728380D01*
X89917046Y-75680761D02*
X90012284Y-75728380D01*
X90012284Y-75728380D02*
X90202760Y-75728380D01*
X90202760Y-75728380D02*
X90297998Y-75680761D01*
X90297998Y-75680761D02*
X90345617Y-75585523D01*
X90345617Y-75585523D02*
X90345617Y-75204571D01*
X90345617Y-75204571D02*
X90297998Y-75109333D01*
X90297998Y-75109333D02*
X90202760Y-75061714D01*
X90202760Y-75061714D02*
X90012284Y-75061714D01*
X90012284Y-75061714D02*
X89917046Y-75109333D01*
X89917046Y-75109333D02*
X89869427Y-75204571D01*
X89869427Y-75204571D02*
X89869427Y-75299809D01*
X89869427Y-75299809D02*
X90345617Y-75395047D01*
X89440855Y-75728380D02*
X89440855Y-75061714D01*
X89440855Y-75252190D02*
X89393236Y-75156952D01*
X89393236Y-75156952D02*
X89345617Y-75109333D01*
X89345617Y-75109333D02*
X89250379Y-75061714D01*
X89250379Y-75061714D02*
X89155141Y-75061714D01*
X87650379Y-75633142D02*
X87697998Y-75680761D01*
X87697998Y-75680761D02*
X87840855Y-75728380D01*
X87840855Y-75728380D02*
X87936093Y-75728380D01*
X87936093Y-75728380D02*
X88078950Y-75680761D01*
X88078950Y-75680761D02*
X88174188Y-75585523D01*
X88174188Y-75585523D02*
X88221807Y-75490285D01*
X88221807Y-75490285D02*
X88269426Y-75299809D01*
X88269426Y-75299809D02*
X88269426Y-75156952D01*
X88269426Y-75156952D02*
X88221807Y-74966476D01*
X88221807Y-74966476D02*
X88174188Y-74871238D01*
X88174188Y-74871238D02*
X88078950Y-74776000D01*
X88078950Y-74776000D02*
X87936093Y-74728380D01*
X87936093Y-74728380D02*
X87840855Y-74728380D01*
X87840855Y-74728380D02*
X87697998Y-74776000D01*
X87697998Y-74776000D02*
X87650379Y-74823619D01*
X87078950Y-75728380D02*
X87174188Y-75680761D01*
X87174188Y-75680761D02*
X87221807Y-75633142D01*
X87221807Y-75633142D02*
X87269426Y-75537904D01*
X87269426Y-75537904D02*
X87269426Y-75252190D01*
X87269426Y-75252190D02*
X87221807Y-75156952D01*
X87221807Y-75156952D02*
X87174188Y-75109333D01*
X87174188Y-75109333D02*
X87078950Y-75061714D01*
X87078950Y-75061714D02*
X86936093Y-75061714D01*
X86936093Y-75061714D02*
X86840855Y-75109333D01*
X86840855Y-75109333D02*
X86793236Y-75156952D01*
X86793236Y-75156952D02*
X86745617Y-75252190D01*
X86745617Y-75252190D02*
X86745617Y-75537904D01*
X86745617Y-75537904D02*
X86793236Y-75633142D01*
X86793236Y-75633142D02*
X86840855Y-75680761D01*
X86840855Y-75680761D02*
X86936093Y-75728380D01*
X86936093Y-75728380D02*
X87078950Y-75728380D01*
X86317045Y-75061714D02*
X86317045Y-75728380D01*
X86317045Y-75156952D02*
X86269426Y-75109333D01*
X86269426Y-75109333D02*
X86174188Y-75061714D01*
X86174188Y-75061714D02*
X86031331Y-75061714D01*
X86031331Y-75061714D02*
X85936093Y-75109333D01*
X85936093Y-75109333D02*
X85888474Y-75204571D01*
X85888474Y-75204571D02*
X85888474Y-75728380D01*
X85555140Y-75061714D02*
X85174188Y-75061714D01*
X85412283Y-74728380D02*
X85412283Y-75585523D01*
X85412283Y-75585523D02*
X85364664Y-75680761D01*
X85364664Y-75680761D02*
X85269426Y-75728380D01*
X85269426Y-75728380D02*
X85174188Y-75728380D01*
X84840854Y-75728380D02*
X84840854Y-75061714D01*
X84840854Y-75252190D02*
X84793235Y-75156952D01*
X84793235Y-75156952D02*
X84745616Y-75109333D01*
X84745616Y-75109333D02*
X84650378Y-75061714D01*
X84650378Y-75061714D02*
X84555140Y-75061714D01*
X84078949Y-75728380D02*
X84174187Y-75680761D01*
X84174187Y-75680761D02*
X84221806Y-75633142D01*
X84221806Y-75633142D02*
X84269425Y-75537904D01*
X84269425Y-75537904D02*
X84269425Y-75252190D01*
X84269425Y-75252190D02*
X84221806Y-75156952D01*
X84221806Y-75156952D02*
X84174187Y-75109333D01*
X84174187Y-75109333D02*
X84078949Y-75061714D01*
X84078949Y-75061714D02*
X83936092Y-75061714D01*
X83936092Y-75061714D02*
X83840854Y-75109333D01*
X83840854Y-75109333D02*
X83793235Y-75156952D01*
X83793235Y-75156952D02*
X83745616Y-75252190D01*
X83745616Y-75252190D02*
X83745616Y-75537904D01*
X83745616Y-75537904D02*
X83793235Y-75633142D01*
X83793235Y-75633142D02*
X83840854Y-75680761D01*
X83840854Y-75680761D02*
X83936092Y-75728380D01*
X83936092Y-75728380D02*
X84078949Y-75728380D01*
X83174187Y-75728380D02*
X83269425Y-75680761D01*
X83269425Y-75680761D02*
X83317044Y-75585523D01*
X83317044Y-75585523D02*
X83317044Y-74728380D01*
X82650377Y-75728380D02*
X82745615Y-75680761D01*
X82745615Y-75680761D02*
X82793234Y-75585523D01*
X82793234Y-75585523D02*
X82793234Y-74728380D01*
X81888472Y-75680761D02*
X81983710Y-75728380D01*
X81983710Y-75728380D02*
X82174186Y-75728380D01*
X82174186Y-75728380D02*
X82269424Y-75680761D01*
X82269424Y-75680761D02*
X82317043Y-75585523D01*
X82317043Y-75585523D02*
X82317043Y-75204571D01*
X82317043Y-75204571D02*
X82269424Y-75109333D01*
X82269424Y-75109333D02*
X82174186Y-75061714D01*
X82174186Y-75061714D02*
X81983710Y-75061714D01*
X81983710Y-75061714D02*
X81888472Y-75109333D01*
X81888472Y-75109333D02*
X81840853Y-75204571D01*
X81840853Y-75204571D02*
X81840853Y-75299809D01*
X81840853Y-75299809D02*
X82317043Y-75395047D01*
X81412281Y-75728380D02*
X81412281Y-75061714D01*
X81412281Y-75252190D02*
X81364662Y-75156952D01*
X81364662Y-75156952D02*
X81317043Y-75109333D01*
X81317043Y-75109333D02*
X81221805Y-75061714D01*
X81221805Y-75061714D02*
X81126567Y-75061714D01*
X80288471Y-75061714D02*
X80050376Y-75728380D01*
X80050376Y-75728380D02*
X79812281Y-75061714D01*
X79240852Y-74728380D02*
X79145614Y-74728380D01*
X79145614Y-74728380D02*
X79050376Y-74776000D01*
X79050376Y-74776000D02*
X79002757Y-74823619D01*
X79002757Y-74823619D02*
X78955138Y-74918857D01*
X78955138Y-74918857D02*
X78907519Y-75109333D01*
X78907519Y-75109333D02*
X78907519Y-75347428D01*
X78907519Y-75347428D02*
X78955138Y-75537904D01*
X78955138Y-75537904D02*
X79002757Y-75633142D01*
X79002757Y-75633142D02*
X79050376Y-75680761D01*
X79050376Y-75680761D02*
X79145614Y-75728380D01*
X79145614Y-75728380D02*
X79240852Y-75728380D01*
X79240852Y-75728380D02*
X79336090Y-75680761D01*
X79336090Y-75680761D02*
X79383709Y-75633142D01*
X79383709Y-75633142D02*
X79431328Y-75537904D01*
X79431328Y-75537904D02*
X79478947Y-75347428D01*
X79478947Y-75347428D02*
X79478947Y-75109333D01*
X79478947Y-75109333D02*
X79431328Y-74918857D01*
X79431328Y-74918857D02*
X79383709Y-74823619D01*
X79383709Y-74823619D02*
X79336090Y-74776000D01*
X79336090Y-74776000D02*
X79240852Y-74728380D01*
X78478947Y-75633142D02*
X78431328Y-75680761D01*
X78431328Y-75680761D02*
X78478947Y-75728380D01*
X78478947Y-75728380D02*
X78526566Y-75680761D01*
X78526566Y-75680761D02*
X78478947Y-75633142D01*
X78478947Y-75633142D02*
X78478947Y-75728380D01*
X78097995Y-74728380D02*
X77478948Y-74728380D01*
X77478948Y-74728380D02*
X77812281Y-75109333D01*
X77812281Y-75109333D02*
X77669424Y-75109333D01*
X77669424Y-75109333D02*
X77574186Y-75156952D01*
X77574186Y-75156952D02*
X77526567Y-75204571D01*
X77526567Y-75204571D02*
X77478948Y-75299809D01*
X77478948Y-75299809D02*
X77478948Y-75537904D01*
X77478948Y-75537904D02*
X77526567Y-75633142D01*
X77526567Y-75633142D02*
X77574186Y-75680761D01*
X77574186Y-75680761D02*
X77669424Y-75728380D01*
X77669424Y-75728380D02*
X77955138Y-75728380D01*
X77955138Y-75728380D02*
X78050376Y-75680761D01*
X78050376Y-75680761D02*
X78097995Y-75633142D01*
X135858285Y-87036857D02*
X135858285Y-85836857D01*
X135858285Y-85836857D02*
X135401142Y-85836857D01*
X135401142Y-85836857D02*
X135286857Y-85894000D01*
X135286857Y-85894000D02*
X135229714Y-85951142D01*
X135229714Y-85951142D02*
X135172571Y-86065428D01*
X135172571Y-86065428D02*
X135172571Y-86236857D01*
X135172571Y-86236857D02*
X135229714Y-86351142D01*
X135229714Y-86351142D02*
X135286857Y-86408285D01*
X135286857Y-86408285D02*
X135401142Y-86465428D01*
X135401142Y-86465428D02*
X135858285Y-86465428D01*
X134658285Y-87036857D02*
X134658285Y-85836857D01*
X133401142Y-86922571D02*
X133458285Y-86979714D01*
X133458285Y-86979714D02*
X133629713Y-87036857D01*
X133629713Y-87036857D02*
X133743999Y-87036857D01*
X133743999Y-87036857D02*
X133915428Y-86979714D01*
X133915428Y-86979714D02*
X134029713Y-86865428D01*
X134029713Y-86865428D02*
X134086856Y-86751142D01*
X134086856Y-86751142D02*
X134143999Y-86522571D01*
X134143999Y-86522571D02*
X134143999Y-86351142D01*
X134143999Y-86351142D02*
X134086856Y-86122571D01*
X134086856Y-86122571D02*
X134029713Y-86008285D01*
X134029713Y-86008285D02*
X133915428Y-85894000D01*
X133915428Y-85894000D02*
X133743999Y-85836857D01*
X133743999Y-85836857D02*
X133629713Y-85836857D01*
X133629713Y-85836857D02*
X133458285Y-85894000D01*
X133458285Y-85894000D02*
X133401142Y-85951142D01*
X132658285Y-85836857D02*
X132429713Y-85836857D01*
X132429713Y-85836857D02*
X132315428Y-85894000D01*
X132315428Y-85894000D02*
X132201142Y-86008285D01*
X132201142Y-86008285D02*
X132143999Y-86236857D01*
X132143999Y-86236857D02*
X132143999Y-86636857D01*
X132143999Y-86636857D02*
X132201142Y-86865428D01*
X132201142Y-86865428D02*
X132315428Y-86979714D01*
X132315428Y-86979714D02*
X132429713Y-87036857D01*
X132429713Y-87036857D02*
X132658285Y-87036857D01*
X132658285Y-87036857D02*
X132772571Y-86979714D01*
X132772571Y-86979714D02*
X132886856Y-86865428D01*
X132886856Y-86865428D02*
X132943999Y-86636857D01*
X132943999Y-86636857D02*
X132943999Y-86236857D01*
X132943999Y-86236857D02*
X132886856Y-86008285D01*
X132886856Y-86008285D02*
X132772571Y-85894000D01*
X132772571Y-85894000D02*
X132658285Y-85836857D01*
X135858285Y-88523714D02*
X134944000Y-88523714D01*
X134372571Y-88523714D02*
X133458286Y-88523714D01*
X132886857Y-88523714D02*
X131972572Y-88523714D01*
X135172571Y-90924857D02*
X135572571Y-90353428D01*
X135858285Y-90924857D02*
X135858285Y-89724857D01*
X135858285Y-89724857D02*
X135401142Y-89724857D01*
X135401142Y-89724857D02*
X135286857Y-89782000D01*
X135286857Y-89782000D02*
X135229714Y-89839142D01*
X135229714Y-89839142D02*
X135172571Y-89953428D01*
X135172571Y-89953428D02*
X135172571Y-90124857D01*
X135172571Y-90124857D02*
X135229714Y-90239142D01*
X135229714Y-90239142D02*
X135286857Y-90296285D01*
X135286857Y-90296285D02*
X135401142Y-90353428D01*
X135401142Y-90353428D02*
X135858285Y-90353428D01*
X134658285Y-90296285D02*
X134258285Y-90296285D01*
X134086857Y-90924857D02*
X134658285Y-90924857D01*
X134658285Y-90924857D02*
X134658285Y-89724857D01*
X134658285Y-89724857D02*
X134086857Y-89724857D01*
X132944000Y-89782000D02*
X133058286Y-89724857D01*
X133058286Y-89724857D02*
X133229714Y-89724857D01*
X133229714Y-89724857D02*
X133401143Y-89782000D01*
X133401143Y-89782000D02*
X133515428Y-89896285D01*
X133515428Y-89896285D02*
X133572571Y-90010571D01*
X133572571Y-90010571D02*
X133629714Y-90239142D01*
X133629714Y-90239142D02*
X133629714Y-90410571D01*
X133629714Y-90410571D02*
X133572571Y-90639142D01*
X133572571Y-90639142D02*
X133515428Y-90753428D01*
X133515428Y-90753428D02*
X133401143Y-90867714D01*
X133401143Y-90867714D02*
X133229714Y-90924857D01*
X133229714Y-90924857D02*
X133115428Y-90924857D01*
X133115428Y-90924857D02*
X132944000Y-90867714D01*
X132944000Y-90867714D02*
X132886857Y-90810571D01*
X132886857Y-90810571D02*
X132886857Y-90410571D01*
X132886857Y-90410571D02*
X133115428Y-90410571D01*
D10*
X93368857Y-138333857D02*
X92868857Y-138333857D01*
X92654571Y-139119571D02*
X93368857Y-139119571D01*
X93368857Y-139119571D02*
X93368857Y-137619571D01*
X93368857Y-137619571D02*
X92654571Y-137619571D01*
X92154571Y-137619571D02*
X91154571Y-139119571D01*
X91154571Y-137619571D02*
X92154571Y-139119571D01*
X90583143Y-139119571D02*
X90583143Y-137619571D01*
X90583143Y-137619571D02*
X90011714Y-137619571D01*
X90011714Y-137619571D02*
X89868857Y-137691000D01*
X89868857Y-137691000D02*
X89797428Y-137762428D01*
X89797428Y-137762428D02*
X89726000Y-137905285D01*
X89726000Y-137905285D02*
X89726000Y-138119571D01*
X89726000Y-138119571D02*
X89797428Y-138262428D01*
X89797428Y-138262428D02*
X89868857Y-138333857D01*
X89868857Y-138333857D02*
X90011714Y-138405285D01*
X90011714Y-138405285D02*
X90583143Y-138405285D01*
X89154571Y-137762428D02*
X89083143Y-137691000D01*
X89083143Y-137691000D02*
X88940286Y-137619571D01*
X88940286Y-137619571D02*
X88583143Y-137619571D01*
X88583143Y-137619571D02*
X88440286Y-137691000D01*
X88440286Y-137691000D02*
X88368857Y-137762428D01*
X88368857Y-137762428D02*
X88297428Y-137905285D01*
X88297428Y-137905285D02*
X88297428Y-138048142D01*
X88297428Y-138048142D02*
X88368857Y-138262428D01*
X88368857Y-138262428D02*
X89226000Y-139119571D01*
X89226000Y-139119571D02*
X88297428Y-139119571D01*
%LPC*%
D13*
%TO.C,JP7*%
X130555999Y-90359999D03*
D14*
X130555999Y-88359999D03*
X130555999Y-86359999D03*
%TD*%
D13*
%TO.C,JP6*%
X137667999Y-80961999D03*
D14*
X137667999Y-78961999D03*
X137667999Y-76961999D03*
%TD*%
D13*
%TO.C,JP5*%
X130555999Y-80961999D03*
D14*
X130555999Y-78961999D03*
X130555999Y-76961999D03*
%TD*%
D15*
%TO.C,H4*%
X156718000Y-135890000D03*
%TD*%
D16*
%TO.C,J6*%
X152331669Y-116650000D03*
X152331669Y-91650000D03*
D17*
X150911668Y-109689999D03*
D18*
X150911669Y-106920000D03*
X150911669Y-104150000D03*
X150911669Y-101380000D03*
X150911669Y-98610000D03*
X153751669Y-108305000D03*
X153751669Y-105535000D03*
X153751669Y-102765000D03*
X153751669Y-99995000D03*
%TD*%
D15*
%TO.C,H2*%
X75184000Y-79248000D03*
%TD*%
%TO.C,H3*%
X156718000Y-79248000D03*
%TD*%
D19*
%TO.C,J8*%
X110490000Y-135890000D03*
D20*
X110490000Y-133350000D03*
X113030000Y-135890000D03*
X113030000Y-133350000D03*
X115570000Y-135890000D03*
X115570000Y-133350000D03*
X118110000Y-135890000D03*
X118110000Y-133350000D03*
X120650000Y-135890000D03*
X120650000Y-133350000D03*
%TD*%
D21*
%TO.C,J1*%
X147827999Y-78993999D03*
D22*
X142748000Y-78994000D03*
%TD*%
D15*
%TO.C,H1*%
X75184000Y-135890000D03*
%TD*%
D23*
%TO.C,J4*%
X75184000Y-89528000D03*
D24*
X75183999Y-92027999D03*
X75183999Y-94527999D03*
X75183999Y-97027999D03*
%TD*%
D23*
%TO.C,J5*%
X75184000Y-113070000D03*
D24*
X75183999Y-115569999D03*
X75183999Y-118069999D03*
X75183999Y-120569999D03*
%TD*%
D25*
%TO.C,U2*%
X110304999Y-77599999D03*
D26*
X110604999Y-80629999D03*
X115454999Y-80629999D03*
D25*
X115754999Y-77599999D03*
D27*
X104139999Y-77469999D03*
X104139999Y-80009999D03*
D28*
X104139999Y-82549999D03*
D27*
X104139999Y-85089999D03*
X104139999Y-87629999D03*
X104139999Y-90169999D03*
X104139999Y-92709999D03*
D28*
X104139999Y-95249999D03*
D27*
X104139999Y-97789999D03*
X104139999Y-100329999D03*
X104139999Y-102869999D03*
X104139999Y-105409999D03*
D28*
X104139999Y-107949999D03*
D27*
X104139999Y-110489999D03*
X104139999Y-113029999D03*
X104139999Y-115569999D03*
X104139999Y-118109999D03*
D28*
X104139999Y-120649999D03*
D27*
X104139999Y-123189999D03*
X104139999Y-125729999D03*
X121919999Y-125729999D03*
X121919999Y-123189999D03*
D28*
X121919999Y-120649999D03*
D27*
X121919999Y-118109999D03*
X121919999Y-115569999D03*
X121919999Y-113029999D03*
X121919999Y-110489999D03*
D28*
X121919999Y-107949999D03*
D27*
X121919999Y-105409999D03*
X121919999Y-102869999D03*
X121919999Y-100329999D03*
X121919999Y-97789999D03*
D28*
X121919999Y-95249999D03*
D27*
X121919999Y-92709999D03*
X121919999Y-90169999D03*
X121919999Y-87629999D03*
X121919999Y-85089999D03*
D28*
X121919999Y-82549999D03*
D27*
X121919999Y-80009999D03*
X121919999Y-77469999D03*
X110489999Y-125499999D03*
D28*
X113029999Y-125499999D03*
D27*
X115569999Y-125499999D03*
%TD*%
D19*
%TO.C,J9*%
X86360000Y-135890000D03*
D20*
X86360000Y-133350000D03*
X88900000Y-135890000D03*
X88900000Y-133350000D03*
X91440000Y-135890000D03*
X91440000Y-133350000D03*
X93980000Y-135890000D03*
X93980000Y-133350000D03*
X96520000Y-135890000D03*
X96520000Y-133350000D03*
%TD*%
D29*
%TO.C,J3*%
X94995999Y-107949999D03*
D30*
X94996000Y-110490000D03*
X94996000Y-113030000D03*
X94996000Y-115570000D03*
X94996000Y-118110000D03*
X94996000Y-120650000D03*
X94996000Y-123190000D03*
X94996000Y-125730000D03*
X82296000Y-125730000D03*
X82296000Y-123190000D03*
X82296000Y-120650000D03*
X82296000Y-118110000D03*
X82296000Y-115570000D03*
X82296000Y-113030000D03*
X82296000Y-110490000D03*
X82296000Y-107950000D03*
%TD*%
D29*
%TO.C,J2*%
X94995999Y-84259999D03*
D30*
X94996000Y-86800000D03*
X94996000Y-89340000D03*
X94996000Y-91880000D03*
X94996000Y-94420000D03*
X94996000Y-96960000D03*
X94996000Y-99500000D03*
X94996000Y-102040000D03*
X82296000Y-102040000D03*
X82296000Y-99500000D03*
X82296000Y-96960000D03*
X82296000Y-94420000D03*
X82296000Y-91880000D03*
X82296000Y-89340000D03*
X82296000Y-86800000D03*
X82296000Y-84260000D03*
%TD*%
M02*
