%TF.GenerationSoftware,KiCad,Pcbnew,(7.0.0)*%
%TF.CreationDate,2023-03-06T19:08:15+13:00*%
%TF.ProjectId,pico_expansion_board,7069636f-5f65-4787-9061-6e73696f6e5f,rev?*%
%TF.SameCoordinates,Original*%
%TF.FileFunction,Soldermask,Top*%
%TF.FilePolarity,Negative*%
%FSLAX46Y46*%
G04 Gerber Fmt 4.6, Leading zero omitted, Abs format (unit mm)*
G04 Created by KiCad (PCBNEW (7.0.0)) date 2023-03-06 19:08:15*
%MOMM*%
%LPD*%
G01*
G04 APERTURE LIST*
G04 Aperture macros list*
%AMRoundRect*
0 Rectangle with rounded corners*
0 $1 Rounding radius*
0 $2 $3 $4 $5 $6 $7 $8 $9 X,Y pos of 4 corners*
0 Add a 4 corners polygon primitive as box body*
4,1,4,$2,$3,$4,$5,$6,$7,$8,$9,$2,$3,0*
0 Add four circle primitives for the rounded corners*
1,1,$1+$1,$2,$3*
1,1,$1+$1,$4,$5*
1,1,$1+$1,$6,$7*
1,1,$1+$1,$8,$9*
0 Add four rect primitives between the rounded corners*
20,1,$1+$1,$2,$3,$4,$5,0*
20,1,$1+$1,$4,$5,$6,$7,0*
20,1,$1+$1,$6,$7,$8,$9,0*
20,1,$1+$1,$8,$9,$2,$3,0*%
G04 Aperture macros list end*
%ADD10RoundRect,0.250000X1.950000X1.000000X-1.950000X1.000000X-1.950000X-1.000000X1.950000X-1.000000X0*%
%ADD11R,1.350000X1.350000*%
%ADD12O,1.350000X1.350000*%
%ADD13RoundRect,0.150000X0.150000X-0.725000X0.150000X0.725000X-0.150000X0.725000X-0.150000X-0.725000X0*%
%ADD14R,3.000000X3.000000*%
%ADD15C,3.000000*%
%ADD16RoundRect,0.250000X-0.475000X0.250000X-0.475000X-0.250000X0.475000X-0.250000X0.475000X0.250000X0*%
%ADD17RoundRect,0.250000X0.450000X-0.262500X0.450000X0.262500X-0.450000X0.262500X-0.450000X-0.262500X0*%
%ADD18RoundRect,0.250000X0.475000X-0.250000X0.475000X0.250000X-0.475000X0.250000X-0.475000X-0.250000X0*%
%ADD19RoundRect,0.150000X0.725000X0.150000X-0.725000X0.150000X-0.725000X-0.150000X0.725000X-0.150000X0*%
%ADD20C,6.400000*%
%ADD21RoundRect,0.250000X0.550000X-1.500000X0.550000X1.500000X-0.550000X1.500000X-0.550000X-1.500000X0*%
%ADD22RoundRect,0.250000X-0.250000X-0.475000X0.250000X-0.475000X0.250000X0.475000X-0.250000X0.475000X0*%
%ADD23R,1.300000X1.550000*%
%ADD24RoundRect,0.250000X0.250000X0.475000X-0.250000X0.475000X-0.250000X-0.475000X0.250000X-0.475000X0*%
%ADD25R,1.525000X0.650000*%
%ADD26R,2.600000X3.100000*%
%ADD27R,2.000000X2.000000*%
%ADD28R,3.000000X4.000000*%
%ADD29RoundRect,0.250000X0.600000X-0.600000X0.600000X0.600000X-0.600000X0.600000X-0.600000X-0.600000X0*%
%ADD30C,1.700000*%
%ADD31O,1.800000X1.800000*%
%ADD32O,1.500000X1.500000*%
%ADD33O,1.700000X1.700000*%
%ADD34R,3.500000X1.700000*%
%ADD35R,1.700000X1.700000*%
%ADD36R,1.700000X3.500000*%
%ADD37C,1.200000*%
%ADD38RoundRect,0.250000X-0.725000X0.600000X-0.725000X-0.600000X0.725000X-0.600000X0.725000X0.600000X0*%
%ADD39O,1.950000X1.700000*%
%ADD40RoundRect,0.150000X-0.825000X-0.150000X0.825000X-0.150000X0.825000X0.150000X-0.825000X0.150000X0*%
%ADD41RoundRect,0.250000X-0.450000X0.262500X-0.450000X-0.262500X0.450000X-0.262500X0.450000X0.262500X0*%
%ADD42R,1.800000X1.700000*%
%ADD43C,4.000000*%
%ADD44R,1.600000X1.600000*%
%ADD45C,1.600000*%
%ADD46R,2.100000X2.100000*%
%ADD47C,2.100000*%
G04 APERTURE END LIST*
D10*
%TO.C,C18*%
X119770000Y-100330000D03*
X111370000Y-100330000D03*
%TD*%
D11*
%TO.C,JP3*%
X68103999Y-94233999D03*
D12*
X70103999Y-94233999D03*
%TD*%
D13*
%TO.C,U2*%
X92329000Y-83093000D03*
X93599000Y-83093000D03*
X94869000Y-83093000D03*
X96139000Y-83093000D03*
X96139000Y-77943000D03*
X94869000Y-77943000D03*
X93599000Y-77943000D03*
X92329000Y-77943000D03*
%TD*%
D14*
%TO.C,J1*%
X126237999Y-123189999D03*
D15*
X131318000Y-123190000D03*
%TD*%
D16*
%TO.C,C5*%
X124460000Y-112588000D03*
X124460000Y-114488000D03*
%TD*%
D17*
%TO.C,R1*%
X111252000Y-73048500D03*
X111252000Y-71223500D03*
%TD*%
D18*
%TO.C,C7*%
X111571000Y-90993000D03*
X111571000Y-89093000D03*
%TD*%
D19*
%TO.C,U5*%
X96301000Y-97409000D03*
X96301000Y-96139000D03*
X96301000Y-94869000D03*
X96301000Y-93599000D03*
X91151000Y-93599000D03*
X91151000Y-94869000D03*
X91151000Y-96139000D03*
X91151000Y-97409000D03*
%TD*%
D20*
%TO.C,H2*%
X55512000Y-123190000D03*
%TD*%
D18*
%TO.C,C2*%
X98552000Y-79436000D03*
X98552000Y-77536000D03*
%TD*%
D21*
%TO.C,C11*%
X69596000Y-107602000D03*
X69596000Y-102202000D03*
%TD*%
D22*
%TO.C,C1*%
X114431000Y-79375000D03*
X116331000Y-79375000D03*
%TD*%
D23*
%TO.C,SW1*%
X118653999Y-78396999D03*
X118653999Y-70446999D03*
X123153999Y-78396999D03*
X123153999Y-70446999D03*
%TD*%
D24*
%TO.C,C3*%
X95184000Y-85852000D03*
X93284000Y-85852000D03*
%TD*%
D16*
%TO.C,C9*%
X127254000Y-112588000D03*
X127254000Y-114488000D03*
%TD*%
%TO.C,C4*%
X122428000Y-80838000D03*
X122428000Y-82738000D03*
%TD*%
D25*
%TO.C,IC1*%
X116413999Y-110616999D03*
X116413999Y-111886999D03*
X116413999Y-113156999D03*
X116413999Y-114426999D03*
X121837999Y-114426999D03*
X121837999Y-113156999D03*
X121837999Y-111886999D03*
X121837999Y-110616999D03*
D26*
X119125999Y-112521999D03*
%TD*%
D27*
%TO.C,TP7*%
X69341999Y-62737999D03*
%TD*%
D12*
%TO.C,JP1*%
X69934999Y-68257999D03*
D11*
X67934999Y-68257999D03*
%TD*%
D20*
%TO.C,H4*%
X117488000Y-63246000D03*
%TD*%
D28*
%TO.C,L1*%
X128740499Y-106445999D03*
X128740499Y-96245999D03*
%TD*%
D29*
%TO.C,J8*%
X94742000Y-121666000D03*
D30*
X94742000Y-119126000D03*
X97282000Y-121666000D03*
X97282000Y-119126000D03*
X99822000Y-121666000D03*
X99822000Y-119126000D03*
X102362000Y-121666000D03*
X102362000Y-119126000D03*
X104902000Y-121666000D03*
X104902000Y-119126000D03*
%TD*%
D11*
%TO.C,JP9*%
X114553999Y-73405999D03*
D12*
X114553999Y-71405999D03*
%TD*%
D24*
%TO.C,C19*%
X123632000Y-93726000D03*
X121732000Y-93726000D03*
%TD*%
D18*
%TO.C,C8*%
X111571000Y-83373000D03*
X111571000Y-81473000D03*
%TD*%
D14*
%TO.C,J10*%
X131571999Y-62991999D03*
D15*
X126492000Y-62992000D03*
%TD*%
D21*
%TO.C,C12*%
X69596000Y-81522000D03*
X69596000Y-76122000D03*
%TD*%
D16*
%TO.C,C16*%
X130048000Y-112588000D03*
X130048000Y-114488000D03*
%TD*%
D31*
%TO.C,U3*%
X91000999Y-62359999D03*
D32*
X91300999Y-65389999D03*
X96150999Y-65389999D03*
D31*
X96450999Y-62359999D03*
D33*
X84835999Y-62229999D03*
D34*
X83935999Y-62229999D03*
D33*
X84835999Y-64769999D03*
D34*
X83935999Y-64769999D03*
D35*
X84835999Y-67309999D03*
D34*
X83935999Y-67309999D03*
D33*
X84835999Y-69849999D03*
D34*
X83935999Y-69849999D03*
D33*
X84835999Y-72389999D03*
D34*
X83935999Y-72389999D03*
D33*
X84835999Y-74929999D03*
D34*
X83935999Y-74929999D03*
D33*
X84835999Y-77469999D03*
D34*
X83935999Y-77469999D03*
D35*
X84835999Y-80009999D03*
D34*
X83935999Y-80009999D03*
D33*
X84835999Y-82549999D03*
D34*
X83935999Y-82549999D03*
D33*
X84835999Y-85089999D03*
D34*
X83935999Y-85089999D03*
D33*
X84835999Y-87629999D03*
D34*
X83935999Y-87629999D03*
D33*
X84835999Y-90169999D03*
D34*
X83935999Y-90169999D03*
D35*
X84835999Y-92709999D03*
D34*
X83935999Y-92709999D03*
D33*
X84835999Y-95249999D03*
D34*
X83935999Y-95249999D03*
D33*
X84835999Y-97789999D03*
D34*
X83935999Y-97789999D03*
D33*
X84835999Y-100329999D03*
D34*
X83935999Y-100329999D03*
D33*
X84835999Y-102869999D03*
D34*
X83935999Y-102869999D03*
D35*
X84835999Y-105409999D03*
D34*
X83935999Y-105409999D03*
D33*
X84835999Y-107949999D03*
D34*
X83935999Y-107949999D03*
D33*
X84835999Y-110489999D03*
D34*
X83935999Y-110489999D03*
D33*
X102615999Y-110489999D03*
D34*
X103515999Y-110489999D03*
D33*
X102615999Y-107949999D03*
D34*
X103515999Y-107949999D03*
D35*
X102615999Y-105409999D03*
D34*
X103515999Y-105409999D03*
D33*
X102615999Y-102869999D03*
D34*
X103515999Y-102869999D03*
D33*
X102615999Y-100329999D03*
D34*
X103515999Y-100329999D03*
D33*
X102615999Y-97789999D03*
D34*
X103515999Y-97789999D03*
D33*
X102615999Y-95249999D03*
D34*
X103515999Y-95249999D03*
D35*
X102615999Y-92709999D03*
D34*
X103515999Y-92709999D03*
D33*
X102615999Y-90169999D03*
D34*
X103515999Y-90169999D03*
D33*
X102615999Y-87629999D03*
D34*
X103515999Y-87629999D03*
D33*
X102615999Y-85089999D03*
D34*
X103515999Y-85089999D03*
D33*
X102615999Y-82549999D03*
D34*
X103515999Y-82549999D03*
D35*
X102615999Y-80009999D03*
D34*
X103515999Y-80009999D03*
D33*
X102615999Y-77469999D03*
D34*
X103515999Y-77469999D03*
D33*
X102615999Y-74929999D03*
D34*
X103515999Y-74929999D03*
D33*
X102615999Y-72389999D03*
D34*
X103515999Y-72389999D03*
D33*
X102615999Y-69849999D03*
D34*
X103515999Y-69849999D03*
D35*
X102615999Y-67309999D03*
D34*
X103515999Y-67309999D03*
D33*
X102615999Y-64769999D03*
D34*
X103515999Y-64769999D03*
D33*
X102615999Y-62229999D03*
D34*
X103515999Y-62229999D03*
D33*
X91185999Y-110259999D03*
D36*
X91185999Y-111159999D03*
D35*
X93725999Y-110259999D03*
D36*
X93725999Y-111159999D03*
D33*
X96265999Y-110259999D03*
D36*
X96265999Y-111159999D03*
%TD*%
D16*
%TO.C,C6*%
X111571000Y-85283000D03*
X111571000Y-87183000D03*
%TD*%
D37*
%TO.C,J4*%
X54134000Y-70910000D03*
D38*
X56134000Y-72510000D03*
D39*
X56133999Y-75009999D03*
X56133999Y-77509999D03*
X56133999Y-80009999D03*
%TD*%
D40*
%TO.C,U1*%
X114684000Y-81788000D03*
X114684000Y-83058000D03*
X114684000Y-84328000D03*
X114684000Y-85598000D03*
X114684000Y-86868000D03*
X114684000Y-88138000D03*
X114684000Y-89408000D03*
X114684000Y-90678000D03*
X119634000Y-90678000D03*
X119634000Y-89408000D03*
X119634000Y-88138000D03*
X119634000Y-86868000D03*
X119634000Y-85598000D03*
X119634000Y-84328000D03*
X119634000Y-83058000D03*
X119634000Y-81788000D03*
%TD*%
D37*
%TO.C,J5*%
X54134000Y-96738000D03*
D38*
X56134000Y-98338000D03*
D39*
X56133999Y-100837999D03*
X56133999Y-103337999D03*
X56133999Y-105837999D03*
%TD*%
D17*
%TO.C,R6*%
X114046000Y-113180500D03*
X114046000Y-111355500D03*
%TD*%
D27*
%TO.C,TP1*%
X129285999Y-80771999D03*
%TD*%
D20*
%TO.C,H1*%
X55512000Y-63246000D03*
%TD*%
D27*
%TO.C,TP8*%
X75691999Y-63753999D03*
%TD*%
D17*
%TO.C,R3*%
X80264000Y-77112500D03*
X80264000Y-75287500D03*
%TD*%
D41*
%TO.C,R2*%
X111760000Y-111355500D03*
X111760000Y-113180500D03*
%TD*%
D42*
%TO.C,D1*%
X112503999Y-107695999D03*
X116603999Y-107695999D03*
%TD*%
D11*
%TO.C,JP4*%
X70087999Y-97535999D03*
D12*
X68087999Y-97535999D03*
%TD*%
D27*
%TO.C,TP6*%
X133857999Y-116077999D03*
%TD*%
D43*
%TO.C,J7*%
X140139669Y-88710000D03*
X140139669Y-63710000D03*
D44*
X138719668Y-81749999D03*
D45*
X138719669Y-78980000D03*
X138719669Y-76210000D03*
X138719669Y-73440000D03*
X138719669Y-70670000D03*
X141559669Y-80365000D03*
X141559669Y-77595000D03*
X141559669Y-74825000D03*
X141559669Y-72055000D03*
%TD*%
D27*
%TO.C,TP4*%
X68071999Y-88899999D03*
%TD*%
D46*
%TO.C,J3*%
X75945999Y-93217999D03*
D47*
X75946000Y-95758000D03*
X75946000Y-98298000D03*
X75946000Y-100838000D03*
X75946000Y-103378000D03*
X75946000Y-105918000D03*
X75946000Y-108458000D03*
X75946000Y-110998000D03*
X63246000Y-110998000D03*
X63246000Y-108458000D03*
X63246000Y-105918000D03*
X63246000Y-103378000D03*
X63246000Y-100838000D03*
X63246000Y-98298000D03*
X63246000Y-95758000D03*
X63246000Y-93218000D03*
%TD*%
D43*
%TO.C,J6*%
X140139669Y-123762000D03*
X140139669Y-98762000D03*
D44*
X138719668Y-116801999D03*
D45*
X138719669Y-114032000D03*
X138719669Y-111262000D03*
X138719669Y-108492000D03*
X138719669Y-105722000D03*
X141559669Y-115417000D03*
X141559669Y-112647000D03*
X141559669Y-109877000D03*
X141559669Y-107107000D03*
%TD*%
D46*
%TO.C,J2*%
X75945999Y-67241999D03*
D47*
X75946000Y-69782000D03*
X75946000Y-72322000D03*
X75946000Y-74862000D03*
X75946000Y-77402000D03*
X75946000Y-79942000D03*
X75946000Y-82482000D03*
X75946000Y-85022000D03*
X63246000Y-85022000D03*
X63246000Y-82482000D03*
X63246000Y-79942000D03*
X63246000Y-77402000D03*
X63246000Y-74862000D03*
X63246000Y-72322000D03*
X63246000Y-69782000D03*
X63246000Y-67242000D03*
%TD*%
D20*
%TO.C,H3*%
X117488000Y-123190000D03*
%TD*%
D29*
%TO.C,J9*%
X69596000Y-121666000D03*
D30*
X69596000Y-119126000D03*
X72136000Y-121666000D03*
X72136000Y-119126000D03*
X74676000Y-121666000D03*
X74676000Y-119126000D03*
X77216000Y-121666000D03*
X77216000Y-119126000D03*
X79756000Y-121666000D03*
X79756000Y-119126000D03*
%TD*%
D27*
%TO.C,TP2*%
X129285999Y-86105999D03*
%TD*%
D22*
%TO.C,C17*%
X119446000Y-107696000D03*
X121346000Y-107696000D03*
%TD*%
D11*
%TO.C,JP2*%
X69960999Y-71627999D03*
D12*
X67960999Y-71627999D03*
%TD*%
D27*
%TO.C,TP5*%
X89153999Y-102869999D03*
%TD*%
M02*
