%TF.GenerationSoftware,KiCad,Pcbnew,(7.0.0)*%
%TF.CreationDate,2023-04-01T02:11:53+13:00*%
%TF.ProjectId,pico_expansion_board,7069636f-5f65-4787-9061-6e73696f6e5f,rev?*%
%TF.SameCoordinates,Original*%
%TF.FileFunction,Soldermask,Top*%
%TF.FilePolarity,Negative*%
%FSLAX46Y46*%
G04 Gerber Fmt 4.6, Leading zero omitted, Abs format (unit mm)*
G04 Created by KiCad (PCBNEW (7.0.0)) date 2023-04-01 02:11:53*
%MOMM*%
%LPD*%
G01*
G04 APERTURE LIST*
G04 Aperture macros list*
%AMRoundRect*
0 Rectangle with rounded corners*
0 $1 Rounding radius*
0 $2 $3 $4 $5 $6 $7 $8 $9 X,Y pos of 4 corners*
0 Add a 4 corners polygon primitive as box body*
4,1,4,$2,$3,$4,$5,$6,$7,$8,$9,$2,$3,0*
0 Add four circle primitives for the rounded corners*
1,1,$1+$1,$2,$3*
1,1,$1+$1,$4,$5*
1,1,$1+$1,$6,$7*
1,1,$1+$1,$8,$9*
0 Add four rect primitives between the rounded corners*
20,1,$1+$1,$2,$3,$4,$5,0*
20,1,$1+$1,$4,$5,$6,$7,0*
20,1,$1+$1,$6,$7,$8,$9,0*
20,1,$1+$1,$8,$9,$2,$3,0*%
G04 Aperture macros list end*
%ADD10R,1.350000X1.350000*%
%ADD11O,1.350000X1.350000*%
%ADD12RoundRect,0.250000X-0.450000X0.325000X-0.450000X-0.325000X0.450000X-0.325000X0.450000X0.325000X0*%
%ADD13C,6.400000*%
%ADD14C,4.000000*%
%ADD15R,1.600000X1.600000*%
%ADD16C,1.600000*%
%ADD17RoundRect,0.250000X0.450000X-0.350000X0.450000X0.350000X-0.450000X0.350000X-0.450000X-0.350000X0*%
%ADD18RoundRect,0.150000X0.725000X0.150000X-0.725000X0.150000X-0.725000X-0.150000X0.725000X-0.150000X0*%
%ADD19RoundRect,0.250000X-0.450000X0.350000X-0.450000X-0.350000X0.450000X-0.350000X0.450000X0.350000X0*%
%ADD20RoundRect,0.250000X0.337500X0.475000X-0.337500X0.475000X-0.337500X-0.475000X0.337500X-0.475000X0*%
%ADD21RoundRect,0.250000X0.550000X-1.500000X0.550000X1.500000X-0.550000X1.500000X-0.550000X-1.500000X0*%
%ADD22R,1.550000X1.300000*%
%ADD23R,2.000000X2.000000*%
%ADD24R,3.000000X4.000000*%
%ADD25R,2.000000X1.500000*%
%ADD26R,2.000000X3.800000*%
%ADD27RoundRect,0.250000X-0.475000X0.337500X-0.475000X-0.337500X0.475000X-0.337500X0.475000X0.337500X0*%
%ADD28RoundRect,0.250000X-0.337500X-0.475000X0.337500X-0.475000X0.337500X0.475000X-0.337500X0.475000X0*%
%ADD29RoundRect,0.250000X0.600000X-0.600000X0.600000X0.600000X-0.600000X0.600000X-0.600000X-0.600000X0*%
%ADD30C,1.700000*%
%ADD31R,3.000000X3.000000*%
%ADD32C,3.000000*%
%ADD33RoundRect,0.150000X-0.512500X-0.150000X0.512500X-0.150000X0.512500X0.150000X-0.512500X0.150000X0*%
%ADD34RoundRect,0.250000X-0.725000X0.600000X-0.725000X-0.600000X0.725000X-0.600000X0.725000X0.600000X0*%
%ADD35O,1.950000X1.700000*%
%ADD36O,1.800000X1.800000*%
%ADD37O,1.500000X1.500000*%
%ADD38O,1.700000X1.700000*%
%ADD39R,3.500000X1.700000*%
%ADD40R,1.700000X1.700000*%
%ADD41R,1.700000X3.500000*%
%ADD42RoundRect,0.250000X0.475000X-0.337500X0.475000X0.337500X-0.475000X0.337500X-0.475000X-0.337500X0*%
%ADD43R,1.800000X1.700000*%
%ADD44R,1.800000X1.800000*%
%ADD45C,1.800000*%
%ADD46RoundRect,0.150000X-0.825000X-0.150000X0.825000X-0.150000X0.825000X0.150000X-0.825000X0.150000X0*%
%ADD47RoundRect,0.250000X-1.950000X-1.000000X1.950000X-1.000000X1.950000X1.000000X-1.950000X1.000000X0*%
%ADD48R,0.650000X1.525000*%
%ADD49R,3.100000X2.600000*%
G04 APERTURE END LIST*
D10*
%TO.C,JP7*%
X130555999Y-90359999D03*
D11*
X130555999Y-88359999D03*
X130555999Y-86359999D03*
%TD*%
D10*
%TO.C,JP6*%
X137667999Y-80961999D03*
D11*
X137667999Y-78961999D03*
X137667999Y-76961999D03*
%TD*%
D10*
%TO.C,JP5*%
X130555999Y-80961999D03*
D11*
X130555999Y-78961999D03*
X130555999Y-76961999D03*
%TD*%
D12*
%TO.C,D2*%
X141732000Y-85589000D03*
X141732000Y-87639000D03*
%TD*%
D13*
%TO.C,H4*%
X156718000Y-135890000D03*
%TD*%
D14*
%TO.C,J6*%
X152331669Y-116650000D03*
X152331669Y-91650000D03*
D15*
X150911668Y-109689999D03*
D16*
X150911669Y-106920000D03*
X150911669Y-104150000D03*
X150911669Y-101380000D03*
X150911669Y-98610000D03*
X153751669Y-108305000D03*
X153751669Y-105535000D03*
X153751669Y-102765000D03*
X153751669Y-99995000D03*
%TD*%
D17*
%TO.C,R5*%
X109220000Y-109712000D03*
X109220000Y-107712000D03*
%TD*%
D13*
%TO.C,H2*%
X75184000Y-79248000D03*
%TD*%
D18*
%TO.C,U3*%
X117383000Y-109347000D03*
X117383000Y-108077000D03*
X117383000Y-106807000D03*
X117383000Y-105537000D03*
X112233000Y-105537000D03*
X112233000Y-106807000D03*
X112233000Y-108077000D03*
X112233000Y-109347000D03*
%TD*%
D19*
%TO.C,R7*%
X141732000Y-90186000D03*
X141732000Y-92186000D03*
%TD*%
D20*
%TO.C,C14*%
X115277500Y-116728000D03*
X113202500Y-116728000D03*
%TD*%
D21*
%TO.C,C8*%
X88646000Y-122334000D03*
X88646000Y-116934000D03*
%TD*%
D22*
%TO.C,SW1*%
X149948999Y-122971999D03*
X157898999Y-122971999D03*
X149948999Y-127471999D03*
X157898999Y-127471999D03*
%TD*%
D23*
%TO.C,TP5*%
X134111999Y-77215999D03*
%TD*%
D19*
%TO.C,R9*%
X145288000Y-90186000D03*
X145288000Y-92186000D03*
%TD*%
D17*
%TO.C,R4*%
X98298000Y-92948000D03*
X98298000Y-90948000D03*
%TD*%
D24*
%TO.C,L1*%
X133058499Y-131083999D03*
X133058499Y-120883999D03*
%TD*%
D23*
%TO.C,TP3*%
X91693999Y-78993999D03*
%TD*%
D12*
%TO.C,D4*%
X145288000Y-85589000D03*
X145288000Y-87639000D03*
%TD*%
D25*
%TO.C,U5*%
X133755999Y-94713999D03*
X133755999Y-97013999D03*
D26*
X140055999Y-97013999D03*
D25*
X133755999Y-99313999D03*
%TD*%
D27*
%TO.C,C6*%
X107566000Y-91672500D03*
X107566000Y-93747500D03*
%TD*%
%TO.C,C2*%
X107566000Y-87100500D03*
X107566000Y-89175500D03*
%TD*%
D28*
%TO.C,C4*%
X141202500Y-121666000D03*
X143277500Y-121666000D03*
%TD*%
D19*
%TO.C,R8*%
X137922000Y-90186000D03*
X137922000Y-92186000D03*
%TD*%
D13*
%TO.C,H3*%
X156718000Y-79248000D03*
%TD*%
D29*
%TO.C,J8*%
X110490000Y-135890000D03*
D30*
X110490000Y-133350000D03*
X113030000Y-135890000D03*
X113030000Y-133350000D03*
X115570000Y-135890000D03*
X115570000Y-133350000D03*
X118110000Y-135890000D03*
X118110000Y-133350000D03*
X120650000Y-135890000D03*
X120650000Y-133350000D03*
%TD*%
D31*
%TO.C,J1*%
X147827999Y-78993999D03*
D32*
X142748000Y-78994000D03*
%TD*%
D23*
%TO.C,TP2*%
X96265999Y-78993999D03*
%TD*%
D13*
%TO.C,H1*%
X75184000Y-135890000D03*
%TD*%
D28*
%TO.C,C13*%
X137879000Y-103378000D03*
X139954000Y-103378000D03*
%TD*%
D21*
%TO.C,C9*%
X88646000Y-98540000D03*
X88646000Y-93140000D03*
%TD*%
D33*
%TO.C,U4*%
X112908500Y-119192000D03*
X112908500Y-120142000D03*
X112908500Y-121092000D03*
X115183500Y-121092000D03*
X115183500Y-119192000D03*
%TD*%
D34*
%TO.C,J4*%
X75184000Y-89528000D03*
D35*
X75183999Y-92027999D03*
X75183999Y-94527999D03*
X75183999Y-97027999D03*
%TD*%
D28*
%TO.C,C3*%
X141202500Y-124714000D03*
X143277500Y-124714000D03*
%TD*%
D34*
%TO.C,J5*%
X75184000Y-113070000D03*
D35*
X75183999Y-115569999D03*
X75183999Y-118069999D03*
X75183999Y-120569999D03*
%TD*%
D28*
%TO.C,C1*%
X141202500Y-127762000D03*
X143277500Y-127762000D03*
%TD*%
D36*
%TO.C,U2*%
X110304999Y-77599999D03*
D37*
X110604999Y-80629999D03*
X115454999Y-80629999D03*
D36*
X115754999Y-77599999D03*
D38*
X104139999Y-77469999D03*
D39*
X103239999Y-77469999D03*
D38*
X104139999Y-80009999D03*
D39*
X103239999Y-80009999D03*
D40*
X104139999Y-82549999D03*
D39*
X103239999Y-82549999D03*
D38*
X104139999Y-85089999D03*
D39*
X103239999Y-85089999D03*
D38*
X104139999Y-87629999D03*
D39*
X103239999Y-87629999D03*
D38*
X104139999Y-90169999D03*
D39*
X103239999Y-90169999D03*
D38*
X104139999Y-92709999D03*
D39*
X103239999Y-92709999D03*
D40*
X104139999Y-95249999D03*
D39*
X103239999Y-95249999D03*
D38*
X104139999Y-97789999D03*
D39*
X103239999Y-97789999D03*
D38*
X104139999Y-100329999D03*
D39*
X103239999Y-100329999D03*
D38*
X104139999Y-102869999D03*
D39*
X103239999Y-102869999D03*
D38*
X104139999Y-105409999D03*
D39*
X103239999Y-105409999D03*
D40*
X104139999Y-107949999D03*
D39*
X103239999Y-107949999D03*
D38*
X104139999Y-110489999D03*
D39*
X103239999Y-110489999D03*
D38*
X104139999Y-113029999D03*
D39*
X103239999Y-113029999D03*
D38*
X104139999Y-115569999D03*
D39*
X103239999Y-115569999D03*
D38*
X104139999Y-118109999D03*
D39*
X103239999Y-118109999D03*
D40*
X104139999Y-120649999D03*
D39*
X103239999Y-120649999D03*
D38*
X104139999Y-123189999D03*
D39*
X103239999Y-123189999D03*
D38*
X104139999Y-125729999D03*
D39*
X103239999Y-125729999D03*
D38*
X121919999Y-125729999D03*
D39*
X122819999Y-125729999D03*
D38*
X121919999Y-123189999D03*
D39*
X122819999Y-123189999D03*
D40*
X121919999Y-120649999D03*
D39*
X122819999Y-120649999D03*
D38*
X121919999Y-118109999D03*
D39*
X122819999Y-118109999D03*
D38*
X121919999Y-115569999D03*
D39*
X122819999Y-115569999D03*
D38*
X121919999Y-113029999D03*
D39*
X122819999Y-113029999D03*
D38*
X121919999Y-110489999D03*
D39*
X122819999Y-110489999D03*
D40*
X121919999Y-107949999D03*
D39*
X122819999Y-107949999D03*
D38*
X121919999Y-105409999D03*
D39*
X122819999Y-105409999D03*
D38*
X121919999Y-102869999D03*
D39*
X122819999Y-102869999D03*
D38*
X121919999Y-100329999D03*
D39*
X122819999Y-100329999D03*
D38*
X121919999Y-97789999D03*
D39*
X122819999Y-97789999D03*
D40*
X121919999Y-95249999D03*
D39*
X122819999Y-95249999D03*
D38*
X121919999Y-92709999D03*
D39*
X122819999Y-92709999D03*
D38*
X121919999Y-90169999D03*
D39*
X122819999Y-90169999D03*
D38*
X121919999Y-87629999D03*
D39*
X122819999Y-87629999D03*
D38*
X121919999Y-85089999D03*
D39*
X122819999Y-85089999D03*
D40*
X121919999Y-82549999D03*
D39*
X122819999Y-82549999D03*
D38*
X121919999Y-80009999D03*
D39*
X122819999Y-80009999D03*
D38*
X121919999Y-77469999D03*
D39*
X122819999Y-77469999D03*
D38*
X110489999Y-125499999D03*
D41*
X110489999Y-126399999D03*
D40*
X113029999Y-125499999D03*
D41*
X113029999Y-126399999D03*
D38*
X115569999Y-125499999D03*
D41*
X115569999Y-126399999D03*
%TD*%
D29*
%TO.C,J9*%
X86360000Y-135890000D03*
D30*
X86360000Y-133350000D03*
X88900000Y-135890000D03*
X88900000Y-133350000D03*
X91440000Y-135890000D03*
X91440000Y-133350000D03*
X93980000Y-135890000D03*
X93980000Y-133350000D03*
X96520000Y-135890000D03*
X96520000Y-133350000D03*
%TD*%
D12*
%TO.C,D3*%
X137922000Y-85589000D03*
X137922000Y-87639000D03*
%TD*%
D17*
%TO.C,R6*%
X109922000Y-120522000D03*
X109922000Y-118522000D03*
%TD*%
%TO.C,R2*%
X146558000Y-133588000D03*
X146558000Y-131588000D03*
%TD*%
D42*
%TO.C,C15*%
X143510000Y-98065500D03*
X143510000Y-95990500D03*
%TD*%
D28*
%TO.C,C11*%
X110338500Y-85852000D03*
X112413500Y-85852000D03*
%TD*%
D43*
%TO.C,D1*%
X142003999Y-118363999D03*
X137903999Y-118363999D03*
%TD*%
D44*
%TO.C,J3*%
X94995999Y-107949999D03*
D45*
X94996000Y-110490000D03*
X94996000Y-113030000D03*
X94996000Y-115570000D03*
X94996000Y-118110000D03*
X94996000Y-120650000D03*
X94996000Y-123190000D03*
X94996000Y-125730000D03*
X82296000Y-125730000D03*
X82296000Y-123190000D03*
X82296000Y-120650000D03*
X82296000Y-118110000D03*
X82296000Y-115570000D03*
X82296000Y-113030000D03*
X82296000Y-110490000D03*
X82296000Y-107950000D03*
%TD*%
D46*
%TO.C,U1*%
X110744000Y-88646000D03*
X110744000Y-89916000D03*
X110744000Y-91186000D03*
X110744000Y-92456000D03*
X110744000Y-93726000D03*
X110744000Y-94996000D03*
X110744000Y-96266000D03*
X110744000Y-97536000D03*
X115694000Y-97536000D03*
X115694000Y-96266000D03*
X115694000Y-94996000D03*
X115694000Y-93726000D03*
X115694000Y-92456000D03*
X115694000Y-91186000D03*
X115694000Y-89916000D03*
X115694000Y-88646000D03*
%TD*%
D47*
%TO.C,C12*%
X134738000Y-110998000D03*
X143138000Y-110998000D03*
%TD*%
D28*
%TO.C,C5*%
X115548500Y-85852000D03*
X117623500Y-85852000D03*
%TD*%
D19*
%TO.C,R3*%
X109220000Y-103394000D03*
X109220000Y-105394000D03*
%TD*%
D42*
%TO.C,C7*%
X107566000Y-98319500D03*
X107566000Y-96244500D03*
%TD*%
%TO.C,C10*%
X136906000Y-135403500D03*
X136906000Y-133328500D03*
%TD*%
D44*
%TO.C,J2*%
X94995999Y-84259999D03*
D45*
X94996000Y-86800000D03*
X94996000Y-89340000D03*
X94996000Y-91880000D03*
X94996000Y-94420000D03*
X94996000Y-96960000D03*
X94996000Y-99500000D03*
X94996000Y-102040000D03*
X82296000Y-102040000D03*
X82296000Y-99500000D03*
X82296000Y-96960000D03*
X82296000Y-94420000D03*
X82296000Y-91880000D03*
X82296000Y-89340000D03*
X82296000Y-86800000D03*
X82296000Y-84260000D03*
%TD*%
D42*
%TO.C,C16*%
X130302000Y-97797500D03*
X130302000Y-95722500D03*
%TD*%
D17*
%TO.C,R1*%
X146558000Y-138414000D03*
X146558000Y-136414000D03*
%TD*%
D23*
%TO.C,TP4*%
X134111999Y-82549999D03*
%TD*%
%TO.C,TP_UART1*%
X86613999Y-78993999D03*
%TD*%
D48*
%TO.C,IC1*%
X139826999Y-136823999D03*
X141096999Y-136823999D03*
X142366999Y-136823999D03*
X143636999Y-136823999D03*
X143636999Y-131399999D03*
X142366999Y-131399999D03*
X141096999Y-131399999D03*
X139826999Y-131399999D03*
D49*
X141731999Y-134111999D03*
%TD*%
M02*
