%TF.GenerationSoftware,KiCad,Pcbnew,(7.0.0)*%
%TF.CreationDate,2023-03-31T23:40:45+13:00*%
%TF.ProjectId,pico_expansion_board,7069636f-5f65-4787-9061-6e73696f6e5f,rev?*%
%TF.SameCoordinates,Original*%
%TF.FileFunction,Legend,Top*%
%TF.FilePolarity,Positive*%
%FSLAX46Y46*%
G04 Gerber Fmt 4.6, Leading zero omitted, Abs format (unit mm)*
G04 Created by KiCad (PCBNEW (7.0.0)) date 2023-03-31 23:40:45*
%MOMM*%
%LPD*%
G01*
G04 APERTURE LIST*
G04 Aperture macros list*
%AMRoundRect*
0 Rectangle with rounded corners*
0 $1 Rounding radius*
0 $2 $3 $4 $5 $6 $7 $8 $9 X,Y pos of 4 corners*
0 Add a 4 corners polygon primitive as box body*
4,1,4,$2,$3,$4,$5,$6,$7,$8,$9,$2,$3,0*
0 Add four circle primitives for the rounded corners*
1,1,$1+$1,$2,$3*
1,1,$1+$1,$4,$5*
1,1,$1+$1,$6,$7*
1,1,$1+$1,$8,$9*
0 Add four rect primitives between the rounded corners*
20,1,$1+$1,$2,$3,$4,$5,0*
20,1,$1+$1,$4,$5,$6,$7,0*
20,1,$1+$1,$6,$7,$8,$9,0*
20,1,$1+$1,$8,$9,$2,$3,0*%
G04 Aperture macros list end*
%ADD10C,0.187500*%
%ADD11C,0.150000*%
%ADD12C,0.100000*%
%ADD13C,0.254000*%
%ADD14C,0.120000*%
%ADD15C,0.010000*%
%ADD16C,0.200000*%
%ADD17R,2.000000X1.500000*%
%ADD18R,2.000000X3.800000*%
%ADD19RoundRect,0.250000X-0.725000X0.600000X-0.725000X-0.600000X0.725000X-0.600000X0.725000X0.600000X0*%
%ADD20O,1.950000X1.700000*%
%ADD21RoundRect,0.250000X-0.450000X0.325000X-0.450000X-0.325000X0.450000X-0.325000X0.450000X0.325000X0*%
%ADD22C,6.400000*%
%ADD23C,4.000000*%
%ADD24R,1.600000X1.600000*%
%ADD25C,1.600000*%
%ADD26RoundRect,0.250000X0.450000X-0.350000X0.450000X0.350000X-0.450000X0.350000X-0.450000X-0.350000X0*%
%ADD27RoundRect,0.150000X0.725000X0.150000X-0.725000X0.150000X-0.725000X-0.150000X0.725000X-0.150000X0*%
%ADD28RoundRect,0.250000X-0.450000X0.350000X-0.450000X-0.350000X0.450000X-0.350000X0.450000X0.350000X0*%
%ADD29RoundRect,0.250000X0.337500X0.475000X-0.337500X0.475000X-0.337500X-0.475000X0.337500X-0.475000X0*%
%ADD30RoundRect,0.250000X0.550000X-1.500000X0.550000X1.500000X-0.550000X1.500000X-0.550000X-1.500000X0*%
%ADD31R,1.550000X1.300000*%
%ADD32R,2.000000X2.000000*%
%ADD33R,1.350000X1.350000*%
%ADD34O,1.350000X1.350000*%
%ADD35R,3.000000X4.000000*%
%ADD36RoundRect,0.250000X-0.475000X0.337500X-0.475000X-0.337500X0.475000X-0.337500X0.475000X0.337500X0*%
%ADD37RoundRect,0.250000X-0.337500X-0.475000X0.337500X-0.475000X0.337500X0.475000X-0.337500X0.475000X0*%
%ADD38RoundRect,0.250000X0.600000X-0.600000X0.600000X0.600000X-0.600000X0.600000X-0.600000X-0.600000X0*%
%ADD39C,1.700000*%
%ADD40R,3.000000X3.000000*%
%ADD41C,3.000000*%
%ADD42RoundRect,0.150000X-0.512500X-0.150000X0.512500X-0.150000X0.512500X0.150000X-0.512500X0.150000X0*%
%ADD43O,1.800000X1.800000*%
%ADD44O,1.500000X1.500000*%
%ADD45O,1.700000X1.700000*%
%ADD46R,3.500000X1.700000*%
%ADD47R,1.700000X1.700000*%
%ADD48R,1.700000X3.500000*%
%ADD49RoundRect,0.250000X0.475000X-0.337500X0.475000X0.337500X-0.475000X0.337500X-0.475000X-0.337500X0*%
%ADD50R,1.800000X1.700000*%
%ADD51R,1.800000X1.800000*%
%ADD52C,1.800000*%
%ADD53RoundRect,0.150000X-0.825000X-0.150000X0.825000X-0.150000X0.825000X0.150000X-0.825000X0.150000X0*%
%ADD54RoundRect,0.250000X-1.950000X-1.000000X1.950000X-1.000000X1.950000X1.000000X-1.950000X1.000000X0*%
%ADD55R,0.650000X1.525000*%
%ADD56R,3.100000X2.600000*%
G04 APERTURE END LIST*
D10*
X77644571Y-74728380D02*
X77835047Y-74728380D01*
X77835047Y-74728380D02*
X77930285Y-74776000D01*
X77930285Y-74776000D02*
X78025523Y-74871238D01*
X78025523Y-74871238D02*
X78073142Y-75061714D01*
X78073142Y-75061714D02*
X78073142Y-75395047D01*
X78073142Y-75395047D02*
X78025523Y-75585523D01*
X78025523Y-75585523D02*
X77930285Y-75680761D01*
X77930285Y-75680761D02*
X77835047Y-75728380D01*
X77835047Y-75728380D02*
X77644571Y-75728380D01*
X77644571Y-75728380D02*
X77549333Y-75680761D01*
X77549333Y-75680761D02*
X77454095Y-75585523D01*
X77454095Y-75585523D02*
X77406476Y-75395047D01*
X77406476Y-75395047D02*
X77406476Y-75061714D01*
X77406476Y-75061714D02*
X77454095Y-74871238D01*
X77454095Y-74871238D02*
X77549333Y-74776000D01*
X77549333Y-74776000D02*
X77644571Y-74728380D01*
X78501714Y-75061714D02*
X78501714Y-76061714D01*
X78501714Y-75109333D02*
X78596952Y-75061714D01*
X78596952Y-75061714D02*
X78787428Y-75061714D01*
X78787428Y-75061714D02*
X78882666Y-75109333D01*
X78882666Y-75109333D02*
X78930285Y-75156952D01*
X78930285Y-75156952D02*
X78977904Y-75252190D01*
X78977904Y-75252190D02*
X78977904Y-75537904D01*
X78977904Y-75537904D02*
X78930285Y-75633142D01*
X78930285Y-75633142D02*
X78882666Y-75680761D01*
X78882666Y-75680761D02*
X78787428Y-75728380D01*
X78787428Y-75728380D02*
X78596952Y-75728380D01*
X78596952Y-75728380D02*
X78501714Y-75680761D01*
X79787428Y-75680761D02*
X79692190Y-75728380D01*
X79692190Y-75728380D02*
X79501714Y-75728380D01*
X79501714Y-75728380D02*
X79406476Y-75680761D01*
X79406476Y-75680761D02*
X79358857Y-75585523D01*
X79358857Y-75585523D02*
X79358857Y-75204571D01*
X79358857Y-75204571D02*
X79406476Y-75109333D01*
X79406476Y-75109333D02*
X79501714Y-75061714D01*
X79501714Y-75061714D02*
X79692190Y-75061714D01*
X79692190Y-75061714D02*
X79787428Y-75109333D01*
X79787428Y-75109333D02*
X79835047Y-75204571D01*
X79835047Y-75204571D02*
X79835047Y-75299809D01*
X79835047Y-75299809D02*
X79358857Y-75395047D01*
X80263619Y-75061714D02*
X80263619Y-75728380D01*
X80263619Y-75156952D02*
X80311238Y-75109333D01*
X80311238Y-75109333D02*
X80406476Y-75061714D01*
X80406476Y-75061714D02*
X80549333Y-75061714D01*
X80549333Y-75061714D02*
X80644571Y-75109333D01*
X80644571Y-75109333D02*
X80692190Y-75204571D01*
X80692190Y-75204571D02*
X80692190Y-75728380D01*
X81025524Y-74728380D02*
X81596952Y-74728380D01*
X81311238Y-75728380D02*
X81311238Y-74728380D01*
X81930286Y-75728380D02*
X81930286Y-75061714D01*
X81930286Y-75252190D02*
X81977905Y-75156952D01*
X81977905Y-75156952D02*
X82025524Y-75109333D01*
X82025524Y-75109333D02*
X82120762Y-75061714D01*
X82120762Y-75061714D02*
X82216000Y-75061714D01*
X82549334Y-75728380D02*
X82549334Y-75061714D01*
X82549334Y-74728380D02*
X82501715Y-74776000D01*
X82501715Y-74776000D02*
X82549334Y-74823619D01*
X82549334Y-74823619D02*
X82596953Y-74776000D01*
X82596953Y-74776000D02*
X82549334Y-74728380D01*
X82549334Y-74728380D02*
X82549334Y-74823619D01*
X83454095Y-75680761D02*
X83358857Y-75728380D01*
X83358857Y-75728380D02*
X83168381Y-75728380D01*
X83168381Y-75728380D02*
X83073143Y-75680761D01*
X83073143Y-75680761D02*
X83025524Y-75633142D01*
X83025524Y-75633142D02*
X82977905Y-75537904D01*
X82977905Y-75537904D02*
X82977905Y-75252190D01*
X82977905Y-75252190D02*
X83025524Y-75156952D01*
X83025524Y-75156952D02*
X83073143Y-75109333D01*
X83073143Y-75109333D02*
X83168381Y-75061714D01*
X83168381Y-75061714D02*
X83358857Y-75061714D01*
X83358857Y-75061714D02*
X83454095Y-75109333D01*
X83882667Y-75728380D02*
X83882667Y-74728380D01*
X83977905Y-75347428D02*
X84263619Y-75728380D01*
X84263619Y-75061714D02*
X83882667Y-75442666D01*
X84835048Y-75728380D02*
X84739810Y-75680761D01*
X84739810Y-75680761D02*
X84692191Y-75585523D01*
X84692191Y-75585523D02*
X84692191Y-74728380D01*
X85596953Y-75680761D02*
X85501715Y-75728380D01*
X85501715Y-75728380D02*
X85311239Y-75728380D01*
X85311239Y-75728380D02*
X85216001Y-75680761D01*
X85216001Y-75680761D02*
X85168382Y-75585523D01*
X85168382Y-75585523D02*
X85168382Y-75204571D01*
X85168382Y-75204571D02*
X85216001Y-75109333D01*
X85216001Y-75109333D02*
X85311239Y-75061714D01*
X85311239Y-75061714D02*
X85501715Y-75061714D01*
X85501715Y-75061714D02*
X85596953Y-75109333D01*
X85596953Y-75109333D02*
X85644572Y-75204571D01*
X85644572Y-75204571D02*
X85644572Y-75299809D01*
X85644572Y-75299809D02*
X85168382Y-75395047D01*
X86073144Y-75728380D02*
X86073144Y-75061714D01*
X86073144Y-75252190D02*
X86120763Y-75156952D01*
X86120763Y-75156952D02*
X86168382Y-75109333D01*
X86168382Y-75109333D02*
X86263620Y-75061714D01*
X86263620Y-75061714D02*
X86358858Y-75061714D01*
X87863620Y-75633142D02*
X87816001Y-75680761D01*
X87816001Y-75680761D02*
X87673144Y-75728380D01*
X87673144Y-75728380D02*
X87577906Y-75728380D01*
X87577906Y-75728380D02*
X87435049Y-75680761D01*
X87435049Y-75680761D02*
X87339811Y-75585523D01*
X87339811Y-75585523D02*
X87292192Y-75490285D01*
X87292192Y-75490285D02*
X87244573Y-75299809D01*
X87244573Y-75299809D02*
X87244573Y-75156952D01*
X87244573Y-75156952D02*
X87292192Y-74966476D01*
X87292192Y-74966476D02*
X87339811Y-74871238D01*
X87339811Y-74871238D02*
X87435049Y-74776000D01*
X87435049Y-74776000D02*
X87577906Y-74728380D01*
X87577906Y-74728380D02*
X87673144Y-74728380D01*
X87673144Y-74728380D02*
X87816001Y-74776000D01*
X87816001Y-74776000D02*
X87863620Y-74823619D01*
X88435049Y-75728380D02*
X88339811Y-75680761D01*
X88339811Y-75680761D02*
X88292192Y-75633142D01*
X88292192Y-75633142D02*
X88244573Y-75537904D01*
X88244573Y-75537904D02*
X88244573Y-75252190D01*
X88244573Y-75252190D02*
X88292192Y-75156952D01*
X88292192Y-75156952D02*
X88339811Y-75109333D01*
X88339811Y-75109333D02*
X88435049Y-75061714D01*
X88435049Y-75061714D02*
X88577906Y-75061714D01*
X88577906Y-75061714D02*
X88673144Y-75109333D01*
X88673144Y-75109333D02*
X88720763Y-75156952D01*
X88720763Y-75156952D02*
X88768382Y-75252190D01*
X88768382Y-75252190D02*
X88768382Y-75537904D01*
X88768382Y-75537904D02*
X88720763Y-75633142D01*
X88720763Y-75633142D02*
X88673144Y-75680761D01*
X88673144Y-75680761D02*
X88577906Y-75728380D01*
X88577906Y-75728380D02*
X88435049Y-75728380D01*
X89196954Y-75061714D02*
X89196954Y-75728380D01*
X89196954Y-75156952D02*
X89244573Y-75109333D01*
X89244573Y-75109333D02*
X89339811Y-75061714D01*
X89339811Y-75061714D02*
X89482668Y-75061714D01*
X89482668Y-75061714D02*
X89577906Y-75109333D01*
X89577906Y-75109333D02*
X89625525Y-75204571D01*
X89625525Y-75204571D02*
X89625525Y-75728380D01*
X89958859Y-75061714D02*
X90339811Y-75061714D01*
X90101716Y-74728380D02*
X90101716Y-75585523D01*
X90101716Y-75585523D02*
X90149335Y-75680761D01*
X90149335Y-75680761D02*
X90244573Y-75728380D01*
X90244573Y-75728380D02*
X90339811Y-75728380D01*
X90673145Y-75728380D02*
X90673145Y-75061714D01*
X90673145Y-75252190D02*
X90720764Y-75156952D01*
X90720764Y-75156952D02*
X90768383Y-75109333D01*
X90768383Y-75109333D02*
X90863621Y-75061714D01*
X90863621Y-75061714D02*
X90958859Y-75061714D01*
X91435050Y-75728380D02*
X91339812Y-75680761D01*
X91339812Y-75680761D02*
X91292193Y-75633142D01*
X91292193Y-75633142D02*
X91244574Y-75537904D01*
X91244574Y-75537904D02*
X91244574Y-75252190D01*
X91244574Y-75252190D02*
X91292193Y-75156952D01*
X91292193Y-75156952D02*
X91339812Y-75109333D01*
X91339812Y-75109333D02*
X91435050Y-75061714D01*
X91435050Y-75061714D02*
X91577907Y-75061714D01*
X91577907Y-75061714D02*
X91673145Y-75109333D01*
X91673145Y-75109333D02*
X91720764Y-75156952D01*
X91720764Y-75156952D02*
X91768383Y-75252190D01*
X91768383Y-75252190D02*
X91768383Y-75537904D01*
X91768383Y-75537904D02*
X91720764Y-75633142D01*
X91720764Y-75633142D02*
X91673145Y-75680761D01*
X91673145Y-75680761D02*
X91577907Y-75728380D01*
X91577907Y-75728380D02*
X91435050Y-75728380D01*
X92339812Y-75728380D02*
X92244574Y-75680761D01*
X92244574Y-75680761D02*
X92196955Y-75585523D01*
X92196955Y-75585523D02*
X92196955Y-74728380D01*
X92863622Y-75728380D02*
X92768384Y-75680761D01*
X92768384Y-75680761D02*
X92720765Y-75585523D01*
X92720765Y-75585523D02*
X92720765Y-74728380D01*
X93625527Y-75680761D02*
X93530289Y-75728380D01*
X93530289Y-75728380D02*
X93339813Y-75728380D01*
X93339813Y-75728380D02*
X93244575Y-75680761D01*
X93244575Y-75680761D02*
X93196956Y-75585523D01*
X93196956Y-75585523D02*
X93196956Y-75204571D01*
X93196956Y-75204571D02*
X93244575Y-75109333D01*
X93244575Y-75109333D02*
X93339813Y-75061714D01*
X93339813Y-75061714D02*
X93530289Y-75061714D01*
X93530289Y-75061714D02*
X93625527Y-75109333D01*
X93625527Y-75109333D02*
X93673146Y-75204571D01*
X93673146Y-75204571D02*
X93673146Y-75299809D01*
X93673146Y-75299809D02*
X93196956Y-75395047D01*
X94101718Y-75728380D02*
X94101718Y-75061714D01*
X94101718Y-75252190D02*
X94149337Y-75156952D01*
X94149337Y-75156952D02*
X94196956Y-75109333D01*
X94196956Y-75109333D02*
X94292194Y-75061714D01*
X94292194Y-75061714D02*
X94387432Y-75061714D01*
X95225528Y-75061714D02*
X95463623Y-75728380D01*
X95463623Y-75728380D02*
X95701718Y-75061714D01*
X96273147Y-74728380D02*
X96368385Y-74728380D01*
X96368385Y-74728380D02*
X96463623Y-74776000D01*
X96463623Y-74776000D02*
X96511242Y-74823619D01*
X96511242Y-74823619D02*
X96558861Y-74918857D01*
X96558861Y-74918857D02*
X96606480Y-75109333D01*
X96606480Y-75109333D02*
X96606480Y-75347428D01*
X96606480Y-75347428D02*
X96558861Y-75537904D01*
X96558861Y-75537904D02*
X96511242Y-75633142D01*
X96511242Y-75633142D02*
X96463623Y-75680761D01*
X96463623Y-75680761D02*
X96368385Y-75728380D01*
X96368385Y-75728380D02*
X96273147Y-75728380D01*
X96273147Y-75728380D02*
X96177909Y-75680761D01*
X96177909Y-75680761D02*
X96130290Y-75633142D01*
X96130290Y-75633142D02*
X96082671Y-75537904D01*
X96082671Y-75537904D02*
X96035052Y-75347428D01*
X96035052Y-75347428D02*
X96035052Y-75109333D01*
X96035052Y-75109333D02*
X96082671Y-74918857D01*
X96082671Y-74918857D02*
X96130290Y-74823619D01*
X96130290Y-74823619D02*
X96177909Y-74776000D01*
X96177909Y-74776000D02*
X96273147Y-74728380D01*
X97035052Y-75633142D02*
X97082671Y-75680761D01*
X97082671Y-75680761D02*
X97035052Y-75728380D01*
X97035052Y-75728380D02*
X96987433Y-75680761D01*
X96987433Y-75680761D02*
X97035052Y-75633142D01*
X97035052Y-75633142D02*
X97035052Y-75728380D01*
X97416004Y-74728380D02*
X98035051Y-74728380D01*
X98035051Y-74728380D02*
X97701718Y-75109333D01*
X97701718Y-75109333D02*
X97844575Y-75109333D01*
X97844575Y-75109333D02*
X97939813Y-75156952D01*
X97939813Y-75156952D02*
X97987432Y-75204571D01*
X97987432Y-75204571D02*
X98035051Y-75299809D01*
X98035051Y-75299809D02*
X98035051Y-75537904D01*
X98035051Y-75537904D02*
X97987432Y-75633142D01*
X97987432Y-75633142D02*
X97939813Y-75680761D01*
X97939813Y-75680761D02*
X97844575Y-75728380D01*
X97844575Y-75728380D02*
X97558861Y-75728380D01*
X97558861Y-75728380D02*
X97463623Y-75680761D01*
X97463623Y-75680761D02*
X97416004Y-75633142D01*
X77866857Y-125173571D02*
X78366857Y-126673571D01*
X78366857Y-126673571D02*
X78866857Y-125173571D01*
X79366856Y-126673571D02*
X79366856Y-125173571D01*
X79366856Y-125173571D02*
X79866856Y-126245000D01*
X79866856Y-126245000D02*
X80366856Y-125173571D01*
X80366856Y-125173571D02*
X80366856Y-126673571D01*
X90781142Y-125633857D02*
X91281142Y-125633857D01*
X91495428Y-126419571D02*
X90781142Y-126419571D01*
X90781142Y-126419571D02*
X90781142Y-124919571D01*
X90781142Y-124919571D02*
X91495428Y-124919571D01*
X92138285Y-126419571D02*
X92138285Y-124919571D01*
X92138285Y-124919571D02*
X92995428Y-126419571D01*
X92995428Y-126419571D02*
X92995428Y-124919571D01*
X90781142Y-102011857D02*
X91281142Y-102011857D01*
X91495428Y-102797571D02*
X90781142Y-102797571D01*
X90781142Y-102797571D02*
X90781142Y-101297571D01*
X90781142Y-101297571D02*
X91495428Y-101297571D01*
X92138285Y-102797571D02*
X92138285Y-101297571D01*
X92138285Y-101297571D02*
X92995428Y-102797571D01*
X92995428Y-102797571D02*
X92995428Y-101297571D01*
X77866857Y-101297571D02*
X78366857Y-102797571D01*
X78366857Y-102797571D02*
X78866857Y-101297571D01*
X79366856Y-102797571D02*
X79366856Y-101297571D01*
X79366856Y-101297571D02*
X79866856Y-102369000D01*
X79866856Y-102369000D02*
X80366856Y-101297571D01*
X80366856Y-101297571D02*
X80366856Y-102797571D01*
D11*
%TO.C,U5*%
X134874095Y-91881380D02*
X134874095Y-92690904D01*
X134874095Y-92690904D02*
X134921714Y-92786142D01*
X134921714Y-92786142D02*
X134969333Y-92833761D01*
X134969333Y-92833761D02*
X135064571Y-92881380D01*
X135064571Y-92881380D02*
X135255047Y-92881380D01*
X135255047Y-92881380D02*
X135350285Y-92833761D01*
X135350285Y-92833761D02*
X135397904Y-92786142D01*
X135397904Y-92786142D02*
X135445523Y-92690904D01*
X135445523Y-92690904D02*
X135445523Y-91881380D01*
X136397904Y-91881380D02*
X135921714Y-91881380D01*
X135921714Y-91881380D02*
X135874095Y-92357571D01*
X135874095Y-92357571D02*
X135921714Y-92309952D01*
X135921714Y-92309952D02*
X136016952Y-92262333D01*
X136016952Y-92262333D02*
X136255047Y-92262333D01*
X136255047Y-92262333D02*
X136350285Y-92309952D01*
X136350285Y-92309952D02*
X136397904Y-92357571D01*
X136397904Y-92357571D02*
X136445523Y-92452809D01*
X136445523Y-92452809D02*
X136445523Y-92690904D01*
X136445523Y-92690904D02*
X136397904Y-92786142D01*
X136397904Y-92786142D02*
X136350285Y-92833761D01*
X136350285Y-92833761D02*
X136255047Y-92881380D01*
X136255047Y-92881380D02*
X136016952Y-92881380D01*
X136016952Y-92881380D02*
X135921714Y-92833761D01*
X135921714Y-92833761D02*
X135874095Y-92786142D01*
%TO.C,J5*%
X78101380Y-117153333D02*
X78815666Y-117153333D01*
X78815666Y-117153333D02*
X78958523Y-117200952D01*
X78958523Y-117200952D02*
X79053761Y-117296190D01*
X79053761Y-117296190D02*
X79101380Y-117439047D01*
X79101380Y-117439047D02*
X79101380Y-117534285D01*
X78101380Y-116200952D02*
X78101380Y-116677142D01*
X78101380Y-116677142D02*
X78577571Y-116724761D01*
X78577571Y-116724761D02*
X78529952Y-116677142D01*
X78529952Y-116677142D02*
X78482333Y-116581904D01*
X78482333Y-116581904D02*
X78482333Y-116343809D01*
X78482333Y-116343809D02*
X78529952Y-116248571D01*
X78529952Y-116248571D02*
X78577571Y-116200952D01*
X78577571Y-116200952D02*
X78672809Y-116153333D01*
X78672809Y-116153333D02*
X78910904Y-116153333D01*
X78910904Y-116153333D02*
X79006142Y-116200952D01*
X79006142Y-116200952D02*
X79053761Y-116248571D01*
X79053761Y-116248571D02*
X79101380Y-116343809D01*
X79101380Y-116343809D02*
X79101380Y-116581904D01*
X79101380Y-116581904D02*
X79053761Y-116677142D01*
X79053761Y-116677142D02*
X79006142Y-116724761D01*
%TO.C,J4*%
X78101380Y-93611333D02*
X78815666Y-93611333D01*
X78815666Y-93611333D02*
X78958523Y-93658952D01*
X78958523Y-93658952D02*
X79053761Y-93754190D01*
X79053761Y-93754190D02*
X79101380Y-93897047D01*
X79101380Y-93897047D02*
X79101380Y-93992285D01*
X78434714Y-92706571D02*
X79101380Y-92706571D01*
X78053761Y-92944666D02*
X78768047Y-93182761D01*
X78768047Y-93182761D02*
X78768047Y-92563714D01*
%TO.C,D2*%
X143877380Y-87352094D02*
X142877380Y-87352094D01*
X142877380Y-87352094D02*
X142877380Y-87113999D01*
X142877380Y-87113999D02*
X142925000Y-86971142D01*
X142925000Y-86971142D02*
X143020238Y-86875904D01*
X143020238Y-86875904D02*
X143115476Y-86828285D01*
X143115476Y-86828285D02*
X143305952Y-86780666D01*
X143305952Y-86780666D02*
X143448809Y-86780666D01*
X143448809Y-86780666D02*
X143639285Y-86828285D01*
X143639285Y-86828285D02*
X143734523Y-86875904D01*
X143734523Y-86875904D02*
X143829761Y-86971142D01*
X143829761Y-86971142D02*
X143877380Y-87113999D01*
X143877380Y-87113999D02*
X143877380Y-87352094D01*
X142972619Y-86399713D02*
X142925000Y-86352094D01*
X142925000Y-86352094D02*
X142877380Y-86256856D01*
X142877380Y-86256856D02*
X142877380Y-86018761D01*
X142877380Y-86018761D02*
X142925000Y-85923523D01*
X142925000Y-85923523D02*
X142972619Y-85875904D01*
X142972619Y-85875904D02*
X143067857Y-85828285D01*
X143067857Y-85828285D02*
X143163095Y-85828285D01*
X143163095Y-85828285D02*
X143305952Y-85875904D01*
X143305952Y-85875904D02*
X143877380Y-86447332D01*
X143877380Y-86447332D02*
X143877380Y-85828285D01*
%TO.C,J6*%
X156593380Y-104473333D02*
X157307666Y-104473333D01*
X157307666Y-104473333D02*
X157450523Y-104520952D01*
X157450523Y-104520952D02*
X157545761Y-104616190D01*
X157545761Y-104616190D02*
X157593380Y-104759047D01*
X157593380Y-104759047D02*
X157593380Y-104854285D01*
X156593380Y-103568571D02*
X156593380Y-103759047D01*
X156593380Y-103759047D02*
X156641000Y-103854285D01*
X156641000Y-103854285D02*
X156688619Y-103901904D01*
X156688619Y-103901904D02*
X156831476Y-103997142D01*
X156831476Y-103997142D02*
X157021952Y-104044761D01*
X157021952Y-104044761D02*
X157402904Y-104044761D01*
X157402904Y-104044761D02*
X157498142Y-103997142D01*
X157498142Y-103997142D02*
X157545761Y-103949523D01*
X157545761Y-103949523D02*
X157593380Y-103854285D01*
X157593380Y-103854285D02*
X157593380Y-103663809D01*
X157593380Y-103663809D02*
X157545761Y-103568571D01*
X157545761Y-103568571D02*
X157498142Y-103520952D01*
X157498142Y-103520952D02*
X157402904Y-103473333D01*
X157402904Y-103473333D02*
X157164809Y-103473333D01*
X157164809Y-103473333D02*
X157069571Y-103520952D01*
X157069571Y-103520952D02*
X157021952Y-103568571D01*
X157021952Y-103568571D02*
X156974333Y-103663809D01*
X156974333Y-103663809D02*
X156974333Y-103854285D01*
X156974333Y-103854285D02*
X157021952Y-103949523D01*
X157021952Y-103949523D02*
X157069571Y-103997142D01*
X157069571Y-103997142D02*
X157164809Y-104044761D01*
%TO.C,R5*%
X107937380Y-108878666D02*
X107461190Y-109211999D01*
X107937380Y-109450094D02*
X106937380Y-109450094D01*
X106937380Y-109450094D02*
X106937380Y-109069142D01*
X106937380Y-109069142D02*
X106985000Y-108973904D01*
X106985000Y-108973904D02*
X107032619Y-108926285D01*
X107032619Y-108926285D02*
X107127857Y-108878666D01*
X107127857Y-108878666D02*
X107270714Y-108878666D01*
X107270714Y-108878666D02*
X107365952Y-108926285D01*
X107365952Y-108926285D02*
X107413571Y-108973904D01*
X107413571Y-108973904D02*
X107461190Y-109069142D01*
X107461190Y-109069142D02*
X107461190Y-109450094D01*
X106937380Y-107973904D02*
X106937380Y-108450094D01*
X106937380Y-108450094D02*
X107413571Y-108497713D01*
X107413571Y-108497713D02*
X107365952Y-108450094D01*
X107365952Y-108450094D02*
X107318333Y-108354856D01*
X107318333Y-108354856D02*
X107318333Y-108116761D01*
X107318333Y-108116761D02*
X107365952Y-108021523D01*
X107365952Y-108021523D02*
X107413571Y-107973904D01*
X107413571Y-107973904D02*
X107508809Y-107926285D01*
X107508809Y-107926285D02*
X107746904Y-107926285D01*
X107746904Y-107926285D02*
X107842142Y-107973904D01*
X107842142Y-107973904D02*
X107889761Y-108021523D01*
X107889761Y-108021523D02*
X107937380Y-108116761D01*
X107937380Y-108116761D02*
X107937380Y-108354856D01*
X107937380Y-108354856D02*
X107889761Y-108450094D01*
X107889761Y-108450094D02*
X107842142Y-108497713D01*
%TO.C,U3*%
X114046095Y-110209380D02*
X114046095Y-111018904D01*
X114046095Y-111018904D02*
X114093714Y-111114142D01*
X114093714Y-111114142D02*
X114141333Y-111161761D01*
X114141333Y-111161761D02*
X114236571Y-111209380D01*
X114236571Y-111209380D02*
X114427047Y-111209380D01*
X114427047Y-111209380D02*
X114522285Y-111161761D01*
X114522285Y-111161761D02*
X114569904Y-111114142D01*
X114569904Y-111114142D02*
X114617523Y-111018904D01*
X114617523Y-111018904D02*
X114617523Y-110209380D01*
X114998476Y-110209380D02*
X115617523Y-110209380D01*
X115617523Y-110209380D02*
X115284190Y-110590333D01*
X115284190Y-110590333D02*
X115427047Y-110590333D01*
X115427047Y-110590333D02*
X115522285Y-110637952D01*
X115522285Y-110637952D02*
X115569904Y-110685571D01*
X115569904Y-110685571D02*
X115617523Y-110780809D01*
X115617523Y-110780809D02*
X115617523Y-111018904D01*
X115617523Y-111018904D02*
X115569904Y-111114142D01*
X115569904Y-111114142D02*
X115522285Y-111161761D01*
X115522285Y-111161761D02*
X115427047Y-111209380D01*
X115427047Y-111209380D02*
X115141333Y-111209380D01*
X115141333Y-111209380D02*
X115046095Y-111161761D01*
X115046095Y-111161761D02*
X114998476Y-111114142D01*
%TO.C,R7*%
X143749380Y-91352666D02*
X143273190Y-91685999D01*
X143749380Y-91924094D02*
X142749380Y-91924094D01*
X142749380Y-91924094D02*
X142749380Y-91543142D01*
X142749380Y-91543142D02*
X142797000Y-91447904D01*
X142797000Y-91447904D02*
X142844619Y-91400285D01*
X142844619Y-91400285D02*
X142939857Y-91352666D01*
X142939857Y-91352666D02*
X143082714Y-91352666D01*
X143082714Y-91352666D02*
X143177952Y-91400285D01*
X143177952Y-91400285D02*
X143225571Y-91447904D01*
X143225571Y-91447904D02*
X143273190Y-91543142D01*
X143273190Y-91543142D02*
X143273190Y-91924094D01*
X142749380Y-91019332D02*
X142749380Y-90352666D01*
X142749380Y-90352666D02*
X143749380Y-90781237D01*
%TO.C,C14*%
X113597142Y-115222142D02*
X113549523Y-115269761D01*
X113549523Y-115269761D02*
X113406666Y-115317380D01*
X113406666Y-115317380D02*
X113311428Y-115317380D01*
X113311428Y-115317380D02*
X113168571Y-115269761D01*
X113168571Y-115269761D02*
X113073333Y-115174523D01*
X113073333Y-115174523D02*
X113025714Y-115079285D01*
X113025714Y-115079285D02*
X112978095Y-114888809D01*
X112978095Y-114888809D02*
X112978095Y-114745952D01*
X112978095Y-114745952D02*
X113025714Y-114555476D01*
X113025714Y-114555476D02*
X113073333Y-114460238D01*
X113073333Y-114460238D02*
X113168571Y-114365000D01*
X113168571Y-114365000D02*
X113311428Y-114317380D01*
X113311428Y-114317380D02*
X113406666Y-114317380D01*
X113406666Y-114317380D02*
X113549523Y-114365000D01*
X113549523Y-114365000D02*
X113597142Y-114412619D01*
X114549523Y-115317380D02*
X113978095Y-115317380D01*
X114263809Y-115317380D02*
X114263809Y-114317380D01*
X114263809Y-114317380D02*
X114168571Y-114460238D01*
X114168571Y-114460238D02*
X114073333Y-114555476D01*
X114073333Y-114555476D02*
X113978095Y-114603095D01*
X115406666Y-114650714D02*
X115406666Y-115317380D01*
X115168571Y-114269761D02*
X114930476Y-114984047D01*
X114930476Y-114984047D02*
X115549523Y-114984047D01*
%TO.C,C8*%
X88733333Y-119906142D02*
X88685714Y-119953761D01*
X88685714Y-119953761D02*
X88542857Y-120001380D01*
X88542857Y-120001380D02*
X88447619Y-120001380D01*
X88447619Y-120001380D02*
X88304762Y-119953761D01*
X88304762Y-119953761D02*
X88209524Y-119858523D01*
X88209524Y-119858523D02*
X88161905Y-119763285D01*
X88161905Y-119763285D02*
X88114286Y-119572809D01*
X88114286Y-119572809D02*
X88114286Y-119429952D01*
X88114286Y-119429952D02*
X88161905Y-119239476D01*
X88161905Y-119239476D02*
X88209524Y-119144238D01*
X88209524Y-119144238D02*
X88304762Y-119049000D01*
X88304762Y-119049000D02*
X88447619Y-119001380D01*
X88447619Y-119001380D02*
X88542857Y-119001380D01*
X88542857Y-119001380D02*
X88685714Y-119049000D01*
X88685714Y-119049000D02*
X88733333Y-119096619D01*
X89304762Y-119429952D02*
X89209524Y-119382333D01*
X89209524Y-119382333D02*
X89161905Y-119334714D01*
X89161905Y-119334714D02*
X89114286Y-119239476D01*
X89114286Y-119239476D02*
X89114286Y-119191857D01*
X89114286Y-119191857D02*
X89161905Y-119096619D01*
X89161905Y-119096619D02*
X89209524Y-119049000D01*
X89209524Y-119049000D02*
X89304762Y-119001380D01*
X89304762Y-119001380D02*
X89495238Y-119001380D01*
X89495238Y-119001380D02*
X89590476Y-119049000D01*
X89590476Y-119049000D02*
X89638095Y-119096619D01*
X89638095Y-119096619D02*
X89685714Y-119191857D01*
X89685714Y-119191857D02*
X89685714Y-119239476D01*
X89685714Y-119239476D02*
X89638095Y-119334714D01*
X89638095Y-119334714D02*
X89590476Y-119382333D01*
X89590476Y-119382333D02*
X89495238Y-119429952D01*
X89495238Y-119429952D02*
X89304762Y-119429952D01*
X89304762Y-119429952D02*
X89209524Y-119477571D01*
X89209524Y-119477571D02*
X89161905Y-119525190D01*
X89161905Y-119525190D02*
X89114286Y-119620428D01*
X89114286Y-119620428D02*
X89114286Y-119810904D01*
X89114286Y-119810904D02*
X89161905Y-119906142D01*
X89161905Y-119906142D02*
X89209524Y-119953761D01*
X89209524Y-119953761D02*
X89304762Y-120001380D01*
X89304762Y-120001380D02*
X89495238Y-120001380D01*
X89495238Y-120001380D02*
X89590476Y-119953761D01*
X89590476Y-119953761D02*
X89638095Y-119906142D01*
X89638095Y-119906142D02*
X89685714Y-119810904D01*
X89685714Y-119810904D02*
X89685714Y-119620428D01*
X89685714Y-119620428D02*
X89638095Y-119525190D01*
X89638095Y-119525190D02*
X89590476Y-119477571D01*
X89590476Y-119477571D02*
X89495238Y-119429952D01*
%TO.C,SW1*%
X152590667Y-125541761D02*
X152733524Y-125589380D01*
X152733524Y-125589380D02*
X152971619Y-125589380D01*
X152971619Y-125589380D02*
X153066857Y-125541761D01*
X153066857Y-125541761D02*
X153114476Y-125494142D01*
X153114476Y-125494142D02*
X153162095Y-125398904D01*
X153162095Y-125398904D02*
X153162095Y-125303666D01*
X153162095Y-125303666D02*
X153114476Y-125208428D01*
X153114476Y-125208428D02*
X153066857Y-125160809D01*
X153066857Y-125160809D02*
X152971619Y-125113190D01*
X152971619Y-125113190D02*
X152781143Y-125065571D01*
X152781143Y-125065571D02*
X152685905Y-125017952D01*
X152685905Y-125017952D02*
X152638286Y-124970333D01*
X152638286Y-124970333D02*
X152590667Y-124875095D01*
X152590667Y-124875095D02*
X152590667Y-124779857D01*
X152590667Y-124779857D02*
X152638286Y-124684619D01*
X152638286Y-124684619D02*
X152685905Y-124637000D01*
X152685905Y-124637000D02*
X152781143Y-124589380D01*
X152781143Y-124589380D02*
X153019238Y-124589380D01*
X153019238Y-124589380D02*
X153162095Y-124637000D01*
X153495429Y-124589380D02*
X153733524Y-125589380D01*
X153733524Y-125589380D02*
X153924000Y-124875095D01*
X153924000Y-124875095D02*
X154114476Y-125589380D01*
X154114476Y-125589380D02*
X154352572Y-124589380D01*
X155257333Y-125589380D02*
X154685905Y-125589380D01*
X154971619Y-125589380D02*
X154971619Y-124589380D01*
X154971619Y-124589380D02*
X154876381Y-124732238D01*
X154876381Y-124732238D02*
X154781143Y-124827476D01*
X154781143Y-124827476D02*
X154685905Y-124875095D01*
%TO.C,TP5*%
X132850095Y-79377380D02*
X133421523Y-79377380D01*
X133135809Y-80377380D02*
X133135809Y-79377380D01*
X133754857Y-80377380D02*
X133754857Y-79377380D01*
X133754857Y-79377380D02*
X134135809Y-79377380D01*
X134135809Y-79377380D02*
X134231047Y-79425000D01*
X134231047Y-79425000D02*
X134278666Y-79472619D01*
X134278666Y-79472619D02*
X134326285Y-79567857D01*
X134326285Y-79567857D02*
X134326285Y-79710714D01*
X134326285Y-79710714D02*
X134278666Y-79805952D01*
X134278666Y-79805952D02*
X134231047Y-79853571D01*
X134231047Y-79853571D02*
X134135809Y-79901190D01*
X134135809Y-79901190D02*
X133754857Y-79901190D01*
X135231047Y-79377380D02*
X134754857Y-79377380D01*
X134754857Y-79377380D02*
X134707238Y-79853571D01*
X134707238Y-79853571D02*
X134754857Y-79805952D01*
X134754857Y-79805952D02*
X134850095Y-79758333D01*
X134850095Y-79758333D02*
X135088190Y-79758333D01*
X135088190Y-79758333D02*
X135183428Y-79805952D01*
X135183428Y-79805952D02*
X135231047Y-79853571D01*
X135231047Y-79853571D02*
X135278666Y-79948809D01*
X135278666Y-79948809D02*
X135278666Y-80186904D01*
X135278666Y-80186904D02*
X135231047Y-80282142D01*
X135231047Y-80282142D02*
X135183428Y-80329761D01*
X135183428Y-80329761D02*
X135088190Y-80377380D01*
X135088190Y-80377380D02*
X134850095Y-80377380D01*
X134850095Y-80377380D02*
X134754857Y-80329761D01*
X134754857Y-80329761D02*
X134707238Y-80282142D01*
%TO.C,R9*%
X147305380Y-91352666D02*
X146829190Y-91685999D01*
X147305380Y-91924094D02*
X146305380Y-91924094D01*
X146305380Y-91924094D02*
X146305380Y-91543142D01*
X146305380Y-91543142D02*
X146353000Y-91447904D01*
X146353000Y-91447904D02*
X146400619Y-91400285D01*
X146400619Y-91400285D02*
X146495857Y-91352666D01*
X146495857Y-91352666D02*
X146638714Y-91352666D01*
X146638714Y-91352666D02*
X146733952Y-91400285D01*
X146733952Y-91400285D02*
X146781571Y-91447904D01*
X146781571Y-91447904D02*
X146829190Y-91543142D01*
X146829190Y-91543142D02*
X146829190Y-91924094D01*
X147305380Y-90876475D02*
X147305380Y-90685999D01*
X147305380Y-90685999D02*
X147257761Y-90590761D01*
X147257761Y-90590761D02*
X147210142Y-90543142D01*
X147210142Y-90543142D02*
X147067285Y-90447904D01*
X147067285Y-90447904D02*
X146876809Y-90400285D01*
X146876809Y-90400285D02*
X146495857Y-90400285D01*
X146495857Y-90400285D02*
X146400619Y-90447904D01*
X146400619Y-90447904D02*
X146353000Y-90495523D01*
X146353000Y-90495523D02*
X146305380Y-90590761D01*
X146305380Y-90590761D02*
X146305380Y-90781237D01*
X146305380Y-90781237D02*
X146353000Y-90876475D01*
X146353000Y-90876475D02*
X146400619Y-90924094D01*
X146400619Y-90924094D02*
X146495857Y-90971713D01*
X146495857Y-90971713D02*
X146733952Y-90971713D01*
X146733952Y-90971713D02*
X146829190Y-90924094D01*
X146829190Y-90924094D02*
X146876809Y-90876475D01*
X146876809Y-90876475D02*
X146924428Y-90781237D01*
X146924428Y-90781237D02*
X146924428Y-90590761D01*
X146924428Y-90590761D02*
X146876809Y-90495523D01*
X146876809Y-90495523D02*
X146829190Y-90447904D01*
X146829190Y-90447904D02*
X146733952Y-90400285D01*
%TO.C,R4*%
X98131333Y-95109380D02*
X97798000Y-94633190D01*
X97559905Y-95109380D02*
X97559905Y-94109380D01*
X97559905Y-94109380D02*
X97940857Y-94109380D01*
X97940857Y-94109380D02*
X98036095Y-94157000D01*
X98036095Y-94157000D02*
X98083714Y-94204619D01*
X98083714Y-94204619D02*
X98131333Y-94299857D01*
X98131333Y-94299857D02*
X98131333Y-94442714D01*
X98131333Y-94442714D02*
X98083714Y-94537952D01*
X98083714Y-94537952D02*
X98036095Y-94585571D01*
X98036095Y-94585571D02*
X97940857Y-94633190D01*
X97940857Y-94633190D02*
X97559905Y-94633190D01*
X98988476Y-94442714D02*
X98988476Y-95109380D01*
X98750381Y-94061761D02*
X98512286Y-94776047D01*
X98512286Y-94776047D02*
X99131333Y-94776047D01*
%TO.C,JP5*%
X129722666Y-82829380D02*
X129722666Y-83543666D01*
X129722666Y-83543666D02*
X129675047Y-83686523D01*
X129675047Y-83686523D02*
X129579809Y-83781761D01*
X129579809Y-83781761D02*
X129436952Y-83829380D01*
X129436952Y-83829380D02*
X129341714Y-83829380D01*
X130198857Y-83829380D02*
X130198857Y-82829380D01*
X130198857Y-82829380D02*
X130579809Y-82829380D01*
X130579809Y-82829380D02*
X130675047Y-82877000D01*
X130675047Y-82877000D02*
X130722666Y-82924619D01*
X130722666Y-82924619D02*
X130770285Y-83019857D01*
X130770285Y-83019857D02*
X130770285Y-83162714D01*
X130770285Y-83162714D02*
X130722666Y-83257952D01*
X130722666Y-83257952D02*
X130675047Y-83305571D01*
X130675047Y-83305571D02*
X130579809Y-83353190D01*
X130579809Y-83353190D02*
X130198857Y-83353190D01*
X131675047Y-82829380D02*
X131198857Y-82829380D01*
X131198857Y-82829380D02*
X131151238Y-83305571D01*
X131151238Y-83305571D02*
X131198857Y-83257952D01*
X131198857Y-83257952D02*
X131294095Y-83210333D01*
X131294095Y-83210333D02*
X131532190Y-83210333D01*
X131532190Y-83210333D02*
X131627428Y-83257952D01*
X131627428Y-83257952D02*
X131675047Y-83305571D01*
X131675047Y-83305571D02*
X131722666Y-83400809D01*
X131722666Y-83400809D02*
X131722666Y-83638904D01*
X131722666Y-83638904D02*
X131675047Y-83734142D01*
X131675047Y-83734142D02*
X131627428Y-83781761D01*
X131627428Y-83781761D02*
X131532190Y-83829380D01*
X131532190Y-83829380D02*
X131294095Y-83829380D01*
X131294095Y-83829380D02*
X131198857Y-83781761D01*
X131198857Y-83781761D02*
X131151238Y-83734142D01*
D12*
%TO.C,L1*%
X133505880Y-126062666D02*
X133505880Y-126538856D01*
X133505880Y-126538856D02*
X132505880Y-126538856D01*
X133505880Y-125205523D02*
X133505880Y-125776951D01*
X133505880Y-125491237D02*
X132505880Y-125491237D01*
X132505880Y-125491237D02*
X132648738Y-125586475D01*
X132648738Y-125586475D02*
X132743976Y-125681713D01*
X132743976Y-125681713D02*
X132791595Y-125776951D01*
D11*
%TO.C,TP3*%
X90432095Y-80901380D02*
X91003523Y-80901380D01*
X90717809Y-81901380D02*
X90717809Y-80901380D01*
X91336857Y-81901380D02*
X91336857Y-80901380D01*
X91336857Y-80901380D02*
X91717809Y-80901380D01*
X91717809Y-80901380D02*
X91813047Y-80949000D01*
X91813047Y-80949000D02*
X91860666Y-80996619D01*
X91860666Y-80996619D02*
X91908285Y-81091857D01*
X91908285Y-81091857D02*
X91908285Y-81234714D01*
X91908285Y-81234714D02*
X91860666Y-81329952D01*
X91860666Y-81329952D02*
X91813047Y-81377571D01*
X91813047Y-81377571D02*
X91717809Y-81425190D01*
X91717809Y-81425190D02*
X91336857Y-81425190D01*
X92241619Y-80901380D02*
X92860666Y-80901380D01*
X92860666Y-80901380D02*
X92527333Y-81282333D01*
X92527333Y-81282333D02*
X92670190Y-81282333D01*
X92670190Y-81282333D02*
X92765428Y-81329952D01*
X92765428Y-81329952D02*
X92813047Y-81377571D01*
X92813047Y-81377571D02*
X92860666Y-81472809D01*
X92860666Y-81472809D02*
X92860666Y-81710904D01*
X92860666Y-81710904D02*
X92813047Y-81806142D01*
X92813047Y-81806142D02*
X92765428Y-81853761D01*
X92765428Y-81853761D02*
X92670190Y-81901380D01*
X92670190Y-81901380D02*
X92384476Y-81901380D01*
X92384476Y-81901380D02*
X92289238Y-81853761D01*
X92289238Y-81853761D02*
X92241619Y-81806142D01*
%TO.C,D4*%
X147687380Y-87352094D02*
X146687380Y-87352094D01*
X146687380Y-87352094D02*
X146687380Y-87113999D01*
X146687380Y-87113999D02*
X146735000Y-86971142D01*
X146735000Y-86971142D02*
X146830238Y-86875904D01*
X146830238Y-86875904D02*
X146925476Y-86828285D01*
X146925476Y-86828285D02*
X147115952Y-86780666D01*
X147115952Y-86780666D02*
X147258809Y-86780666D01*
X147258809Y-86780666D02*
X147449285Y-86828285D01*
X147449285Y-86828285D02*
X147544523Y-86875904D01*
X147544523Y-86875904D02*
X147639761Y-86971142D01*
X147639761Y-86971142D02*
X147687380Y-87113999D01*
X147687380Y-87113999D02*
X147687380Y-87352094D01*
X147020714Y-85923523D02*
X147687380Y-85923523D01*
X146639761Y-86161618D02*
X147354047Y-86399713D01*
X147354047Y-86399713D02*
X147354047Y-85780666D01*
%TO.C,C6*%
X106190142Y-92876666D02*
X106237761Y-92924285D01*
X106237761Y-92924285D02*
X106285380Y-93067142D01*
X106285380Y-93067142D02*
X106285380Y-93162380D01*
X106285380Y-93162380D02*
X106237761Y-93305237D01*
X106237761Y-93305237D02*
X106142523Y-93400475D01*
X106142523Y-93400475D02*
X106047285Y-93448094D01*
X106047285Y-93448094D02*
X105856809Y-93495713D01*
X105856809Y-93495713D02*
X105713952Y-93495713D01*
X105713952Y-93495713D02*
X105523476Y-93448094D01*
X105523476Y-93448094D02*
X105428238Y-93400475D01*
X105428238Y-93400475D02*
X105333000Y-93305237D01*
X105333000Y-93305237D02*
X105285380Y-93162380D01*
X105285380Y-93162380D02*
X105285380Y-93067142D01*
X105285380Y-93067142D02*
X105333000Y-92924285D01*
X105333000Y-92924285D02*
X105380619Y-92876666D01*
X105285380Y-92019523D02*
X105285380Y-92209999D01*
X105285380Y-92209999D02*
X105333000Y-92305237D01*
X105333000Y-92305237D02*
X105380619Y-92352856D01*
X105380619Y-92352856D02*
X105523476Y-92448094D01*
X105523476Y-92448094D02*
X105713952Y-92495713D01*
X105713952Y-92495713D02*
X106094904Y-92495713D01*
X106094904Y-92495713D02*
X106190142Y-92448094D01*
X106190142Y-92448094D02*
X106237761Y-92400475D01*
X106237761Y-92400475D02*
X106285380Y-92305237D01*
X106285380Y-92305237D02*
X106285380Y-92114761D01*
X106285380Y-92114761D02*
X106237761Y-92019523D01*
X106237761Y-92019523D02*
X106190142Y-91971904D01*
X106190142Y-91971904D02*
X106094904Y-91924285D01*
X106094904Y-91924285D02*
X105856809Y-91924285D01*
X105856809Y-91924285D02*
X105761571Y-91971904D01*
X105761571Y-91971904D02*
X105713952Y-92019523D01*
X105713952Y-92019523D02*
X105666333Y-92114761D01*
X105666333Y-92114761D02*
X105666333Y-92305237D01*
X105666333Y-92305237D02*
X105713952Y-92400475D01*
X105713952Y-92400475D02*
X105761571Y-92448094D01*
X105761571Y-92448094D02*
X105856809Y-92495713D01*
%TO.C,C2*%
X106190142Y-88304666D02*
X106237761Y-88352285D01*
X106237761Y-88352285D02*
X106285380Y-88495142D01*
X106285380Y-88495142D02*
X106285380Y-88590380D01*
X106285380Y-88590380D02*
X106237761Y-88733237D01*
X106237761Y-88733237D02*
X106142523Y-88828475D01*
X106142523Y-88828475D02*
X106047285Y-88876094D01*
X106047285Y-88876094D02*
X105856809Y-88923713D01*
X105856809Y-88923713D02*
X105713952Y-88923713D01*
X105713952Y-88923713D02*
X105523476Y-88876094D01*
X105523476Y-88876094D02*
X105428238Y-88828475D01*
X105428238Y-88828475D02*
X105333000Y-88733237D01*
X105333000Y-88733237D02*
X105285380Y-88590380D01*
X105285380Y-88590380D02*
X105285380Y-88495142D01*
X105285380Y-88495142D02*
X105333000Y-88352285D01*
X105333000Y-88352285D02*
X105380619Y-88304666D01*
X105380619Y-87923713D02*
X105333000Y-87876094D01*
X105333000Y-87876094D02*
X105285380Y-87780856D01*
X105285380Y-87780856D02*
X105285380Y-87542761D01*
X105285380Y-87542761D02*
X105333000Y-87447523D01*
X105333000Y-87447523D02*
X105380619Y-87399904D01*
X105380619Y-87399904D02*
X105475857Y-87352285D01*
X105475857Y-87352285D02*
X105571095Y-87352285D01*
X105571095Y-87352285D02*
X105713952Y-87399904D01*
X105713952Y-87399904D02*
X106285380Y-87971332D01*
X106285380Y-87971332D02*
X106285380Y-87352285D01*
%TO.C,C4*%
X145306142Y-121832666D02*
X145353761Y-121880285D01*
X145353761Y-121880285D02*
X145401380Y-122023142D01*
X145401380Y-122023142D02*
X145401380Y-122118380D01*
X145401380Y-122118380D02*
X145353761Y-122261237D01*
X145353761Y-122261237D02*
X145258523Y-122356475D01*
X145258523Y-122356475D02*
X145163285Y-122404094D01*
X145163285Y-122404094D02*
X144972809Y-122451713D01*
X144972809Y-122451713D02*
X144829952Y-122451713D01*
X144829952Y-122451713D02*
X144639476Y-122404094D01*
X144639476Y-122404094D02*
X144544238Y-122356475D01*
X144544238Y-122356475D02*
X144449000Y-122261237D01*
X144449000Y-122261237D02*
X144401380Y-122118380D01*
X144401380Y-122118380D02*
X144401380Y-122023142D01*
X144401380Y-122023142D02*
X144449000Y-121880285D01*
X144449000Y-121880285D02*
X144496619Y-121832666D01*
X144734714Y-120975523D02*
X145401380Y-120975523D01*
X144353761Y-121213618D02*
X145068047Y-121451713D01*
X145068047Y-121451713D02*
X145068047Y-120832666D01*
%TO.C,R8*%
X139939380Y-91352666D02*
X139463190Y-91685999D01*
X139939380Y-91924094D02*
X138939380Y-91924094D01*
X138939380Y-91924094D02*
X138939380Y-91543142D01*
X138939380Y-91543142D02*
X138987000Y-91447904D01*
X138987000Y-91447904D02*
X139034619Y-91400285D01*
X139034619Y-91400285D02*
X139129857Y-91352666D01*
X139129857Y-91352666D02*
X139272714Y-91352666D01*
X139272714Y-91352666D02*
X139367952Y-91400285D01*
X139367952Y-91400285D02*
X139415571Y-91447904D01*
X139415571Y-91447904D02*
X139463190Y-91543142D01*
X139463190Y-91543142D02*
X139463190Y-91924094D01*
X139367952Y-90781237D02*
X139320333Y-90876475D01*
X139320333Y-90876475D02*
X139272714Y-90924094D01*
X139272714Y-90924094D02*
X139177476Y-90971713D01*
X139177476Y-90971713D02*
X139129857Y-90971713D01*
X139129857Y-90971713D02*
X139034619Y-90924094D01*
X139034619Y-90924094D02*
X138987000Y-90876475D01*
X138987000Y-90876475D02*
X138939380Y-90781237D01*
X138939380Y-90781237D02*
X138939380Y-90590761D01*
X138939380Y-90590761D02*
X138987000Y-90495523D01*
X138987000Y-90495523D02*
X139034619Y-90447904D01*
X139034619Y-90447904D02*
X139129857Y-90400285D01*
X139129857Y-90400285D02*
X139177476Y-90400285D01*
X139177476Y-90400285D02*
X139272714Y-90447904D01*
X139272714Y-90447904D02*
X139320333Y-90495523D01*
X139320333Y-90495523D02*
X139367952Y-90590761D01*
X139367952Y-90590761D02*
X139367952Y-90781237D01*
X139367952Y-90781237D02*
X139415571Y-90876475D01*
X139415571Y-90876475D02*
X139463190Y-90924094D01*
X139463190Y-90924094D02*
X139558428Y-90971713D01*
X139558428Y-90971713D02*
X139748904Y-90971713D01*
X139748904Y-90971713D02*
X139844142Y-90924094D01*
X139844142Y-90924094D02*
X139891761Y-90876475D01*
X139891761Y-90876475D02*
X139939380Y-90781237D01*
X139939380Y-90781237D02*
X139939380Y-90590761D01*
X139939380Y-90590761D02*
X139891761Y-90495523D01*
X139891761Y-90495523D02*
X139844142Y-90447904D01*
X139844142Y-90447904D02*
X139748904Y-90400285D01*
X139748904Y-90400285D02*
X139558428Y-90400285D01*
X139558428Y-90400285D02*
X139463190Y-90447904D01*
X139463190Y-90447904D02*
X139415571Y-90495523D01*
X139415571Y-90495523D02*
X139367952Y-90590761D01*
%TO.C,J8*%
X103757380Y-134953333D02*
X104471666Y-134953333D01*
X104471666Y-134953333D02*
X104614523Y-135000952D01*
X104614523Y-135000952D02*
X104709761Y-135096190D01*
X104709761Y-135096190D02*
X104757380Y-135239047D01*
X104757380Y-135239047D02*
X104757380Y-135334285D01*
X104185952Y-134334285D02*
X104138333Y-134429523D01*
X104138333Y-134429523D02*
X104090714Y-134477142D01*
X104090714Y-134477142D02*
X103995476Y-134524761D01*
X103995476Y-134524761D02*
X103947857Y-134524761D01*
X103947857Y-134524761D02*
X103852619Y-134477142D01*
X103852619Y-134477142D02*
X103805000Y-134429523D01*
X103805000Y-134429523D02*
X103757380Y-134334285D01*
X103757380Y-134334285D02*
X103757380Y-134143809D01*
X103757380Y-134143809D02*
X103805000Y-134048571D01*
X103805000Y-134048571D02*
X103852619Y-134000952D01*
X103852619Y-134000952D02*
X103947857Y-133953333D01*
X103947857Y-133953333D02*
X103995476Y-133953333D01*
X103995476Y-133953333D02*
X104090714Y-134000952D01*
X104090714Y-134000952D02*
X104138333Y-134048571D01*
X104138333Y-134048571D02*
X104185952Y-134143809D01*
X104185952Y-134143809D02*
X104185952Y-134334285D01*
X104185952Y-134334285D02*
X104233571Y-134429523D01*
X104233571Y-134429523D02*
X104281190Y-134477142D01*
X104281190Y-134477142D02*
X104376428Y-134524761D01*
X104376428Y-134524761D02*
X104566904Y-134524761D01*
X104566904Y-134524761D02*
X104662142Y-134477142D01*
X104662142Y-134477142D02*
X104709761Y-134429523D01*
X104709761Y-134429523D02*
X104757380Y-134334285D01*
X104757380Y-134334285D02*
X104757380Y-134143809D01*
X104757380Y-134143809D02*
X104709761Y-134048571D01*
X104709761Y-134048571D02*
X104662142Y-134000952D01*
X104662142Y-134000952D02*
X104566904Y-133953333D01*
X104566904Y-133953333D02*
X104376428Y-133953333D01*
X104376428Y-133953333D02*
X104281190Y-134000952D01*
X104281190Y-134000952D02*
X104233571Y-134048571D01*
X104233571Y-134048571D02*
X104185952Y-134143809D01*
%TO.C,J1*%
X151304666Y-78107380D02*
X151304666Y-78821666D01*
X151304666Y-78821666D02*
X151257047Y-78964523D01*
X151257047Y-78964523D02*
X151161809Y-79059761D01*
X151161809Y-79059761D02*
X151018952Y-79107380D01*
X151018952Y-79107380D02*
X150923714Y-79107380D01*
X152304666Y-79107380D02*
X151733238Y-79107380D01*
X152018952Y-79107380D02*
X152018952Y-78107380D01*
X152018952Y-78107380D02*
X151923714Y-78250238D01*
X151923714Y-78250238D02*
X151828476Y-78345476D01*
X151828476Y-78345476D02*
X151733238Y-78393095D01*
%TO.C,TP2*%
X95004095Y-80901380D02*
X95575523Y-80901380D01*
X95289809Y-81901380D02*
X95289809Y-80901380D01*
X95908857Y-81901380D02*
X95908857Y-80901380D01*
X95908857Y-80901380D02*
X96289809Y-80901380D01*
X96289809Y-80901380D02*
X96385047Y-80949000D01*
X96385047Y-80949000D02*
X96432666Y-80996619D01*
X96432666Y-80996619D02*
X96480285Y-81091857D01*
X96480285Y-81091857D02*
X96480285Y-81234714D01*
X96480285Y-81234714D02*
X96432666Y-81329952D01*
X96432666Y-81329952D02*
X96385047Y-81377571D01*
X96385047Y-81377571D02*
X96289809Y-81425190D01*
X96289809Y-81425190D02*
X95908857Y-81425190D01*
X96861238Y-80996619D02*
X96908857Y-80949000D01*
X96908857Y-80949000D02*
X97004095Y-80901380D01*
X97004095Y-80901380D02*
X97242190Y-80901380D01*
X97242190Y-80901380D02*
X97337428Y-80949000D01*
X97337428Y-80949000D02*
X97385047Y-80996619D01*
X97385047Y-80996619D02*
X97432666Y-81091857D01*
X97432666Y-81091857D02*
X97432666Y-81187095D01*
X97432666Y-81187095D02*
X97385047Y-81329952D01*
X97385047Y-81329952D02*
X96813619Y-81901380D01*
X96813619Y-81901380D02*
X97432666Y-81901380D01*
%TO.C,H1*%
X74422095Y-132057380D02*
X74422095Y-131057380D01*
X74422095Y-131533571D02*
X74993523Y-131533571D01*
X74993523Y-132057380D02*
X74993523Y-131057380D01*
X75993523Y-132057380D02*
X75422095Y-132057380D01*
X75707809Y-132057380D02*
X75707809Y-131057380D01*
X75707809Y-131057380D02*
X75612571Y-131200238D01*
X75612571Y-131200238D02*
X75517333Y-131295476D01*
X75517333Y-131295476D02*
X75422095Y-131343095D01*
%TO.C,C13*%
X138273642Y-101970142D02*
X138226023Y-102017761D01*
X138226023Y-102017761D02*
X138083166Y-102065380D01*
X138083166Y-102065380D02*
X137987928Y-102065380D01*
X137987928Y-102065380D02*
X137845071Y-102017761D01*
X137845071Y-102017761D02*
X137749833Y-101922523D01*
X137749833Y-101922523D02*
X137702214Y-101827285D01*
X137702214Y-101827285D02*
X137654595Y-101636809D01*
X137654595Y-101636809D02*
X137654595Y-101493952D01*
X137654595Y-101493952D02*
X137702214Y-101303476D01*
X137702214Y-101303476D02*
X137749833Y-101208238D01*
X137749833Y-101208238D02*
X137845071Y-101113000D01*
X137845071Y-101113000D02*
X137987928Y-101065380D01*
X137987928Y-101065380D02*
X138083166Y-101065380D01*
X138083166Y-101065380D02*
X138226023Y-101113000D01*
X138226023Y-101113000D02*
X138273642Y-101160619D01*
X139226023Y-102065380D02*
X138654595Y-102065380D01*
X138940309Y-102065380D02*
X138940309Y-101065380D01*
X138940309Y-101065380D02*
X138845071Y-101208238D01*
X138845071Y-101208238D02*
X138749833Y-101303476D01*
X138749833Y-101303476D02*
X138654595Y-101351095D01*
X139559357Y-101065380D02*
X140178404Y-101065380D01*
X140178404Y-101065380D02*
X139845071Y-101446333D01*
X139845071Y-101446333D02*
X139987928Y-101446333D01*
X139987928Y-101446333D02*
X140083166Y-101493952D01*
X140083166Y-101493952D02*
X140130785Y-101541571D01*
X140130785Y-101541571D02*
X140178404Y-101636809D01*
X140178404Y-101636809D02*
X140178404Y-101874904D01*
X140178404Y-101874904D02*
X140130785Y-101970142D01*
X140130785Y-101970142D02*
X140083166Y-102017761D01*
X140083166Y-102017761D02*
X139987928Y-102065380D01*
X139987928Y-102065380D02*
X139702214Y-102065380D01*
X139702214Y-102065380D02*
X139606976Y-102017761D01*
X139606976Y-102017761D02*
X139559357Y-101970142D01*
%TO.C,C9*%
X88479333Y-96112142D02*
X88431714Y-96159761D01*
X88431714Y-96159761D02*
X88288857Y-96207380D01*
X88288857Y-96207380D02*
X88193619Y-96207380D01*
X88193619Y-96207380D02*
X88050762Y-96159761D01*
X88050762Y-96159761D02*
X87955524Y-96064523D01*
X87955524Y-96064523D02*
X87907905Y-95969285D01*
X87907905Y-95969285D02*
X87860286Y-95778809D01*
X87860286Y-95778809D02*
X87860286Y-95635952D01*
X87860286Y-95635952D02*
X87907905Y-95445476D01*
X87907905Y-95445476D02*
X87955524Y-95350238D01*
X87955524Y-95350238D02*
X88050762Y-95255000D01*
X88050762Y-95255000D02*
X88193619Y-95207380D01*
X88193619Y-95207380D02*
X88288857Y-95207380D01*
X88288857Y-95207380D02*
X88431714Y-95255000D01*
X88431714Y-95255000D02*
X88479333Y-95302619D01*
X88955524Y-96207380D02*
X89146000Y-96207380D01*
X89146000Y-96207380D02*
X89241238Y-96159761D01*
X89241238Y-96159761D02*
X89288857Y-96112142D01*
X89288857Y-96112142D02*
X89384095Y-95969285D01*
X89384095Y-95969285D02*
X89431714Y-95778809D01*
X89431714Y-95778809D02*
X89431714Y-95397857D01*
X89431714Y-95397857D02*
X89384095Y-95302619D01*
X89384095Y-95302619D02*
X89336476Y-95255000D01*
X89336476Y-95255000D02*
X89241238Y-95207380D01*
X89241238Y-95207380D02*
X89050762Y-95207380D01*
X89050762Y-95207380D02*
X88955524Y-95255000D01*
X88955524Y-95255000D02*
X88907905Y-95302619D01*
X88907905Y-95302619D02*
X88860286Y-95397857D01*
X88860286Y-95397857D02*
X88860286Y-95635952D01*
X88860286Y-95635952D02*
X88907905Y-95731190D01*
X88907905Y-95731190D02*
X88955524Y-95778809D01*
X88955524Y-95778809D02*
X89050762Y-95826428D01*
X89050762Y-95826428D02*
X89241238Y-95826428D01*
X89241238Y-95826428D02*
X89336476Y-95778809D01*
X89336476Y-95778809D02*
X89384095Y-95731190D01*
X89384095Y-95731190D02*
X89431714Y-95635952D01*
%TO.C,U4*%
X113284095Y-122303380D02*
X113284095Y-123112904D01*
X113284095Y-123112904D02*
X113331714Y-123208142D01*
X113331714Y-123208142D02*
X113379333Y-123255761D01*
X113379333Y-123255761D02*
X113474571Y-123303380D01*
X113474571Y-123303380D02*
X113665047Y-123303380D01*
X113665047Y-123303380D02*
X113760285Y-123255761D01*
X113760285Y-123255761D02*
X113807904Y-123208142D01*
X113807904Y-123208142D02*
X113855523Y-123112904D01*
X113855523Y-123112904D02*
X113855523Y-122303380D01*
X114760285Y-122636714D02*
X114760285Y-123303380D01*
X114522190Y-122255761D02*
X114284095Y-122970047D01*
X114284095Y-122970047D02*
X114903142Y-122970047D01*
%TO.C,JP6*%
X136834666Y-82425380D02*
X136834666Y-83139666D01*
X136834666Y-83139666D02*
X136787047Y-83282523D01*
X136787047Y-83282523D02*
X136691809Y-83377761D01*
X136691809Y-83377761D02*
X136548952Y-83425380D01*
X136548952Y-83425380D02*
X136453714Y-83425380D01*
X137310857Y-83425380D02*
X137310857Y-82425380D01*
X137310857Y-82425380D02*
X137691809Y-82425380D01*
X137691809Y-82425380D02*
X137787047Y-82473000D01*
X137787047Y-82473000D02*
X137834666Y-82520619D01*
X137834666Y-82520619D02*
X137882285Y-82615857D01*
X137882285Y-82615857D02*
X137882285Y-82758714D01*
X137882285Y-82758714D02*
X137834666Y-82853952D01*
X137834666Y-82853952D02*
X137787047Y-82901571D01*
X137787047Y-82901571D02*
X137691809Y-82949190D01*
X137691809Y-82949190D02*
X137310857Y-82949190D01*
X138739428Y-82425380D02*
X138548952Y-82425380D01*
X138548952Y-82425380D02*
X138453714Y-82473000D01*
X138453714Y-82473000D02*
X138406095Y-82520619D01*
X138406095Y-82520619D02*
X138310857Y-82663476D01*
X138310857Y-82663476D02*
X138263238Y-82853952D01*
X138263238Y-82853952D02*
X138263238Y-83234904D01*
X138263238Y-83234904D02*
X138310857Y-83330142D01*
X138310857Y-83330142D02*
X138358476Y-83377761D01*
X138358476Y-83377761D02*
X138453714Y-83425380D01*
X138453714Y-83425380D02*
X138644190Y-83425380D01*
X138644190Y-83425380D02*
X138739428Y-83377761D01*
X138739428Y-83377761D02*
X138787047Y-83330142D01*
X138787047Y-83330142D02*
X138834666Y-83234904D01*
X138834666Y-83234904D02*
X138834666Y-82996809D01*
X138834666Y-82996809D02*
X138787047Y-82901571D01*
X138787047Y-82901571D02*
X138739428Y-82853952D01*
X138739428Y-82853952D02*
X138644190Y-82806333D01*
X138644190Y-82806333D02*
X138453714Y-82806333D01*
X138453714Y-82806333D02*
X138358476Y-82853952D01*
X138358476Y-82853952D02*
X138310857Y-82901571D01*
X138310857Y-82901571D02*
X138263238Y-82996809D01*
%TO.C,C3*%
X145306142Y-124880666D02*
X145353761Y-124928285D01*
X145353761Y-124928285D02*
X145401380Y-125071142D01*
X145401380Y-125071142D02*
X145401380Y-125166380D01*
X145401380Y-125166380D02*
X145353761Y-125309237D01*
X145353761Y-125309237D02*
X145258523Y-125404475D01*
X145258523Y-125404475D02*
X145163285Y-125452094D01*
X145163285Y-125452094D02*
X144972809Y-125499713D01*
X144972809Y-125499713D02*
X144829952Y-125499713D01*
X144829952Y-125499713D02*
X144639476Y-125452094D01*
X144639476Y-125452094D02*
X144544238Y-125404475D01*
X144544238Y-125404475D02*
X144449000Y-125309237D01*
X144449000Y-125309237D02*
X144401380Y-125166380D01*
X144401380Y-125166380D02*
X144401380Y-125071142D01*
X144401380Y-125071142D02*
X144449000Y-124928285D01*
X144449000Y-124928285D02*
X144496619Y-124880666D01*
X144401380Y-124547332D02*
X144401380Y-123928285D01*
X144401380Y-123928285D02*
X144782333Y-124261618D01*
X144782333Y-124261618D02*
X144782333Y-124118761D01*
X144782333Y-124118761D02*
X144829952Y-124023523D01*
X144829952Y-124023523D02*
X144877571Y-123975904D01*
X144877571Y-123975904D02*
X144972809Y-123928285D01*
X144972809Y-123928285D02*
X145210904Y-123928285D01*
X145210904Y-123928285D02*
X145306142Y-123975904D01*
X145306142Y-123975904D02*
X145353761Y-124023523D01*
X145353761Y-124023523D02*
X145401380Y-124118761D01*
X145401380Y-124118761D02*
X145401380Y-124404475D01*
X145401380Y-124404475D02*
X145353761Y-124499713D01*
X145353761Y-124499713D02*
X145306142Y-124547332D01*
%TO.C,C1*%
X145306142Y-127928666D02*
X145353761Y-127976285D01*
X145353761Y-127976285D02*
X145401380Y-128119142D01*
X145401380Y-128119142D02*
X145401380Y-128214380D01*
X145401380Y-128214380D02*
X145353761Y-128357237D01*
X145353761Y-128357237D02*
X145258523Y-128452475D01*
X145258523Y-128452475D02*
X145163285Y-128500094D01*
X145163285Y-128500094D02*
X144972809Y-128547713D01*
X144972809Y-128547713D02*
X144829952Y-128547713D01*
X144829952Y-128547713D02*
X144639476Y-128500094D01*
X144639476Y-128500094D02*
X144544238Y-128452475D01*
X144544238Y-128452475D02*
X144449000Y-128357237D01*
X144449000Y-128357237D02*
X144401380Y-128214380D01*
X144401380Y-128214380D02*
X144401380Y-128119142D01*
X144401380Y-128119142D02*
X144449000Y-127976285D01*
X144449000Y-127976285D02*
X144496619Y-127928666D01*
X145401380Y-126976285D02*
X145401380Y-127547713D01*
X145401380Y-127261999D02*
X144401380Y-127261999D01*
X144401380Y-127261999D02*
X144544238Y-127357237D01*
X144544238Y-127357237D02*
X144639476Y-127452475D01*
X144639476Y-127452475D02*
X144687095Y-127547713D01*
%TO.C,U2*%
X112268095Y-100967380D02*
X112268095Y-101776904D01*
X112268095Y-101776904D02*
X112315714Y-101872142D01*
X112315714Y-101872142D02*
X112363333Y-101919761D01*
X112363333Y-101919761D02*
X112458571Y-101967380D01*
X112458571Y-101967380D02*
X112649047Y-101967380D01*
X112649047Y-101967380D02*
X112744285Y-101919761D01*
X112744285Y-101919761D02*
X112791904Y-101872142D01*
X112791904Y-101872142D02*
X112839523Y-101776904D01*
X112839523Y-101776904D02*
X112839523Y-100967380D01*
X113268095Y-101062619D02*
X113315714Y-101015000D01*
X113315714Y-101015000D02*
X113410952Y-100967380D01*
X113410952Y-100967380D02*
X113649047Y-100967380D01*
X113649047Y-100967380D02*
X113744285Y-101015000D01*
X113744285Y-101015000D02*
X113791904Y-101062619D01*
X113791904Y-101062619D02*
X113839523Y-101157857D01*
X113839523Y-101157857D02*
X113839523Y-101253095D01*
X113839523Y-101253095D02*
X113791904Y-101395952D01*
X113791904Y-101395952D02*
X113220476Y-101967380D01*
X113220476Y-101967380D02*
X113839523Y-101967380D01*
X124902390Y-80621883D02*
X125656637Y-80999006D01*
X125656637Y-80999006D02*
X125279513Y-80244759D01*
X125979886Y-80621883D02*
X126087635Y-80568008D01*
X126087635Y-80568008D02*
X126222322Y-80433321D01*
X126222322Y-80433321D02*
X126249260Y-80352509D01*
X126249260Y-80352509D02*
X126249260Y-80298634D01*
X126249260Y-80298634D02*
X126222322Y-80217822D01*
X126222322Y-80217822D02*
X126168447Y-80163947D01*
X126168447Y-80163947D02*
X126087635Y-80137010D01*
X126087635Y-80137010D02*
X126033760Y-80137010D01*
X126033760Y-80137010D02*
X125952948Y-80163947D01*
X125952948Y-80163947D02*
X125818261Y-80244759D01*
X125818261Y-80244759D02*
X125737449Y-80271697D01*
X125737449Y-80271697D02*
X125683574Y-80271697D01*
X125683574Y-80271697D02*
X125602762Y-80244759D01*
X125602762Y-80244759D02*
X125548887Y-80190884D01*
X125548887Y-80190884D02*
X125521950Y-80110072D01*
X125521950Y-80110072D02*
X125521950Y-80056197D01*
X125521950Y-80056197D02*
X125548887Y-79975385D01*
X125548887Y-79975385D02*
X125683574Y-79840698D01*
X125683574Y-79840698D02*
X125791324Y-79786823D01*
X126410884Y-79706011D02*
X126680258Y-79975385D01*
X125926011Y-79598261D02*
X126410884Y-79706011D01*
X126410884Y-79706011D02*
X126303135Y-79221138D01*
X127003507Y-79598262D02*
X127111256Y-79544387D01*
X127111256Y-79544387D02*
X127245943Y-79409700D01*
X127245943Y-79409700D02*
X127272881Y-79328888D01*
X127272881Y-79328888D02*
X127272881Y-79275013D01*
X127272881Y-79275013D02*
X127245943Y-79194201D01*
X127245943Y-79194201D02*
X127192069Y-79140326D01*
X127192069Y-79140326D02*
X127111256Y-79113388D01*
X127111256Y-79113388D02*
X127057382Y-79113388D01*
X127057382Y-79113388D02*
X126976569Y-79140326D01*
X126976569Y-79140326D02*
X126841882Y-79221138D01*
X126841882Y-79221138D02*
X126761070Y-79248075D01*
X126761070Y-79248075D02*
X126707195Y-79248075D01*
X126707195Y-79248075D02*
X126626383Y-79221138D01*
X126626383Y-79221138D02*
X126572508Y-79167263D01*
X126572508Y-79167263D02*
X126545571Y-79086451D01*
X126545571Y-79086451D02*
X126545571Y-79032576D01*
X126545571Y-79032576D02*
X126572508Y-78951764D01*
X126572508Y-78951764D02*
X126707195Y-78817077D01*
X126707195Y-78817077D02*
X126814945Y-78763202D01*
X125079638Y-123532509D02*
X124998826Y-123559446D01*
X124998826Y-123559446D02*
X124918014Y-123640258D01*
X124918014Y-123640258D02*
X124864139Y-123748008D01*
X124864139Y-123748008D02*
X124864139Y-123855758D01*
X124864139Y-123855758D02*
X124891077Y-123936570D01*
X124891077Y-123936570D02*
X124971889Y-124071257D01*
X124971889Y-124071257D02*
X125052701Y-124152069D01*
X125052701Y-124152069D02*
X125187388Y-124232881D01*
X125187388Y-124232881D02*
X125268200Y-124259819D01*
X125268200Y-124259819D02*
X125375950Y-124259819D01*
X125375950Y-124259819D02*
X125483699Y-124205944D01*
X125483699Y-124205944D02*
X125537574Y-124152069D01*
X125537574Y-124152069D02*
X125591449Y-124044319D01*
X125591449Y-124044319D02*
X125591449Y-123990445D01*
X125591449Y-123990445D02*
X125402887Y-123801883D01*
X125402887Y-123801883D02*
X125295138Y-123909632D01*
X125887760Y-123801883D02*
X125322075Y-123236197D01*
X125322075Y-123236197D02*
X125537574Y-123020698D01*
X125537574Y-123020698D02*
X125618386Y-122993761D01*
X125618386Y-122993761D02*
X125672261Y-122993761D01*
X125672261Y-122993761D02*
X125753073Y-123020698D01*
X125753073Y-123020698D02*
X125833886Y-123101510D01*
X125833886Y-123101510D02*
X125860823Y-123182323D01*
X125860823Y-123182323D02*
X125860823Y-123236197D01*
X125860823Y-123236197D02*
X125833886Y-123317010D01*
X125833886Y-123317010D02*
X125618386Y-123532509D01*
X126749757Y-122939886D02*
X126426508Y-123263135D01*
X126588133Y-123101510D02*
X126022447Y-122535825D01*
X126022447Y-122535825D02*
X126049385Y-122670512D01*
X126049385Y-122670512D02*
X126049385Y-122778261D01*
X126049385Y-122778261D02*
X126022447Y-122859074D01*
X126372634Y-122185638D02*
X126749757Y-121808515D01*
X126749757Y-121808515D02*
X127073006Y-122616637D01*
X99495013Y-90243134D02*
X99414201Y-90270072D01*
X99414201Y-90270072D02*
X99333388Y-90350884D01*
X99333388Y-90350884D02*
X99279514Y-90458633D01*
X99279514Y-90458633D02*
X99279514Y-90566383D01*
X99279514Y-90566383D02*
X99306451Y-90647195D01*
X99306451Y-90647195D02*
X99387263Y-90781882D01*
X99387263Y-90781882D02*
X99468075Y-90862695D01*
X99468075Y-90862695D02*
X99602762Y-90943507D01*
X99602762Y-90943507D02*
X99683575Y-90970444D01*
X99683575Y-90970444D02*
X99791324Y-90970444D01*
X99791324Y-90970444D02*
X99899074Y-90916569D01*
X99899074Y-90916569D02*
X99952949Y-90862695D01*
X99952949Y-90862695D02*
X100006823Y-90754945D01*
X100006823Y-90754945D02*
X100006823Y-90701070D01*
X100006823Y-90701070D02*
X99818262Y-90512508D01*
X99818262Y-90512508D02*
X99710512Y-90620258D01*
X100303135Y-90512508D02*
X99737449Y-89946823D01*
X99737449Y-89946823D02*
X99952949Y-89731324D01*
X99952949Y-89731324D02*
X100033761Y-89704386D01*
X100033761Y-89704386D02*
X100087636Y-89704386D01*
X100087636Y-89704386D02*
X100168448Y-89731324D01*
X100168448Y-89731324D02*
X100249260Y-89812136D01*
X100249260Y-89812136D02*
X100276197Y-89892948D01*
X100276197Y-89892948D02*
X100276197Y-89946823D01*
X100276197Y-89946823D02*
X100249260Y-90027635D01*
X100249260Y-90027635D02*
X100033761Y-90243134D01*
X100734133Y-89327263D02*
X101111257Y-89704386D01*
X100383947Y-89246450D02*
X100653321Y-89785198D01*
X100653321Y-89785198D02*
X101003507Y-89435012D01*
X124904048Y-85510224D02*
X125254234Y-85160038D01*
X125254234Y-85160038D02*
X125281172Y-85564099D01*
X125281172Y-85564099D02*
X125361984Y-85483287D01*
X125361984Y-85483287D02*
X125442796Y-85456350D01*
X125442796Y-85456350D02*
X125496671Y-85456350D01*
X125496671Y-85456350D02*
X125577483Y-85483287D01*
X125577483Y-85483287D02*
X125712170Y-85617974D01*
X125712170Y-85617974D02*
X125739107Y-85698786D01*
X125739107Y-85698786D02*
X125739107Y-85752661D01*
X125739107Y-85752661D02*
X125712170Y-85833473D01*
X125712170Y-85833473D02*
X125550546Y-85995098D01*
X125550546Y-85995098D02*
X125469733Y-86022035D01*
X125469733Y-86022035D02*
X125415859Y-86022035D01*
X125415859Y-84998414D02*
X126170106Y-85375537D01*
X126170106Y-85375537D02*
X125792982Y-84621290D01*
X125927669Y-84486603D02*
X126277855Y-84136417D01*
X126277855Y-84136417D02*
X126304793Y-84540478D01*
X126304793Y-84540478D02*
X126385605Y-84459666D01*
X126385605Y-84459666D02*
X126466417Y-84432728D01*
X126466417Y-84432728D02*
X126520292Y-84432728D01*
X126520292Y-84432728D02*
X126601104Y-84459666D01*
X126601104Y-84459666D02*
X126735791Y-84594353D01*
X126735791Y-84594353D02*
X126762729Y-84675165D01*
X126762729Y-84675165D02*
X126762729Y-84729040D01*
X126762729Y-84729040D02*
X126735791Y-84809852D01*
X126735791Y-84809852D02*
X126574167Y-84971476D01*
X126574167Y-84971476D02*
X126493355Y-84998414D01*
X126493355Y-84998414D02*
X126439480Y-84998414D01*
X127005165Y-84648227D02*
X127436164Y-84217229D01*
X127220665Y-83732356D02*
X127409226Y-83543794D01*
X127786350Y-83759293D02*
X127516976Y-84028667D01*
X127516976Y-84028667D02*
X126951291Y-83462982D01*
X126951291Y-83462982D02*
X127220665Y-83193608D01*
X128028787Y-83516856D02*
X127463102Y-82951171D01*
X127463102Y-82951171D02*
X128352036Y-83193607D01*
X128352036Y-83193607D02*
X127786350Y-82627922D01*
X125068076Y-120750072D02*
X124987263Y-120777009D01*
X124987263Y-120777009D02*
X124906451Y-120857821D01*
X124906451Y-120857821D02*
X124852576Y-120965571D01*
X124852576Y-120965571D02*
X124852576Y-121073320D01*
X124852576Y-121073320D02*
X124879514Y-121154133D01*
X124879514Y-121154133D02*
X124960326Y-121288820D01*
X124960326Y-121288820D02*
X125041138Y-121369632D01*
X125041138Y-121369632D02*
X125175825Y-121450444D01*
X125175825Y-121450444D02*
X125256637Y-121477381D01*
X125256637Y-121477381D02*
X125364387Y-121477381D01*
X125364387Y-121477381D02*
X125472137Y-121423507D01*
X125472137Y-121423507D02*
X125526011Y-121369632D01*
X125526011Y-121369632D02*
X125579886Y-121261882D01*
X125579886Y-121261882D02*
X125579886Y-121208007D01*
X125579886Y-121208007D02*
X125391324Y-121019446D01*
X125391324Y-121019446D02*
X125283575Y-121127195D01*
X125876198Y-121019446D02*
X125310512Y-120453760D01*
X125310512Y-120453760D02*
X126199446Y-120696197D01*
X126199446Y-120696197D02*
X125633761Y-120130511D01*
X126468820Y-120426823D02*
X125903135Y-119861137D01*
X125903135Y-119861137D02*
X126037822Y-119726450D01*
X126037822Y-119726450D02*
X126145571Y-119672576D01*
X126145571Y-119672576D02*
X126253321Y-119672576D01*
X126253321Y-119672576D02*
X126334133Y-119699513D01*
X126334133Y-119699513D02*
X126468820Y-119780325D01*
X126468820Y-119780325D02*
X126549632Y-119861137D01*
X126549632Y-119861137D02*
X126630445Y-119995824D01*
X126630445Y-119995824D02*
X126657382Y-120076637D01*
X126657382Y-120076637D02*
X126657382Y-120184386D01*
X126657382Y-120184386D02*
X126603507Y-120292136D01*
X126603507Y-120292136D02*
X126468820Y-120426823D01*
X125068076Y-108050072D02*
X124987263Y-108077009D01*
X124987263Y-108077009D02*
X124906451Y-108157821D01*
X124906451Y-108157821D02*
X124852576Y-108265571D01*
X124852576Y-108265571D02*
X124852576Y-108373320D01*
X124852576Y-108373320D02*
X124879514Y-108454133D01*
X124879514Y-108454133D02*
X124960326Y-108588820D01*
X124960326Y-108588820D02*
X125041138Y-108669632D01*
X125041138Y-108669632D02*
X125175825Y-108750444D01*
X125175825Y-108750444D02*
X125256637Y-108777381D01*
X125256637Y-108777381D02*
X125364387Y-108777381D01*
X125364387Y-108777381D02*
X125472137Y-108723507D01*
X125472137Y-108723507D02*
X125526011Y-108669632D01*
X125526011Y-108669632D02*
X125579886Y-108561882D01*
X125579886Y-108561882D02*
X125579886Y-108508007D01*
X125579886Y-108508007D02*
X125391324Y-108319446D01*
X125391324Y-108319446D02*
X125283575Y-108427195D01*
X125876198Y-108319446D02*
X125310512Y-107753760D01*
X125310512Y-107753760D02*
X126199446Y-107996197D01*
X126199446Y-107996197D02*
X125633761Y-107430511D01*
X126468820Y-107726823D02*
X125903135Y-107161137D01*
X125903135Y-107161137D02*
X126037822Y-107026450D01*
X126037822Y-107026450D02*
X126145571Y-106972576D01*
X126145571Y-106972576D02*
X126253321Y-106972576D01*
X126253321Y-106972576D02*
X126334133Y-106999513D01*
X126334133Y-106999513D02*
X126468820Y-107080325D01*
X126468820Y-107080325D02*
X126549632Y-107161137D01*
X126549632Y-107161137D02*
X126630445Y-107295824D01*
X126630445Y-107295824D02*
X126657382Y-107376637D01*
X126657382Y-107376637D02*
X126657382Y-107484386D01*
X126657382Y-107484386D02*
X126603507Y-107592136D01*
X126603507Y-107592136D02*
X126468820Y-107726823D01*
X125136704Y-91085690D02*
X125406078Y-90816316D01*
X125244454Y-91301189D02*
X124867330Y-90546942D01*
X124867330Y-90546942D02*
X125621578Y-90924066D01*
X125810139Y-90735504D02*
X125244454Y-90169819D01*
X125244454Y-90169819D02*
X125379141Y-90035132D01*
X125379141Y-90035132D02*
X125486890Y-89981257D01*
X125486890Y-89981257D02*
X125594640Y-89981257D01*
X125594640Y-89981257D02*
X125675452Y-90008194D01*
X125675452Y-90008194D02*
X125810139Y-90089006D01*
X125810139Y-90089006D02*
X125890951Y-90169819D01*
X125890951Y-90169819D02*
X125971764Y-90304506D01*
X125971764Y-90304506D02*
X125998701Y-90385318D01*
X125998701Y-90385318D02*
X125998701Y-90493067D01*
X125998701Y-90493067D02*
X125944826Y-90600817D01*
X125944826Y-90600817D02*
X125810139Y-90735504D01*
X126645199Y-89792695D02*
X126645199Y-89846570D01*
X126645199Y-89846570D02*
X126591324Y-89954319D01*
X126591324Y-89954319D02*
X126537449Y-90008194D01*
X126537449Y-90008194D02*
X126429699Y-90062069D01*
X126429699Y-90062069D02*
X126321950Y-90062069D01*
X126321950Y-90062069D02*
X126241138Y-90035132D01*
X126241138Y-90035132D02*
X126106451Y-89954319D01*
X126106451Y-89954319D02*
X126025638Y-89873507D01*
X126025638Y-89873507D02*
X125944826Y-89738820D01*
X125944826Y-89738820D02*
X125917889Y-89658008D01*
X125917889Y-89658008D02*
X125917889Y-89550258D01*
X125917889Y-89550258D02*
X125971764Y-89442509D01*
X125971764Y-89442509D02*
X126025638Y-89388634D01*
X126025638Y-89388634D02*
X126133388Y-89334759D01*
X126133388Y-89334759D02*
X126187263Y-89334759D01*
X126860698Y-89792695D02*
X127291696Y-89361696D01*
X126726011Y-88688261D02*
X127480258Y-89065385D01*
X127480258Y-89065385D02*
X127103135Y-88311138D01*
X128180630Y-88365013D02*
X127722695Y-88284201D01*
X127857382Y-88688262D02*
X127291696Y-88122576D01*
X127291696Y-88122576D02*
X127507195Y-87907077D01*
X127507195Y-87907077D02*
X127588008Y-87880139D01*
X127588008Y-87880139D02*
X127641882Y-87880139D01*
X127641882Y-87880139D02*
X127722695Y-87907077D01*
X127722695Y-87907077D02*
X127803507Y-87987889D01*
X127803507Y-87987889D02*
X127830444Y-88068701D01*
X127830444Y-88068701D02*
X127830444Y-88122576D01*
X127830444Y-88122576D02*
X127803507Y-88203388D01*
X127803507Y-88203388D02*
X127588008Y-88418888D01*
X128126756Y-87826265D02*
X128315317Y-87637703D01*
X128692441Y-87853202D02*
X128423067Y-88122576D01*
X128423067Y-88122576D02*
X127857382Y-87556891D01*
X127857382Y-87556891D02*
X128126756Y-87287517D01*
X128827128Y-87125892D02*
X128638567Y-87314454D01*
X128934878Y-87610765D02*
X128369193Y-87045080D01*
X128369193Y-87045080D02*
X128638567Y-86775706D01*
X99395013Y-80073134D02*
X99314201Y-80100072D01*
X99314201Y-80100072D02*
X99233388Y-80180884D01*
X99233388Y-80180884D02*
X99179514Y-80288633D01*
X99179514Y-80288633D02*
X99179514Y-80396383D01*
X99179514Y-80396383D02*
X99206451Y-80477195D01*
X99206451Y-80477195D02*
X99287263Y-80611882D01*
X99287263Y-80611882D02*
X99368075Y-80692695D01*
X99368075Y-80692695D02*
X99502762Y-80773507D01*
X99502762Y-80773507D02*
X99583575Y-80800444D01*
X99583575Y-80800444D02*
X99691324Y-80800444D01*
X99691324Y-80800444D02*
X99799074Y-80746569D01*
X99799074Y-80746569D02*
X99852949Y-80692695D01*
X99852949Y-80692695D02*
X99906823Y-80584945D01*
X99906823Y-80584945D02*
X99906823Y-80531070D01*
X99906823Y-80531070D02*
X99718262Y-80342508D01*
X99718262Y-80342508D02*
X99610512Y-80450258D01*
X100203135Y-80342508D02*
X99637449Y-79776823D01*
X99637449Y-79776823D02*
X99852949Y-79561324D01*
X99852949Y-79561324D02*
X99933761Y-79534386D01*
X99933761Y-79534386D02*
X99987636Y-79534386D01*
X99987636Y-79534386D02*
X100068448Y-79561324D01*
X100068448Y-79561324D02*
X100149260Y-79642136D01*
X100149260Y-79642136D02*
X100176197Y-79722948D01*
X100176197Y-79722948D02*
X100176197Y-79776823D01*
X100176197Y-79776823D02*
X100149260Y-79857635D01*
X100149260Y-79857635D02*
X99933761Y-80073134D01*
X101065132Y-79480511D02*
X100741883Y-79803760D01*
X100903507Y-79642136D02*
X100337822Y-79076450D01*
X100337822Y-79076450D02*
X100364759Y-79211137D01*
X100364759Y-79211137D02*
X100364759Y-79318887D01*
X100364759Y-79318887D02*
X100337822Y-79399699D01*
X98825638Y-113372509D02*
X98744826Y-113399446D01*
X98744826Y-113399446D02*
X98664014Y-113480258D01*
X98664014Y-113480258D02*
X98610139Y-113588008D01*
X98610139Y-113588008D02*
X98610139Y-113695758D01*
X98610139Y-113695758D02*
X98637077Y-113776570D01*
X98637077Y-113776570D02*
X98717889Y-113911257D01*
X98717889Y-113911257D02*
X98798701Y-113992069D01*
X98798701Y-113992069D02*
X98933388Y-114072881D01*
X98933388Y-114072881D02*
X99014200Y-114099819D01*
X99014200Y-114099819D02*
X99121950Y-114099819D01*
X99121950Y-114099819D02*
X99229699Y-114045944D01*
X99229699Y-114045944D02*
X99283574Y-113992069D01*
X99283574Y-113992069D02*
X99337449Y-113884319D01*
X99337449Y-113884319D02*
X99337449Y-113830445D01*
X99337449Y-113830445D02*
X99148887Y-113641883D01*
X99148887Y-113641883D02*
X99041138Y-113749632D01*
X99633760Y-113641883D02*
X99068075Y-113076197D01*
X99068075Y-113076197D02*
X99283574Y-112860698D01*
X99283574Y-112860698D02*
X99364386Y-112833761D01*
X99364386Y-112833761D02*
X99418261Y-112833761D01*
X99418261Y-112833761D02*
X99499073Y-112860698D01*
X99499073Y-112860698D02*
X99579886Y-112941510D01*
X99579886Y-112941510D02*
X99606823Y-113022323D01*
X99606823Y-113022323D02*
X99606823Y-113076197D01*
X99606823Y-113076197D02*
X99579886Y-113157010D01*
X99579886Y-113157010D02*
X99364386Y-113372509D01*
X100495757Y-112779886D02*
X100172508Y-113103135D01*
X100334133Y-112941510D02*
X99768447Y-112375825D01*
X99768447Y-112375825D02*
X99795385Y-112510512D01*
X99795385Y-112510512D02*
X99795385Y-112618261D01*
X99795385Y-112618261D02*
X99768447Y-112699074D01*
X101034505Y-112241138D02*
X100711257Y-112564387D01*
X100872881Y-112402762D02*
X100307196Y-111837077D01*
X100307196Y-111837077D02*
X100334133Y-111971764D01*
X100334133Y-111971764D02*
X100334133Y-112079513D01*
X100334133Y-112079513D02*
X100307196Y-112160326D01*
X99495013Y-105483134D02*
X99414201Y-105510072D01*
X99414201Y-105510072D02*
X99333388Y-105590884D01*
X99333388Y-105590884D02*
X99279514Y-105698633D01*
X99279514Y-105698633D02*
X99279514Y-105806383D01*
X99279514Y-105806383D02*
X99306451Y-105887195D01*
X99306451Y-105887195D02*
X99387263Y-106021882D01*
X99387263Y-106021882D02*
X99468075Y-106102695D01*
X99468075Y-106102695D02*
X99602762Y-106183507D01*
X99602762Y-106183507D02*
X99683575Y-106210444D01*
X99683575Y-106210444D02*
X99791324Y-106210444D01*
X99791324Y-106210444D02*
X99899074Y-106156569D01*
X99899074Y-106156569D02*
X99952949Y-106102695D01*
X99952949Y-106102695D02*
X100006823Y-105994945D01*
X100006823Y-105994945D02*
X100006823Y-105941070D01*
X100006823Y-105941070D02*
X99818262Y-105752508D01*
X99818262Y-105752508D02*
X99710512Y-105860258D01*
X100303135Y-105752508D02*
X99737449Y-105186823D01*
X99737449Y-105186823D02*
X99952949Y-104971324D01*
X99952949Y-104971324D02*
X100033761Y-104944386D01*
X100033761Y-104944386D02*
X100087636Y-104944386D01*
X100087636Y-104944386D02*
X100168448Y-104971324D01*
X100168448Y-104971324D02*
X100249260Y-105052136D01*
X100249260Y-105052136D02*
X100276197Y-105132948D01*
X100276197Y-105132948D02*
X100276197Y-105186823D01*
X100276197Y-105186823D02*
X100249260Y-105267635D01*
X100249260Y-105267635D02*
X100033761Y-105483134D01*
X100895758Y-105159885D02*
X101003507Y-105052136D01*
X101003507Y-105052136D02*
X101030445Y-104971324D01*
X101030445Y-104971324D02*
X101030445Y-104917449D01*
X101030445Y-104917449D02*
X101003507Y-104782762D01*
X101003507Y-104782762D02*
X100922695Y-104648075D01*
X100922695Y-104648075D02*
X100707196Y-104432576D01*
X100707196Y-104432576D02*
X100626384Y-104405638D01*
X100626384Y-104405638D02*
X100572509Y-104405638D01*
X100572509Y-104405638D02*
X100491697Y-104432576D01*
X100491697Y-104432576D02*
X100383947Y-104540325D01*
X100383947Y-104540325D02*
X100357010Y-104621137D01*
X100357010Y-104621137D02*
X100357010Y-104675012D01*
X100357010Y-104675012D02*
X100383947Y-104755824D01*
X100383947Y-104755824D02*
X100518634Y-104890511D01*
X100518634Y-104890511D02*
X100599446Y-104917449D01*
X100599446Y-104917449D02*
X100653321Y-104917449D01*
X100653321Y-104917449D02*
X100734133Y-104890511D01*
X100734133Y-104890511D02*
X100841883Y-104782762D01*
X100841883Y-104782762D02*
X100868820Y-104701950D01*
X100868820Y-104701950D02*
X100868820Y-104648075D01*
X100868820Y-104648075D02*
X100841883Y-104567263D01*
X98971638Y-126072509D02*
X98890826Y-126099446D01*
X98890826Y-126099446D02*
X98810014Y-126180258D01*
X98810014Y-126180258D02*
X98756139Y-126288008D01*
X98756139Y-126288008D02*
X98756139Y-126395758D01*
X98756139Y-126395758D02*
X98783077Y-126476570D01*
X98783077Y-126476570D02*
X98863889Y-126611257D01*
X98863889Y-126611257D02*
X98944701Y-126692069D01*
X98944701Y-126692069D02*
X99079388Y-126772881D01*
X99079388Y-126772881D02*
X99160200Y-126799819D01*
X99160200Y-126799819D02*
X99267950Y-126799819D01*
X99267950Y-126799819D02*
X99375699Y-126745944D01*
X99375699Y-126745944D02*
X99429574Y-126692069D01*
X99429574Y-126692069D02*
X99483449Y-126584319D01*
X99483449Y-126584319D02*
X99483449Y-126530445D01*
X99483449Y-126530445D02*
X99294887Y-126341883D01*
X99294887Y-126341883D02*
X99187138Y-126449632D01*
X99779760Y-126341883D02*
X99214075Y-125776197D01*
X99214075Y-125776197D02*
X99429574Y-125560698D01*
X99429574Y-125560698D02*
X99510386Y-125533761D01*
X99510386Y-125533761D02*
X99564261Y-125533761D01*
X99564261Y-125533761D02*
X99645073Y-125560698D01*
X99645073Y-125560698D02*
X99725886Y-125641510D01*
X99725886Y-125641510D02*
X99752823Y-125722323D01*
X99752823Y-125722323D02*
X99752823Y-125776197D01*
X99752823Y-125776197D02*
X99725886Y-125857010D01*
X99725886Y-125857010D02*
X99510386Y-126072509D01*
X100641757Y-125479886D02*
X100318508Y-125803135D01*
X100480133Y-125641510D02*
X99914447Y-125075825D01*
X99914447Y-125075825D02*
X99941385Y-125210512D01*
X99941385Y-125210512D02*
X99941385Y-125318261D01*
X99941385Y-125318261D02*
X99914447Y-125399074D01*
X100587883Y-124402390D02*
X100318509Y-124671764D01*
X100318509Y-124671764D02*
X100560945Y-124968075D01*
X100560945Y-124968075D02*
X100560945Y-124914200D01*
X100560945Y-124914200D02*
X100587883Y-124833388D01*
X100587883Y-124833388D02*
X100722570Y-124698701D01*
X100722570Y-124698701D02*
X100803382Y-124671764D01*
X100803382Y-124671764D02*
X100857257Y-124671764D01*
X100857257Y-124671764D02*
X100938069Y-124698701D01*
X100938069Y-124698701D02*
X101072756Y-124833388D01*
X101072756Y-124833388D02*
X101099693Y-124914200D01*
X101099693Y-124914200D02*
X101099693Y-124968075D01*
X101099693Y-124968075D02*
X101072756Y-125048887D01*
X101072756Y-125048887D02*
X100938069Y-125183574D01*
X100938069Y-125183574D02*
X100857257Y-125210512D01*
X100857257Y-125210512D02*
X100803382Y-125210512D01*
X99395013Y-85163134D02*
X99314201Y-85190072D01*
X99314201Y-85190072D02*
X99233388Y-85270884D01*
X99233388Y-85270884D02*
X99179514Y-85378633D01*
X99179514Y-85378633D02*
X99179514Y-85486383D01*
X99179514Y-85486383D02*
X99206451Y-85567195D01*
X99206451Y-85567195D02*
X99287263Y-85701882D01*
X99287263Y-85701882D02*
X99368075Y-85782695D01*
X99368075Y-85782695D02*
X99502762Y-85863507D01*
X99502762Y-85863507D02*
X99583575Y-85890444D01*
X99583575Y-85890444D02*
X99691324Y-85890444D01*
X99691324Y-85890444D02*
X99799074Y-85836569D01*
X99799074Y-85836569D02*
X99852949Y-85782695D01*
X99852949Y-85782695D02*
X99906823Y-85674945D01*
X99906823Y-85674945D02*
X99906823Y-85621070D01*
X99906823Y-85621070D02*
X99718262Y-85432508D01*
X99718262Y-85432508D02*
X99610512Y-85540258D01*
X100203135Y-85432508D02*
X99637449Y-84866823D01*
X99637449Y-84866823D02*
X99852949Y-84651324D01*
X99852949Y-84651324D02*
X99933761Y-84624386D01*
X99933761Y-84624386D02*
X99987636Y-84624386D01*
X99987636Y-84624386D02*
X100068448Y-84651324D01*
X100068448Y-84651324D02*
X100149260Y-84732136D01*
X100149260Y-84732136D02*
X100176197Y-84812948D01*
X100176197Y-84812948D02*
X100176197Y-84866823D01*
X100176197Y-84866823D02*
X100149260Y-84947635D01*
X100149260Y-84947635D02*
X99933761Y-85163134D01*
X100230072Y-84381950D02*
X100230072Y-84328075D01*
X100230072Y-84328075D02*
X100257010Y-84247263D01*
X100257010Y-84247263D02*
X100391697Y-84112576D01*
X100391697Y-84112576D02*
X100472509Y-84085638D01*
X100472509Y-84085638D02*
X100526384Y-84085638D01*
X100526384Y-84085638D02*
X100607196Y-84112576D01*
X100607196Y-84112576D02*
X100661071Y-84166450D01*
X100661071Y-84166450D02*
X100714945Y-84274200D01*
X100714945Y-84274200D02*
X100714945Y-84920698D01*
X100714945Y-84920698D02*
X101065132Y-84570511D01*
X98971638Y-110832509D02*
X98890826Y-110859446D01*
X98890826Y-110859446D02*
X98810014Y-110940258D01*
X98810014Y-110940258D02*
X98756139Y-111048008D01*
X98756139Y-111048008D02*
X98756139Y-111155758D01*
X98756139Y-111155758D02*
X98783077Y-111236570D01*
X98783077Y-111236570D02*
X98863889Y-111371257D01*
X98863889Y-111371257D02*
X98944701Y-111452069D01*
X98944701Y-111452069D02*
X99079388Y-111532881D01*
X99079388Y-111532881D02*
X99160200Y-111559819D01*
X99160200Y-111559819D02*
X99267950Y-111559819D01*
X99267950Y-111559819D02*
X99375699Y-111505944D01*
X99375699Y-111505944D02*
X99429574Y-111452069D01*
X99429574Y-111452069D02*
X99483449Y-111344319D01*
X99483449Y-111344319D02*
X99483449Y-111290445D01*
X99483449Y-111290445D02*
X99294887Y-111101883D01*
X99294887Y-111101883D02*
X99187138Y-111209632D01*
X99779760Y-111101883D02*
X99214075Y-110536197D01*
X99214075Y-110536197D02*
X99429574Y-110320698D01*
X99429574Y-110320698D02*
X99510386Y-110293761D01*
X99510386Y-110293761D02*
X99564261Y-110293761D01*
X99564261Y-110293761D02*
X99645073Y-110320698D01*
X99645073Y-110320698D02*
X99725886Y-110401510D01*
X99725886Y-110401510D02*
X99752823Y-110482323D01*
X99752823Y-110482323D02*
X99752823Y-110536197D01*
X99752823Y-110536197D02*
X99725886Y-110617010D01*
X99725886Y-110617010D02*
X99510386Y-110832509D01*
X100641757Y-110239886D02*
X100318508Y-110563135D01*
X100480133Y-110401510D02*
X99914447Y-109835825D01*
X99914447Y-109835825D02*
X99941385Y-109970512D01*
X99941385Y-109970512D02*
X99941385Y-110078261D01*
X99941385Y-110078261D02*
X99914447Y-110159074D01*
X100426258Y-109324014D02*
X100480133Y-109270139D01*
X100480133Y-109270139D02*
X100560945Y-109243202D01*
X100560945Y-109243202D02*
X100614820Y-109243202D01*
X100614820Y-109243202D02*
X100695632Y-109270139D01*
X100695632Y-109270139D02*
X100830319Y-109350951D01*
X100830319Y-109350951D02*
X100965006Y-109485638D01*
X100965006Y-109485638D02*
X101045818Y-109620326D01*
X101045818Y-109620326D02*
X101072756Y-109701138D01*
X101072756Y-109701138D02*
X101072756Y-109755013D01*
X101072756Y-109755013D02*
X101045818Y-109835825D01*
X101045818Y-109835825D02*
X100991944Y-109889700D01*
X100991944Y-109889700D02*
X100911131Y-109916637D01*
X100911131Y-109916637D02*
X100857257Y-109916637D01*
X100857257Y-109916637D02*
X100776444Y-109889700D01*
X100776444Y-109889700D02*
X100641757Y-109808887D01*
X100641757Y-109808887D02*
X100507070Y-109674200D01*
X100507070Y-109674200D02*
X100426258Y-109539513D01*
X100426258Y-109539513D02*
X100399321Y-109458701D01*
X100399321Y-109458701D02*
X100399321Y-109404826D01*
X100399321Y-109404826D02*
X100426258Y-109324014D01*
X125079638Y-98142509D02*
X124998826Y-98169446D01*
X124998826Y-98169446D02*
X124918014Y-98250258D01*
X124918014Y-98250258D02*
X124864139Y-98358008D01*
X124864139Y-98358008D02*
X124864139Y-98465758D01*
X124864139Y-98465758D02*
X124891077Y-98546570D01*
X124891077Y-98546570D02*
X124971889Y-98681257D01*
X124971889Y-98681257D02*
X125052701Y-98762069D01*
X125052701Y-98762069D02*
X125187388Y-98842881D01*
X125187388Y-98842881D02*
X125268200Y-98869819D01*
X125268200Y-98869819D02*
X125375950Y-98869819D01*
X125375950Y-98869819D02*
X125483699Y-98815944D01*
X125483699Y-98815944D02*
X125537574Y-98762069D01*
X125537574Y-98762069D02*
X125591449Y-98654319D01*
X125591449Y-98654319D02*
X125591449Y-98600445D01*
X125591449Y-98600445D02*
X125402887Y-98411883D01*
X125402887Y-98411883D02*
X125295138Y-98519632D01*
X125887760Y-98411883D02*
X125322075Y-97846197D01*
X125322075Y-97846197D02*
X125537574Y-97630698D01*
X125537574Y-97630698D02*
X125618386Y-97603761D01*
X125618386Y-97603761D02*
X125672261Y-97603761D01*
X125672261Y-97603761D02*
X125753073Y-97630698D01*
X125753073Y-97630698D02*
X125833886Y-97711510D01*
X125833886Y-97711510D02*
X125860823Y-97792323D01*
X125860823Y-97792323D02*
X125860823Y-97846197D01*
X125860823Y-97846197D02*
X125833886Y-97927010D01*
X125833886Y-97927010D02*
X125618386Y-98142509D01*
X125914698Y-97361324D02*
X125914698Y-97307449D01*
X125914698Y-97307449D02*
X125941635Y-97226637D01*
X125941635Y-97226637D02*
X126076322Y-97091950D01*
X126076322Y-97091950D02*
X126157134Y-97065013D01*
X126157134Y-97065013D02*
X126211009Y-97065013D01*
X126211009Y-97065013D02*
X126291821Y-97091950D01*
X126291821Y-97091950D02*
X126345696Y-97145825D01*
X126345696Y-97145825D02*
X126399571Y-97253574D01*
X126399571Y-97253574D02*
X126399571Y-97900072D01*
X126399571Y-97900072D02*
X126749757Y-97549886D01*
X126372634Y-96795638D02*
X126749757Y-96418515D01*
X126749757Y-96418515D02*
X127073006Y-97226637D01*
X99495013Y-102943134D02*
X99414201Y-102970072D01*
X99414201Y-102970072D02*
X99333388Y-103050884D01*
X99333388Y-103050884D02*
X99279514Y-103158633D01*
X99279514Y-103158633D02*
X99279514Y-103266383D01*
X99279514Y-103266383D02*
X99306451Y-103347195D01*
X99306451Y-103347195D02*
X99387263Y-103481882D01*
X99387263Y-103481882D02*
X99468075Y-103562695D01*
X99468075Y-103562695D02*
X99602762Y-103643507D01*
X99602762Y-103643507D02*
X99683575Y-103670444D01*
X99683575Y-103670444D02*
X99791324Y-103670444D01*
X99791324Y-103670444D02*
X99899074Y-103616569D01*
X99899074Y-103616569D02*
X99952949Y-103562695D01*
X99952949Y-103562695D02*
X100006823Y-103454945D01*
X100006823Y-103454945D02*
X100006823Y-103401070D01*
X100006823Y-103401070D02*
X99818262Y-103212508D01*
X99818262Y-103212508D02*
X99710512Y-103320258D01*
X100303135Y-103212508D02*
X99737449Y-102646823D01*
X99737449Y-102646823D02*
X99952949Y-102431324D01*
X99952949Y-102431324D02*
X100033761Y-102404386D01*
X100033761Y-102404386D02*
X100087636Y-102404386D01*
X100087636Y-102404386D02*
X100168448Y-102431324D01*
X100168448Y-102431324D02*
X100249260Y-102512136D01*
X100249260Y-102512136D02*
X100276197Y-102592948D01*
X100276197Y-102592948D02*
X100276197Y-102646823D01*
X100276197Y-102646823D02*
X100249260Y-102727635D01*
X100249260Y-102727635D02*
X100033761Y-102943134D01*
X100626384Y-102242762D02*
X100545571Y-102269699D01*
X100545571Y-102269699D02*
X100491697Y-102269699D01*
X100491697Y-102269699D02*
X100410884Y-102242762D01*
X100410884Y-102242762D02*
X100383947Y-102215824D01*
X100383947Y-102215824D02*
X100357010Y-102135012D01*
X100357010Y-102135012D02*
X100357010Y-102081137D01*
X100357010Y-102081137D02*
X100383947Y-102000325D01*
X100383947Y-102000325D02*
X100491697Y-101892576D01*
X100491697Y-101892576D02*
X100572509Y-101865638D01*
X100572509Y-101865638D02*
X100626384Y-101865638D01*
X100626384Y-101865638D02*
X100707196Y-101892576D01*
X100707196Y-101892576D02*
X100734133Y-101919513D01*
X100734133Y-101919513D02*
X100761071Y-102000325D01*
X100761071Y-102000325D02*
X100761071Y-102054200D01*
X100761071Y-102054200D02*
X100734133Y-102135012D01*
X100734133Y-102135012D02*
X100626384Y-102242762D01*
X100626384Y-102242762D02*
X100599446Y-102323574D01*
X100599446Y-102323574D02*
X100599446Y-102377449D01*
X100599446Y-102377449D02*
X100626384Y-102458261D01*
X100626384Y-102458261D02*
X100734133Y-102566011D01*
X100734133Y-102566011D02*
X100814945Y-102592948D01*
X100814945Y-102592948D02*
X100868820Y-102592948D01*
X100868820Y-102592948D02*
X100949632Y-102566011D01*
X100949632Y-102566011D02*
X101057382Y-102458261D01*
X101057382Y-102458261D02*
X101084319Y-102377449D01*
X101084319Y-102377449D02*
X101084319Y-102323574D01*
X101084319Y-102323574D02*
X101057382Y-102242762D01*
X101057382Y-102242762D02*
X100949632Y-102135012D01*
X100949632Y-102135012D02*
X100868820Y-102108075D01*
X100868820Y-102108075D02*
X100814945Y-102108075D01*
X100814945Y-102108075D02*
X100734133Y-102135012D01*
X99495013Y-97863134D02*
X99414201Y-97890072D01*
X99414201Y-97890072D02*
X99333388Y-97970884D01*
X99333388Y-97970884D02*
X99279514Y-98078633D01*
X99279514Y-98078633D02*
X99279514Y-98186383D01*
X99279514Y-98186383D02*
X99306451Y-98267195D01*
X99306451Y-98267195D02*
X99387263Y-98401882D01*
X99387263Y-98401882D02*
X99468075Y-98482695D01*
X99468075Y-98482695D02*
X99602762Y-98563507D01*
X99602762Y-98563507D02*
X99683575Y-98590444D01*
X99683575Y-98590444D02*
X99791324Y-98590444D01*
X99791324Y-98590444D02*
X99899074Y-98536569D01*
X99899074Y-98536569D02*
X99952949Y-98482695D01*
X99952949Y-98482695D02*
X100006823Y-98374945D01*
X100006823Y-98374945D02*
X100006823Y-98321070D01*
X100006823Y-98321070D02*
X99818262Y-98132508D01*
X99818262Y-98132508D02*
X99710512Y-98240258D01*
X100303135Y-98132508D02*
X99737449Y-97566823D01*
X99737449Y-97566823D02*
X99952949Y-97351324D01*
X99952949Y-97351324D02*
X100033761Y-97324386D01*
X100033761Y-97324386D02*
X100087636Y-97324386D01*
X100087636Y-97324386D02*
X100168448Y-97351324D01*
X100168448Y-97351324D02*
X100249260Y-97432136D01*
X100249260Y-97432136D02*
X100276197Y-97512948D01*
X100276197Y-97512948D02*
X100276197Y-97566823D01*
X100276197Y-97566823D02*
X100249260Y-97647635D01*
X100249260Y-97647635D02*
X100033761Y-97863134D01*
X100545571Y-96758701D02*
X100437822Y-96866450D01*
X100437822Y-96866450D02*
X100410884Y-96947263D01*
X100410884Y-96947263D02*
X100410884Y-97001137D01*
X100410884Y-97001137D02*
X100437822Y-97135824D01*
X100437822Y-97135824D02*
X100518634Y-97270511D01*
X100518634Y-97270511D02*
X100734133Y-97486011D01*
X100734133Y-97486011D02*
X100814945Y-97512948D01*
X100814945Y-97512948D02*
X100868820Y-97512948D01*
X100868820Y-97512948D02*
X100949632Y-97486011D01*
X100949632Y-97486011D02*
X101057382Y-97378261D01*
X101057382Y-97378261D02*
X101084319Y-97297449D01*
X101084319Y-97297449D02*
X101084319Y-97243574D01*
X101084319Y-97243574D02*
X101057382Y-97162762D01*
X101057382Y-97162762D02*
X100922695Y-97028075D01*
X100922695Y-97028075D02*
X100841883Y-97001137D01*
X100841883Y-97001137D02*
X100788008Y-97001137D01*
X100788008Y-97001137D02*
X100707196Y-97028075D01*
X100707196Y-97028075D02*
X100599446Y-97135824D01*
X100599446Y-97135824D02*
X100572509Y-97216637D01*
X100572509Y-97216637D02*
X100572509Y-97270511D01*
X100572509Y-97270511D02*
X100599446Y-97351324D01*
X98971638Y-118452509D02*
X98890826Y-118479446D01*
X98890826Y-118479446D02*
X98810014Y-118560258D01*
X98810014Y-118560258D02*
X98756139Y-118668008D01*
X98756139Y-118668008D02*
X98756139Y-118775758D01*
X98756139Y-118775758D02*
X98783077Y-118856570D01*
X98783077Y-118856570D02*
X98863889Y-118991257D01*
X98863889Y-118991257D02*
X98944701Y-119072069D01*
X98944701Y-119072069D02*
X99079388Y-119152881D01*
X99079388Y-119152881D02*
X99160200Y-119179819D01*
X99160200Y-119179819D02*
X99267950Y-119179819D01*
X99267950Y-119179819D02*
X99375699Y-119125944D01*
X99375699Y-119125944D02*
X99429574Y-119072069D01*
X99429574Y-119072069D02*
X99483449Y-118964319D01*
X99483449Y-118964319D02*
X99483449Y-118910445D01*
X99483449Y-118910445D02*
X99294887Y-118721883D01*
X99294887Y-118721883D02*
X99187138Y-118829632D01*
X99779760Y-118721883D02*
X99214075Y-118156197D01*
X99214075Y-118156197D02*
X99429574Y-117940698D01*
X99429574Y-117940698D02*
X99510386Y-117913761D01*
X99510386Y-117913761D02*
X99564261Y-117913761D01*
X99564261Y-117913761D02*
X99645073Y-117940698D01*
X99645073Y-117940698D02*
X99725886Y-118021510D01*
X99725886Y-118021510D02*
X99752823Y-118102323D01*
X99752823Y-118102323D02*
X99752823Y-118156197D01*
X99752823Y-118156197D02*
X99725886Y-118237010D01*
X99725886Y-118237010D02*
X99510386Y-118452509D01*
X100641757Y-117859886D02*
X100318508Y-118183135D01*
X100480133Y-118021510D02*
X99914447Y-117455825D01*
X99914447Y-117455825D02*
X99941385Y-117590512D01*
X99941385Y-117590512D02*
X99941385Y-117698261D01*
X99941385Y-117698261D02*
X99914447Y-117779074D01*
X100264634Y-117105638D02*
X100614820Y-116755452D01*
X100614820Y-116755452D02*
X100641757Y-117159513D01*
X100641757Y-117159513D02*
X100722570Y-117078701D01*
X100722570Y-117078701D02*
X100803382Y-117051764D01*
X100803382Y-117051764D02*
X100857257Y-117051764D01*
X100857257Y-117051764D02*
X100938069Y-117078701D01*
X100938069Y-117078701D02*
X101072756Y-117213388D01*
X101072756Y-117213388D02*
X101099693Y-117294200D01*
X101099693Y-117294200D02*
X101099693Y-117348075D01*
X101099693Y-117348075D02*
X101072756Y-117428887D01*
X101072756Y-117428887D02*
X100911131Y-117590512D01*
X100911131Y-117590512D02*
X100830319Y-117617449D01*
X100830319Y-117617449D02*
X100776444Y-117617449D01*
X99495013Y-77543134D02*
X99414201Y-77570072D01*
X99414201Y-77570072D02*
X99333388Y-77650884D01*
X99333388Y-77650884D02*
X99279514Y-77758633D01*
X99279514Y-77758633D02*
X99279514Y-77866383D01*
X99279514Y-77866383D02*
X99306451Y-77947195D01*
X99306451Y-77947195D02*
X99387263Y-78081882D01*
X99387263Y-78081882D02*
X99468075Y-78162695D01*
X99468075Y-78162695D02*
X99602762Y-78243507D01*
X99602762Y-78243507D02*
X99683575Y-78270444D01*
X99683575Y-78270444D02*
X99791324Y-78270444D01*
X99791324Y-78270444D02*
X99899074Y-78216569D01*
X99899074Y-78216569D02*
X99952949Y-78162695D01*
X99952949Y-78162695D02*
X100006823Y-78054945D01*
X100006823Y-78054945D02*
X100006823Y-78001070D01*
X100006823Y-78001070D02*
X99818262Y-77812508D01*
X99818262Y-77812508D02*
X99710512Y-77920258D01*
X100303135Y-77812508D02*
X99737449Y-77246823D01*
X99737449Y-77246823D02*
X99952949Y-77031324D01*
X99952949Y-77031324D02*
X100033761Y-77004386D01*
X100033761Y-77004386D02*
X100087636Y-77004386D01*
X100087636Y-77004386D02*
X100168448Y-77031324D01*
X100168448Y-77031324D02*
X100249260Y-77112136D01*
X100249260Y-77112136D02*
X100276197Y-77192948D01*
X100276197Y-77192948D02*
X100276197Y-77246823D01*
X100276197Y-77246823D02*
X100249260Y-77327635D01*
X100249260Y-77327635D02*
X100033761Y-77543134D01*
X100410884Y-76573388D02*
X100464759Y-76519513D01*
X100464759Y-76519513D02*
X100545571Y-76492576D01*
X100545571Y-76492576D02*
X100599446Y-76492576D01*
X100599446Y-76492576D02*
X100680258Y-76519513D01*
X100680258Y-76519513D02*
X100814945Y-76600325D01*
X100814945Y-76600325D02*
X100949632Y-76735012D01*
X100949632Y-76735012D02*
X101030445Y-76869699D01*
X101030445Y-76869699D02*
X101057382Y-76950511D01*
X101057382Y-76950511D02*
X101057382Y-77004386D01*
X101057382Y-77004386D02*
X101030445Y-77085198D01*
X101030445Y-77085198D02*
X100976570Y-77139073D01*
X100976570Y-77139073D02*
X100895758Y-77166011D01*
X100895758Y-77166011D02*
X100841883Y-77166011D01*
X100841883Y-77166011D02*
X100761071Y-77139073D01*
X100761071Y-77139073D02*
X100626384Y-77058261D01*
X100626384Y-77058261D02*
X100491697Y-76923574D01*
X100491697Y-76923574D02*
X100410884Y-76788887D01*
X100410884Y-76788887D02*
X100383947Y-76708075D01*
X100383947Y-76708075D02*
X100383947Y-76654200D01*
X100383947Y-76654200D02*
X100410884Y-76573388D01*
X105520475Y-128055809D02*
X105634761Y-128093904D01*
X105634761Y-128093904D02*
X105825237Y-128093904D01*
X105825237Y-128093904D02*
X105901428Y-128055809D01*
X105901428Y-128055809D02*
X105939523Y-128017714D01*
X105939523Y-128017714D02*
X105977618Y-127941523D01*
X105977618Y-127941523D02*
X105977618Y-127865333D01*
X105977618Y-127865333D02*
X105939523Y-127789142D01*
X105939523Y-127789142D02*
X105901428Y-127751047D01*
X105901428Y-127751047D02*
X105825237Y-127712952D01*
X105825237Y-127712952D02*
X105672856Y-127674857D01*
X105672856Y-127674857D02*
X105596666Y-127636761D01*
X105596666Y-127636761D02*
X105558571Y-127598666D01*
X105558571Y-127598666D02*
X105520475Y-127522476D01*
X105520475Y-127522476D02*
X105520475Y-127446285D01*
X105520475Y-127446285D02*
X105558571Y-127370095D01*
X105558571Y-127370095D02*
X105596666Y-127332000D01*
X105596666Y-127332000D02*
X105672856Y-127293904D01*
X105672856Y-127293904D02*
X105863333Y-127293904D01*
X105863333Y-127293904D02*
X105977618Y-127332000D01*
X106244285Y-127293904D02*
X106434761Y-128093904D01*
X106434761Y-128093904D02*
X106587142Y-127522476D01*
X106587142Y-127522476D02*
X106739523Y-128093904D01*
X106739523Y-128093904D02*
X106930000Y-127293904D01*
X107691905Y-128017714D02*
X107653809Y-128055809D01*
X107653809Y-128055809D02*
X107539524Y-128093904D01*
X107539524Y-128093904D02*
X107463333Y-128093904D01*
X107463333Y-128093904D02*
X107349047Y-128055809D01*
X107349047Y-128055809D02*
X107272857Y-127979619D01*
X107272857Y-127979619D02*
X107234762Y-127903428D01*
X107234762Y-127903428D02*
X107196666Y-127751047D01*
X107196666Y-127751047D02*
X107196666Y-127636761D01*
X107196666Y-127636761D02*
X107234762Y-127484380D01*
X107234762Y-127484380D02*
X107272857Y-127408190D01*
X107272857Y-127408190D02*
X107349047Y-127332000D01*
X107349047Y-127332000D02*
X107463333Y-127293904D01*
X107463333Y-127293904D02*
X107539524Y-127293904D01*
X107539524Y-127293904D02*
X107653809Y-127332000D01*
X107653809Y-127332000D02*
X107691905Y-127370095D01*
X108415714Y-128093904D02*
X108034762Y-128093904D01*
X108034762Y-128093904D02*
X108034762Y-127293904D01*
X108682381Y-128093904D02*
X108682381Y-127293904D01*
X109139524Y-128093904D02*
X108796666Y-127636761D01*
X109139524Y-127293904D02*
X108682381Y-127751047D01*
X99468076Y-108050072D02*
X99387263Y-108077009D01*
X99387263Y-108077009D02*
X99306451Y-108157821D01*
X99306451Y-108157821D02*
X99252576Y-108265571D01*
X99252576Y-108265571D02*
X99252576Y-108373320D01*
X99252576Y-108373320D02*
X99279514Y-108454133D01*
X99279514Y-108454133D02*
X99360326Y-108588820D01*
X99360326Y-108588820D02*
X99441138Y-108669632D01*
X99441138Y-108669632D02*
X99575825Y-108750444D01*
X99575825Y-108750444D02*
X99656637Y-108777381D01*
X99656637Y-108777381D02*
X99764387Y-108777381D01*
X99764387Y-108777381D02*
X99872137Y-108723507D01*
X99872137Y-108723507D02*
X99926011Y-108669632D01*
X99926011Y-108669632D02*
X99979886Y-108561882D01*
X99979886Y-108561882D02*
X99979886Y-108508007D01*
X99979886Y-108508007D02*
X99791324Y-108319446D01*
X99791324Y-108319446D02*
X99683575Y-108427195D01*
X100276198Y-108319446D02*
X99710512Y-107753760D01*
X99710512Y-107753760D02*
X100599446Y-107996197D01*
X100599446Y-107996197D02*
X100033761Y-107430511D01*
X100868820Y-107726823D02*
X100303135Y-107161137D01*
X100303135Y-107161137D02*
X100437822Y-107026450D01*
X100437822Y-107026450D02*
X100545571Y-106972576D01*
X100545571Y-106972576D02*
X100653321Y-106972576D01*
X100653321Y-106972576D02*
X100734133Y-106999513D01*
X100734133Y-106999513D02*
X100868820Y-107080325D01*
X100868820Y-107080325D02*
X100949632Y-107161137D01*
X100949632Y-107161137D02*
X101030445Y-107295824D01*
X101030445Y-107295824D02*
X101057382Y-107376637D01*
X101057382Y-107376637D02*
X101057382Y-107484386D01*
X101057382Y-107484386D02*
X101003507Y-107592136D01*
X101003507Y-107592136D02*
X100868820Y-107726823D01*
X99468076Y-120750072D02*
X99387263Y-120777009D01*
X99387263Y-120777009D02*
X99306451Y-120857821D01*
X99306451Y-120857821D02*
X99252576Y-120965571D01*
X99252576Y-120965571D02*
X99252576Y-121073320D01*
X99252576Y-121073320D02*
X99279514Y-121154133D01*
X99279514Y-121154133D02*
X99360326Y-121288820D01*
X99360326Y-121288820D02*
X99441138Y-121369632D01*
X99441138Y-121369632D02*
X99575825Y-121450444D01*
X99575825Y-121450444D02*
X99656637Y-121477381D01*
X99656637Y-121477381D02*
X99764387Y-121477381D01*
X99764387Y-121477381D02*
X99872137Y-121423507D01*
X99872137Y-121423507D02*
X99926011Y-121369632D01*
X99926011Y-121369632D02*
X99979886Y-121261882D01*
X99979886Y-121261882D02*
X99979886Y-121208007D01*
X99979886Y-121208007D02*
X99791324Y-121019446D01*
X99791324Y-121019446D02*
X99683575Y-121127195D01*
X100276198Y-121019446D02*
X99710512Y-120453760D01*
X99710512Y-120453760D02*
X100599446Y-120696197D01*
X100599446Y-120696197D02*
X100033761Y-120130511D01*
X100868820Y-120426823D02*
X100303135Y-119861137D01*
X100303135Y-119861137D02*
X100437822Y-119726450D01*
X100437822Y-119726450D02*
X100545571Y-119672576D01*
X100545571Y-119672576D02*
X100653321Y-119672576D01*
X100653321Y-119672576D02*
X100734133Y-119699513D01*
X100734133Y-119699513D02*
X100868820Y-119780325D01*
X100868820Y-119780325D02*
X100949632Y-119861137D01*
X100949632Y-119861137D02*
X101030445Y-119995824D01*
X101030445Y-119995824D02*
X101057382Y-120076637D01*
X101057382Y-120076637D02*
X101057382Y-120184386D01*
X101057382Y-120184386D02*
X101003507Y-120292136D01*
X101003507Y-120292136D02*
X100868820Y-120426823D01*
X125079638Y-105752509D02*
X124998826Y-105779446D01*
X124998826Y-105779446D02*
X124918014Y-105860258D01*
X124918014Y-105860258D02*
X124864139Y-105968008D01*
X124864139Y-105968008D02*
X124864139Y-106075758D01*
X124864139Y-106075758D02*
X124891077Y-106156570D01*
X124891077Y-106156570D02*
X124971889Y-106291257D01*
X124971889Y-106291257D02*
X125052701Y-106372069D01*
X125052701Y-106372069D02*
X125187388Y-106452881D01*
X125187388Y-106452881D02*
X125268200Y-106479819D01*
X125268200Y-106479819D02*
X125375950Y-106479819D01*
X125375950Y-106479819D02*
X125483699Y-106425944D01*
X125483699Y-106425944D02*
X125537574Y-106372069D01*
X125537574Y-106372069D02*
X125591449Y-106264319D01*
X125591449Y-106264319D02*
X125591449Y-106210445D01*
X125591449Y-106210445D02*
X125402887Y-106021883D01*
X125402887Y-106021883D02*
X125295138Y-106129632D01*
X125887760Y-106021883D02*
X125322075Y-105456197D01*
X125322075Y-105456197D02*
X125537574Y-105240698D01*
X125537574Y-105240698D02*
X125618386Y-105213761D01*
X125618386Y-105213761D02*
X125672261Y-105213761D01*
X125672261Y-105213761D02*
X125753073Y-105240698D01*
X125753073Y-105240698D02*
X125833886Y-105321510D01*
X125833886Y-105321510D02*
X125860823Y-105402323D01*
X125860823Y-105402323D02*
X125860823Y-105456197D01*
X125860823Y-105456197D02*
X125833886Y-105537010D01*
X125833886Y-105537010D02*
X125618386Y-105752509D01*
X125914698Y-104971324D02*
X125914698Y-104917449D01*
X125914698Y-104917449D02*
X125941635Y-104836637D01*
X125941635Y-104836637D02*
X126076322Y-104701950D01*
X126076322Y-104701950D02*
X126157134Y-104675013D01*
X126157134Y-104675013D02*
X126211009Y-104675013D01*
X126211009Y-104675013D02*
X126291821Y-104701950D01*
X126291821Y-104701950D02*
X126345696Y-104755825D01*
X126345696Y-104755825D02*
X126399571Y-104863574D01*
X126399571Y-104863574D02*
X126399571Y-105510072D01*
X126399571Y-105510072D02*
X126749757Y-105159886D01*
X126453446Y-104432576D02*
X126453446Y-104378701D01*
X126453446Y-104378701D02*
X126480383Y-104297889D01*
X126480383Y-104297889D02*
X126615070Y-104163202D01*
X126615070Y-104163202D02*
X126695883Y-104136264D01*
X126695883Y-104136264D02*
X126749757Y-104136264D01*
X126749757Y-104136264D02*
X126830570Y-104163202D01*
X126830570Y-104163202D02*
X126884444Y-104217077D01*
X126884444Y-104217077D02*
X126938319Y-104324826D01*
X126938319Y-104324826D02*
X126938319Y-104971324D01*
X126938319Y-104971324D02*
X127288505Y-104621138D01*
X98925638Y-123532509D02*
X98844826Y-123559446D01*
X98844826Y-123559446D02*
X98764014Y-123640258D01*
X98764014Y-123640258D02*
X98710139Y-123748008D01*
X98710139Y-123748008D02*
X98710139Y-123855758D01*
X98710139Y-123855758D02*
X98737077Y-123936570D01*
X98737077Y-123936570D02*
X98817889Y-124071257D01*
X98817889Y-124071257D02*
X98898701Y-124152069D01*
X98898701Y-124152069D02*
X99033388Y-124232881D01*
X99033388Y-124232881D02*
X99114200Y-124259819D01*
X99114200Y-124259819D02*
X99221950Y-124259819D01*
X99221950Y-124259819D02*
X99329699Y-124205944D01*
X99329699Y-124205944D02*
X99383574Y-124152069D01*
X99383574Y-124152069D02*
X99437449Y-124044319D01*
X99437449Y-124044319D02*
X99437449Y-123990445D01*
X99437449Y-123990445D02*
X99248887Y-123801883D01*
X99248887Y-123801883D02*
X99141138Y-123909632D01*
X99733760Y-123801883D02*
X99168075Y-123236197D01*
X99168075Y-123236197D02*
X99383574Y-123020698D01*
X99383574Y-123020698D02*
X99464386Y-122993761D01*
X99464386Y-122993761D02*
X99518261Y-122993761D01*
X99518261Y-122993761D02*
X99599073Y-123020698D01*
X99599073Y-123020698D02*
X99679886Y-123101510D01*
X99679886Y-123101510D02*
X99706823Y-123182323D01*
X99706823Y-123182323D02*
X99706823Y-123236197D01*
X99706823Y-123236197D02*
X99679886Y-123317010D01*
X99679886Y-123317010D02*
X99464386Y-123532509D01*
X100595757Y-122939886D02*
X100272508Y-123263135D01*
X100434133Y-123101510D02*
X99868447Y-122535825D01*
X99868447Y-122535825D02*
X99895385Y-122670512D01*
X99895385Y-122670512D02*
X99895385Y-122778261D01*
X99895385Y-122778261D02*
X99868447Y-122859074D01*
X100703507Y-122077889D02*
X101080631Y-122455013D01*
X100353321Y-121997077D02*
X100622695Y-122535825D01*
X100622695Y-122535825D02*
X100972881Y-122185638D01*
X125079638Y-126072509D02*
X124998826Y-126099446D01*
X124998826Y-126099446D02*
X124918014Y-126180258D01*
X124918014Y-126180258D02*
X124864139Y-126288008D01*
X124864139Y-126288008D02*
X124864139Y-126395758D01*
X124864139Y-126395758D02*
X124891077Y-126476570D01*
X124891077Y-126476570D02*
X124971889Y-126611257D01*
X124971889Y-126611257D02*
X125052701Y-126692069D01*
X125052701Y-126692069D02*
X125187388Y-126772881D01*
X125187388Y-126772881D02*
X125268200Y-126799819D01*
X125268200Y-126799819D02*
X125375950Y-126799819D01*
X125375950Y-126799819D02*
X125483699Y-126745944D01*
X125483699Y-126745944D02*
X125537574Y-126692069D01*
X125537574Y-126692069D02*
X125591449Y-126584319D01*
X125591449Y-126584319D02*
X125591449Y-126530445D01*
X125591449Y-126530445D02*
X125402887Y-126341883D01*
X125402887Y-126341883D02*
X125295138Y-126449632D01*
X125887760Y-126341883D02*
X125322075Y-125776197D01*
X125322075Y-125776197D02*
X125537574Y-125560698D01*
X125537574Y-125560698D02*
X125618386Y-125533761D01*
X125618386Y-125533761D02*
X125672261Y-125533761D01*
X125672261Y-125533761D02*
X125753073Y-125560698D01*
X125753073Y-125560698D02*
X125833886Y-125641510D01*
X125833886Y-125641510D02*
X125860823Y-125722323D01*
X125860823Y-125722323D02*
X125860823Y-125776197D01*
X125860823Y-125776197D02*
X125833886Y-125857010D01*
X125833886Y-125857010D02*
X125618386Y-126072509D01*
X126749757Y-125479886D02*
X126426508Y-125803135D01*
X126588133Y-125641510D02*
X126022447Y-125075825D01*
X126022447Y-125075825D02*
X126049385Y-125210512D01*
X126049385Y-125210512D02*
X126049385Y-125318261D01*
X126049385Y-125318261D02*
X126022447Y-125399074D01*
X126668945Y-124429327D02*
X126561196Y-124537077D01*
X126561196Y-124537077D02*
X126534258Y-124617889D01*
X126534258Y-124617889D02*
X126534258Y-124671764D01*
X126534258Y-124671764D02*
X126561196Y-124806451D01*
X126561196Y-124806451D02*
X126642008Y-124941138D01*
X126642008Y-124941138D02*
X126857507Y-125156637D01*
X126857507Y-125156637D02*
X126938319Y-125183574D01*
X126938319Y-125183574D02*
X126992194Y-125183574D01*
X126992194Y-125183574D02*
X127073006Y-125156637D01*
X127073006Y-125156637D02*
X127180756Y-125048887D01*
X127180756Y-125048887D02*
X127207693Y-124968075D01*
X127207693Y-124968075D02*
X127207693Y-124914200D01*
X127207693Y-124914200D02*
X127180756Y-124833388D01*
X127180756Y-124833388D02*
X127046069Y-124698701D01*
X127046069Y-124698701D02*
X126965257Y-124671764D01*
X126965257Y-124671764D02*
X126911382Y-124671764D01*
X126911382Y-124671764D02*
X126830570Y-124698701D01*
X126830570Y-124698701D02*
X126722820Y-124806451D01*
X126722820Y-124806451D02*
X126695883Y-124887263D01*
X126695883Y-124887263D02*
X126695883Y-124941138D01*
X126695883Y-124941138D02*
X126722820Y-125021950D01*
X99495013Y-92783134D02*
X99414201Y-92810072D01*
X99414201Y-92810072D02*
X99333388Y-92890884D01*
X99333388Y-92890884D02*
X99279514Y-92998633D01*
X99279514Y-92998633D02*
X99279514Y-93106383D01*
X99279514Y-93106383D02*
X99306451Y-93187195D01*
X99306451Y-93187195D02*
X99387263Y-93321882D01*
X99387263Y-93321882D02*
X99468075Y-93402695D01*
X99468075Y-93402695D02*
X99602762Y-93483507D01*
X99602762Y-93483507D02*
X99683575Y-93510444D01*
X99683575Y-93510444D02*
X99791324Y-93510444D01*
X99791324Y-93510444D02*
X99899074Y-93456569D01*
X99899074Y-93456569D02*
X99952949Y-93402695D01*
X99952949Y-93402695D02*
X100006823Y-93294945D01*
X100006823Y-93294945D02*
X100006823Y-93241070D01*
X100006823Y-93241070D02*
X99818262Y-93052508D01*
X99818262Y-93052508D02*
X99710512Y-93160258D01*
X100303135Y-93052508D02*
X99737449Y-92486823D01*
X99737449Y-92486823D02*
X99952949Y-92271324D01*
X99952949Y-92271324D02*
X100033761Y-92244386D01*
X100033761Y-92244386D02*
X100087636Y-92244386D01*
X100087636Y-92244386D02*
X100168448Y-92271324D01*
X100168448Y-92271324D02*
X100249260Y-92352136D01*
X100249260Y-92352136D02*
X100276197Y-92432948D01*
X100276197Y-92432948D02*
X100276197Y-92486823D01*
X100276197Y-92486823D02*
X100249260Y-92567635D01*
X100249260Y-92567635D02*
X100033761Y-92783134D01*
X100572509Y-91651763D02*
X100303135Y-91921137D01*
X100303135Y-91921137D02*
X100545571Y-92217449D01*
X100545571Y-92217449D02*
X100545571Y-92163574D01*
X100545571Y-92163574D02*
X100572509Y-92082762D01*
X100572509Y-92082762D02*
X100707196Y-91948075D01*
X100707196Y-91948075D02*
X100788008Y-91921137D01*
X100788008Y-91921137D02*
X100841883Y-91921137D01*
X100841883Y-91921137D02*
X100922695Y-91948075D01*
X100922695Y-91948075D02*
X101057382Y-92082762D01*
X101057382Y-92082762D02*
X101084319Y-92163574D01*
X101084319Y-92163574D02*
X101084319Y-92217449D01*
X101084319Y-92217449D02*
X101057382Y-92298261D01*
X101057382Y-92298261D02*
X100922695Y-92432948D01*
X100922695Y-92432948D02*
X100841883Y-92459885D01*
X100841883Y-92459885D02*
X100788008Y-92459885D01*
X124935046Y-78079226D02*
X125689294Y-78456350D01*
X125689294Y-78456350D02*
X125312170Y-77702102D01*
X125958667Y-77594353D02*
X126066417Y-77540478D01*
X126066417Y-77540478D02*
X126120292Y-77540478D01*
X126120292Y-77540478D02*
X126201104Y-77567416D01*
X126201104Y-77567416D02*
X126281916Y-77648228D01*
X126281916Y-77648228D02*
X126308854Y-77729040D01*
X126308854Y-77729040D02*
X126308854Y-77782915D01*
X126308854Y-77782915D02*
X126281916Y-77863727D01*
X126281916Y-77863727D02*
X126066417Y-78079226D01*
X126066417Y-78079226D02*
X125500732Y-77513541D01*
X125500732Y-77513541D02*
X125689293Y-77324979D01*
X125689293Y-77324979D02*
X125770106Y-77298042D01*
X125770106Y-77298042D02*
X125823980Y-77298042D01*
X125823980Y-77298042D02*
X125904793Y-77324979D01*
X125904793Y-77324979D02*
X125958667Y-77378854D01*
X125958667Y-77378854D02*
X125985605Y-77459666D01*
X125985605Y-77459666D02*
X125985605Y-77513541D01*
X125985605Y-77513541D02*
X125958667Y-77594353D01*
X125958667Y-77594353D02*
X125770106Y-77782915D01*
X126066417Y-76947855D02*
X126524353Y-77405791D01*
X126524353Y-77405791D02*
X126605165Y-77432729D01*
X126605165Y-77432729D02*
X126659040Y-77432729D01*
X126659040Y-77432729D02*
X126739852Y-77405791D01*
X126739852Y-77405791D02*
X126847602Y-77298042D01*
X126847602Y-77298042D02*
X126874539Y-77217229D01*
X126874539Y-77217229D02*
X126874539Y-77163355D01*
X126874539Y-77163355D02*
X126847602Y-77082542D01*
X126847602Y-77082542D02*
X126389666Y-76624607D01*
X127170850Y-76920918D02*
X127278600Y-76867043D01*
X127278600Y-76867043D02*
X127413287Y-76732356D01*
X127413287Y-76732356D02*
X127440224Y-76651544D01*
X127440224Y-76651544D02*
X127440224Y-76597669D01*
X127440224Y-76597669D02*
X127413287Y-76516857D01*
X127413287Y-76516857D02*
X127359412Y-76462982D01*
X127359412Y-76462982D02*
X127278600Y-76436045D01*
X127278600Y-76436045D02*
X127224725Y-76436045D01*
X127224725Y-76436045D02*
X127143913Y-76462982D01*
X127143913Y-76462982D02*
X127009226Y-76543794D01*
X127009226Y-76543794D02*
X126928414Y-76570732D01*
X126928414Y-76570732D02*
X126874539Y-76570732D01*
X126874539Y-76570732D02*
X126793727Y-76543794D01*
X126793727Y-76543794D02*
X126739852Y-76489920D01*
X126739852Y-76489920D02*
X126712914Y-76409107D01*
X126712914Y-76409107D02*
X126712914Y-76355233D01*
X126712914Y-76355233D02*
X126739852Y-76274420D01*
X126739852Y-76274420D02*
X126874539Y-76139733D01*
X126874539Y-76139733D02*
X126982288Y-76085859D01*
X98825638Y-115912509D02*
X98744826Y-115939446D01*
X98744826Y-115939446D02*
X98664014Y-116020258D01*
X98664014Y-116020258D02*
X98610139Y-116128008D01*
X98610139Y-116128008D02*
X98610139Y-116235758D01*
X98610139Y-116235758D02*
X98637077Y-116316570D01*
X98637077Y-116316570D02*
X98717889Y-116451257D01*
X98717889Y-116451257D02*
X98798701Y-116532069D01*
X98798701Y-116532069D02*
X98933388Y-116612881D01*
X98933388Y-116612881D02*
X99014200Y-116639819D01*
X99014200Y-116639819D02*
X99121950Y-116639819D01*
X99121950Y-116639819D02*
X99229699Y-116585944D01*
X99229699Y-116585944D02*
X99283574Y-116532069D01*
X99283574Y-116532069D02*
X99337449Y-116424319D01*
X99337449Y-116424319D02*
X99337449Y-116370445D01*
X99337449Y-116370445D02*
X99148887Y-116181883D01*
X99148887Y-116181883D02*
X99041138Y-116289632D01*
X99633760Y-116181883D02*
X99068075Y-115616197D01*
X99068075Y-115616197D02*
X99283574Y-115400698D01*
X99283574Y-115400698D02*
X99364386Y-115373761D01*
X99364386Y-115373761D02*
X99418261Y-115373761D01*
X99418261Y-115373761D02*
X99499073Y-115400698D01*
X99499073Y-115400698D02*
X99579886Y-115481510D01*
X99579886Y-115481510D02*
X99606823Y-115562323D01*
X99606823Y-115562323D02*
X99606823Y-115616197D01*
X99606823Y-115616197D02*
X99579886Y-115697010D01*
X99579886Y-115697010D02*
X99364386Y-115912509D01*
X100495757Y-115319886D02*
X100172508Y-115643135D01*
X100334133Y-115481510D02*
X99768447Y-114915825D01*
X99768447Y-114915825D02*
X99795385Y-115050512D01*
X99795385Y-115050512D02*
X99795385Y-115158261D01*
X99795385Y-115158261D02*
X99768447Y-115239074D01*
X100199446Y-114592576D02*
X100199446Y-114538701D01*
X100199446Y-114538701D02*
X100226383Y-114457889D01*
X100226383Y-114457889D02*
X100361070Y-114323202D01*
X100361070Y-114323202D02*
X100441883Y-114296264D01*
X100441883Y-114296264D02*
X100495757Y-114296264D01*
X100495757Y-114296264D02*
X100576570Y-114323202D01*
X100576570Y-114323202D02*
X100630444Y-114377077D01*
X100630444Y-114377077D02*
X100684319Y-114484826D01*
X100684319Y-114484826D02*
X100684319Y-115131324D01*
X100684319Y-115131324D02*
X101034505Y-114781138D01*
X99468076Y-82650072D02*
X99387263Y-82677009D01*
X99387263Y-82677009D02*
X99306451Y-82757821D01*
X99306451Y-82757821D02*
X99252576Y-82865571D01*
X99252576Y-82865571D02*
X99252576Y-82973320D01*
X99252576Y-82973320D02*
X99279514Y-83054133D01*
X99279514Y-83054133D02*
X99360326Y-83188820D01*
X99360326Y-83188820D02*
X99441138Y-83269632D01*
X99441138Y-83269632D02*
X99575825Y-83350444D01*
X99575825Y-83350444D02*
X99656637Y-83377381D01*
X99656637Y-83377381D02*
X99764387Y-83377381D01*
X99764387Y-83377381D02*
X99872137Y-83323507D01*
X99872137Y-83323507D02*
X99926011Y-83269632D01*
X99926011Y-83269632D02*
X99979886Y-83161882D01*
X99979886Y-83161882D02*
X99979886Y-83108007D01*
X99979886Y-83108007D02*
X99791324Y-82919446D01*
X99791324Y-82919446D02*
X99683575Y-83027195D01*
X100276198Y-82919446D02*
X99710512Y-82353760D01*
X99710512Y-82353760D02*
X100599446Y-82596197D01*
X100599446Y-82596197D02*
X100033761Y-82030511D01*
X100868820Y-82326823D02*
X100303135Y-81761137D01*
X100303135Y-81761137D02*
X100437822Y-81626450D01*
X100437822Y-81626450D02*
X100545571Y-81572576D01*
X100545571Y-81572576D02*
X100653321Y-81572576D01*
X100653321Y-81572576D02*
X100734133Y-81599513D01*
X100734133Y-81599513D02*
X100868820Y-81680325D01*
X100868820Y-81680325D02*
X100949632Y-81761137D01*
X100949632Y-81761137D02*
X101030445Y-81895824D01*
X101030445Y-81895824D02*
X101057382Y-81976637D01*
X101057382Y-81976637D02*
X101057382Y-82084386D01*
X101057382Y-82084386D02*
X101003507Y-82192136D01*
X101003507Y-82192136D02*
X100868820Y-82326823D01*
X125079638Y-92798509D02*
X124998826Y-92825446D01*
X124998826Y-92825446D02*
X124918014Y-92906258D01*
X124918014Y-92906258D02*
X124864139Y-93014008D01*
X124864139Y-93014008D02*
X124864139Y-93121758D01*
X124864139Y-93121758D02*
X124891077Y-93202570D01*
X124891077Y-93202570D02*
X124971889Y-93337257D01*
X124971889Y-93337257D02*
X125052701Y-93418069D01*
X125052701Y-93418069D02*
X125187388Y-93498881D01*
X125187388Y-93498881D02*
X125268200Y-93525819D01*
X125268200Y-93525819D02*
X125375950Y-93525819D01*
X125375950Y-93525819D02*
X125483699Y-93471944D01*
X125483699Y-93471944D02*
X125537574Y-93418069D01*
X125537574Y-93418069D02*
X125591449Y-93310319D01*
X125591449Y-93310319D02*
X125591449Y-93256445D01*
X125591449Y-93256445D02*
X125402887Y-93067883D01*
X125402887Y-93067883D02*
X125295138Y-93175632D01*
X125887760Y-93067883D02*
X125322075Y-92502197D01*
X125322075Y-92502197D02*
X125537574Y-92286698D01*
X125537574Y-92286698D02*
X125618386Y-92259761D01*
X125618386Y-92259761D02*
X125672261Y-92259761D01*
X125672261Y-92259761D02*
X125753073Y-92286698D01*
X125753073Y-92286698D02*
X125833886Y-92367510D01*
X125833886Y-92367510D02*
X125860823Y-92448323D01*
X125860823Y-92448323D02*
X125860823Y-92502197D01*
X125860823Y-92502197D02*
X125833886Y-92583010D01*
X125833886Y-92583010D02*
X125618386Y-92798509D01*
X125914698Y-92017324D02*
X125914698Y-91963449D01*
X125914698Y-91963449D02*
X125941635Y-91882637D01*
X125941635Y-91882637D02*
X126076322Y-91747950D01*
X126076322Y-91747950D02*
X126157134Y-91721013D01*
X126157134Y-91721013D02*
X126211009Y-91721013D01*
X126211009Y-91721013D02*
X126291821Y-91747950D01*
X126291821Y-91747950D02*
X126345696Y-91801825D01*
X126345696Y-91801825D02*
X126399571Y-91909574D01*
X126399571Y-91909574D02*
X126399571Y-92556072D01*
X126399571Y-92556072D02*
X126749757Y-92205886D01*
X126749757Y-91559388D02*
X126668945Y-91586326D01*
X126668945Y-91586326D02*
X126615070Y-91586326D01*
X126615070Y-91586326D02*
X126534258Y-91559388D01*
X126534258Y-91559388D02*
X126507321Y-91532451D01*
X126507321Y-91532451D02*
X126480383Y-91451638D01*
X126480383Y-91451638D02*
X126480383Y-91397764D01*
X126480383Y-91397764D02*
X126507321Y-91316951D01*
X126507321Y-91316951D02*
X126615070Y-91209202D01*
X126615070Y-91209202D02*
X126695883Y-91182264D01*
X126695883Y-91182264D02*
X126749757Y-91182264D01*
X126749757Y-91182264D02*
X126830570Y-91209202D01*
X126830570Y-91209202D02*
X126857507Y-91236139D01*
X126857507Y-91236139D02*
X126884444Y-91316951D01*
X126884444Y-91316951D02*
X126884444Y-91370826D01*
X126884444Y-91370826D02*
X126857507Y-91451638D01*
X126857507Y-91451638D02*
X126749757Y-91559388D01*
X126749757Y-91559388D02*
X126722820Y-91640200D01*
X126722820Y-91640200D02*
X126722820Y-91694075D01*
X126722820Y-91694075D02*
X126749757Y-91774887D01*
X126749757Y-91774887D02*
X126857507Y-91882637D01*
X126857507Y-91882637D02*
X126938319Y-91909574D01*
X126938319Y-91909574D02*
X126992194Y-91909574D01*
X126992194Y-91909574D02*
X127073006Y-91882637D01*
X127073006Y-91882637D02*
X127180756Y-91774887D01*
X127180756Y-91774887D02*
X127207693Y-91694075D01*
X127207693Y-91694075D02*
X127207693Y-91640200D01*
X127207693Y-91640200D02*
X127180756Y-91559388D01*
X127180756Y-91559388D02*
X127073006Y-91451638D01*
X127073006Y-91451638D02*
X126992194Y-91424701D01*
X126992194Y-91424701D02*
X126938319Y-91424701D01*
X126938319Y-91424701D02*
X126857507Y-91451638D01*
X125079638Y-113372509D02*
X124998826Y-113399446D01*
X124998826Y-113399446D02*
X124918014Y-113480258D01*
X124918014Y-113480258D02*
X124864139Y-113588008D01*
X124864139Y-113588008D02*
X124864139Y-113695758D01*
X124864139Y-113695758D02*
X124891077Y-113776570D01*
X124891077Y-113776570D02*
X124971889Y-113911257D01*
X124971889Y-113911257D02*
X125052701Y-113992069D01*
X125052701Y-113992069D02*
X125187388Y-114072881D01*
X125187388Y-114072881D02*
X125268200Y-114099819D01*
X125268200Y-114099819D02*
X125375950Y-114099819D01*
X125375950Y-114099819D02*
X125483699Y-114045944D01*
X125483699Y-114045944D02*
X125537574Y-113992069D01*
X125537574Y-113992069D02*
X125591449Y-113884319D01*
X125591449Y-113884319D02*
X125591449Y-113830445D01*
X125591449Y-113830445D02*
X125402887Y-113641883D01*
X125402887Y-113641883D02*
X125295138Y-113749632D01*
X125887760Y-113641883D02*
X125322075Y-113076197D01*
X125322075Y-113076197D02*
X125537574Y-112860698D01*
X125537574Y-112860698D02*
X125618386Y-112833761D01*
X125618386Y-112833761D02*
X125672261Y-112833761D01*
X125672261Y-112833761D02*
X125753073Y-112860698D01*
X125753073Y-112860698D02*
X125833886Y-112941510D01*
X125833886Y-112941510D02*
X125860823Y-113022323D01*
X125860823Y-113022323D02*
X125860823Y-113076197D01*
X125860823Y-113076197D02*
X125833886Y-113157010D01*
X125833886Y-113157010D02*
X125618386Y-113372509D01*
X125914698Y-112591324D02*
X125914698Y-112537449D01*
X125914698Y-112537449D02*
X125941635Y-112456637D01*
X125941635Y-112456637D02*
X126076322Y-112321950D01*
X126076322Y-112321950D02*
X126157134Y-112295013D01*
X126157134Y-112295013D02*
X126211009Y-112295013D01*
X126211009Y-112295013D02*
X126291821Y-112321950D01*
X126291821Y-112321950D02*
X126345696Y-112375825D01*
X126345696Y-112375825D02*
X126399571Y-112483574D01*
X126399571Y-112483574D02*
X126399571Y-113130072D01*
X126399571Y-113130072D02*
X126749757Y-112779886D01*
X126534258Y-111864014D02*
X126588133Y-111810139D01*
X126588133Y-111810139D02*
X126668945Y-111783202D01*
X126668945Y-111783202D02*
X126722820Y-111783202D01*
X126722820Y-111783202D02*
X126803632Y-111810139D01*
X126803632Y-111810139D02*
X126938319Y-111890951D01*
X126938319Y-111890951D02*
X127073006Y-112025638D01*
X127073006Y-112025638D02*
X127153818Y-112160326D01*
X127153818Y-112160326D02*
X127180756Y-112241138D01*
X127180756Y-112241138D02*
X127180756Y-112295013D01*
X127180756Y-112295013D02*
X127153818Y-112375825D01*
X127153818Y-112375825D02*
X127099944Y-112429700D01*
X127099944Y-112429700D02*
X127019131Y-112456637D01*
X127019131Y-112456637D02*
X126965257Y-112456637D01*
X126965257Y-112456637D02*
X126884444Y-112429700D01*
X126884444Y-112429700D02*
X126749757Y-112348887D01*
X126749757Y-112348887D02*
X126615070Y-112214200D01*
X126615070Y-112214200D02*
X126534258Y-112079513D01*
X126534258Y-112079513D02*
X126507321Y-111998701D01*
X126507321Y-111998701D02*
X126507321Y-111944826D01*
X126507321Y-111944826D02*
X126534258Y-111864014D01*
X116934761Y-128055809D02*
X117049047Y-128093904D01*
X117049047Y-128093904D02*
X117239523Y-128093904D01*
X117239523Y-128093904D02*
X117315714Y-128055809D01*
X117315714Y-128055809D02*
X117353809Y-128017714D01*
X117353809Y-128017714D02*
X117391904Y-127941523D01*
X117391904Y-127941523D02*
X117391904Y-127865333D01*
X117391904Y-127865333D02*
X117353809Y-127789142D01*
X117353809Y-127789142D02*
X117315714Y-127751047D01*
X117315714Y-127751047D02*
X117239523Y-127712952D01*
X117239523Y-127712952D02*
X117087142Y-127674857D01*
X117087142Y-127674857D02*
X117010952Y-127636761D01*
X117010952Y-127636761D02*
X116972857Y-127598666D01*
X116972857Y-127598666D02*
X116934761Y-127522476D01*
X116934761Y-127522476D02*
X116934761Y-127446285D01*
X116934761Y-127446285D02*
X116972857Y-127370095D01*
X116972857Y-127370095D02*
X117010952Y-127332000D01*
X117010952Y-127332000D02*
X117087142Y-127293904D01*
X117087142Y-127293904D02*
X117277619Y-127293904D01*
X117277619Y-127293904D02*
X117391904Y-127332000D01*
X117658571Y-127293904D02*
X117849047Y-128093904D01*
X117849047Y-128093904D02*
X118001428Y-127522476D01*
X118001428Y-127522476D02*
X118153809Y-128093904D01*
X118153809Y-128093904D02*
X118344286Y-127293904D01*
X118649048Y-128093904D02*
X118649048Y-127293904D01*
X118649048Y-127293904D02*
X118839524Y-127293904D01*
X118839524Y-127293904D02*
X118953810Y-127332000D01*
X118953810Y-127332000D02*
X119030000Y-127408190D01*
X119030000Y-127408190D02*
X119068095Y-127484380D01*
X119068095Y-127484380D02*
X119106191Y-127636761D01*
X119106191Y-127636761D02*
X119106191Y-127751047D01*
X119106191Y-127751047D02*
X119068095Y-127903428D01*
X119068095Y-127903428D02*
X119030000Y-127979619D01*
X119030000Y-127979619D02*
X118953810Y-128055809D01*
X118953810Y-128055809D02*
X118839524Y-128093904D01*
X118839524Y-128093904D02*
X118649048Y-128093904D01*
X119449048Y-128093904D02*
X119449048Y-127293904D01*
X119982381Y-127293904D02*
X120134762Y-127293904D01*
X120134762Y-127293904D02*
X120210952Y-127332000D01*
X120210952Y-127332000D02*
X120287143Y-127408190D01*
X120287143Y-127408190D02*
X120325238Y-127560571D01*
X120325238Y-127560571D02*
X120325238Y-127827238D01*
X120325238Y-127827238D02*
X120287143Y-127979619D01*
X120287143Y-127979619D02*
X120210952Y-128055809D01*
X120210952Y-128055809D02*
X120134762Y-128093904D01*
X120134762Y-128093904D02*
X119982381Y-128093904D01*
X119982381Y-128093904D02*
X119906190Y-128055809D01*
X119906190Y-128055809D02*
X119830000Y-127979619D01*
X119830000Y-127979619D02*
X119791904Y-127827238D01*
X119791904Y-127827238D02*
X119791904Y-127560571D01*
X119791904Y-127560571D02*
X119830000Y-127408190D01*
X119830000Y-127408190D02*
X119906190Y-127332000D01*
X119906190Y-127332000D02*
X119982381Y-127293904D01*
X99468076Y-95350072D02*
X99387263Y-95377009D01*
X99387263Y-95377009D02*
X99306451Y-95457821D01*
X99306451Y-95457821D02*
X99252576Y-95565571D01*
X99252576Y-95565571D02*
X99252576Y-95673320D01*
X99252576Y-95673320D02*
X99279514Y-95754133D01*
X99279514Y-95754133D02*
X99360326Y-95888820D01*
X99360326Y-95888820D02*
X99441138Y-95969632D01*
X99441138Y-95969632D02*
X99575825Y-96050444D01*
X99575825Y-96050444D02*
X99656637Y-96077381D01*
X99656637Y-96077381D02*
X99764387Y-96077381D01*
X99764387Y-96077381D02*
X99872137Y-96023507D01*
X99872137Y-96023507D02*
X99926011Y-95969632D01*
X99926011Y-95969632D02*
X99979886Y-95861882D01*
X99979886Y-95861882D02*
X99979886Y-95808007D01*
X99979886Y-95808007D02*
X99791324Y-95619446D01*
X99791324Y-95619446D02*
X99683575Y-95727195D01*
X100276198Y-95619446D02*
X99710512Y-95053760D01*
X99710512Y-95053760D02*
X100599446Y-95296197D01*
X100599446Y-95296197D02*
X100033761Y-94730511D01*
X100868820Y-95026823D02*
X100303135Y-94461137D01*
X100303135Y-94461137D02*
X100437822Y-94326450D01*
X100437822Y-94326450D02*
X100545571Y-94272576D01*
X100545571Y-94272576D02*
X100653321Y-94272576D01*
X100653321Y-94272576D02*
X100734133Y-94299513D01*
X100734133Y-94299513D02*
X100868820Y-94380325D01*
X100868820Y-94380325D02*
X100949632Y-94461137D01*
X100949632Y-94461137D02*
X101030445Y-94595824D01*
X101030445Y-94595824D02*
X101057382Y-94676637D01*
X101057382Y-94676637D02*
X101057382Y-94784386D01*
X101057382Y-94784386D02*
X101003507Y-94892136D01*
X101003507Y-94892136D02*
X100868820Y-95026823D01*
X125068076Y-82650072D02*
X124987263Y-82677009D01*
X124987263Y-82677009D02*
X124906451Y-82757821D01*
X124906451Y-82757821D02*
X124852576Y-82865571D01*
X124852576Y-82865571D02*
X124852576Y-82973320D01*
X124852576Y-82973320D02*
X124879514Y-83054133D01*
X124879514Y-83054133D02*
X124960326Y-83188820D01*
X124960326Y-83188820D02*
X125041138Y-83269632D01*
X125041138Y-83269632D02*
X125175825Y-83350444D01*
X125175825Y-83350444D02*
X125256637Y-83377381D01*
X125256637Y-83377381D02*
X125364387Y-83377381D01*
X125364387Y-83377381D02*
X125472137Y-83323507D01*
X125472137Y-83323507D02*
X125526011Y-83269632D01*
X125526011Y-83269632D02*
X125579886Y-83161882D01*
X125579886Y-83161882D02*
X125579886Y-83108007D01*
X125579886Y-83108007D02*
X125391324Y-82919446D01*
X125391324Y-82919446D02*
X125283575Y-83027195D01*
X125876198Y-82919446D02*
X125310512Y-82353760D01*
X125310512Y-82353760D02*
X126199446Y-82596197D01*
X126199446Y-82596197D02*
X125633761Y-82030511D01*
X126468820Y-82326823D02*
X125903135Y-81761137D01*
X125903135Y-81761137D02*
X126037822Y-81626450D01*
X126037822Y-81626450D02*
X126145571Y-81572576D01*
X126145571Y-81572576D02*
X126253321Y-81572576D01*
X126253321Y-81572576D02*
X126334133Y-81599513D01*
X126334133Y-81599513D02*
X126468820Y-81680325D01*
X126468820Y-81680325D02*
X126549632Y-81761137D01*
X126549632Y-81761137D02*
X126630445Y-81895824D01*
X126630445Y-81895824D02*
X126657382Y-81976637D01*
X126657382Y-81976637D02*
X126657382Y-82084386D01*
X126657382Y-82084386D02*
X126603507Y-82192136D01*
X126603507Y-82192136D02*
X126468820Y-82326823D01*
X125133514Y-96292880D02*
X125402888Y-96023506D01*
X125241263Y-96508380D02*
X124864140Y-95754132D01*
X124864140Y-95754132D02*
X125618387Y-96131256D01*
X125564512Y-95107635D02*
X125483700Y-95134572D01*
X125483700Y-95134572D02*
X125402888Y-95215385D01*
X125402888Y-95215385D02*
X125349013Y-95323134D01*
X125349013Y-95323134D02*
X125349013Y-95430884D01*
X125349013Y-95430884D02*
X125375950Y-95511696D01*
X125375950Y-95511696D02*
X125456762Y-95646383D01*
X125456762Y-95646383D02*
X125537575Y-95727195D01*
X125537575Y-95727195D02*
X125672262Y-95808007D01*
X125672262Y-95808007D02*
X125753074Y-95834945D01*
X125753074Y-95834945D02*
X125860823Y-95834945D01*
X125860823Y-95834945D02*
X125968573Y-95781070D01*
X125968573Y-95781070D02*
X126022448Y-95727195D01*
X126022448Y-95727195D02*
X126076323Y-95619446D01*
X126076323Y-95619446D02*
X126076323Y-95565571D01*
X126076323Y-95565571D02*
X125887761Y-95377009D01*
X125887761Y-95377009D02*
X125780011Y-95484759D01*
X126372634Y-95377009D02*
X125806949Y-94811324D01*
X125806949Y-94811324D02*
X126695883Y-95053760D01*
X126695883Y-95053760D02*
X126130197Y-94488075D01*
X126965257Y-94784386D02*
X126399571Y-94218701D01*
X126399571Y-94218701D02*
X126534258Y-94084014D01*
X126534258Y-94084014D02*
X126642008Y-94030139D01*
X126642008Y-94030139D02*
X126749758Y-94030139D01*
X126749758Y-94030139D02*
X126830570Y-94057077D01*
X126830570Y-94057077D02*
X126965257Y-94137889D01*
X126965257Y-94137889D02*
X127046069Y-94218701D01*
X127046069Y-94218701D02*
X127126881Y-94353388D01*
X127126881Y-94353388D02*
X127153819Y-94434200D01*
X127153819Y-94434200D02*
X127153819Y-94541950D01*
X127153819Y-94541950D02*
X127099944Y-94649699D01*
X127099944Y-94649699D02*
X126965257Y-94784386D01*
X99595013Y-100373134D02*
X99514201Y-100400072D01*
X99514201Y-100400072D02*
X99433388Y-100480884D01*
X99433388Y-100480884D02*
X99379514Y-100588633D01*
X99379514Y-100588633D02*
X99379514Y-100696383D01*
X99379514Y-100696383D02*
X99406451Y-100777195D01*
X99406451Y-100777195D02*
X99487263Y-100911882D01*
X99487263Y-100911882D02*
X99568075Y-100992695D01*
X99568075Y-100992695D02*
X99702762Y-101073507D01*
X99702762Y-101073507D02*
X99783575Y-101100444D01*
X99783575Y-101100444D02*
X99891324Y-101100444D01*
X99891324Y-101100444D02*
X99999074Y-101046569D01*
X99999074Y-101046569D02*
X100052949Y-100992695D01*
X100052949Y-100992695D02*
X100106823Y-100884945D01*
X100106823Y-100884945D02*
X100106823Y-100831070D01*
X100106823Y-100831070D02*
X99918262Y-100642508D01*
X99918262Y-100642508D02*
X99810512Y-100750258D01*
X100403135Y-100642508D02*
X99837449Y-100076823D01*
X99837449Y-100076823D02*
X100052949Y-99861324D01*
X100052949Y-99861324D02*
X100133761Y-99834386D01*
X100133761Y-99834386D02*
X100187636Y-99834386D01*
X100187636Y-99834386D02*
X100268448Y-99861324D01*
X100268448Y-99861324D02*
X100349260Y-99942136D01*
X100349260Y-99942136D02*
X100376197Y-100022948D01*
X100376197Y-100022948D02*
X100376197Y-100076823D01*
X100376197Y-100076823D02*
X100349260Y-100157635D01*
X100349260Y-100157635D02*
X100133761Y-100373134D01*
X100349260Y-99565012D02*
X100726384Y-99187889D01*
X100726384Y-99187889D02*
X101049632Y-99996011D01*
X99495013Y-87703134D02*
X99414201Y-87730072D01*
X99414201Y-87730072D02*
X99333388Y-87810884D01*
X99333388Y-87810884D02*
X99279514Y-87918633D01*
X99279514Y-87918633D02*
X99279514Y-88026383D01*
X99279514Y-88026383D02*
X99306451Y-88107195D01*
X99306451Y-88107195D02*
X99387263Y-88241882D01*
X99387263Y-88241882D02*
X99468075Y-88322695D01*
X99468075Y-88322695D02*
X99602762Y-88403507D01*
X99602762Y-88403507D02*
X99683575Y-88430444D01*
X99683575Y-88430444D02*
X99791324Y-88430444D01*
X99791324Y-88430444D02*
X99899074Y-88376569D01*
X99899074Y-88376569D02*
X99952949Y-88322695D01*
X99952949Y-88322695D02*
X100006823Y-88214945D01*
X100006823Y-88214945D02*
X100006823Y-88161070D01*
X100006823Y-88161070D02*
X99818262Y-87972508D01*
X99818262Y-87972508D02*
X99710512Y-88080258D01*
X100303135Y-87972508D02*
X99737449Y-87406823D01*
X99737449Y-87406823D02*
X99952949Y-87191324D01*
X99952949Y-87191324D02*
X100033761Y-87164386D01*
X100033761Y-87164386D02*
X100087636Y-87164386D01*
X100087636Y-87164386D02*
X100168448Y-87191324D01*
X100168448Y-87191324D02*
X100249260Y-87272136D01*
X100249260Y-87272136D02*
X100276197Y-87352948D01*
X100276197Y-87352948D02*
X100276197Y-87406823D01*
X100276197Y-87406823D02*
X100249260Y-87487635D01*
X100249260Y-87487635D02*
X100033761Y-87703134D01*
X100249260Y-86895012D02*
X100599446Y-86544826D01*
X100599446Y-86544826D02*
X100626384Y-86948887D01*
X100626384Y-86948887D02*
X100707196Y-86868075D01*
X100707196Y-86868075D02*
X100788008Y-86841137D01*
X100788008Y-86841137D02*
X100841883Y-86841137D01*
X100841883Y-86841137D02*
X100922695Y-86868075D01*
X100922695Y-86868075D02*
X101057382Y-87002762D01*
X101057382Y-87002762D02*
X101084319Y-87083574D01*
X101084319Y-87083574D02*
X101084319Y-87137449D01*
X101084319Y-87137449D02*
X101057382Y-87218261D01*
X101057382Y-87218261D02*
X100895758Y-87379885D01*
X100895758Y-87379885D02*
X100814945Y-87406823D01*
X100814945Y-87406823D02*
X100761071Y-87406823D01*
X125079638Y-115912509D02*
X124998826Y-115939446D01*
X124998826Y-115939446D02*
X124918014Y-116020258D01*
X124918014Y-116020258D02*
X124864139Y-116128008D01*
X124864139Y-116128008D02*
X124864139Y-116235758D01*
X124864139Y-116235758D02*
X124891077Y-116316570D01*
X124891077Y-116316570D02*
X124971889Y-116451257D01*
X124971889Y-116451257D02*
X125052701Y-116532069D01*
X125052701Y-116532069D02*
X125187388Y-116612881D01*
X125187388Y-116612881D02*
X125268200Y-116639819D01*
X125268200Y-116639819D02*
X125375950Y-116639819D01*
X125375950Y-116639819D02*
X125483699Y-116585944D01*
X125483699Y-116585944D02*
X125537574Y-116532069D01*
X125537574Y-116532069D02*
X125591449Y-116424319D01*
X125591449Y-116424319D02*
X125591449Y-116370445D01*
X125591449Y-116370445D02*
X125402887Y-116181883D01*
X125402887Y-116181883D02*
X125295138Y-116289632D01*
X125887760Y-116181883D02*
X125322075Y-115616197D01*
X125322075Y-115616197D02*
X125537574Y-115400698D01*
X125537574Y-115400698D02*
X125618386Y-115373761D01*
X125618386Y-115373761D02*
X125672261Y-115373761D01*
X125672261Y-115373761D02*
X125753073Y-115400698D01*
X125753073Y-115400698D02*
X125833886Y-115481510D01*
X125833886Y-115481510D02*
X125860823Y-115562323D01*
X125860823Y-115562323D02*
X125860823Y-115616197D01*
X125860823Y-115616197D02*
X125833886Y-115697010D01*
X125833886Y-115697010D02*
X125618386Y-115912509D01*
X126749757Y-115319886D02*
X126426508Y-115643135D01*
X126588133Y-115481510D02*
X126022447Y-114915825D01*
X126022447Y-114915825D02*
X126049385Y-115050512D01*
X126049385Y-115050512D02*
X126049385Y-115158261D01*
X126049385Y-115158261D02*
X126022447Y-115239074D01*
X127019131Y-115050512D02*
X127126881Y-114942762D01*
X127126881Y-114942762D02*
X127153818Y-114861950D01*
X127153818Y-114861950D02*
X127153818Y-114808075D01*
X127153818Y-114808075D02*
X127126881Y-114673388D01*
X127126881Y-114673388D02*
X127046069Y-114538701D01*
X127046069Y-114538701D02*
X126830570Y-114323202D01*
X126830570Y-114323202D02*
X126749757Y-114296264D01*
X126749757Y-114296264D02*
X126695883Y-114296264D01*
X126695883Y-114296264D02*
X126615070Y-114323202D01*
X126615070Y-114323202D02*
X126507321Y-114430951D01*
X126507321Y-114430951D02*
X126480383Y-114511764D01*
X126480383Y-114511764D02*
X126480383Y-114565638D01*
X126480383Y-114565638D02*
X126507321Y-114646451D01*
X126507321Y-114646451D02*
X126642008Y-114781138D01*
X126642008Y-114781138D02*
X126722820Y-114808075D01*
X126722820Y-114808075D02*
X126776695Y-114808075D01*
X126776695Y-114808075D02*
X126857507Y-114781138D01*
X126857507Y-114781138D02*
X126965257Y-114673388D01*
X126965257Y-114673388D02*
X126992194Y-114592576D01*
X126992194Y-114592576D02*
X126992194Y-114538701D01*
X126992194Y-114538701D02*
X126965257Y-114457889D01*
X125079638Y-100672509D02*
X124998826Y-100699446D01*
X124998826Y-100699446D02*
X124918014Y-100780258D01*
X124918014Y-100780258D02*
X124864139Y-100888008D01*
X124864139Y-100888008D02*
X124864139Y-100995758D01*
X124864139Y-100995758D02*
X124891077Y-101076570D01*
X124891077Y-101076570D02*
X124971889Y-101211257D01*
X124971889Y-101211257D02*
X125052701Y-101292069D01*
X125052701Y-101292069D02*
X125187388Y-101372881D01*
X125187388Y-101372881D02*
X125268200Y-101399819D01*
X125268200Y-101399819D02*
X125375950Y-101399819D01*
X125375950Y-101399819D02*
X125483699Y-101345944D01*
X125483699Y-101345944D02*
X125537574Y-101292069D01*
X125537574Y-101292069D02*
X125591449Y-101184319D01*
X125591449Y-101184319D02*
X125591449Y-101130445D01*
X125591449Y-101130445D02*
X125402887Y-100941883D01*
X125402887Y-100941883D02*
X125295138Y-101049632D01*
X125887760Y-100941883D02*
X125322075Y-100376197D01*
X125322075Y-100376197D02*
X125537574Y-100160698D01*
X125537574Y-100160698D02*
X125618386Y-100133761D01*
X125618386Y-100133761D02*
X125672261Y-100133761D01*
X125672261Y-100133761D02*
X125753073Y-100160698D01*
X125753073Y-100160698D02*
X125833886Y-100241510D01*
X125833886Y-100241510D02*
X125860823Y-100322323D01*
X125860823Y-100322323D02*
X125860823Y-100376197D01*
X125860823Y-100376197D02*
X125833886Y-100457010D01*
X125833886Y-100457010D02*
X125618386Y-100672509D01*
X125914698Y-99891324D02*
X125914698Y-99837449D01*
X125914698Y-99837449D02*
X125941635Y-99756637D01*
X125941635Y-99756637D02*
X126076322Y-99621950D01*
X126076322Y-99621950D02*
X126157134Y-99595013D01*
X126157134Y-99595013D02*
X126211009Y-99595013D01*
X126211009Y-99595013D02*
X126291821Y-99621950D01*
X126291821Y-99621950D02*
X126345696Y-99675825D01*
X126345696Y-99675825D02*
X126399571Y-99783574D01*
X126399571Y-99783574D02*
X126399571Y-100430072D01*
X126399571Y-100430072D02*
X126749757Y-100079886D01*
X126668945Y-99029327D02*
X126561196Y-99137077D01*
X126561196Y-99137077D02*
X126534258Y-99217889D01*
X126534258Y-99217889D02*
X126534258Y-99271764D01*
X126534258Y-99271764D02*
X126561196Y-99406451D01*
X126561196Y-99406451D02*
X126642008Y-99541138D01*
X126642008Y-99541138D02*
X126857507Y-99756637D01*
X126857507Y-99756637D02*
X126938319Y-99783574D01*
X126938319Y-99783574D02*
X126992194Y-99783574D01*
X126992194Y-99783574D02*
X127073006Y-99756637D01*
X127073006Y-99756637D02*
X127180756Y-99648887D01*
X127180756Y-99648887D02*
X127207693Y-99568075D01*
X127207693Y-99568075D02*
X127207693Y-99514200D01*
X127207693Y-99514200D02*
X127180756Y-99433388D01*
X127180756Y-99433388D02*
X127046069Y-99298701D01*
X127046069Y-99298701D02*
X126965257Y-99271764D01*
X126965257Y-99271764D02*
X126911382Y-99271764D01*
X126911382Y-99271764D02*
X126830570Y-99298701D01*
X126830570Y-99298701D02*
X126722820Y-99406451D01*
X126722820Y-99406451D02*
X126695883Y-99487263D01*
X126695883Y-99487263D02*
X126695883Y-99541138D01*
X126695883Y-99541138D02*
X126722820Y-99621950D01*
X125079638Y-110842509D02*
X124998826Y-110869446D01*
X124998826Y-110869446D02*
X124918014Y-110950258D01*
X124918014Y-110950258D02*
X124864139Y-111058008D01*
X124864139Y-111058008D02*
X124864139Y-111165758D01*
X124864139Y-111165758D02*
X124891077Y-111246570D01*
X124891077Y-111246570D02*
X124971889Y-111381257D01*
X124971889Y-111381257D02*
X125052701Y-111462069D01*
X125052701Y-111462069D02*
X125187388Y-111542881D01*
X125187388Y-111542881D02*
X125268200Y-111569819D01*
X125268200Y-111569819D02*
X125375950Y-111569819D01*
X125375950Y-111569819D02*
X125483699Y-111515944D01*
X125483699Y-111515944D02*
X125537574Y-111462069D01*
X125537574Y-111462069D02*
X125591449Y-111354319D01*
X125591449Y-111354319D02*
X125591449Y-111300445D01*
X125591449Y-111300445D02*
X125402887Y-111111883D01*
X125402887Y-111111883D02*
X125295138Y-111219632D01*
X125887760Y-111111883D02*
X125322075Y-110546197D01*
X125322075Y-110546197D02*
X125537574Y-110330698D01*
X125537574Y-110330698D02*
X125618386Y-110303761D01*
X125618386Y-110303761D02*
X125672261Y-110303761D01*
X125672261Y-110303761D02*
X125753073Y-110330698D01*
X125753073Y-110330698D02*
X125833886Y-110411510D01*
X125833886Y-110411510D02*
X125860823Y-110492323D01*
X125860823Y-110492323D02*
X125860823Y-110546197D01*
X125860823Y-110546197D02*
X125833886Y-110627010D01*
X125833886Y-110627010D02*
X125618386Y-110842509D01*
X125914698Y-110061324D02*
X125914698Y-110007449D01*
X125914698Y-110007449D02*
X125941635Y-109926637D01*
X125941635Y-109926637D02*
X126076322Y-109791950D01*
X126076322Y-109791950D02*
X126157134Y-109765013D01*
X126157134Y-109765013D02*
X126211009Y-109765013D01*
X126211009Y-109765013D02*
X126291821Y-109791950D01*
X126291821Y-109791950D02*
X126345696Y-109845825D01*
X126345696Y-109845825D02*
X126399571Y-109953574D01*
X126399571Y-109953574D02*
X126399571Y-110600072D01*
X126399571Y-110600072D02*
X126749757Y-110249886D01*
X127288505Y-109711138D02*
X126965257Y-110034387D01*
X127126881Y-109872762D02*
X126561196Y-109307077D01*
X126561196Y-109307077D02*
X126588133Y-109441764D01*
X126588133Y-109441764D02*
X126588133Y-109549513D01*
X126588133Y-109549513D02*
X126561196Y-109630326D01*
X124871764Y-88042509D02*
X125221950Y-87692322D01*
X125221950Y-87692322D02*
X125248887Y-88096383D01*
X125248887Y-88096383D02*
X125329699Y-88015571D01*
X125329699Y-88015571D02*
X125410512Y-87988634D01*
X125410512Y-87988634D02*
X125464386Y-87988634D01*
X125464386Y-87988634D02*
X125545199Y-88015571D01*
X125545199Y-88015571D02*
X125679886Y-88150258D01*
X125679886Y-88150258D02*
X125706823Y-88231070D01*
X125706823Y-88231070D02*
X125706823Y-88284945D01*
X125706823Y-88284945D02*
X125679886Y-88365757D01*
X125679886Y-88365757D02*
X125518261Y-88527382D01*
X125518261Y-88527382D02*
X125437449Y-88554319D01*
X125437449Y-88554319D02*
X125383574Y-88554319D01*
X125383574Y-87530698D02*
X126137822Y-87907821D01*
X126137822Y-87907821D02*
X125760698Y-87153574D01*
X125895385Y-87018887D02*
X126245571Y-86668701D01*
X126245571Y-86668701D02*
X126272508Y-87072762D01*
X126272508Y-87072762D02*
X126353321Y-86991950D01*
X126353321Y-86991950D02*
X126434133Y-86965013D01*
X126434133Y-86965013D02*
X126488008Y-86965013D01*
X126488008Y-86965013D02*
X126568820Y-86991950D01*
X126568820Y-86991950D02*
X126703507Y-87126637D01*
X126703507Y-87126637D02*
X126730444Y-87207449D01*
X126730444Y-87207449D02*
X126730444Y-87261324D01*
X126730444Y-87261324D02*
X126703507Y-87342136D01*
X126703507Y-87342136D02*
X126541882Y-87503761D01*
X126541882Y-87503761D02*
X126461070Y-87530698D01*
X126461070Y-87530698D02*
X126407195Y-87530698D01*
X125079638Y-118452509D02*
X124998826Y-118479446D01*
X124998826Y-118479446D02*
X124918014Y-118560258D01*
X124918014Y-118560258D02*
X124864139Y-118668008D01*
X124864139Y-118668008D02*
X124864139Y-118775758D01*
X124864139Y-118775758D02*
X124891077Y-118856570D01*
X124891077Y-118856570D02*
X124971889Y-118991257D01*
X124971889Y-118991257D02*
X125052701Y-119072069D01*
X125052701Y-119072069D02*
X125187388Y-119152881D01*
X125187388Y-119152881D02*
X125268200Y-119179819D01*
X125268200Y-119179819D02*
X125375950Y-119179819D01*
X125375950Y-119179819D02*
X125483699Y-119125944D01*
X125483699Y-119125944D02*
X125537574Y-119072069D01*
X125537574Y-119072069D02*
X125591449Y-118964319D01*
X125591449Y-118964319D02*
X125591449Y-118910445D01*
X125591449Y-118910445D02*
X125402887Y-118721883D01*
X125402887Y-118721883D02*
X125295138Y-118829632D01*
X125887760Y-118721883D02*
X125322075Y-118156197D01*
X125322075Y-118156197D02*
X125537574Y-117940698D01*
X125537574Y-117940698D02*
X125618386Y-117913761D01*
X125618386Y-117913761D02*
X125672261Y-117913761D01*
X125672261Y-117913761D02*
X125753073Y-117940698D01*
X125753073Y-117940698D02*
X125833886Y-118021510D01*
X125833886Y-118021510D02*
X125860823Y-118102323D01*
X125860823Y-118102323D02*
X125860823Y-118156197D01*
X125860823Y-118156197D02*
X125833886Y-118237010D01*
X125833886Y-118237010D02*
X125618386Y-118452509D01*
X126749757Y-117859886D02*
X126426508Y-118183135D01*
X126588133Y-118021510D02*
X126022447Y-117455825D01*
X126022447Y-117455825D02*
X126049385Y-117590512D01*
X126049385Y-117590512D02*
X126049385Y-117698261D01*
X126049385Y-117698261D02*
X126022447Y-117779074D01*
X126749757Y-117213388D02*
X126668945Y-117240326D01*
X126668945Y-117240326D02*
X126615070Y-117240326D01*
X126615070Y-117240326D02*
X126534258Y-117213388D01*
X126534258Y-117213388D02*
X126507321Y-117186451D01*
X126507321Y-117186451D02*
X126480383Y-117105638D01*
X126480383Y-117105638D02*
X126480383Y-117051764D01*
X126480383Y-117051764D02*
X126507321Y-116970951D01*
X126507321Y-116970951D02*
X126615070Y-116863202D01*
X126615070Y-116863202D02*
X126695883Y-116836264D01*
X126695883Y-116836264D02*
X126749757Y-116836264D01*
X126749757Y-116836264D02*
X126830570Y-116863202D01*
X126830570Y-116863202D02*
X126857507Y-116890139D01*
X126857507Y-116890139D02*
X126884444Y-116970951D01*
X126884444Y-116970951D02*
X126884444Y-117024826D01*
X126884444Y-117024826D02*
X126857507Y-117105638D01*
X126857507Y-117105638D02*
X126749757Y-117213388D01*
X126749757Y-117213388D02*
X126722820Y-117294200D01*
X126722820Y-117294200D02*
X126722820Y-117348075D01*
X126722820Y-117348075D02*
X126749757Y-117428887D01*
X126749757Y-117428887D02*
X126857507Y-117536637D01*
X126857507Y-117536637D02*
X126938319Y-117563574D01*
X126938319Y-117563574D02*
X126992194Y-117563574D01*
X126992194Y-117563574D02*
X127073006Y-117536637D01*
X127073006Y-117536637D02*
X127180756Y-117428887D01*
X127180756Y-117428887D02*
X127207693Y-117348075D01*
X127207693Y-117348075D02*
X127207693Y-117294200D01*
X127207693Y-117294200D02*
X127180756Y-117213388D01*
X127180756Y-117213388D02*
X127073006Y-117105638D01*
X127073006Y-117105638D02*
X126992194Y-117078701D01*
X126992194Y-117078701D02*
X126938319Y-117078701D01*
X126938319Y-117078701D02*
X126857507Y-117105638D01*
X125820292Y-103495351D02*
X125362356Y-103414539D01*
X125497043Y-103818600D02*
X124931358Y-103252914D01*
X124931358Y-103252914D02*
X125146857Y-103037415D01*
X125146857Y-103037415D02*
X125227669Y-103010478D01*
X125227669Y-103010478D02*
X125281544Y-103010478D01*
X125281544Y-103010478D02*
X125362356Y-103037415D01*
X125362356Y-103037415D02*
X125443168Y-103118227D01*
X125443168Y-103118227D02*
X125470106Y-103199040D01*
X125470106Y-103199040D02*
X125470106Y-103252914D01*
X125470106Y-103252914D02*
X125443168Y-103333727D01*
X125443168Y-103333727D02*
X125227669Y-103549226D01*
X125497043Y-102687229D02*
X125954979Y-103145165D01*
X125954979Y-103145165D02*
X126035791Y-103172102D01*
X126035791Y-103172102D02*
X126089666Y-103172102D01*
X126089666Y-103172102D02*
X126170478Y-103145165D01*
X126170478Y-103145165D02*
X126278228Y-103037415D01*
X126278228Y-103037415D02*
X126305165Y-102956603D01*
X126305165Y-102956603D02*
X126305165Y-102902728D01*
X126305165Y-102902728D02*
X126278228Y-102821916D01*
X126278228Y-102821916D02*
X125820292Y-102363980D01*
X126655351Y-102660292D02*
X126089666Y-102094606D01*
X126089666Y-102094606D02*
X126978600Y-102337043D01*
X126978600Y-102337043D02*
X126412915Y-101771358D01*
%TO.C,J9*%
X79627380Y-134953333D02*
X80341666Y-134953333D01*
X80341666Y-134953333D02*
X80484523Y-135000952D01*
X80484523Y-135000952D02*
X80579761Y-135096190D01*
X80579761Y-135096190D02*
X80627380Y-135239047D01*
X80627380Y-135239047D02*
X80627380Y-135334285D01*
X80627380Y-134429523D02*
X80627380Y-134239047D01*
X80627380Y-134239047D02*
X80579761Y-134143809D01*
X80579761Y-134143809D02*
X80532142Y-134096190D01*
X80532142Y-134096190D02*
X80389285Y-134000952D01*
X80389285Y-134000952D02*
X80198809Y-133953333D01*
X80198809Y-133953333D02*
X79817857Y-133953333D01*
X79817857Y-133953333D02*
X79722619Y-134000952D01*
X79722619Y-134000952D02*
X79675000Y-134048571D01*
X79675000Y-134048571D02*
X79627380Y-134143809D01*
X79627380Y-134143809D02*
X79627380Y-134334285D01*
X79627380Y-134334285D02*
X79675000Y-134429523D01*
X79675000Y-134429523D02*
X79722619Y-134477142D01*
X79722619Y-134477142D02*
X79817857Y-134524761D01*
X79817857Y-134524761D02*
X80055952Y-134524761D01*
X80055952Y-134524761D02*
X80151190Y-134477142D01*
X80151190Y-134477142D02*
X80198809Y-134429523D01*
X80198809Y-134429523D02*
X80246428Y-134334285D01*
X80246428Y-134334285D02*
X80246428Y-134143809D01*
X80246428Y-134143809D02*
X80198809Y-134048571D01*
X80198809Y-134048571D02*
X80151190Y-134000952D01*
X80151190Y-134000952D02*
X80055952Y-133953333D01*
%TO.C,D3*%
X140202380Y-87361094D02*
X139202380Y-87361094D01*
X139202380Y-87361094D02*
X139202380Y-87122999D01*
X139202380Y-87122999D02*
X139250000Y-86980142D01*
X139250000Y-86980142D02*
X139345238Y-86884904D01*
X139345238Y-86884904D02*
X139440476Y-86837285D01*
X139440476Y-86837285D02*
X139630952Y-86789666D01*
X139630952Y-86789666D02*
X139773809Y-86789666D01*
X139773809Y-86789666D02*
X139964285Y-86837285D01*
X139964285Y-86837285D02*
X140059523Y-86884904D01*
X140059523Y-86884904D02*
X140154761Y-86980142D01*
X140154761Y-86980142D02*
X140202380Y-87122999D01*
X140202380Y-87122999D02*
X140202380Y-87361094D01*
X139202380Y-86456332D02*
X139202380Y-85837285D01*
X139202380Y-85837285D02*
X139583333Y-86170618D01*
X139583333Y-86170618D02*
X139583333Y-86027761D01*
X139583333Y-86027761D02*
X139630952Y-85932523D01*
X139630952Y-85932523D02*
X139678571Y-85884904D01*
X139678571Y-85884904D02*
X139773809Y-85837285D01*
X139773809Y-85837285D02*
X140011904Y-85837285D01*
X140011904Y-85837285D02*
X140107142Y-85884904D01*
X140107142Y-85884904D02*
X140154761Y-85932523D01*
X140154761Y-85932523D02*
X140202380Y-86027761D01*
X140202380Y-86027761D02*
X140202380Y-86313475D01*
X140202380Y-86313475D02*
X140154761Y-86408713D01*
X140154761Y-86408713D02*
X140107142Y-86456332D01*
%TO.C,R6*%
X108639380Y-119688666D02*
X108163190Y-120021999D01*
X108639380Y-120260094D02*
X107639380Y-120260094D01*
X107639380Y-120260094D02*
X107639380Y-119879142D01*
X107639380Y-119879142D02*
X107687000Y-119783904D01*
X107687000Y-119783904D02*
X107734619Y-119736285D01*
X107734619Y-119736285D02*
X107829857Y-119688666D01*
X107829857Y-119688666D02*
X107972714Y-119688666D01*
X107972714Y-119688666D02*
X108067952Y-119736285D01*
X108067952Y-119736285D02*
X108115571Y-119783904D01*
X108115571Y-119783904D02*
X108163190Y-119879142D01*
X108163190Y-119879142D02*
X108163190Y-120260094D01*
X107639380Y-118831523D02*
X107639380Y-119021999D01*
X107639380Y-119021999D02*
X107687000Y-119117237D01*
X107687000Y-119117237D02*
X107734619Y-119164856D01*
X107734619Y-119164856D02*
X107877476Y-119260094D01*
X107877476Y-119260094D02*
X108067952Y-119307713D01*
X108067952Y-119307713D02*
X108448904Y-119307713D01*
X108448904Y-119307713D02*
X108544142Y-119260094D01*
X108544142Y-119260094D02*
X108591761Y-119212475D01*
X108591761Y-119212475D02*
X108639380Y-119117237D01*
X108639380Y-119117237D02*
X108639380Y-118926761D01*
X108639380Y-118926761D02*
X108591761Y-118831523D01*
X108591761Y-118831523D02*
X108544142Y-118783904D01*
X108544142Y-118783904D02*
X108448904Y-118736285D01*
X108448904Y-118736285D02*
X108210809Y-118736285D01*
X108210809Y-118736285D02*
X108115571Y-118783904D01*
X108115571Y-118783904D02*
X108067952Y-118831523D01*
X108067952Y-118831523D02*
X108020333Y-118926761D01*
X108020333Y-118926761D02*
X108020333Y-119117237D01*
X108020333Y-119117237D02*
X108067952Y-119212475D01*
X108067952Y-119212475D02*
X108115571Y-119260094D01*
X108115571Y-119260094D02*
X108210809Y-119307713D01*
%TO.C,R2*%
X148957380Y-132754666D02*
X148481190Y-133087999D01*
X148957380Y-133326094D02*
X147957380Y-133326094D01*
X147957380Y-133326094D02*
X147957380Y-132945142D01*
X147957380Y-132945142D02*
X148005000Y-132849904D01*
X148005000Y-132849904D02*
X148052619Y-132802285D01*
X148052619Y-132802285D02*
X148147857Y-132754666D01*
X148147857Y-132754666D02*
X148290714Y-132754666D01*
X148290714Y-132754666D02*
X148385952Y-132802285D01*
X148385952Y-132802285D02*
X148433571Y-132849904D01*
X148433571Y-132849904D02*
X148481190Y-132945142D01*
X148481190Y-132945142D02*
X148481190Y-133326094D01*
X148052619Y-132373713D02*
X148005000Y-132326094D01*
X148005000Y-132326094D02*
X147957380Y-132230856D01*
X147957380Y-132230856D02*
X147957380Y-131992761D01*
X147957380Y-131992761D02*
X148005000Y-131897523D01*
X148005000Y-131897523D02*
X148052619Y-131849904D01*
X148052619Y-131849904D02*
X148147857Y-131802285D01*
X148147857Y-131802285D02*
X148243095Y-131802285D01*
X148243095Y-131802285D02*
X148385952Y-131849904D01*
X148385952Y-131849904D02*
X148957380Y-132421332D01*
X148957380Y-132421332D02*
X148957380Y-131802285D01*
%TO.C,C15*%
X145814142Y-97670857D02*
X145861761Y-97718476D01*
X145861761Y-97718476D02*
X145909380Y-97861333D01*
X145909380Y-97861333D02*
X145909380Y-97956571D01*
X145909380Y-97956571D02*
X145861761Y-98099428D01*
X145861761Y-98099428D02*
X145766523Y-98194666D01*
X145766523Y-98194666D02*
X145671285Y-98242285D01*
X145671285Y-98242285D02*
X145480809Y-98289904D01*
X145480809Y-98289904D02*
X145337952Y-98289904D01*
X145337952Y-98289904D02*
X145147476Y-98242285D01*
X145147476Y-98242285D02*
X145052238Y-98194666D01*
X145052238Y-98194666D02*
X144957000Y-98099428D01*
X144957000Y-98099428D02*
X144909380Y-97956571D01*
X144909380Y-97956571D02*
X144909380Y-97861333D01*
X144909380Y-97861333D02*
X144957000Y-97718476D01*
X144957000Y-97718476D02*
X145004619Y-97670857D01*
X145909380Y-96718476D02*
X145909380Y-97289904D01*
X145909380Y-97004190D02*
X144909380Y-97004190D01*
X144909380Y-97004190D02*
X145052238Y-97099428D01*
X145052238Y-97099428D02*
X145147476Y-97194666D01*
X145147476Y-97194666D02*
X145195095Y-97289904D01*
X144909380Y-95813714D02*
X144909380Y-96289904D01*
X144909380Y-96289904D02*
X145385571Y-96337523D01*
X145385571Y-96337523D02*
X145337952Y-96289904D01*
X145337952Y-96289904D02*
X145290333Y-96194666D01*
X145290333Y-96194666D02*
X145290333Y-95956571D01*
X145290333Y-95956571D02*
X145337952Y-95861333D01*
X145337952Y-95861333D02*
X145385571Y-95813714D01*
X145385571Y-95813714D02*
X145480809Y-95766095D01*
X145480809Y-95766095D02*
X145718904Y-95766095D01*
X145718904Y-95766095D02*
X145814142Y-95813714D01*
X145814142Y-95813714D02*
X145861761Y-95861333D01*
X145861761Y-95861333D02*
X145909380Y-95956571D01*
X145909380Y-95956571D02*
X145909380Y-96194666D01*
X145909380Y-96194666D02*
X145861761Y-96289904D01*
X145861761Y-96289904D02*
X145814142Y-96337523D01*
%TO.C,JP7*%
X129722666Y-92227380D02*
X129722666Y-92941666D01*
X129722666Y-92941666D02*
X129675047Y-93084523D01*
X129675047Y-93084523D02*
X129579809Y-93179761D01*
X129579809Y-93179761D02*
X129436952Y-93227380D01*
X129436952Y-93227380D02*
X129341714Y-93227380D01*
X130198857Y-93227380D02*
X130198857Y-92227380D01*
X130198857Y-92227380D02*
X130579809Y-92227380D01*
X130579809Y-92227380D02*
X130675047Y-92275000D01*
X130675047Y-92275000D02*
X130722666Y-92322619D01*
X130722666Y-92322619D02*
X130770285Y-92417857D01*
X130770285Y-92417857D02*
X130770285Y-92560714D01*
X130770285Y-92560714D02*
X130722666Y-92655952D01*
X130722666Y-92655952D02*
X130675047Y-92703571D01*
X130675047Y-92703571D02*
X130579809Y-92751190D01*
X130579809Y-92751190D02*
X130198857Y-92751190D01*
X131103619Y-92227380D02*
X131770285Y-92227380D01*
X131770285Y-92227380D02*
X131341714Y-93227380D01*
%TO.C,C11*%
X110733142Y-84444142D02*
X110685523Y-84491761D01*
X110685523Y-84491761D02*
X110542666Y-84539380D01*
X110542666Y-84539380D02*
X110447428Y-84539380D01*
X110447428Y-84539380D02*
X110304571Y-84491761D01*
X110304571Y-84491761D02*
X110209333Y-84396523D01*
X110209333Y-84396523D02*
X110161714Y-84301285D01*
X110161714Y-84301285D02*
X110114095Y-84110809D01*
X110114095Y-84110809D02*
X110114095Y-83967952D01*
X110114095Y-83967952D02*
X110161714Y-83777476D01*
X110161714Y-83777476D02*
X110209333Y-83682238D01*
X110209333Y-83682238D02*
X110304571Y-83587000D01*
X110304571Y-83587000D02*
X110447428Y-83539380D01*
X110447428Y-83539380D02*
X110542666Y-83539380D01*
X110542666Y-83539380D02*
X110685523Y-83587000D01*
X110685523Y-83587000D02*
X110733142Y-83634619D01*
X111685523Y-84539380D02*
X111114095Y-84539380D01*
X111399809Y-84539380D02*
X111399809Y-83539380D01*
X111399809Y-83539380D02*
X111304571Y-83682238D01*
X111304571Y-83682238D02*
X111209333Y-83777476D01*
X111209333Y-83777476D02*
X111114095Y-83825095D01*
X112637904Y-84539380D02*
X112066476Y-84539380D01*
X112352190Y-84539380D02*
X112352190Y-83539380D01*
X112352190Y-83539380D02*
X112256952Y-83682238D01*
X112256952Y-83682238D02*
X112161714Y-83777476D01*
X112161714Y-83777476D02*
X112066476Y-83825095D01*
%TO.C,D1*%
X138707905Y-120763380D02*
X138707905Y-119763380D01*
X138707905Y-119763380D02*
X138946000Y-119763380D01*
X138946000Y-119763380D02*
X139088857Y-119811000D01*
X139088857Y-119811000D02*
X139184095Y-119906238D01*
X139184095Y-119906238D02*
X139231714Y-120001476D01*
X139231714Y-120001476D02*
X139279333Y-120191952D01*
X139279333Y-120191952D02*
X139279333Y-120334809D01*
X139279333Y-120334809D02*
X139231714Y-120525285D01*
X139231714Y-120525285D02*
X139184095Y-120620523D01*
X139184095Y-120620523D02*
X139088857Y-120715761D01*
X139088857Y-120715761D02*
X138946000Y-120763380D01*
X138946000Y-120763380D02*
X138707905Y-120763380D01*
X140231714Y-120763380D02*
X139660286Y-120763380D01*
X139946000Y-120763380D02*
X139946000Y-119763380D01*
X139946000Y-119763380D02*
X139850762Y-119906238D01*
X139850762Y-119906238D02*
X139755524Y-120001476D01*
X139755524Y-120001476D02*
X139660286Y-120049095D01*
%TO.C,J3*%
X87862666Y-127637380D02*
X87862666Y-128351666D01*
X87862666Y-128351666D02*
X87815047Y-128494523D01*
X87815047Y-128494523D02*
X87719809Y-128589761D01*
X87719809Y-128589761D02*
X87576952Y-128637380D01*
X87576952Y-128637380D02*
X87481714Y-128637380D01*
X88243619Y-127637380D02*
X88862666Y-127637380D01*
X88862666Y-127637380D02*
X88529333Y-128018333D01*
X88529333Y-128018333D02*
X88672190Y-128018333D01*
X88672190Y-128018333D02*
X88767428Y-128065952D01*
X88767428Y-128065952D02*
X88815047Y-128113571D01*
X88815047Y-128113571D02*
X88862666Y-128208809D01*
X88862666Y-128208809D02*
X88862666Y-128446904D01*
X88862666Y-128446904D02*
X88815047Y-128542142D01*
X88815047Y-128542142D02*
X88767428Y-128589761D01*
X88767428Y-128589761D02*
X88672190Y-128637380D01*
X88672190Y-128637380D02*
X88386476Y-128637380D01*
X88386476Y-128637380D02*
X88291238Y-128589761D01*
X88291238Y-128589761D02*
X88243619Y-128542142D01*
%TO.C,U1*%
X112457095Y-92331380D02*
X112457095Y-93140904D01*
X112457095Y-93140904D02*
X112504714Y-93236142D01*
X112504714Y-93236142D02*
X112552333Y-93283761D01*
X112552333Y-93283761D02*
X112647571Y-93331380D01*
X112647571Y-93331380D02*
X112838047Y-93331380D01*
X112838047Y-93331380D02*
X112933285Y-93283761D01*
X112933285Y-93283761D02*
X112980904Y-93236142D01*
X112980904Y-93236142D02*
X113028523Y-93140904D01*
X113028523Y-93140904D02*
X113028523Y-92331380D01*
X114028523Y-93331380D02*
X113457095Y-93331380D01*
X113742809Y-93331380D02*
X113742809Y-92331380D01*
X113742809Y-92331380D02*
X113647571Y-92474238D01*
X113647571Y-92474238D02*
X113552333Y-92569476D01*
X113552333Y-92569476D02*
X113457095Y-92617095D01*
%TO.C,C12*%
X139210142Y-111640857D02*
X139257761Y-111688476D01*
X139257761Y-111688476D02*
X139305380Y-111831333D01*
X139305380Y-111831333D02*
X139305380Y-111926571D01*
X139305380Y-111926571D02*
X139257761Y-112069428D01*
X139257761Y-112069428D02*
X139162523Y-112164666D01*
X139162523Y-112164666D02*
X139067285Y-112212285D01*
X139067285Y-112212285D02*
X138876809Y-112259904D01*
X138876809Y-112259904D02*
X138733952Y-112259904D01*
X138733952Y-112259904D02*
X138543476Y-112212285D01*
X138543476Y-112212285D02*
X138448238Y-112164666D01*
X138448238Y-112164666D02*
X138353000Y-112069428D01*
X138353000Y-112069428D02*
X138305380Y-111926571D01*
X138305380Y-111926571D02*
X138305380Y-111831333D01*
X138305380Y-111831333D02*
X138353000Y-111688476D01*
X138353000Y-111688476D02*
X138400619Y-111640857D01*
X139305380Y-110688476D02*
X139305380Y-111259904D01*
X139305380Y-110974190D02*
X138305380Y-110974190D01*
X138305380Y-110974190D02*
X138448238Y-111069428D01*
X138448238Y-111069428D02*
X138543476Y-111164666D01*
X138543476Y-111164666D02*
X138591095Y-111259904D01*
X138400619Y-110307523D02*
X138353000Y-110259904D01*
X138353000Y-110259904D02*
X138305380Y-110164666D01*
X138305380Y-110164666D02*
X138305380Y-109926571D01*
X138305380Y-109926571D02*
X138353000Y-109831333D01*
X138353000Y-109831333D02*
X138400619Y-109783714D01*
X138400619Y-109783714D02*
X138495857Y-109736095D01*
X138495857Y-109736095D02*
X138591095Y-109736095D01*
X138591095Y-109736095D02*
X138733952Y-109783714D01*
X138733952Y-109783714D02*
X139305380Y-110355142D01*
X139305380Y-110355142D02*
X139305380Y-109736095D01*
%TO.C,C5*%
X116419333Y-84444142D02*
X116371714Y-84491761D01*
X116371714Y-84491761D02*
X116228857Y-84539380D01*
X116228857Y-84539380D02*
X116133619Y-84539380D01*
X116133619Y-84539380D02*
X115990762Y-84491761D01*
X115990762Y-84491761D02*
X115895524Y-84396523D01*
X115895524Y-84396523D02*
X115847905Y-84301285D01*
X115847905Y-84301285D02*
X115800286Y-84110809D01*
X115800286Y-84110809D02*
X115800286Y-83967952D01*
X115800286Y-83967952D02*
X115847905Y-83777476D01*
X115847905Y-83777476D02*
X115895524Y-83682238D01*
X115895524Y-83682238D02*
X115990762Y-83587000D01*
X115990762Y-83587000D02*
X116133619Y-83539380D01*
X116133619Y-83539380D02*
X116228857Y-83539380D01*
X116228857Y-83539380D02*
X116371714Y-83587000D01*
X116371714Y-83587000D02*
X116419333Y-83634619D01*
X117324095Y-83539380D02*
X116847905Y-83539380D01*
X116847905Y-83539380D02*
X116800286Y-84015571D01*
X116800286Y-84015571D02*
X116847905Y-83967952D01*
X116847905Y-83967952D02*
X116943143Y-83920333D01*
X116943143Y-83920333D02*
X117181238Y-83920333D01*
X117181238Y-83920333D02*
X117276476Y-83967952D01*
X117276476Y-83967952D02*
X117324095Y-84015571D01*
X117324095Y-84015571D02*
X117371714Y-84110809D01*
X117371714Y-84110809D02*
X117371714Y-84348904D01*
X117371714Y-84348904D02*
X117324095Y-84444142D01*
X117324095Y-84444142D02*
X117276476Y-84491761D01*
X117276476Y-84491761D02*
X117181238Y-84539380D01*
X117181238Y-84539380D02*
X116943143Y-84539380D01*
X116943143Y-84539380D02*
X116847905Y-84491761D01*
X116847905Y-84491761D02*
X116800286Y-84444142D01*
%TO.C,R3*%
X107809380Y-104306666D02*
X107333190Y-104639999D01*
X107809380Y-104878094D02*
X106809380Y-104878094D01*
X106809380Y-104878094D02*
X106809380Y-104497142D01*
X106809380Y-104497142D02*
X106857000Y-104401904D01*
X106857000Y-104401904D02*
X106904619Y-104354285D01*
X106904619Y-104354285D02*
X106999857Y-104306666D01*
X106999857Y-104306666D02*
X107142714Y-104306666D01*
X107142714Y-104306666D02*
X107237952Y-104354285D01*
X107237952Y-104354285D02*
X107285571Y-104401904D01*
X107285571Y-104401904D02*
X107333190Y-104497142D01*
X107333190Y-104497142D02*
X107333190Y-104878094D01*
X106809380Y-103973332D02*
X106809380Y-103354285D01*
X106809380Y-103354285D02*
X107190333Y-103687618D01*
X107190333Y-103687618D02*
X107190333Y-103544761D01*
X107190333Y-103544761D02*
X107237952Y-103449523D01*
X107237952Y-103449523D02*
X107285571Y-103401904D01*
X107285571Y-103401904D02*
X107380809Y-103354285D01*
X107380809Y-103354285D02*
X107618904Y-103354285D01*
X107618904Y-103354285D02*
X107714142Y-103401904D01*
X107714142Y-103401904D02*
X107761761Y-103449523D01*
X107761761Y-103449523D02*
X107809380Y-103544761D01*
X107809380Y-103544761D02*
X107809380Y-103830475D01*
X107809380Y-103830475D02*
X107761761Y-103925713D01*
X107761761Y-103925713D02*
X107714142Y-103973332D01*
%TO.C,C7*%
X106190142Y-97448666D02*
X106237761Y-97496285D01*
X106237761Y-97496285D02*
X106285380Y-97639142D01*
X106285380Y-97639142D02*
X106285380Y-97734380D01*
X106285380Y-97734380D02*
X106237761Y-97877237D01*
X106237761Y-97877237D02*
X106142523Y-97972475D01*
X106142523Y-97972475D02*
X106047285Y-98020094D01*
X106047285Y-98020094D02*
X105856809Y-98067713D01*
X105856809Y-98067713D02*
X105713952Y-98067713D01*
X105713952Y-98067713D02*
X105523476Y-98020094D01*
X105523476Y-98020094D02*
X105428238Y-97972475D01*
X105428238Y-97972475D02*
X105333000Y-97877237D01*
X105333000Y-97877237D02*
X105285380Y-97734380D01*
X105285380Y-97734380D02*
X105285380Y-97639142D01*
X105285380Y-97639142D02*
X105333000Y-97496285D01*
X105333000Y-97496285D02*
X105380619Y-97448666D01*
X105285380Y-97115332D02*
X105285380Y-96448666D01*
X105285380Y-96448666D02*
X106285380Y-96877237D01*
%TO.C,C10*%
X135498142Y-135008857D02*
X135545761Y-135056476D01*
X135545761Y-135056476D02*
X135593380Y-135199333D01*
X135593380Y-135199333D02*
X135593380Y-135294571D01*
X135593380Y-135294571D02*
X135545761Y-135437428D01*
X135545761Y-135437428D02*
X135450523Y-135532666D01*
X135450523Y-135532666D02*
X135355285Y-135580285D01*
X135355285Y-135580285D02*
X135164809Y-135627904D01*
X135164809Y-135627904D02*
X135021952Y-135627904D01*
X135021952Y-135627904D02*
X134831476Y-135580285D01*
X134831476Y-135580285D02*
X134736238Y-135532666D01*
X134736238Y-135532666D02*
X134641000Y-135437428D01*
X134641000Y-135437428D02*
X134593380Y-135294571D01*
X134593380Y-135294571D02*
X134593380Y-135199333D01*
X134593380Y-135199333D02*
X134641000Y-135056476D01*
X134641000Y-135056476D02*
X134688619Y-135008857D01*
X135593380Y-134056476D02*
X135593380Y-134627904D01*
X135593380Y-134342190D02*
X134593380Y-134342190D01*
X134593380Y-134342190D02*
X134736238Y-134437428D01*
X134736238Y-134437428D02*
X134831476Y-134532666D01*
X134831476Y-134532666D02*
X134879095Y-134627904D01*
X134593380Y-133437428D02*
X134593380Y-133342190D01*
X134593380Y-133342190D02*
X134641000Y-133246952D01*
X134641000Y-133246952D02*
X134688619Y-133199333D01*
X134688619Y-133199333D02*
X134783857Y-133151714D01*
X134783857Y-133151714D02*
X134974333Y-133104095D01*
X134974333Y-133104095D02*
X135212428Y-133104095D01*
X135212428Y-133104095D02*
X135402904Y-133151714D01*
X135402904Y-133151714D02*
X135498142Y-133199333D01*
X135498142Y-133199333D02*
X135545761Y-133246952D01*
X135545761Y-133246952D02*
X135593380Y-133342190D01*
X135593380Y-133342190D02*
X135593380Y-133437428D01*
X135593380Y-133437428D02*
X135545761Y-133532666D01*
X135545761Y-133532666D02*
X135498142Y-133580285D01*
X135498142Y-133580285D02*
X135402904Y-133627904D01*
X135402904Y-133627904D02*
X135212428Y-133675523D01*
X135212428Y-133675523D02*
X134974333Y-133675523D01*
X134974333Y-133675523D02*
X134783857Y-133627904D01*
X134783857Y-133627904D02*
X134688619Y-133580285D01*
X134688619Y-133580285D02*
X134641000Y-133532666D01*
X134641000Y-133532666D02*
X134593380Y-133437428D01*
%TO.C,J2*%
X87862666Y-103947380D02*
X87862666Y-104661666D01*
X87862666Y-104661666D02*
X87815047Y-104804523D01*
X87815047Y-104804523D02*
X87719809Y-104899761D01*
X87719809Y-104899761D02*
X87576952Y-104947380D01*
X87576952Y-104947380D02*
X87481714Y-104947380D01*
X88291238Y-104042619D02*
X88338857Y-103995000D01*
X88338857Y-103995000D02*
X88434095Y-103947380D01*
X88434095Y-103947380D02*
X88672190Y-103947380D01*
X88672190Y-103947380D02*
X88767428Y-103995000D01*
X88767428Y-103995000D02*
X88815047Y-104042619D01*
X88815047Y-104042619D02*
X88862666Y-104137857D01*
X88862666Y-104137857D02*
X88862666Y-104233095D01*
X88862666Y-104233095D02*
X88815047Y-104375952D01*
X88815047Y-104375952D02*
X88243619Y-104947380D01*
X88243619Y-104947380D02*
X88862666Y-104947380D01*
%TO.C,C16*%
X128796142Y-97656857D02*
X128843761Y-97704476D01*
X128843761Y-97704476D02*
X128891380Y-97847333D01*
X128891380Y-97847333D02*
X128891380Y-97942571D01*
X128891380Y-97942571D02*
X128843761Y-98085428D01*
X128843761Y-98085428D02*
X128748523Y-98180666D01*
X128748523Y-98180666D02*
X128653285Y-98228285D01*
X128653285Y-98228285D02*
X128462809Y-98275904D01*
X128462809Y-98275904D02*
X128319952Y-98275904D01*
X128319952Y-98275904D02*
X128129476Y-98228285D01*
X128129476Y-98228285D02*
X128034238Y-98180666D01*
X128034238Y-98180666D02*
X127939000Y-98085428D01*
X127939000Y-98085428D02*
X127891380Y-97942571D01*
X127891380Y-97942571D02*
X127891380Y-97847333D01*
X127891380Y-97847333D02*
X127939000Y-97704476D01*
X127939000Y-97704476D02*
X127986619Y-97656857D01*
X128891380Y-96704476D02*
X128891380Y-97275904D01*
X128891380Y-96990190D02*
X127891380Y-96990190D01*
X127891380Y-96990190D02*
X128034238Y-97085428D01*
X128034238Y-97085428D02*
X128129476Y-97180666D01*
X128129476Y-97180666D02*
X128177095Y-97275904D01*
X127891380Y-95847333D02*
X127891380Y-96037809D01*
X127891380Y-96037809D02*
X127939000Y-96133047D01*
X127939000Y-96133047D02*
X127986619Y-96180666D01*
X127986619Y-96180666D02*
X128129476Y-96275904D01*
X128129476Y-96275904D02*
X128319952Y-96323523D01*
X128319952Y-96323523D02*
X128700904Y-96323523D01*
X128700904Y-96323523D02*
X128796142Y-96275904D01*
X128796142Y-96275904D02*
X128843761Y-96228285D01*
X128843761Y-96228285D02*
X128891380Y-96133047D01*
X128891380Y-96133047D02*
X128891380Y-95942571D01*
X128891380Y-95942571D02*
X128843761Y-95847333D01*
X128843761Y-95847333D02*
X128796142Y-95799714D01*
X128796142Y-95799714D02*
X128700904Y-95752095D01*
X128700904Y-95752095D02*
X128462809Y-95752095D01*
X128462809Y-95752095D02*
X128367571Y-95799714D01*
X128367571Y-95799714D02*
X128319952Y-95847333D01*
X128319952Y-95847333D02*
X128272333Y-95942571D01*
X128272333Y-95942571D02*
X128272333Y-96133047D01*
X128272333Y-96133047D02*
X128319952Y-96228285D01*
X128319952Y-96228285D02*
X128367571Y-96275904D01*
X128367571Y-96275904D02*
X128462809Y-96323523D01*
%TO.C,R1*%
X148957380Y-137580666D02*
X148481190Y-137913999D01*
X148957380Y-138152094D02*
X147957380Y-138152094D01*
X147957380Y-138152094D02*
X147957380Y-137771142D01*
X147957380Y-137771142D02*
X148005000Y-137675904D01*
X148005000Y-137675904D02*
X148052619Y-137628285D01*
X148052619Y-137628285D02*
X148147857Y-137580666D01*
X148147857Y-137580666D02*
X148290714Y-137580666D01*
X148290714Y-137580666D02*
X148385952Y-137628285D01*
X148385952Y-137628285D02*
X148433571Y-137675904D01*
X148433571Y-137675904D02*
X148481190Y-137771142D01*
X148481190Y-137771142D02*
X148481190Y-138152094D01*
X148957380Y-136628285D02*
X148957380Y-137199713D01*
X148957380Y-136913999D02*
X147957380Y-136913999D01*
X147957380Y-136913999D02*
X148100238Y-137009237D01*
X148100238Y-137009237D02*
X148195476Y-137104475D01*
X148195476Y-137104475D02*
X148243095Y-137199713D01*
%TO.C,TP4*%
X132850095Y-74805380D02*
X133421523Y-74805380D01*
X133135809Y-75805380D02*
X133135809Y-74805380D01*
X133754857Y-75805380D02*
X133754857Y-74805380D01*
X133754857Y-74805380D02*
X134135809Y-74805380D01*
X134135809Y-74805380D02*
X134231047Y-74853000D01*
X134231047Y-74853000D02*
X134278666Y-74900619D01*
X134278666Y-74900619D02*
X134326285Y-74995857D01*
X134326285Y-74995857D02*
X134326285Y-75138714D01*
X134326285Y-75138714D02*
X134278666Y-75233952D01*
X134278666Y-75233952D02*
X134231047Y-75281571D01*
X134231047Y-75281571D02*
X134135809Y-75329190D01*
X134135809Y-75329190D02*
X133754857Y-75329190D01*
X135183428Y-75138714D02*
X135183428Y-75805380D01*
X134945333Y-74757761D02*
X134707238Y-75472047D01*
X134707238Y-75472047D02*
X135326285Y-75472047D01*
%TO.C,TP_UART1*%
X83137809Y-80901380D02*
X83709237Y-80901380D01*
X83423523Y-81901380D02*
X83423523Y-80901380D01*
X84042571Y-81901380D02*
X84042571Y-80901380D01*
X84042571Y-80901380D02*
X84423523Y-80901380D01*
X84423523Y-80901380D02*
X84518761Y-80949000D01*
X84518761Y-80949000D02*
X84566380Y-80996619D01*
X84566380Y-80996619D02*
X84613999Y-81091857D01*
X84613999Y-81091857D02*
X84613999Y-81234714D01*
X84613999Y-81234714D02*
X84566380Y-81329952D01*
X84566380Y-81329952D02*
X84518761Y-81377571D01*
X84518761Y-81377571D02*
X84423523Y-81425190D01*
X84423523Y-81425190D02*
X84042571Y-81425190D01*
X84804476Y-81996619D02*
X85566380Y-81996619D01*
X85804476Y-80901380D02*
X85804476Y-81710904D01*
X85804476Y-81710904D02*
X85852095Y-81806142D01*
X85852095Y-81806142D02*
X85899714Y-81853761D01*
X85899714Y-81853761D02*
X85994952Y-81901380D01*
X85994952Y-81901380D02*
X86185428Y-81901380D01*
X86185428Y-81901380D02*
X86280666Y-81853761D01*
X86280666Y-81853761D02*
X86328285Y-81806142D01*
X86328285Y-81806142D02*
X86375904Y-81710904D01*
X86375904Y-81710904D02*
X86375904Y-80901380D01*
X86804476Y-81615666D02*
X87280666Y-81615666D01*
X86709238Y-81901380D02*
X87042571Y-80901380D01*
X87042571Y-80901380D02*
X87375904Y-81901380D01*
X88280666Y-81901380D02*
X87947333Y-81425190D01*
X87709238Y-81901380D02*
X87709238Y-80901380D01*
X87709238Y-80901380D02*
X88090190Y-80901380D01*
X88090190Y-80901380D02*
X88185428Y-80949000D01*
X88185428Y-80949000D02*
X88233047Y-80996619D01*
X88233047Y-80996619D02*
X88280666Y-81091857D01*
X88280666Y-81091857D02*
X88280666Y-81234714D01*
X88280666Y-81234714D02*
X88233047Y-81329952D01*
X88233047Y-81329952D02*
X88185428Y-81377571D01*
X88185428Y-81377571D02*
X88090190Y-81425190D01*
X88090190Y-81425190D02*
X87709238Y-81425190D01*
X88566381Y-80901380D02*
X89137809Y-80901380D01*
X88852095Y-81901380D02*
X88852095Y-80901380D01*
X89994952Y-81901380D02*
X89423524Y-81901380D01*
X89709238Y-81901380D02*
X89709238Y-80901380D01*
X89709238Y-80901380D02*
X89614000Y-81044238D01*
X89614000Y-81044238D02*
X89518762Y-81139476D01*
X89518762Y-81139476D02*
X89423524Y-81187095D01*
D13*
%TO.C,IC1*%
X140746237Y-139404573D02*
X140746237Y-138134573D01*
X142076714Y-139283621D02*
X142016238Y-139344097D01*
X142016238Y-139344097D02*
X141834809Y-139404573D01*
X141834809Y-139404573D02*
X141713857Y-139404573D01*
X141713857Y-139404573D02*
X141532428Y-139344097D01*
X141532428Y-139344097D02*
X141411476Y-139223145D01*
X141411476Y-139223145D02*
X141350999Y-139102192D01*
X141350999Y-139102192D02*
X141290523Y-138860288D01*
X141290523Y-138860288D02*
X141290523Y-138678859D01*
X141290523Y-138678859D02*
X141350999Y-138436954D01*
X141350999Y-138436954D02*
X141411476Y-138316002D01*
X141411476Y-138316002D02*
X141532428Y-138195050D01*
X141532428Y-138195050D02*
X141713857Y-138134573D01*
X141713857Y-138134573D02*
X141834809Y-138134573D01*
X141834809Y-138134573D02*
X142016238Y-138195050D01*
X142016238Y-138195050D02*
X142076714Y-138255526D01*
X143286238Y-139404573D02*
X142560523Y-139404573D01*
X142923380Y-139404573D02*
X142923380Y-138134573D01*
X142923380Y-138134573D02*
X142802428Y-138316002D01*
X142802428Y-138316002D02*
X142681476Y-138436954D01*
X142681476Y-138436954D02*
X142560523Y-138497430D01*
D14*
%TO.C,U5*%
X132806000Y-93604000D02*
X138816000Y-93604000D01*
X135056000Y-100424000D02*
X138816000Y-100424000D01*
X138816000Y-100424000D02*
X138816000Y-99164000D01*
X138816000Y-93604000D02*
X138816000Y-94864000D01*
%TO.C,J5*%
X77644000Y-123130000D02*
X77644000Y-110510000D01*
X75384000Y-123120000D02*
X75384000Y-122370000D01*
X72434000Y-122370000D02*
X72434000Y-116820000D01*
X75384000Y-110520000D02*
X75384000Y-111270000D01*
X71674000Y-110510000D02*
X71674000Y-123130000D01*
X77644000Y-110510000D02*
X71674000Y-110510000D01*
X71674000Y-123130000D02*
X77644000Y-123130000D01*
X76884000Y-121320000D02*
X76884000Y-123120000D01*
X76884000Y-119820000D02*
X77634000Y-119820000D01*
X77934000Y-111470000D02*
X77934000Y-110220000D01*
X75384000Y-122370000D02*
X72434000Y-122370000D01*
X76884000Y-112320000D02*
X77634000Y-112320000D01*
X77934000Y-110220000D02*
X76684000Y-110220000D01*
X77634000Y-110520000D02*
X76884000Y-110520000D01*
X77634000Y-123120000D02*
X77634000Y-121320000D01*
X76884000Y-110520000D02*
X76884000Y-112320000D01*
X77634000Y-121320000D02*
X76884000Y-121320000D01*
X75384000Y-111270000D02*
X72434000Y-111270000D01*
X77634000Y-119820000D02*
X77634000Y-113820000D01*
X77634000Y-112320000D02*
X77634000Y-110520000D01*
X76884000Y-123120000D02*
X77634000Y-123120000D01*
X72434000Y-111270000D02*
X72434000Y-116820000D01*
X76884000Y-113820000D02*
X76884000Y-119820000D01*
X77634000Y-113820000D02*
X76884000Y-113820000D01*
%TO.C,J4*%
X77644000Y-99588000D02*
X77644000Y-86968000D01*
X75384000Y-99578000D02*
X75384000Y-98828000D01*
X72434000Y-98828000D02*
X72434000Y-93278000D01*
X75384000Y-86978000D02*
X75384000Y-87728000D01*
X71674000Y-86968000D02*
X71674000Y-99588000D01*
X77644000Y-86968000D02*
X71674000Y-86968000D01*
X71674000Y-99588000D02*
X77644000Y-99588000D01*
X76884000Y-97778000D02*
X76884000Y-99578000D01*
X76884000Y-96278000D02*
X77634000Y-96278000D01*
X77934000Y-87928000D02*
X77934000Y-86678000D01*
X75384000Y-98828000D02*
X72434000Y-98828000D01*
X76884000Y-88778000D02*
X77634000Y-88778000D01*
X77934000Y-86678000D02*
X76684000Y-86678000D01*
X77634000Y-86978000D02*
X76884000Y-86978000D01*
X77634000Y-99578000D02*
X77634000Y-97778000D01*
X76884000Y-86978000D02*
X76884000Y-88778000D01*
X77634000Y-97778000D02*
X76884000Y-97778000D01*
X75384000Y-87728000D02*
X72434000Y-87728000D01*
X77634000Y-96278000D02*
X77634000Y-90278000D01*
X77634000Y-88778000D02*
X77634000Y-86978000D01*
X76884000Y-99578000D02*
X77634000Y-99578000D01*
X72434000Y-87728000D02*
X72434000Y-93278000D01*
X76884000Y-90278000D02*
X76884000Y-96278000D01*
X77634000Y-90278000D02*
X76884000Y-90278000D01*
%TO.C,D2*%
X142692000Y-84754000D02*
X140772000Y-84754000D01*
X140772000Y-84754000D02*
X140772000Y-87614000D01*
X142692000Y-87614000D02*
X142692000Y-84754000D01*
%TO.C,J6*%
X149051669Y-119635000D02*
X149051669Y-88665000D01*
X161391669Y-119635000D02*
X149051669Y-119635000D01*
X148157331Y-109940000D02*
X148157331Y-109440000D01*
X148590344Y-109690000D02*
X148157331Y-109940000D01*
X148157331Y-109440000D02*
X148590344Y-109690000D01*
X149051669Y-88665000D02*
X161391669Y-88665000D01*
%TO.C,R5*%
X108485000Y-108939064D02*
X108485000Y-108484936D01*
X109955000Y-108939064D02*
X109955000Y-108484936D01*
%TO.C,U3*%
X114808000Y-110002000D02*
X118258000Y-110002000D01*
X114808000Y-110002000D02*
X112858000Y-110002000D01*
X114808000Y-104882000D02*
X116758000Y-104882000D01*
X114808000Y-104882000D02*
X112858000Y-104882000D01*
%TO.C,R7*%
X142467000Y-90958936D02*
X142467000Y-91413064D01*
X140997000Y-90958936D02*
X140997000Y-91413064D01*
%TO.C,C14*%
X114501252Y-117463000D02*
X113978748Y-117463000D01*
X114501252Y-115993000D02*
X113978748Y-115993000D01*
%TO.C,C8*%
X86798500Y-124071500D02*
X86798500Y-123284000D01*
X86404750Y-123677750D02*
X87192250Y-123677750D01*
X86300437Y-123044000D02*
X87586000Y-123044000D01*
X86300437Y-123044000D02*
X85236000Y-121979563D01*
X90991563Y-123044000D02*
X89706000Y-123044000D01*
X90991563Y-123044000D02*
X92056000Y-121979563D01*
X85236000Y-121979563D02*
X85236000Y-116224000D01*
X92056000Y-121979563D02*
X92056000Y-116224000D01*
X85236000Y-116224000D02*
X87586000Y-116224000D01*
X92056000Y-116224000D02*
X89706000Y-116224000D01*
%TO.C,SW1*%
X150694000Y-121992000D02*
X157154000Y-121992000D01*
X150694000Y-122022000D02*
X150694000Y-121992000D01*
X150694000Y-123922000D02*
X150694000Y-126522000D01*
X150694000Y-128452000D02*
X150694000Y-128422000D01*
X150694000Y-128452000D02*
X157154000Y-128452000D01*
X157154000Y-121992000D02*
X157154000Y-122022000D01*
X157154000Y-123922000D02*
X157154000Y-126522000D01*
X157154000Y-128452000D02*
X157154000Y-128422000D01*
%TO.C,TP5*%
X132912000Y-76016000D02*
X135312000Y-76016000D01*
X132912000Y-78416000D02*
X132912000Y-76016000D01*
X135312000Y-76016000D02*
X135312000Y-78416000D01*
X135312000Y-78416000D02*
X132912000Y-78416000D01*
%TO.C,R9*%
X146023000Y-90958936D02*
X146023000Y-91413064D01*
X144553000Y-90958936D02*
X144553000Y-91413064D01*
%TO.C,R4*%
X97563000Y-92175064D02*
X97563000Y-91720936D01*
X99033000Y-92175064D02*
X99033000Y-91720936D01*
%TO.C,JP5*%
X131616000Y-79962000D02*
X131616000Y-75902000D01*
X131616000Y-79962000D02*
X129496000Y-79962000D01*
X131616000Y-75902000D02*
X129496000Y-75902000D01*
X130556000Y-82022000D02*
X129496000Y-82022000D01*
X129496000Y-82022000D02*
X129496000Y-80962000D01*
X129496000Y-79962000D02*
X129496000Y-75902000D01*
D12*
%TO.C,L1*%
X128058500Y-131484000D02*
X138258500Y-131484000D01*
X138258500Y-131484000D02*
X138258500Y-120484000D01*
X138258500Y-120484000D02*
X128058500Y-120484000D01*
X128058500Y-120484000D02*
X128058500Y-131484000D01*
D14*
%TO.C,TP3*%
X90494000Y-77794000D02*
X92894000Y-77794000D01*
X90494000Y-80194000D02*
X90494000Y-77794000D01*
X92894000Y-77794000D02*
X92894000Y-80194000D01*
X92894000Y-80194000D02*
X90494000Y-80194000D01*
%TO.C,D4*%
X146248000Y-84754000D02*
X144328000Y-84754000D01*
X144328000Y-84754000D02*
X144328000Y-87614000D01*
X146248000Y-87614000D02*
X146248000Y-84754000D01*
%TO.C,C6*%
X108301000Y-92448748D02*
X108301000Y-92971252D01*
X106831000Y-92448748D02*
X106831000Y-92971252D01*
%TO.C,C2*%
X108301000Y-87876748D02*
X108301000Y-88399252D01*
X106831000Y-87876748D02*
X106831000Y-88399252D01*
%TO.C,C4*%
X141978748Y-120931000D02*
X142501252Y-120931000D01*
X141978748Y-122401000D02*
X142501252Y-122401000D01*
%TO.C,R8*%
X138657000Y-90958936D02*
X138657000Y-91413064D01*
X137187000Y-90958936D02*
X137187000Y-91413064D01*
%TO.C,J8*%
X109990000Y-140570000D02*
X110990000Y-140570000D01*
X110990000Y-140570000D02*
X110490000Y-139570000D01*
X110490000Y-139570000D02*
X109990000Y-140570000D01*
X105280000Y-139180000D02*
X105280000Y-130060000D01*
X113520000Y-139180000D02*
X113520000Y-137870000D01*
X125860000Y-139180000D02*
X105280000Y-139180000D01*
X106580000Y-137870000D02*
X106580000Y-131370000D01*
X113520000Y-137870000D02*
X106580000Y-137870000D01*
X117620000Y-137870000D02*
X117620000Y-139180000D01*
X117620000Y-137870000D02*
X117620000Y-137870000D01*
X124560000Y-137870000D02*
X117620000Y-137870000D01*
X106580000Y-131370000D02*
X124560000Y-131370000D01*
X124560000Y-131370000D02*
X124560000Y-137870000D01*
X105280000Y-130060000D02*
X125860000Y-130060000D01*
X125860000Y-130060000D02*
X125860000Y-139180000D01*
%TO.C,J1*%
X150368000Y-82804000D02*
X150368000Y-75184000D01*
X150368000Y-75184000D02*
X140208000Y-75184000D01*
X140208000Y-82804000D02*
X150368000Y-82804000D01*
X140208000Y-76454000D02*
X150368000Y-76454000D01*
X140208000Y-75184000D02*
X140208000Y-82804000D01*
%TO.C,TP2*%
X95066000Y-77794000D02*
X97466000Y-77794000D01*
X95066000Y-80194000D02*
X95066000Y-77794000D01*
X97466000Y-77794000D02*
X97466000Y-80194000D01*
X97466000Y-80194000D02*
X95066000Y-80194000D01*
%TO.C,C13*%
X138655248Y-102643000D02*
X139177752Y-102643000D01*
X138655248Y-104113000D02*
X139177752Y-104113000D01*
%TO.C,C9*%
X86798500Y-100277500D02*
X86798500Y-99490000D01*
X86404750Y-99883750D02*
X87192250Y-99883750D01*
X86300437Y-99250000D02*
X87586000Y-99250000D01*
X86300437Y-99250000D02*
X85236000Y-98185563D01*
X90991563Y-99250000D02*
X89706000Y-99250000D01*
X90991563Y-99250000D02*
X92056000Y-98185563D01*
X85236000Y-98185563D02*
X85236000Y-92430000D01*
X92056000Y-98185563D02*
X92056000Y-92430000D01*
X85236000Y-92430000D02*
X87586000Y-92430000D01*
X92056000Y-92430000D02*
X89706000Y-92430000D01*
%TO.C,U4*%
X114046000Y-118582000D02*
X112246000Y-118582000D01*
X114046000Y-118582000D02*
X114846000Y-118582000D01*
X114046000Y-121702000D02*
X113246000Y-121702000D01*
X114046000Y-121702000D02*
X114846000Y-121702000D01*
%TO.C,JP6*%
X138728000Y-79962000D02*
X138728000Y-75902000D01*
X138728000Y-79962000D02*
X136608000Y-79962000D01*
X138728000Y-75902000D02*
X136608000Y-75902000D01*
X137668000Y-82022000D02*
X136608000Y-82022000D01*
X136608000Y-82022000D02*
X136608000Y-80962000D01*
X136608000Y-79962000D02*
X136608000Y-75902000D01*
%TO.C,C3*%
X141978748Y-123979000D02*
X142501252Y-123979000D01*
X141978748Y-125449000D02*
X142501252Y-125449000D01*
%TO.C,C1*%
X141978748Y-127027000D02*
X142501252Y-127027000D01*
X141978748Y-128497000D02*
X142501252Y-128497000D01*
%TO.C,U2*%
X102530000Y-76100000D02*
X102530000Y-76400000D01*
X102530000Y-76100000D02*
X123530000Y-76100000D01*
X102530000Y-78500000D02*
X102530000Y-78900000D01*
X102530000Y-78767000D02*
X105537000Y-78767000D01*
X102530000Y-81100000D02*
X102530000Y-81500000D01*
X102530000Y-83600000D02*
X102530000Y-84000000D01*
X102530000Y-86200000D02*
X102530000Y-86600000D01*
X102530000Y-88700000D02*
X102530000Y-89100000D01*
X102530000Y-91200000D02*
X102530000Y-91600000D01*
X102530000Y-93800000D02*
X102530000Y-94200000D01*
X102530000Y-96300000D02*
X102530000Y-96700000D01*
X102530000Y-98900000D02*
X102530000Y-99300000D01*
X102530000Y-101400000D02*
X102530000Y-101800000D01*
X102530000Y-103900000D02*
X102530000Y-104300000D01*
X102530000Y-106500000D02*
X102530000Y-106900000D01*
X102530000Y-109000000D02*
X102530000Y-109400000D01*
X102530000Y-111600000D02*
X102530000Y-112000000D01*
X102530000Y-114100000D02*
X102530000Y-114500000D01*
X102530000Y-116700000D02*
X102530000Y-117100000D01*
X102530000Y-119200000D02*
X102530000Y-119600000D01*
X102530000Y-121700000D02*
X102530000Y-122100000D01*
X102530000Y-124300000D02*
X102530000Y-124700000D01*
X105537000Y-78767000D02*
X105537000Y-76100000D01*
X109330000Y-127100000D02*
X102530000Y-127100000D01*
X111530000Y-127100000D02*
X111930000Y-127100000D01*
X114130000Y-127100000D02*
X114530000Y-127100000D01*
X123530000Y-76100000D02*
X123530000Y-76400000D01*
X123530000Y-78500000D02*
X123530000Y-78900000D01*
X123530000Y-81100000D02*
X123530000Y-81500000D01*
X123530000Y-83600000D02*
X123530000Y-84000000D01*
X123530000Y-86200000D02*
X123530000Y-86600000D01*
X123530000Y-88700000D02*
X123530000Y-89100000D01*
X123530000Y-91200000D02*
X123530000Y-91600000D01*
X123530000Y-93800000D02*
X123530000Y-94200000D01*
X123530000Y-96300000D02*
X123530000Y-96700000D01*
X123530000Y-98900000D02*
X123530000Y-99300000D01*
X123530000Y-101400000D02*
X123530000Y-101800000D01*
X123530000Y-103900000D02*
X123530000Y-104300000D01*
X123530000Y-106500000D02*
X123530000Y-106900000D01*
X123530000Y-109000000D02*
X123530000Y-109400000D01*
X123530000Y-111600000D02*
X123530000Y-112000000D01*
X123530000Y-114100000D02*
X123530000Y-114500000D01*
X123530000Y-116700000D02*
X123530000Y-117100000D01*
X123530000Y-119200000D02*
X123530000Y-119600000D01*
X123530000Y-121700000D02*
X123530000Y-122100000D01*
X123530000Y-124300000D02*
X123530000Y-124700000D01*
X123530000Y-127100000D02*
X116730000Y-127100000D01*
%TO.C,J9*%
X85860000Y-140570000D02*
X86860000Y-140570000D01*
X86860000Y-140570000D02*
X86360000Y-139570000D01*
X86360000Y-139570000D02*
X85860000Y-140570000D01*
X81150000Y-139180000D02*
X81150000Y-130060000D01*
X89390000Y-139180000D02*
X89390000Y-137870000D01*
X101730000Y-139180000D02*
X81150000Y-139180000D01*
X82450000Y-137870000D02*
X82450000Y-131370000D01*
X89390000Y-137870000D02*
X82450000Y-137870000D01*
X93490000Y-137870000D02*
X93490000Y-139180000D01*
X93490000Y-137870000D02*
X93490000Y-137870000D01*
X100430000Y-137870000D02*
X93490000Y-137870000D01*
X82450000Y-131370000D02*
X100430000Y-131370000D01*
X100430000Y-131370000D02*
X100430000Y-137870000D01*
X81150000Y-130060000D02*
X101730000Y-130060000D01*
X101730000Y-130060000D02*
X101730000Y-139180000D01*
%TO.C,D3*%
X138882000Y-84754000D02*
X136962000Y-84754000D01*
X136962000Y-84754000D02*
X136962000Y-87614000D01*
X138882000Y-87614000D02*
X138882000Y-84754000D01*
%TO.C,R6*%
X109187000Y-119749064D02*
X109187000Y-119294936D01*
X110657000Y-119749064D02*
X110657000Y-119294936D01*
%TO.C,R2*%
X145823000Y-132815064D02*
X145823000Y-132360936D01*
X147293000Y-132815064D02*
X147293000Y-132360936D01*
%TO.C,C15*%
X142775000Y-97289252D02*
X142775000Y-96766748D01*
X144245000Y-97289252D02*
X144245000Y-96766748D01*
%TO.C,JP7*%
X131616000Y-89360000D02*
X131616000Y-85300000D01*
X131616000Y-89360000D02*
X129496000Y-89360000D01*
X131616000Y-85300000D02*
X129496000Y-85300000D01*
X130556000Y-91420000D02*
X129496000Y-91420000D01*
X129496000Y-91420000D02*
X129496000Y-90360000D01*
X129496000Y-89360000D02*
X129496000Y-85300000D01*
%TO.C,C11*%
X111114748Y-85117000D02*
X111637252Y-85117000D01*
X111114748Y-86587000D02*
X111637252Y-86587000D01*
D13*
%TO.C,D1*%
X139154000Y-118364000D02*
X140204000Y-117614000D01*
X140204000Y-117614000D02*
X140204000Y-119064000D01*
X140204000Y-119064000D02*
X139154000Y-118364000D01*
G36*
X139254000Y-119414000D02*
G01*
X138954000Y-119414000D01*
X138954000Y-117314000D01*
X139254000Y-117314000D01*
X139254000Y-119414000D01*
G37*
D15*
X139254000Y-119414000D02*
X138954000Y-119414000D01*
X138954000Y-117314000D01*
X139254000Y-117314000D01*
X139254000Y-119414000D01*
D14*
%TO.C,J3*%
X96266000Y-127000000D02*
X81026000Y-127000000D01*
X96266000Y-106680000D02*
X96266000Y-127000000D01*
X93726000Y-127000000D02*
X93726000Y-106680000D01*
X83566000Y-127000000D02*
X83566000Y-106680000D01*
X81026000Y-127000000D02*
X81026000Y-106680000D01*
X81026000Y-106680000D02*
X96266000Y-106680000D01*
%TO.C,U1*%
X113219000Y-88031000D02*
X109769000Y-88031000D01*
X113219000Y-88031000D02*
X115169000Y-88031000D01*
X113219000Y-98151000D02*
X111269000Y-98151000D01*
X113219000Y-98151000D02*
X115169000Y-98151000D01*
%TO.C,C12*%
X132088000Y-108238000D02*
X133338000Y-108238000D01*
X132713000Y-107613000D02*
X132713000Y-108863000D01*
X133578000Y-106702437D02*
X133578000Y-109488000D01*
X133578000Y-106702437D02*
X134642437Y-105638000D01*
X133578000Y-115293563D02*
X133578000Y-112508000D01*
X133578000Y-115293563D02*
X134642437Y-116358000D01*
X134642437Y-105638000D02*
X144298000Y-105638000D01*
X134642437Y-116358000D02*
X144298000Y-116358000D01*
X144298000Y-105638000D02*
X144298000Y-109488000D01*
X144298000Y-116358000D02*
X144298000Y-112508000D01*
%TO.C,C5*%
X116324748Y-85117000D02*
X116847252Y-85117000D01*
X116324748Y-86587000D02*
X116847252Y-86587000D01*
%TO.C,R3*%
X109955000Y-104166936D02*
X109955000Y-104621064D01*
X108485000Y-104166936D02*
X108485000Y-104621064D01*
%TO.C,C7*%
X106831000Y-97543252D02*
X106831000Y-97020748D01*
X108301000Y-97543252D02*
X108301000Y-97020748D01*
%TO.C,C10*%
X136171000Y-134627252D02*
X136171000Y-134104748D01*
X137641000Y-134627252D02*
X137641000Y-134104748D01*
%TO.C,J2*%
X96266000Y-103310000D02*
X81026000Y-103310000D01*
X96266000Y-82990000D02*
X96266000Y-103310000D01*
X93726000Y-103310000D02*
X93726000Y-82990000D01*
X83566000Y-103310000D02*
X83566000Y-82990000D01*
X81026000Y-103310000D02*
X81026000Y-82990000D01*
X81026000Y-82990000D02*
X96266000Y-82990000D01*
%TO.C,C16*%
X129567000Y-97021252D02*
X129567000Y-96498748D01*
X131037000Y-97021252D02*
X131037000Y-96498748D01*
%TO.C,R1*%
X145823000Y-137641064D02*
X145823000Y-137186936D01*
X147293000Y-137641064D02*
X147293000Y-137186936D01*
%TO.C,TP4*%
X132912000Y-81350000D02*
X135312000Y-81350000D01*
X132912000Y-83750000D02*
X132912000Y-81350000D01*
X135312000Y-81350000D02*
X135312000Y-83750000D01*
X135312000Y-83750000D02*
X132912000Y-83750000D01*
%TO.C,TP_UART1*%
X85414000Y-77794000D02*
X87814000Y-77794000D01*
X85414000Y-80194000D02*
X85414000Y-77794000D01*
X87814000Y-77794000D02*
X87814000Y-80194000D01*
X87814000Y-80194000D02*
X85414000Y-80194000D01*
D16*
%TO.C,IC1*%
X139152000Y-137587000D02*
X139152000Y-136062000D01*
%TD*%
%LPC*%
D17*
%TO.C,U5*%
X133755999Y-94713999D03*
D18*
X140055999Y-97013999D03*
D17*
X133755999Y-97013999D03*
X133755999Y-99313999D03*
%TD*%
D19*
%TO.C,J5*%
X75184000Y-113070000D03*
D20*
X75183999Y-115569999D03*
X75183999Y-118069999D03*
X75183999Y-120569999D03*
%TD*%
D19*
%TO.C,J4*%
X75184000Y-89528000D03*
D20*
X75183999Y-92027999D03*
X75183999Y-94527999D03*
X75183999Y-97027999D03*
%TD*%
D21*
%TO.C,D2*%
X141732000Y-85589000D03*
X141732000Y-87639000D03*
%TD*%
D22*
%TO.C,H4*%
X156718000Y-135890000D03*
%TD*%
D23*
%TO.C,J6*%
X152331669Y-116650000D03*
X152331669Y-91650000D03*
D24*
X150911668Y-109689999D03*
D25*
X150911669Y-106920000D03*
X150911669Y-104150000D03*
X150911669Y-101380000D03*
X150911669Y-98610000D03*
X153751669Y-108305000D03*
X153751669Y-105535000D03*
X153751669Y-102765000D03*
X153751669Y-99995000D03*
%TD*%
D26*
%TO.C,R5*%
X109220000Y-109712000D03*
X109220000Y-107712000D03*
%TD*%
D22*
%TO.C,H2*%
X75184000Y-79248000D03*
%TD*%
D27*
%TO.C,U3*%
X117383000Y-109347000D03*
X117383000Y-108077000D03*
X117383000Y-106807000D03*
X117383000Y-105537000D03*
X112233000Y-105537000D03*
X112233000Y-106807000D03*
X112233000Y-108077000D03*
X112233000Y-109347000D03*
%TD*%
D28*
%TO.C,R7*%
X141732000Y-90186000D03*
X141732000Y-92186000D03*
%TD*%
D29*
%TO.C,C14*%
X115277500Y-116728000D03*
X113202500Y-116728000D03*
%TD*%
D30*
%TO.C,C8*%
X88646000Y-122334000D03*
X88646000Y-116934000D03*
%TD*%
D31*
%TO.C,SW1*%
X149948999Y-122971999D03*
X157898999Y-122971999D03*
X149948999Y-127471999D03*
X157898999Y-127471999D03*
%TD*%
D32*
%TO.C,TP5*%
X134111999Y-77215999D03*
%TD*%
D28*
%TO.C,R9*%
X145288000Y-90186000D03*
X145288000Y-92186000D03*
%TD*%
D26*
%TO.C,R4*%
X98298000Y-92948000D03*
X98298000Y-90948000D03*
%TD*%
D33*
%TO.C,JP5*%
X130555999Y-80961999D03*
D34*
X130555999Y-78961999D03*
X130555999Y-76961999D03*
%TD*%
D35*
%TO.C,L1*%
X133058499Y-131083999D03*
X133058499Y-120883999D03*
%TD*%
D32*
%TO.C,TP3*%
X91693999Y-78993999D03*
%TD*%
D21*
%TO.C,D4*%
X145288000Y-85589000D03*
X145288000Y-87639000D03*
%TD*%
D36*
%TO.C,C6*%
X107566000Y-91672500D03*
X107566000Y-93747500D03*
%TD*%
%TO.C,C2*%
X107566000Y-87100500D03*
X107566000Y-89175500D03*
%TD*%
D37*
%TO.C,C4*%
X141202500Y-121666000D03*
X143277500Y-121666000D03*
%TD*%
D28*
%TO.C,R8*%
X137922000Y-90186000D03*
X137922000Y-92186000D03*
%TD*%
D22*
%TO.C,H3*%
X156718000Y-79248000D03*
%TD*%
D38*
%TO.C,J8*%
X110490000Y-135890000D03*
D39*
X110490000Y-133350000D03*
X113030000Y-135890000D03*
X113030000Y-133350000D03*
X115570000Y-135890000D03*
X115570000Y-133350000D03*
X118110000Y-135890000D03*
X118110000Y-133350000D03*
X120650000Y-135890000D03*
X120650000Y-133350000D03*
%TD*%
D40*
%TO.C,J1*%
X147827999Y-78993999D03*
D41*
X142748000Y-78994000D03*
%TD*%
D32*
%TO.C,TP2*%
X96265999Y-78993999D03*
%TD*%
D22*
%TO.C,H1*%
X75184000Y-135890000D03*
%TD*%
D37*
%TO.C,C13*%
X137879000Y-103378000D03*
X139954000Y-103378000D03*
%TD*%
D30*
%TO.C,C9*%
X88646000Y-98540000D03*
X88646000Y-93140000D03*
%TD*%
D42*
%TO.C,U4*%
X112908500Y-119192000D03*
X112908500Y-120142000D03*
X112908500Y-121092000D03*
X115183500Y-121092000D03*
X115183500Y-119192000D03*
%TD*%
D33*
%TO.C,JP6*%
X137667999Y-80961999D03*
D34*
X137667999Y-78961999D03*
X137667999Y-76961999D03*
%TD*%
D37*
%TO.C,C3*%
X141202500Y-124714000D03*
X143277500Y-124714000D03*
%TD*%
%TO.C,C1*%
X141202500Y-127762000D03*
X143277500Y-127762000D03*
%TD*%
D43*
%TO.C,U2*%
X110304999Y-77599999D03*
D44*
X110604999Y-80629999D03*
X115454999Y-80629999D03*
D43*
X115754999Y-77599999D03*
D45*
X104139999Y-77469999D03*
D46*
X103239999Y-77469999D03*
D45*
X104139999Y-80009999D03*
D46*
X103239999Y-80009999D03*
D47*
X104139999Y-82549999D03*
D46*
X103239999Y-82549999D03*
D45*
X104139999Y-85089999D03*
D46*
X103239999Y-85089999D03*
D45*
X104139999Y-87629999D03*
D46*
X103239999Y-87629999D03*
D45*
X104139999Y-90169999D03*
D46*
X103239999Y-90169999D03*
D45*
X104139999Y-92709999D03*
D46*
X103239999Y-92709999D03*
D47*
X104139999Y-95249999D03*
D46*
X103239999Y-95249999D03*
D45*
X104139999Y-97789999D03*
D46*
X103239999Y-97789999D03*
D45*
X104139999Y-100329999D03*
D46*
X103239999Y-100329999D03*
D45*
X104139999Y-102869999D03*
D46*
X103239999Y-102869999D03*
D45*
X104139999Y-105409999D03*
D46*
X103239999Y-105409999D03*
D47*
X104139999Y-107949999D03*
D46*
X103239999Y-107949999D03*
D45*
X104139999Y-110489999D03*
D46*
X103239999Y-110489999D03*
D45*
X104139999Y-113029999D03*
D46*
X103239999Y-113029999D03*
D45*
X104139999Y-115569999D03*
D46*
X103239999Y-115569999D03*
D45*
X104139999Y-118109999D03*
D46*
X103239999Y-118109999D03*
D47*
X104139999Y-120649999D03*
D46*
X103239999Y-120649999D03*
D45*
X104139999Y-123189999D03*
D46*
X103239999Y-123189999D03*
D45*
X104139999Y-125729999D03*
D46*
X103239999Y-125729999D03*
D45*
X121919999Y-125729999D03*
D46*
X122819999Y-125729999D03*
D45*
X121919999Y-123189999D03*
D46*
X122819999Y-123189999D03*
D47*
X121919999Y-120649999D03*
D46*
X122819999Y-120649999D03*
D45*
X121919999Y-118109999D03*
D46*
X122819999Y-118109999D03*
D45*
X121919999Y-115569999D03*
D46*
X122819999Y-115569999D03*
D45*
X121919999Y-113029999D03*
D46*
X122819999Y-113029999D03*
D45*
X121919999Y-110489999D03*
D46*
X122819999Y-110489999D03*
D47*
X121919999Y-107949999D03*
D46*
X122819999Y-107949999D03*
D45*
X121919999Y-105409999D03*
D46*
X122819999Y-105409999D03*
D45*
X121919999Y-102869999D03*
D46*
X122819999Y-102869999D03*
D45*
X121919999Y-100329999D03*
D46*
X122819999Y-100329999D03*
D45*
X121919999Y-97789999D03*
D46*
X122819999Y-97789999D03*
D47*
X121919999Y-95249999D03*
D46*
X122819999Y-95249999D03*
D45*
X121919999Y-92709999D03*
D46*
X122819999Y-92709999D03*
D45*
X121919999Y-90169999D03*
D46*
X122819999Y-90169999D03*
D45*
X121919999Y-87629999D03*
D46*
X122819999Y-87629999D03*
D45*
X121919999Y-85089999D03*
D46*
X122819999Y-85089999D03*
D47*
X121919999Y-82549999D03*
D46*
X122819999Y-82549999D03*
D45*
X121919999Y-80009999D03*
D46*
X122819999Y-80009999D03*
D45*
X121919999Y-77469999D03*
D46*
X122819999Y-77469999D03*
D45*
X110489999Y-125499999D03*
D48*
X110489999Y-126399999D03*
D47*
X113029999Y-125499999D03*
D48*
X113029999Y-126399999D03*
D45*
X115569999Y-125499999D03*
D48*
X115569999Y-126399999D03*
%TD*%
D38*
%TO.C,J9*%
X86360000Y-135890000D03*
D39*
X86360000Y-133350000D03*
X88900000Y-135890000D03*
X88900000Y-133350000D03*
X91440000Y-135890000D03*
X91440000Y-133350000D03*
X93980000Y-135890000D03*
X93980000Y-133350000D03*
X96520000Y-135890000D03*
X96520000Y-133350000D03*
%TD*%
D21*
%TO.C,D3*%
X137922000Y-85589000D03*
X137922000Y-87639000D03*
%TD*%
D26*
%TO.C,R6*%
X109922000Y-120522000D03*
X109922000Y-118522000D03*
%TD*%
%TO.C,R2*%
X146558000Y-133588000D03*
X146558000Y-131588000D03*
%TD*%
D49*
%TO.C,C15*%
X143510000Y-98065500D03*
X143510000Y-95990500D03*
%TD*%
D33*
%TO.C,JP7*%
X130555999Y-90359999D03*
D34*
X130555999Y-88359999D03*
X130555999Y-86359999D03*
%TD*%
D37*
%TO.C,C11*%
X110338500Y-85852000D03*
X112413500Y-85852000D03*
%TD*%
D50*
%TO.C,D1*%
X142003999Y-118363999D03*
X137903999Y-118363999D03*
%TD*%
D51*
%TO.C,J3*%
X94995999Y-107949999D03*
D52*
X94996000Y-110490000D03*
X94996000Y-113030000D03*
X94996000Y-115570000D03*
X94996000Y-118110000D03*
X94996000Y-120650000D03*
X94996000Y-123190000D03*
X94996000Y-125730000D03*
X82296000Y-125730000D03*
X82296000Y-123190000D03*
X82296000Y-120650000D03*
X82296000Y-118110000D03*
X82296000Y-115570000D03*
X82296000Y-113030000D03*
X82296000Y-110490000D03*
X82296000Y-107950000D03*
%TD*%
D53*
%TO.C,U1*%
X110744000Y-88646000D03*
X110744000Y-89916000D03*
X110744000Y-91186000D03*
X110744000Y-92456000D03*
X110744000Y-93726000D03*
X110744000Y-94996000D03*
X110744000Y-96266000D03*
X110744000Y-97536000D03*
X115694000Y-97536000D03*
X115694000Y-96266000D03*
X115694000Y-94996000D03*
X115694000Y-93726000D03*
X115694000Y-92456000D03*
X115694000Y-91186000D03*
X115694000Y-89916000D03*
X115694000Y-88646000D03*
%TD*%
D54*
%TO.C,C12*%
X134738000Y-110998000D03*
X143138000Y-110998000D03*
%TD*%
D37*
%TO.C,C5*%
X115548500Y-85852000D03*
X117623500Y-85852000D03*
%TD*%
D28*
%TO.C,R3*%
X109220000Y-103394000D03*
X109220000Y-105394000D03*
%TD*%
D49*
%TO.C,C7*%
X107566000Y-98319500D03*
X107566000Y-96244500D03*
%TD*%
%TO.C,C10*%
X136906000Y-135403500D03*
X136906000Y-133328500D03*
%TD*%
D51*
%TO.C,J2*%
X94995999Y-84259999D03*
D52*
X94996000Y-86800000D03*
X94996000Y-89340000D03*
X94996000Y-91880000D03*
X94996000Y-94420000D03*
X94996000Y-96960000D03*
X94996000Y-99500000D03*
X94996000Y-102040000D03*
X82296000Y-102040000D03*
X82296000Y-99500000D03*
X82296000Y-96960000D03*
X82296000Y-94420000D03*
X82296000Y-91880000D03*
X82296000Y-89340000D03*
X82296000Y-86800000D03*
X82296000Y-84260000D03*
%TD*%
D49*
%TO.C,C16*%
X130302000Y-97797500D03*
X130302000Y-95722500D03*
%TD*%
D26*
%TO.C,R1*%
X146558000Y-138414000D03*
X146558000Y-136414000D03*
%TD*%
D32*
%TO.C,TP4*%
X134111999Y-82549999D03*
%TD*%
%TO.C,TP_UART1*%
X86613999Y-78993999D03*
%TD*%
D55*
%TO.C,IC1*%
X139826999Y-136823999D03*
X141096999Y-136823999D03*
X142366999Y-136823999D03*
X143636999Y-136823999D03*
X143636999Y-131399999D03*
X142366999Y-131399999D03*
X141096999Y-131399999D03*
X139826999Y-131399999D03*
D56*
X141731999Y-134111999D03*
%TD*%
M02*
