M48
; DRILL file {KiCad (7.0.0)} date Sat Apr  1 02:11:53 2023
; FORMAT={-:-/ absolute / inch / decimal}
; #@! TF.CreationDate,2023-04-01T02:11:53+13:00
; #@! TF.GenerationSoftware,Kicad,Pcbnew,(7.0.0)
; #@! TF.FileFunction,Plated,1,4,PTH
FMAT,2
INCH
; #@! TA.AperFunction,Plated,PTH,ViaDrill
T1C0.0157
; #@! TA.AperFunction,Plated,PTH,ViaDrill
T2C0.0236
; #@! TA.AperFunction,Plated,PTH,ComponentDrill
T3C0.0315
; #@! TA.AperFunction,Plated,PTH,ComponentDrill
T4C0.0374
; #@! TA.AperFunction,Plated,PTH,ViaDrill
T5C0.0394
; #@! TA.AperFunction,Plated,PTH,ComponentDrill
T6C0.0394
; #@! TA.AperFunction,Plated,PTH,ComponentDrill
T7C0.0402
; #@! TA.AperFunction,Plated,PTH,ComponentDrill
T8C0.0472
; #@! TA.AperFunction,Plated,PTH,ComponentDrill
T9C0.0598
; #@! TA.AperFunction,Plated,PTH,ComponentDrill
T10C0.1260
%
G90
G05
T1
X3.49Y-3.6669
X3.76Y-5.09
X4.2349Y-3.8708
X4.27Y-3.36
X4.3Y-4.0706
X4.3Y-4.3194
X4.32Y-3.3
X4.3276Y-4.6662
X4.4Y-4.79
X4.42Y-4.36
X4.4257Y-3.38
X4.44Y-3.66
X4.45Y-4.65
X4.4973Y-3.7286
X4.54Y-4.65
X4.5492Y-3.44
X4.62Y-4.55
X4.63Y-4.75
X4.6308Y-3.48
X5.1897Y-3.91
X5.19Y-3.7289
X5.38Y-3.36
X5.38Y-3.59
X5.58Y-3.3696
X5.65Y-3.72
X5.72Y-3.3696
X5.72Y-3.6294
X5.8886Y-3.77
X5.9035Y-4.8414
X5.9035Y-5.0186
T2
X3.49Y-4.6037
X4.52Y-4.23
T3
X5.14Y-3.03
X5.14Y-3.1087
X5.14Y-3.1875
X5.14Y-3.4
X5.14Y-3.4787
X5.14Y-3.5575
X5.42Y-3.03
X5.42Y-3.1087
X5.42Y-3.1875
T4
X2.96Y-3.5247
X2.96Y-3.6231
X2.96Y-3.7216
X2.96Y-3.82
X2.96Y-4.4516
X2.96Y-4.55
X2.96Y-4.6484
X2.96Y-4.7469
T5
X5.15Y-4.05
X5.24Y-4.05
X5.33Y-4.05
X5.47Y-4.19
X5.6Y-4.05
X5.69Y-4.05
X5.78Y-4.05
T6
X3.4Y-5.25
X3.4Y-5.35
X3.5Y-5.25
X3.5Y-5.35
X3.6Y-5.25
X3.6Y-5.35
X3.7Y-5.25
X3.7Y-5.35
X3.8Y-5.25
X3.8Y-5.35
X4.35Y-5.25
X4.35Y-5.35
X4.45Y-5.25
X4.45Y-5.35
X4.55Y-5.25
X4.55Y-5.35
X4.65Y-5.25
X4.65Y-5.35
X4.75Y-5.25
X4.75Y-5.35
X5.9414Y-3.8823
X5.9414Y-3.9913
X5.9414Y-4.1004
X5.9414Y-4.2094
X5.9414Y-4.3185
X6.0532Y-3.9368
X6.0532Y-4.0459
X6.0532Y-4.1549
X6.0532Y-4.264
T7
X4.1Y-3.05
X4.1Y-3.15
X4.1Y-3.25
X4.1Y-3.35
X4.1Y-3.45
X4.1Y-3.55
X4.1Y-3.65
X4.1Y-3.75
X4.1Y-3.85
X4.1Y-3.95
X4.1Y-4.05
X4.1Y-4.15
X4.1Y-4.25
X4.1Y-4.35
X4.1Y-4.45
X4.1Y-4.55
X4.1Y-4.65
X4.1Y-4.75
X4.1Y-4.85
X4.1Y-4.95
X4.35Y-4.9409
X4.45Y-4.9409
X4.55Y-4.9409
X4.8Y-3.05
X4.8Y-3.15
X4.8Y-3.25
X4.8Y-3.35
X4.8Y-3.45
X4.8Y-3.55
X4.8Y-3.65
X4.8Y-3.75
X4.8Y-3.85
X4.8Y-3.95
X4.8Y-4.05
X4.8Y-4.15
X4.8Y-4.25
X4.8Y-4.35
X4.8Y-4.45
X4.8Y-4.55
X4.8Y-4.65
X4.8Y-4.75
X4.8Y-4.85
X4.8Y-4.95
T8
X3.24Y-3.3173
X3.24Y-3.4173
X3.24Y-3.5173
X3.24Y-3.6173
X3.24Y-3.7173
X3.24Y-3.8173
X3.24Y-3.9173
X3.24Y-4.0173
X3.24Y-4.25
X3.24Y-4.35
X3.24Y-4.45
X3.24Y-4.55
X3.24Y-4.65
X3.24Y-4.75
X3.24Y-4.85
X3.24Y-4.95
X3.74Y-3.3173
X3.74Y-3.4173
X3.74Y-3.5173
X3.74Y-3.6173
X3.74Y-3.7173
X3.74Y-3.8173
X3.74Y-3.9173
X3.74Y-4.0173
X3.74Y-4.25
X3.74Y-4.35
X3.74Y-4.45
X3.74Y-4.55
X3.74Y-4.65
X3.74Y-4.75
X3.74Y-4.85
X3.74Y-4.95
T9
X5.62Y-3.11
X5.82Y-3.11
T10
X2.96Y-3.12
X2.96Y-5.35
X5.9973Y-3.6083
X5.9973Y-4.5925
X6.17Y-3.12
X6.17Y-5.35
T0
M30
