%TF.GenerationSoftware,KiCad,Pcbnew,(7.0.0)*%
%TF.CreationDate,2023-03-06T19:08:15+13:00*%
%TF.ProjectId,pico_expansion_board,7069636f-5f65-4787-9061-6e73696f6e5f,rev?*%
%TF.SameCoordinates,Original*%
%TF.FileFunction,Copper,L1,Top*%
%TF.FilePolarity,Positive*%
%FSLAX46Y46*%
G04 Gerber Fmt 4.6, Leading zero omitted, Abs format (unit mm)*
G04 Created by KiCad (PCBNEW (7.0.0)) date 2023-03-06 19:08:15*
%MOMM*%
%LPD*%
G01*
G04 APERTURE LIST*
G04 Aperture macros list*
%AMRoundRect*
0 Rectangle with rounded corners*
0 $1 Rounding radius*
0 $2 $3 $4 $5 $6 $7 $8 $9 X,Y pos of 4 corners*
0 Add a 4 corners polygon primitive as box body*
4,1,4,$2,$3,$4,$5,$6,$7,$8,$9,$2,$3,0*
0 Add four circle primitives for the rounded corners*
1,1,$1+$1,$2,$3*
1,1,$1+$1,$4,$5*
1,1,$1+$1,$6,$7*
1,1,$1+$1,$8,$9*
0 Add four rect primitives between the rounded corners*
20,1,$1+$1,$2,$3,$4,$5,0*
20,1,$1+$1,$4,$5,$6,$7,0*
20,1,$1+$1,$6,$7,$8,$9,0*
20,1,$1+$1,$8,$9,$2,$3,0*%
G04 Aperture macros list end*
%TA.AperFunction,SMDPad,CuDef*%
%ADD10RoundRect,0.250000X1.950000X1.000000X-1.950000X1.000000X-1.950000X-1.000000X1.950000X-1.000000X0*%
%TD*%
%TA.AperFunction,ComponentPad*%
%ADD11R,1.350000X1.350000*%
%TD*%
%TA.AperFunction,ComponentPad*%
%ADD12O,1.350000X1.350000*%
%TD*%
%TA.AperFunction,SMDPad,CuDef*%
%ADD13RoundRect,0.150000X0.150000X-0.725000X0.150000X0.725000X-0.150000X0.725000X-0.150000X-0.725000X0*%
%TD*%
%TA.AperFunction,ComponentPad*%
%ADD14R,3.000000X3.000000*%
%TD*%
%TA.AperFunction,ComponentPad*%
%ADD15C,3.000000*%
%TD*%
%TA.AperFunction,SMDPad,CuDef*%
%ADD16RoundRect,0.250000X-0.475000X0.250000X-0.475000X-0.250000X0.475000X-0.250000X0.475000X0.250000X0*%
%TD*%
%TA.AperFunction,SMDPad,CuDef*%
%ADD17RoundRect,0.250000X0.450000X-0.262500X0.450000X0.262500X-0.450000X0.262500X-0.450000X-0.262500X0*%
%TD*%
%TA.AperFunction,SMDPad,CuDef*%
%ADD18RoundRect,0.250000X0.475000X-0.250000X0.475000X0.250000X-0.475000X0.250000X-0.475000X-0.250000X0*%
%TD*%
%TA.AperFunction,SMDPad,CuDef*%
%ADD19RoundRect,0.150000X0.725000X0.150000X-0.725000X0.150000X-0.725000X-0.150000X0.725000X-0.150000X0*%
%TD*%
%TA.AperFunction,ComponentPad*%
%ADD20C,6.400000*%
%TD*%
%TA.AperFunction,SMDPad,CuDef*%
%ADD21RoundRect,0.250000X0.550000X-1.500000X0.550000X1.500000X-0.550000X1.500000X-0.550000X-1.500000X0*%
%TD*%
%TA.AperFunction,SMDPad,CuDef*%
%ADD22RoundRect,0.250000X-0.250000X-0.475000X0.250000X-0.475000X0.250000X0.475000X-0.250000X0.475000X0*%
%TD*%
%TA.AperFunction,SMDPad,CuDef*%
%ADD23R,1.300000X1.550000*%
%TD*%
%TA.AperFunction,SMDPad,CuDef*%
%ADD24RoundRect,0.250000X0.250000X0.475000X-0.250000X0.475000X-0.250000X-0.475000X0.250000X-0.475000X0*%
%TD*%
%TA.AperFunction,SMDPad,CuDef*%
%ADD25R,1.525000X0.650000*%
%TD*%
%TA.AperFunction,SMDPad,CuDef*%
%ADD26R,2.600000X3.100000*%
%TD*%
%TA.AperFunction,SMDPad,CuDef*%
%ADD27R,2.000000X2.000000*%
%TD*%
%TA.AperFunction,SMDPad,CuDef*%
%ADD28R,3.000000X4.000000*%
%TD*%
%TA.AperFunction,ComponentPad*%
%ADD29RoundRect,0.250000X0.600000X-0.600000X0.600000X0.600000X-0.600000X0.600000X-0.600000X-0.600000X0*%
%TD*%
%TA.AperFunction,ComponentPad*%
%ADD30C,1.700000*%
%TD*%
%TA.AperFunction,ComponentPad*%
%ADD31O,1.700000X1.700000*%
%TD*%
%TA.AperFunction,SMDPad,CuDef*%
%ADD32R,3.500000X1.700000*%
%TD*%
%TA.AperFunction,ComponentPad*%
%ADD33R,1.700000X1.700000*%
%TD*%
%TA.AperFunction,SMDPad,CuDef*%
%ADD34R,1.700000X3.500000*%
%TD*%
%TA.AperFunction,ComponentPad*%
%ADD35RoundRect,0.250000X-0.725000X0.600000X-0.725000X-0.600000X0.725000X-0.600000X0.725000X0.600000X0*%
%TD*%
%TA.AperFunction,ComponentPad*%
%ADD36O,1.950000X1.700000*%
%TD*%
%TA.AperFunction,SMDPad,CuDef*%
%ADD37RoundRect,0.150000X-0.825000X-0.150000X0.825000X-0.150000X0.825000X0.150000X-0.825000X0.150000X0*%
%TD*%
%TA.AperFunction,SMDPad,CuDef*%
%ADD38RoundRect,0.250000X-0.450000X0.262500X-0.450000X-0.262500X0.450000X-0.262500X0.450000X0.262500X0*%
%TD*%
%TA.AperFunction,SMDPad,CuDef*%
%ADD39R,1.800000X1.700000*%
%TD*%
%TA.AperFunction,ComponentPad*%
%ADD40C,4.000000*%
%TD*%
%TA.AperFunction,ComponentPad*%
%ADD41R,1.600000X1.600000*%
%TD*%
%TA.AperFunction,ComponentPad*%
%ADD42C,1.600000*%
%TD*%
%TA.AperFunction,ComponentPad*%
%ADD43R,2.100000X2.100000*%
%TD*%
%TA.AperFunction,ComponentPad*%
%ADD44C,2.100000*%
%TD*%
%TA.AperFunction,ViaPad*%
%ADD45C,0.800000*%
%TD*%
%TA.AperFunction,ViaPad*%
%ADD46C,1.200000*%
%TD*%
%TA.AperFunction,ViaPad*%
%ADD47C,1.000000*%
%TD*%
%TA.AperFunction,Conductor*%
%ADD48C,0.762000*%
%TD*%
%TA.AperFunction,Conductor*%
%ADD49C,1.500000*%
%TD*%
%TA.AperFunction,Conductor*%
%ADD50C,0.609600*%
%TD*%
%TA.AperFunction,Conductor*%
%ADD51C,1.000000*%
%TD*%
%TA.AperFunction,Conductor*%
%ADD52C,0.508000*%
%TD*%
%TA.AperFunction,Conductor*%
%ADD53C,0.406400*%
%TD*%
G04 APERTURE END LIST*
D10*
%TO.P,C18,1*%
%TO.N,+5V*%
X119770000Y-100330000D03*
%TO.P,C18,2*%
%TO.N,GND*%
X111370000Y-100330000D03*
%TD*%
D11*
%TO.P,JP3,1,A*%
%TO.N,MOTOR_UART*%
X68103999Y-94233999D03*
D12*
%TO.P,JP3,2,B*%
%TO.N,Net-(J3-PDN)*%
X70103999Y-94233999D03*
%TD*%
D13*
%TO.P,U2,1,TXD*%
%TO.N,CAN_TX*%
X92329000Y-83093000D03*
%TO.P,U2,2,VSS*%
%TO.N,GND*%
X93599000Y-83093000D03*
%TO.P,U2,3,VDD*%
%TO.N,+5V*%
X94869000Y-83093000D03*
%TO.P,U2,4,RXD*%
%TO.N,CAN_RX*%
X96139000Y-83093000D03*
%TO.P,U2,5,VIO*%
%TO.N,+3.3V*%
X96139000Y-77943000D03*
%TO.P,U2,6,CANL*%
%TO.N,Net-(J10-Pin_2)*%
X94869000Y-77943000D03*
%TO.P,U2,7,CANH*%
%TO.N,Net-(J10-Pin_1)*%
X93599000Y-77943000D03*
%TO.P,U2,8,STBY*%
%TO.N,GND*%
X92329000Y-77943000D03*
%TD*%
D14*
%TO.P,J1,1,Pin_1*%
%TO.N,GND*%
X126237999Y-123189999D03*
D15*
%TO.P,J1,2,Pin_2*%
%TO.N,VCC*%
X131318000Y-123190000D03*
%TD*%
D16*
%TO.P,C5,1*%
%TO.N,VCC*%
X124460000Y-112588000D03*
%TO.P,C5,2*%
%TO.N,GND*%
X124460000Y-114488000D03*
%TD*%
D17*
%TO.P,R1,1*%
%TO.N,Net-(JP9-A)*%
X111252000Y-73048500D03*
%TO.P,R1,2*%
%TO.N,Net-(J10-Pin_2)*%
X111252000Y-71223500D03*
%TD*%
D18*
%TO.P,C7,1*%
%TO.N,GND*%
X111571000Y-90993000D03*
%TO.P,C7,2*%
%TO.N,Net-(U1-VS-)*%
X111571000Y-89093000D03*
%TD*%
D19*
%TO.P,U5,1,A0*%
%TO.N,GND*%
X96301000Y-97409000D03*
%TO.P,U5,2,A1*%
X96301000Y-96139000D03*
%TO.P,U5,3,A2*%
X96301000Y-94869000D03*
%TO.P,U5,4,GND*%
X96301000Y-93599000D03*
%TO.P,U5,5,SDA*%
%TO.N,EEPROM_SDA*%
X91151000Y-93599000D03*
%TO.P,U5,6,SCL*%
%TO.N,EEPROM_SCL*%
X91151000Y-94869000D03*
%TO.P,U5,7,WP*%
%TO.N,GND*%
X91151000Y-96139000D03*
%TO.P,U5,8,VCC*%
%TO.N,+5V*%
X91151000Y-97409000D03*
%TD*%
D20*
%TO.P,H2,1*%
%TO.N,N/C*%
X55512000Y-123190000D03*
%TD*%
D18*
%TO.P,C2,1*%
%TO.N,GND*%
X98552000Y-79436000D03*
%TO.P,C2,2*%
%TO.N,+3.3V*%
X98552000Y-77536000D03*
%TD*%
D21*
%TO.P,C11,1*%
%TO.N,VCC*%
X69596000Y-107602000D03*
%TO.P,C11,2*%
%TO.N,GND*%
X69596000Y-102202000D03*
%TD*%
D22*
%TO.P,C1,1*%
%TO.N,Net-(U1-C1+)*%
X114431000Y-79375000D03*
%TO.P,C1,2*%
%TO.N,Net-(U1-C1-)*%
X116331000Y-79375000D03*
%TD*%
D23*
%TO.P,SW1,1,1*%
%TO.N,PICO_RESET_BTN*%
X118653999Y-78396999D03*
X118653999Y-70446999D03*
%TO.P,SW1,2,2*%
%TO.N,GND*%
X123153999Y-78396999D03*
X123153999Y-70446999D03*
%TD*%
D24*
%TO.P,C3,1*%
%TO.N,+5V*%
X95184000Y-85852000D03*
%TO.P,C3,2*%
%TO.N,GND*%
X93284000Y-85852000D03*
%TD*%
D16*
%TO.P,C9,1*%
%TO.N,VCC*%
X127254000Y-112588000D03*
%TO.P,C9,2*%
%TO.N,GND*%
X127254000Y-114488000D03*
%TD*%
%TO.P,C4,1*%
%TO.N,+5V*%
X122428000Y-80838000D03*
%TO.P,C4,2*%
%TO.N,GND*%
X122428000Y-82738000D03*
%TD*%
D25*
%TO.P,IC1,1,BOOT*%
%TO.N,Net-(IC1-BOOT)*%
X116413999Y-110616999D03*
%TO.P,IC1,2,NC_1*%
%TO.N,unconnected-(IC1-NC_1-Pad2)*%
X116413999Y-111886999D03*
%TO.P,IC1,3,NC_2*%
%TO.N,unconnected-(IC1-NC_2-Pad3)*%
X116413999Y-113156999D03*
%TO.P,IC1,4,VSENSE*%
%TO.N,Net-(IC1-VSENSE)*%
X116413999Y-114426999D03*
%TO.P,IC1,5,ENA*%
%TO.N,unconnected-(IC1-ENA-Pad5)*%
X121837999Y-114426999D03*
%TO.P,IC1,6,GND*%
%TO.N,GND*%
X121837999Y-113156999D03*
%TO.P,IC1,7,VIN*%
%TO.N,VCC*%
X121837999Y-111886999D03*
%TO.P,IC1,8,PH*%
%TO.N,Net-(IC1-PH)*%
X121837999Y-110616999D03*
D26*
%TO.P,IC1,9,EP*%
%TO.N,GND*%
X119125999Y-112521999D03*
%TD*%
D27*
%TO.P,TP7,1,1*%
%TO.N,SCALE_UART_TX*%
X69341999Y-62737999D03*
%TD*%
D12*
%TO.P,JP1,2,B*%
%TO.N,Net-(J2-PDN)*%
X69934999Y-68257999D03*
D11*
%TO.P,JP1,1,A*%
%TO.N,MOTOR_UART*%
X67934999Y-68257999D03*
%TD*%
D20*
%TO.P,H4,1*%
%TO.N,N/C*%
X117488000Y-63246000D03*
%TD*%
D28*
%TO.P,L1,1,1*%
%TO.N,Net-(IC1-PH)*%
X128740499Y-106445999D03*
%TO.P,L1,2,2*%
%TO.N,+5V*%
X128740499Y-96245999D03*
%TD*%
D29*
%TO.P,J8,1,Pin_1*%
%TO.N,unconnected-(J8-Pin_1-Pad1)*%
X94742000Y-121666000D03*
D30*
%TO.P,J8,2,Pin_2*%
%TO.N,BTN_ENC*%
X94742000Y-119126000D03*
%TO.P,J8,3,Pin_3*%
%TO.N,LCD_CS*%
X97282000Y-121666000D03*
%TO.P,J8,4,Pin_4*%
%TO.N,LCD_A0*%
X97282000Y-119126000D03*
%TO.P,J8,5,Pin_5*%
%TO.N,LCD_RST*%
X99822000Y-121666000D03*
%TO.P,J8,6,Pin_6*%
%TO.N,NEOPIXEL*%
X99822000Y-119126000D03*
%TO.P,J8,7,Pin_7*%
%TO.N,unconnected-(J8-Pin_7-Pad7)*%
X102362000Y-121666000D03*
%TO.P,J8,8,Pin_8*%
%TO.N,unconnected-(J8-Pin_8-Pad8)*%
X102362000Y-119126000D03*
%TO.P,J8,9,Pin_9*%
%TO.N,GND*%
X104902000Y-121666000D03*
%TO.P,J8,10,Pin_10*%
%TO.N,+5V*%
X104902000Y-119126000D03*
%TD*%
D11*
%TO.P,JP9,1,A*%
%TO.N,Net-(JP9-A)*%
X114553999Y-73405999D03*
D12*
%TO.P,JP9,2,B*%
%TO.N,Net-(J10-Pin_1)*%
X114553999Y-71405999D03*
%TD*%
D24*
%TO.P,C19,1*%
%TO.N,+5V*%
X123632000Y-93726000D03*
%TO.P,C19,2*%
%TO.N,GND*%
X121732000Y-93726000D03*
%TD*%
D18*
%TO.P,C8,1*%
%TO.N,Net-(U1-VS+)*%
X111571000Y-83373000D03*
%TO.P,C8,2*%
%TO.N,+5V*%
X111571000Y-81473000D03*
%TD*%
D14*
%TO.P,J10,1,Pin_1*%
%TO.N,Net-(J10-Pin_1)*%
X131571999Y-62991999D03*
D15*
%TO.P,J10,2,Pin_2*%
%TO.N,Net-(J10-Pin_2)*%
X126492000Y-62992000D03*
%TD*%
D21*
%TO.P,C12,1*%
%TO.N,VCC*%
X69596000Y-81522000D03*
%TO.P,C12,2*%
%TO.N,GND*%
X69596000Y-76122000D03*
%TD*%
D16*
%TO.P,C16,1*%
%TO.N,VCC*%
X130048000Y-112588000D03*
%TO.P,C16,2*%
%TO.N,GND*%
X130048000Y-114488000D03*
%TD*%
D31*
%TO.P,U3,1,GPIO0*%
%TO.N,SCALE_UART_TX*%
X84835999Y-62229999D03*
D32*
X83935999Y-62229999D03*
D31*
%TO.P,U3,2,GPIO1*%
%TO.N,SCALE_UART_RX*%
X84835999Y-64769999D03*
D32*
X83935999Y-64769999D03*
D33*
%TO.P,U3,3,GND*%
%TO.N,GND*%
X84835999Y-67309999D03*
D32*
X83935999Y-67309999D03*
D31*
%TO.P,U3,4,GPIO2*%
%TO.N,M1_DIR*%
X84835999Y-69849999D03*
D32*
X83935999Y-69849999D03*
D31*
%TO.P,U3,5,GPIO3*%
%TO.N,M1_STEP*%
X84835999Y-72389999D03*
D32*
X83935999Y-72389999D03*
D31*
%TO.P,U3,6,GPIO4*%
%TO.N,UART1_TX*%
X84835999Y-74929999D03*
D32*
X83935999Y-74929999D03*
D31*
%TO.P,U3,7,GPIO5*%
%TO.N,MOTOR_UART*%
X84835999Y-77469999D03*
D32*
X83935999Y-77469999D03*
D33*
%TO.P,U3,8,GND*%
%TO.N,GND*%
X84835999Y-80009999D03*
D32*
X83935999Y-80009999D03*
D31*
%TO.P,U3,9,GPIO6*%
%TO.N,M1_EN*%
X84835999Y-82549999D03*
D32*
X83935999Y-82549999D03*
D31*
%TO.P,U3,10,GPIO7*%
%TO.N,M2_DIR*%
X84835999Y-85089999D03*
D32*
X83935999Y-85089999D03*
D31*
%TO.P,U3,11,GPIO8*%
%TO.N,M2_STEP*%
X84835999Y-87629999D03*
D32*
X83935999Y-87629999D03*
D31*
%TO.P,U3,12,GPIO9*%
%TO.N,M2_EN*%
X84835999Y-90169999D03*
D32*
X83935999Y-90169999D03*
D33*
%TO.P,U3,13,GND*%
%TO.N,GND*%
X84835999Y-92709999D03*
D32*
X83935999Y-92709999D03*
D31*
%TO.P,U3,14,GPIO10*%
%TO.N,EEPROM_SDA*%
X84835999Y-95249999D03*
D32*
X83935999Y-95249999D03*
D31*
%TO.P,U3,15,GPIO11*%
%TO.N,EEPROM_SCL*%
X84835999Y-97789999D03*
D32*
X83935999Y-97789999D03*
D31*
%TO.P,U3,16,GPIO12*%
%TO.N,BTN_RST*%
X84835999Y-100329999D03*
D32*
X83935999Y-100329999D03*
D31*
%TO.P,U3,17,GPIO13*%
%TO.N,Net-(U3-GPIO13)*%
X84835999Y-102869999D03*
D32*
X83935999Y-102869999D03*
D33*
%TO.P,U3,18,GND*%
%TO.N,GND*%
X84835999Y-105409999D03*
D32*
X83935999Y-105409999D03*
D31*
%TO.P,U3,19,GPIO14*%
%TO.N,BTN_EN2*%
X84835999Y-107949999D03*
D32*
X83935999Y-107949999D03*
D31*
%TO.P,U3,20,GPIO15*%
%TO.N,BTN_EN1*%
X84835999Y-110489999D03*
D32*
X83935999Y-110489999D03*
D31*
%TO.P,U3,21,GPIO16*%
%TO.N,SPI0_MISO*%
X102615999Y-110489999D03*
D32*
X103515999Y-110489999D03*
D31*
%TO.P,U3,22,GPIO17*%
%TO.N,LCD_CS*%
X102615999Y-107949999D03*
D32*
X103515999Y-107949999D03*
D33*
%TO.P,U3,23,GND*%
%TO.N,GND*%
X102615999Y-105409999D03*
D32*
X103515999Y-105409999D03*
D31*
%TO.P,U3,24,GPIO18*%
%TO.N,LED_SCK*%
X102615999Y-102869999D03*
D32*
X103515999Y-102869999D03*
D31*
%TO.P,U3,25,GPIO19*%
%TO.N,LCD_MOSI*%
X102615999Y-100329999D03*
D32*
X103515999Y-100329999D03*
D31*
%TO.P,U3,26,GPIO20*%
%TO.N,LCD_A0*%
X102615999Y-97789999D03*
D32*
X103515999Y-97789999D03*
D31*
%TO.P,U3,27,GPIO21*%
%TO.N,LCD_RST*%
X102615999Y-95249999D03*
D32*
X103515999Y-95249999D03*
D33*
%TO.P,U3,28,GND*%
%TO.N,GND*%
X102615999Y-92709999D03*
D32*
X103515999Y-92709999D03*
D31*
%TO.P,U3,29,GPIO22*%
%TO.N,BTN_ENC*%
X102615999Y-90169999D03*
D32*
X103515999Y-90169999D03*
D31*
%TO.P,U3,30,RUN*%
%TO.N,PICO_RESET_BTN*%
X102615999Y-87629999D03*
D32*
X103515999Y-87629999D03*
D31*
%TO.P,U3,31,GPIO26_ADC0*%
%TO.N,NEOPIXEL*%
X102615999Y-85089999D03*
D32*
X103515999Y-85089999D03*
D31*
%TO.P,U3,32,GPIO27_ADC1*%
%TO.N,CAN_TX*%
X102615999Y-82549999D03*
D32*
X103515999Y-82549999D03*
D33*
%TO.P,U3,33,AGND*%
%TO.N,GND*%
X102615999Y-80009999D03*
D32*
X103515999Y-80009999D03*
D31*
%TO.P,U3,34,GPIO28_ADC2*%
%TO.N,CAN_RX*%
X102615999Y-77469999D03*
D32*
X103515999Y-77469999D03*
D31*
%TO.P,U3,35,ADC_VREF*%
%TO.N,unconnected-(U3-ADC_VREF-Pad35)*%
X102615999Y-74929999D03*
D32*
X103515999Y-74929999D03*
D31*
%TO.P,U3,36,3V3*%
%TO.N,+3.3V*%
X102615999Y-72389999D03*
D32*
X103515999Y-72389999D03*
D31*
%TO.P,U3,37,3V3_EN*%
%TO.N,unconnected-(U3-3V3_EN-Pad37)*%
X102615999Y-69849999D03*
D32*
X103515999Y-69849999D03*
D33*
%TO.P,U3,38,GND*%
%TO.N,GND*%
X102615999Y-67309999D03*
D32*
X103515999Y-67309999D03*
D31*
%TO.P,U3,39,VSYS*%
%TO.N,+5V*%
X102615999Y-64769999D03*
D32*
X103515999Y-64769999D03*
D31*
%TO.P,U3,40,VBUS*%
%TO.N,unconnected-(U3-VBUS-Pad40)*%
X102615999Y-62229999D03*
D32*
X103515999Y-62229999D03*
D31*
%TO.P,U3,41,SWCLK*%
%TO.N,unconnected-(U3-SWCLK-Pad41)*%
X91185999Y-110259999D03*
D34*
X91185999Y-111159999D03*
D33*
%TO.P,U3,42,GND*%
%TO.N,unconnected-(U3-GND-Pad42)*%
X93725999Y-110259999D03*
D34*
X93725999Y-111159999D03*
D31*
%TO.P,U3,43,SWDIO*%
%TO.N,unconnected-(U3-SWDIO-Pad43)*%
X96265999Y-110259999D03*
D34*
X96265999Y-111159999D03*
%TD*%
D16*
%TO.P,C6,1*%
%TO.N,Net-(U1-C2+)*%
X111571000Y-85283000D03*
%TO.P,C6,2*%
%TO.N,Net-(U1-C2-)*%
X111571000Y-87183000D03*
%TD*%
D35*
%TO.P,J4,1,Pin_1*%
%TO.N,Net-(J2-B2)*%
X56134000Y-72510000D03*
D36*
%TO.P,J4,2,Pin_2*%
%TO.N,Net-(J2-B1)*%
X56133999Y-75009999D03*
%TO.P,J4,3,Pin_3*%
%TO.N,Net-(J2-A1)*%
X56133999Y-77509999D03*
%TO.P,J4,4,Pin_4*%
%TO.N,Net-(J2-A2)*%
X56133999Y-80009999D03*
%TD*%
D37*
%TO.P,U1,1,C1+*%
%TO.N,Net-(U1-C1+)*%
X114684000Y-81788000D03*
%TO.P,U1,2,VS+*%
%TO.N,Net-(U1-VS+)*%
X114684000Y-83058000D03*
%TO.P,U1,3,C1-*%
%TO.N,Net-(U1-C1-)*%
X114684000Y-84328000D03*
%TO.P,U1,4,C2+*%
%TO.N,Net-(U1-C2+)*%
X114684000Y-85598000D03*
%TO.P,U1,5,C2-*%
%TO.N,Net-(U1-C2-)*%
X114684000Y-86868000D03*
%TO.P,U1,6,VS-*%
%TO.N,Net-(U1-VS-)*%
X114684000Y-88138000D03*
%TO.P,U1,7,T2OUT*%
%TO.N,unconnected-(U1-T2OUT-Pad7)*%
X114684000Y-89408000D03*
%TO.P,U1,8,R2IN*%
%TO.N,unconnected-(U1-R2IN-Pad8)*%
X114684000Y-90678000D03*
%TO.P,U1,9,R2OUT*%
%TO.N,unconnected-(U1-R2OUT-Pad9)*%
X119634000Y-90678000D03*
%TO.P,U1,10,T2IN*%
%TO.N,unconnected-(U1-T2IN-Pad10)*%
X119634000Y-89408000D03*
%TO.P,U1,11,T1IN*%
%TO.N,SCALE_UART_TX*%
X119634000Y-88138000D03*
%TO.P,U1,12,R1OUT*%
%TO.N,SCALE_UART_RX*%
X119634000Y-86868000D03*
%TO.P,U1,13,R1IN*%
%TO.N,SCALE_RXD*%
X119634000Y-85598000D03*
%TO.P,U1,14,T1OUT*%
%TO.N,SCALE_TXD*%
X119634000Y-84328000D03*
%TO.P,U1,15,GND*%
%TO.N,GND*%
X119634000Y-83058000D03*
%TO.P,U1,16,VCC*%
%TO.N,+5V*%
X119634000Y-81788000D03*
%TD*%
D35*
%TO.P,J5,1,Pin_1*%
%TO.N,Net-(J3-B2)*%
X56134000Y-98338000D03*
D36*
%TO.P,J5,2,Pin_2*%
%TO.N,Net-(J3-B1)*%
X56133999Y-100837999D03*
%TO.P,J5,3,Pin_3*%
%TO.N,Net-(J3-A1)*%
X56133999Y-103337999D03*
%TO.P,J5,4,Pin_4*%
%TO.N,Net-(J3-A2)*%
X56133999Y-105837999D03*
%TD*%
D17*
%TO.P,R6,1*%
%TO.N,Net-(IC1-VSENSE)*%
X114046000Y-113180500D03*
%TO.P,R6,2*%
%TO.N,GND*%
X114046000Y-111355500D03*
%TD*%
D27*
%TO.P,TP1,1,1*%
%TO.N,SCALE_TXD*%
X129285999Y-80771999D03*
%TD*%
D20*
%TO.P,H1,1*%
%TO.N,N/C*%
X55512000Y-63246000D03*
%TD*%
D27*
%TO.P,TP8,1,1*%
%TO.N,SCALE_UART_RX*%
X75691999Y-63753999D03*
%TD*%
D17*
%TO.P,R3,1*%
%TO.N,MOTOR_UART*%
X80264000Y-77112500D03*
%TO.P,R3,2*%
%TO.N,UART1_TX*%
X80264000Y-75287500D03*
%TD*%
D38*
%TO.P,R2,1*%
%TO.N,+5V*%
X111760000Y-111355500D03*
%TO.P,R2,2*%
%TO.N,Net-(IC1-VSENSE)*%
X111760000Y-113180500D03*
%TD*%
D39*
%TO.P,D1,A*%
%TO.N,GND*%
X112503999Y-107695999D03*
%TO.P,D1,C*%
%TO.N,Net-(IC1-PH)*%
X116603999Y-107695999D03*
%TD*%
D11*
%TO.P,JP4,1,A*%
%TO.N,Net-(J3-UART)*%
X70087999Y-97535999D03*
D12*
%TO.P,JP4,2,B*%
%TO.N,MOTOR_UART*%
X68087999Y-97535999D03*
%TD*%
D27*
%TO.P,TP6,1,1*%
%TO.N,VCC*%
X133857999Y-116077999D03*
%TD*%
D40*
%TO.P,J7,0,PAD*%
%TO.N,GND*%
X140139669Y-88710000D03*
X140139669Y-63710000D03*
D41*
%TO.P,J7,1,1*%
%TO.N,unconnected-(J7-Pad1)*%
X138719668Y-81749999D03*
D42*
%TO.P,J7,2,2*%
%TO.N,SCALE_TXD*%
X138719669Y-78980000D03*
%TO.P,J7,3,3*%
%TO.N,SCALE_RXD*%
X138719669Y-76210000D03*
%TO.P,J7,4,4*%
%TO.N,unconnected-(J7-Pad4)*%
X138719669Y-73440000D03*
%TO.P,J7,5,5*%
%TO.N,unconnected-(J7-Pad5)*%
X138719669Y-70670000D03*
%TO.P,J7,6,6*%
%TO.N,unconnected-(J7-Pad6)*%
X141559669Y-80365000D03*
%TO.P,J7,7,7*%
%TO.N,unconnected-(J7-Pad7)*%
X141559669Y-77595000D03*
%TO.P,J7,8,8*%
%TO.N,unconnected-(J7-Pad8)*%
X141559669Y-74825000D03*
%TO.P,J7,9,9*%
%TO.N,unconnected-(J7-Pad9)*%
X141559669Y-72055000D03*
%TD*%
D27*
%TO.P,TP4,1,1*%
%TO.N,MOTOR_UART*%
X68071999Y-88899999D03*
%TD*%
D43*
%TO.P,J3,1,DIR*%
%TO.N,M2_DIR*%
X75945999Y-93217999D03*
D44*
%TO.P,J3,2,STEP*%
%TO.N,M2_STEP*%
X75946000Y-95758000D03*
%TO.P,J3,3,CLK*%
%TO.N,GND*%
X75946000Y-98298000D03*
%TO.P,J3,4,PDN*%
%TO.N,Net-(J3-PDN)*%
X75946000Y-100838000D03*
%TO.P,J3,5,UART*%
%TO.N,Net-(J3-UART)*%
X75946000Y-103378000D03*
%TO.P,J3,6,MS2*%
%TO.N,GND*%
X75946000Y-105918000D03*
%TO.P,J3,7,MS1*%
%TO.N,+5V*%
X75946000Y-108458000D03*
%TO.P,J3,8,EN*%
%TO.N,M2_EN*%
X75946000Y-110998000D03*
%TO.P,J3,9,VM*%
%TO.N,VCC*%
X63246000Y-110998000D03*
%TO.P,J3,10,GND*%
%TO.N,GND*%
X63246000Y-108458000D03*
%TO.P,J3,11,A2*%
%TO.N,Net-(J3-A2)*%
X63246000Y-105918000D03*
%TO.P,J3,12,A1*%
%TO.N,Net-(J3-A1)*%
X63246000Y-103378000D03*
%TO.P,J3,13,B1*%
%TO.N,Net-(J3-B1)*%
X63246000Y-100838000D03*
%TO.P,J3,14,B2*%
%TO.N,Net-(J3-B2)*%
X63246000Y-98298000D03*
%TO.P,J3,15,VDD*%
%TO.N,+5V*%
X63246000Y-95758000D03*
%TO.P,J3,16,GND*%
%TO.N,GND*%
X63246000Y-93218000D03*
%TD*%
D40*
%TO.P,J6,0,PAD*%
%TO.N,GND*%
X140139669Y-123762000D03*
X140139669Y-98762000D03*
D41*
%TO.P,J6,1,1*%
%TO.N,unconnected-(J6-Pad1)*%
X138719668Y-116801999D03*
D42*
%TO.P,J6,2,2*%
%TO.N,SCALE_RXD*%
X138719669Y-114032000D03*
%TO.P,J6,3,3*%
%TO.N,SCALE_TXD*%
X138719669Y-111262000D03*
%TO.P,J6,4,4*%
%TO.N,unconnected-(J6-Pad4)*%
X138719669Y-108492000D03*
%TO.P,J6,5,5*%
%TO.N,unconnected-(J6-Pad5)*%
X138719669Y-105722000D03*
%TO.P,J6,6,6*%
%TO.N,unconnected-(J6-Pad6)*%
X141559669Y-115417000D03*
%TO.P,J6,7,7*%
%TO.N,unconnected-(J6-Pad7)*%
X141559669Y-112647000D03*
%TO.P,J6,8,8*%
%TO.N,unconnected-(J6-Pad8)*%
X141559669Y-109877000D03*
%TO.P,J6,9,9*%
%TO.N,unconnected-(J6-Pad9)*%
X141559669Y-107107000D03*
%TD*%
D43*
%TO.P,J2,1,DIR*%
%TO.N,M1_DIR*%
X75945999Y-67241999D03*
D44*
%TO.P,J2,2,STEP*%
%TO.N,M1_STEP*%
X75946000Y-69782000D03*
%TO.P,J2,3,CLK*%
%TO.N,GND*%
X75946000Y-72322000D03*
%TO.P,J2,4,PDN*%
%TO.N,Net-(J2-PDN)*%
X75946000Y-74862000D03*
%TO.P,J2,5,UART*%
%TO.N,Net-(J2-UART)*%
X75946000Y-77402000D03*
%TO.P,J2,6,MS2*%
%TO.N,GND*%
X75946000Y-79942000D03*
%TO.P,J2,7,MS1*%
X75946000Y-82482000D03*
%TO.P,J2,8,EN*%
%TO.N,M1_EN*%
X75946000Y-85022000D03*
%TO.P,J2,9,VM*%
%TO.N,VCC*%
X63246000Y-85022000D03*
%TO.P,J2,10,GND*%
%TO.N,GND*%
X63246000Y-82482000D03*
%TO.P,J2,11,A2*%
%TO.N,Net-(J2-A2)*%
X63246000Y-79942000D03*
%TO.P,J2,12,A1*%
%TO.N,Net-(J2-A1)*%
X63246000Y-77402000D03*
%TO.P,J2,13,B1*%
%TO.N,Net-(J2-B1)*%
X63246000Y-74862000D03*
%TO.P,J2,14,B2*%
%TO.N,Net-(J2-B2)*%
X63246000Y-72322000D03*
%TO.P,J2,15,VDD*%
%TO.N,+5V*%
X63246000Y-69782000D03*
%TO.P,J2,16,GND*%
%TO.N,GND*%
X63246000Y-67242000D03*
%TD*%
D20*
%TO.P,H3,1*%
%TO.N,N/C*%
X117488000Y-123190000D03*
%TD*%
D29*
%TO.P,J9,1,Pin_1*%
%TO.N,unconnected-(J9-Pin_1-Pad1)*%
X69596000Y-121666000D03*
D30*
%TO.P,J9,2,Pin_2*%
%TO.N,LED_SCK*%
X69596000Y-119126000D03*
%TO.P,J9,3,Pin_3*%
%TO.N,BTN_EN1*%
X72136000Y-121666000D03*
%TO.P,J9,4,Pin_4*%
%TO.N,unconnected-(J9-Pin_4-Pad4)*%
X72136000Y-119126000D03*
%TO.P,J9,5,Pin_5*%
%TO.N,BTN_EN2*%
X74676000Y-121666000D03*
%TO.P,J9,6,Pin_6*%
%TO.N,LCD_MOSI*%
X74676000Y-119126000D03*
%TO.P,J9,7,Pin_7*%
%TO.N,unconnected-(J9-Pin_7-Pad7)*%
X77216000Y-121666000D03*
%TO.P,J9,8,Pin_8*%
%TO.N,BTN_RST*%
X77216000Y-119126000D03*
%TO.P,J9,9,Pin_9*%
%TO.N,GND*%
X79756000Y-121666000D03*
%TO.P,J9,10,Pin_10*%
%TO.N,+5V*%
X79756000Y-119126000D03*
%TD*%
D27*
%TO.P,TP2,1,1*%
%TO.N,SCALE_RXD*%
X129285999Y-86105999D03*
%TD*%
D22*
%TO.P,C17,1*%
%TO.N,Net-(IC1-BOOT)*%
X119446000Y-107696000D03*
%TO.P,C17,2*%
%TO.N,Net-(IC1-PH)*%
X121346000Y-107696000D03*
%TD*%
D11*
%TO.P,JP2,1,A*%
%TO.N,Net-(J2-UART)*%
X69960999Y-71627999D03*
D12*
%TO.P,JP2,2,B*%
%TO.N,MOTOR_UART*%
X67960999Y-71627999D03*
%TD*%
D27*
%TO.P,TP5,1,1*%
%TO.N,Net-(U3-GPIO13)*%
X89153999Y-102869999D03*
%TD*%
D45*
%TO.N,MOTOR_UART*%
X68072000Y-86360000D03*
X80264000Y-80264000D03*
X80264000Y-85090000D03*
D46*
%TO.N,VCC*%
X71882000Y-79248000D03*
D45*
%TO.N,GND*%
X124460000Y-82804000D03*
X111571000Y-92583000D03*
X92964000Y-87884000D03*
D47*
X119380000Y-116332000D03*
X93726000Y-95504000D03*
D45*
X113284000Y-109474000D03*
X90678000Y-77978000D03*
D47*
X127254000Y-116332000D03*
X123154000Y-74640000D03*
D45*
X98552000Y-81026000D03*
D47*
X115570000Y-102870000D03*
D45*
X119888000Y-93218000D03*
%TO.N,+5V*%
X95504000Y-87884000D03*
D47*
X120142000Y-97282000D03*
X115570000Y-97282000D03*
D45*
X112268000Y-79756000D03*
D47*
X117856000Y-97282000D03*
D45*
X88646000Y-98044000D03*
D47*
X110998000Y-109474000D03*
X106172000Y-64770000D03*
D45*
X124460000Y-80518000D03*
D46*
%TO.N,VCC*%
X71882000Y-105156000D03*
D47*
X132842000Y-112776000D03*
D45*
%TO.N,BTN_ENC*%
X100330000Y-101600000D03*
%TO.N,NEOPIXEL*%
X106934000Y-101092000D03*
%TO.N,BTN_EN2*%
X86868000Y-114046000D03*
%TO.N,BTN_RST*%
X77216000Y-116332000D03*
%TO.N,SCALE_RXD*%
X132080000Y-85852000D03*
%TO.N,SCALE_UART_TX*%
X117856000Y-88138000D03*
%TO.N,SCALE_UART_RX*%
X116586000Y-86360000D03*
%TO.N,PICO_RESET_BTN*%
X109728000Y-78994000D03*
%TO.N,Net-(J10-Pin_2)*%
X112268000Y-69850000D03*
%TO.N,CAN_TX*%
X93726000Y-81026000D03*
%TD*%
D48*
%TO.N,MOTOR_UART*%
X67961000Y-71628000D02*
X67961000Y-68284000D01*
X67961000Y-68284000D02*
X67935000Y-68258000D01*
X68104000Y-94234000D02*
X68104000Y-88932000D01*
X68104000Y-88932000D02*
X68072000Y-88900000D01*
X68072000Y-88900000D02*
X68072000Y-86360000D01*
X80264000Y-80264000D02*
X80264000Y-77112500D01*
X76454000Y-88900000D02*
X80264000Y-85090000D01*
X68072000Y-88900000D02*
X76454000Y-88900000D01*
%TO.N,Net-(J2-UART)*%
X70172000Y-71628000D02*
X75946000Y-77402000D01*
X69961000Y-71628000D02*
X70172000Y-71628000D01*
D49*
%TO.N,VCC*%
X69608000Y-81522000D02*
X71882000Y-79248000D01*
X69596000Y-81522000D02*
X69608000Y-81522000D01*
%TO.N,GND*%
X69596000Y-77616924D02*
X69596000Y-76122000D01*
X64730924Y-82482000D02*
X69596000Y-77616924D01*
X63246000Y-82482000D02*
X64730924Y-82482000D01*
%TO.N,VCC*%
X66096000Y-85022000D02*
X69596000Y-81522000D01*
X63246000Y-85022000D02*
X66096000Y-85022000D01*
D50*
%TO.N,Net-(U1-C1+)*%
X114431000Y-79375000D02*
X114431000Y-81535000D01*
X114431000Y-81535000D02*
X114684000Y-81788000D01*
%TO.N,Net-(U1-C1-)*%
X115762000Y-84328000D02*
X114684000Y-84328000D01*
X116331000Y-83759000D02*
X115762000Y-84328000D01*
X116331000Y-79375000D02*
X116331000Y-83759000D01*
D51*
%TO.N,GND*%
X119761000Y-113157000D02*
X119126000Y-112522000D01*
D50*
X96301000Y-97409000D02*
X94361000Y-97409000D01*
D51*
X114046000Y-110236000D02*
X114046000Y-111355500D01*
D50*
X94361000Y-96139000D02*
X93726000Y-95504000D01*
D51*
X113284000Y-109474000D02*
X113284000Y-108476000D01*
D50*
X92075000Y-96139000D02*
X92710000Y-95504000D01*
D49*
X69596000Y-103592924D02*
X69596000Y-102202000D01*
D51*
X113284000Y-109474000D02*
X114046000Y-110236000D01*
D52*
X90713000Y-77943000D02*
X90678000Y-77978000D01*
D48*
X122428000Y-82738000D02*
X124394000Y-82738000D01*
X119634000Y-83058000D02*
X121412000Y-83058000D01*
D51*
X113284000Y-108476000D02*
X112504000Y-107696000D01*
D48*
X94361000Y-93599000D02*
X93726000Y-94234000D01*
X121412000Y-83058000D02*
X121732000Y-82738000D01*
D49*
X63246000Y-108458000D02*
X64730924Y-108458000D01*
D50*
X98552000Y-79436000D02*
X98552000Y-81026000D01*
X93218000Y-85786000D02*
X93284000Y-85852000D01*
D51*
X123154000Y-74640000D02*
X123154000Y-78397000D01*
D50*
X94361000Y-94869000D02*
X93726000Y-95504000D01*
D51*
X92964000Y-87884000D02*
X93284000Y-87564000D01*
D48*
X121732000Y-82738000D02*
X122428000Y-82738000D01*
D50*
X94361000Y-97409000D02*
X93726000Y-96774000D01*
D51*
X119126000Y-112522000D02*
X119126000Y-116078000D01*
D48*
X120396000Y-93726000D02*
X119888000Y-93218000D01*
D51*
X123154000Y-74640000D02*
X123154000Y-70447000D01*
D48*
X93726000Y-94234000D02*
X93726000Y-95504000D01*
D49*
X127254000Y-116332000D02*
X127254000Y-114488000D01*
D50*
X91151000Y-96139000D02*
X92075000Y-96139000D01*
X93599000Y-84455000D02*
X93218000Y-84836000D01*
D48*
X121732000Y-93726000D02*
X120396000Y-93726000D01*
D50*
X96301000Y-96139000D02*
X94361000Y-96139000D01*
D48*
X111571000Y-90993000D02*
X111571000Y-92583000D01*
D51*
X119126000Y-116078000D02*
X119380000Y-116332000D01*
D50*
X92710000Y-95504000D02*
X93726000Y-95504000D01*
D49*
X113030000Y-100330000D02*
X115570000Y-102870000D01*
D51*
X93284000Y-87564000D02*
X93284000Y-85852000D01*
D49*
X111370000Y-100330000D02*
X113030000Y-100330000D01*
D50*
X93599000Y-83093000D02*
X93599000Y-84455000D01*
D48*
X96301000Y-93599000D02*
X94361000Y-93599000D01*
D50*
X93218000Y-84836000D02*
X93218000Y-85786000D01*
D49*
X124460000Y-114488000D02*
X130048000Y-114488000D01*
D51*
X121838000Y-113157000D02*
X119761000Y-113157000D01*
D50*
X96301000Y-94869000D02*
X94361000Y-94869000D01*
D48*
X124394000Y-82738000D02*
X124460000Y-82804000D01*
D50*
X93726000Y-96774000D02*
X93726000Y-95504000D01*
D49*
X64730924Y-108458000D02*
X69596000Y-103592924D01*
D52*
X92329000Y-77943000D02*
X90713000Y-77943000D01*
D50*
%TO.N,+5V*%
X95184000Y-84770000D02*
X95184000Y-85852000D01*
D49*
X117856000Y-97282000D02*
X117856000Y-98552000D01*
X119770000Y-100330000D02*
X120142000Y-99958000D01*
D48*
X89281000Y-97409000D02*
X88646000Y-98044000D01*
D49*
X124656500Y-100330000D02*
X128740500Y-96246000D01*
D48*
X124460000Y-80518000D02*
X124140000Y-80838000D01*
X120650000Y-81788000D02*
X121600000Y-80838000D01*
D51*
X95504000Y-87884000D02*
X95184000Y-87564000D01*
D48*
X119634000Y-81788000D02*
X120650000Y-81788000D01*
X124140000Y-80838000D02*
X122428000Y-80838000D01*
D49*
X115570000Y-97282000D02*
X115570000Y-98806000D01*
D48*
X121600000Y-80838000D02*
X122428000Y-80838000D01*
D50*
X112268000Y-79756000D02*
X111571000Y-80453000D01*
D49*
X120142000Y-99958000D02*
X120142000Y-97282000D01*
D48*
X111760000Y-110236000D02*
X111760000Y-111355500D01*
D50*
X94869000Y-84455000D02*
X95184000Y-84770000D01*
D49*
X115570000Y-98806000D02*
X117094000Y-100330000D01*
X119770000Y-100330000D02*
X124656500Y-100330000D01*
D48*
X110998000Y-109474000D02*
X111760000Y-110236000D01*
D51*
X95184000Y-87564000D02*
X95184000Y-85852000D01*
D50*
X94869000Y-83093000D02*
X94869000Y-84455000D01*
D49*
X117856000Y-98552000D02*
X119634000Y-100330000D01*
D50*
X111571000Y-80453000D02*
X111571000Y-81473000D01*
D48*
X123632000Y-93726000D02*
X126220500Y-93726000D01*
X91151000Y-97409000D02*
X89281000Y-97409000D01*
D49*
X119634000Y-100330000D02*
X119770000Y-100330000D01*
D48*
X126220500Y-93726000D02*
X128740500Y-96246000D01*
D49*
X117094000Y-100330000D02*
X119770000Y-100330000D01*
D50*
%TO.N,Net-(U1-C2+)*%
X114684000Y-85598000D02*
X111886000Y-85598000D01*
X111886000Y-85598000D02*
X111571000Y-85283000D01*
%TO.N,Net-(U1-C2-)*%
X111886000Y-86868000D02*
X111571000Y-87183000D01*
X114684000Y-86868000D02*
X111886000Y-86868000D01*
%TO.N,Net-(U1-VS-)*%
X114557000Y-88265000D02*
X112399000Y-88265000D01*
X112399000Y-88265000D02*
X111571000Y-89093000D01*
X114684000Y-88138000D02*
X114557000Y-88265000D01*
%TO.N,Net-(U1-VS+)*%
X112969000Y-83373000D02*
X111571000Y-83373000D01*
X114684000Y-83058000D02*
X113284000Y-83058000D01*
X113284000Y-83058000D02*
X112969000Y-83373000D01*
D49*
%TO.N,VCC*%
X132654000Y-112588000D02*
X130048000Y-112588000D01*
X66200000Y-110998000D02*
X69596000Y-107602000D01*
X132842000Y-112776000D02*
X133858000Y-113792000D01*
D51*
X121838000Y-111887000D02*
X123759000Y-111887000D01*
D49*
X133858000Y-113792000D02*
X133858000Y-116840000D01*
X69596000Y-107442000D02*
X69596000Y-107602000D01*
X124460000Y-112588000D02*
X130048000Y-112588000D01*
X133858000Y-120650000D02*
X131318000Y-123190000D01*
X71882000Y-105156000D02*
X69596000Y-107442000D01*
X63246000Y-110998000D02*
X66200000Y-110998000D01*
X133858000Y-116840000D02*
X133858000Y-120650000D01*
D51*
X123759000Y-111887000D02*
X124460000Y-112588000D01*
D49*
X132842000Y-112776000D02*
X132654000Y-112588000D01*
D48*
%TO.N,M1_DIR*%
X78554000Y-69850000D02*
X84836000Y-69850000D01*
X75946000Y-67242000D02*
X78554000Y-69850000D01*
%TO.N,M1_STEP*%
X75946000Y-69782000D02*
X78554000Y-72390000D01*
X78554000Y-72390000D02*
X84836000Y-72390000D01*
%TO.N,Net-(J2-PDN)*%
X69935000Y-68851000D02*
X75946000Y-74862000D01*
X69935000Y-68258000D02*
X69935000Y-68851000D01*
%TO.N,M1_EN*%
X78418000Y-82550000D02*
X75946000Y-85022000D01*
X84836000Y-82550000D02*
X78418000Y-82550000D01*
D49*
%TO.N,Net-(J2-A2)*%
X56134000Y-80010000D02*
X63178000Y-80010000D01*
D51*
X63178000Y-80010000D02*
X63246000Y-79942000D01*
D49*
%TO.N,Net-(J2-A1)*%
X56134000Y-77510000D02*
X63138000Y-77510000D01*
D51*
X63138000Y-77510000D02*
X63246000Y-77402000D01*
%TO.N,Net-(J2-B1)*%
X63098000Y-75010000D02*
X63246000Y-74862000D01*
D49*
X56134000Y-75010000D02*
X63098000Y-75010000D01*
%TO.N,Net-(J2-B2)*%
X56134000Y-72510000D02*
X63058000Y-72510000D01*
D51*
X63058000Y-72510000D02*
X63246000Y-72322000D01*
D48*
%TO.N,M2_DIR*%
X82550000Y-85090000D02*
X84836000Y-85090000D01*
X75946000Y-93218000D02*
X75946000Y-91694000D01*
X75946000Y-91694000D02*
X82550000Y-85090000D01*
%TO.N,M2_STEP*%
X76962000Y-95758000D02*
X75946000Y-95758000D01*
X78232000Y-91186000D02*
X78232000Y-94488000D01*
X84836000Y-87630000D02*
X81788000Y-87630000D01*
X81788000Y-87630000D02*
X78232000Y-91186000D01*
X78232000Y-94488000D02*
X76962000Y-95758000D01*
%TO.N,Net-(J3-UART)*%
X70104000Y-97536000D02*
X75946000Y-103378000D01*
X70088000Y-97536000D02*
X70104000Y-97536000D01*
%TO.N,Net-(J3-PDN)*%
X70104000Y-94234000D02*
X70104000Y-94996000D01*
X70104000Y-94996000D02*
X75946000Y-100838000D01*
%TO.N,M2_EN*%
X79756000Y-109728000D02*
X78486000Y-110998000D01*
X81026000Y-90170000D02*
X79756000Y-91440000D01*
X79756000Y-91440000D02*
X79756000Y-109728000D01*
X84836000Y-90170000D02*
X81026000Y-90170000D01*
X78486000Y-110998000D02*
X75946000Y-110998000D01*
D49*
%TO.N,Net-(J3-A2)*%
X56134000Y-105838000D02*
X63166000Y-105838000D01*
D51*
X63166000Y-105838000D02*
X63246000Y-105918000D01*
D49*
%TO.N,Net-(J3-A1)*%
X56134000Y-103338000D02*
X63206000Y-103338000D01*
D51*
X63206000Y-103338000D02*
X63246000Y-103378000D01*
D49*
%TO.N,Net-(J3-B1)*%
X56134000Y-100838000D02*
X63246000Y-100838000D01*
%TO.N,Net-(J3-B2)*%
X56134000Y-98338000D02*
X63206000Y-98338000D01*
D51*
X63206000Y-98338000D02*
X63246000Y-98298000D01*
D48*
%TO.N,LCD_CS*%
X107188000Y-124968000D02*
X100584000Y-124968000D01*
X107950000Y-107950000D02*
X108966000Y-108966000D01*
X102616000Y-107950000D02*
X107950000Y-107950000D01*
X108966000Y-123190000D02*
X107188000Y-124968000D01*
X100584000Y-124968000D02*
X97282000Y-121666000D01*
X108966000Y-108966000D02*
X108966000Y-123190000D01*
%TO.N,BTN_ENC*%
X100330000Y-101600000D02*
X100330000Y-92456000D01*
X100330000Y-92456000D02*
X102616000Y-90170000D01*
%TO.N,NEOPIXEL*%
X106934000Y-101092000D02*
X106934000Y-87286000D01*
X106934000Y-87286000D02*
X104738000Y-85090000D01*
X104738000Y-85090000D02*
X102616000Y-85090000D01*
%TO.N,BTN_EN1*%
X72136000Y-113284000D02*
X82042000Y-113284000D01*
X82042000Y-113284000D02*
X84836000Y-110490000D01*
X72136000Y-121666000D02*
X72136000Y-122682000D01*
X67310000Y-118110000D02*
X72136000Y-113284000D01*
X67310000Y-122682000D02*
X67310000Y-118110000D01*
X71120000Y-123698000D02*
X68326000Y-123698000D01*
X68326000Y-123698000D02*
X67310000Y-122682000D01*
X72136000Y-122682000D02*
X71120000Y-123698000D01*
%TO.N,BTN_EN2*%
X75946000Y-123698000D02*
X74676000Y-122428000D01*
X74676000Y-122428000D02*
X74676000Y-121666000D01*
X86868000Y-118872000D02*
X82042000Y-123698000D01*
X82042000Y-123698000D02*
X75946000Y-123698000D01*
X86868000Y-114046000D02*
X86868000Y-118872000D01*
%TO.N,LED_SCK*%
X93218000Y-102870000D02*
X102616000Y-102870000D01*
X69596000Y-119126000D02*
X74168000Y-114554000D01*
X87884000Y-108204000D02*
X93218000Y-102870000D01*
X87884000Y-110304000D02*
X87884000Y-108204000D01*
X83634000Y-114554000D02*
X87884000Y-110304000D01*
X74168000Y-114554000D02*
X83634000Y-114554000D01*
%TO.N,BTN_RST*%
X77216000Y-119126000D02*
X77216000Y-116332000D01*
%TO.N,MOTOR_UART*%
X68104000Y-94234000D02*
X68104000Y-97520000D01*
X68104000Y-97520000D02*
X68088000Y-97536000D01*
X80264000Y-77112500D02*
X80367500Y-77216000D01*
X80367500Y-77216000D02*
X84582000Y-77216000D01*
X84582000Y-77216000D02*
X84836000Y-77470000D01*
%TO.N,SCALE_RXD*%
X129286000Y-86106000D02*
X131826000Y-86106000D01*
X119634000Y-85598000D02*
X128778000Y-85598000D01*
X135182000Y-110494331D02*
X138719669Y-114032000D01*
X128778000Y-85598000D02*
X129286000Y-86106000D01*
X129286000Y-87376000D02*
X135182000Y-93272000D01*
X135182000Y-93272000D02*
X135182000Y-110494331D01*
X129286000Y-86106000D02*
X129286000Y-87376000D01*
X131826000Y-86106000D02*
X132080000Y-85852000D01*
%TO.N,SCALE_TXD*%
X119634000Y-84328000D02*
X125730000Y-84328000D01*
X136927669Y-80772000D02*
X138719669Y-78980000D01*
X136144000Y-87630000D02*
X136144000Y-108686331D01*
X136144000Y-108686331D02*
X138719669Y-111262000D01*
X125730000Y-84328000D02*
X129286000Y-80772000D01*
X129286000Y-80772000D02*
X136144000Y-87630000D01*
X129286000Y-80772000D02*
X136927669Y-80772000D01*
%TO.N,UART1_TX*%
X80264000Y-75287500D02*
X84478500Y-75287500D01*
X84478500Y-75287500D02*
X84836000Y-74930000D01*
%TO.N,SCALE_UART_TX*%
X84328000Y-61722000D02*
X84836000Y-62230000D01*
X70358000Y-61722000D02*
X84328000Y-61722000D01*
D50*
X117856000Y-88138000D02*
X119634000Y-88138000D01*
D48*
X69342000Y-62738000D02*
X70358000Y-61722000D01*
%TO.N,SCALE_UART_RX*%
X76708000Y-64770000D02*
X84836000Y-64770000D01*
D50*
X117094000Y-86868000D02*
X119634000Y-86868000D01*
D48*
X75692000Y-63754000D02*
X76708000Y-64770000D01*
D50*
X116586000Y-86360000D02*
X117094000Y-86868000D01*
%TO.N,EEPROM_SDA*%
X86487000Y-93599000D02*
X91151000Y-93599000D01*
X84836000Y-95250000D02*
X86487000Y-93599000D01*
%TO.N,EEPROM_SCL*%
X87757000Y-94869000D02*
X91151000Y-94869000D01*
X84836000Y-97790000D02*
X87757000Y-94869000D01*
D51*
%TO.N,Net-(U3-GPIO13)*%
X88900000Y-102870000D02*
X84836000Y-102870000D01*
D48*
%TO.N,+3.3V*%
X98552000Y-77536000D02*
X98552000Y-75692000D01*
D50*
X96139000Y-77943000D02*
X96809000Y-77943000D01*
D48*
X101854000Y-72390000D02*
X102616000Y-72390000D01*
D50*
X96809000Y-77943000D02*
X97216000Y-77536000D01*
X97216000Y-77536000D02*
X98552000Y-77536000D01*
D48*
X98552000Y-75692000D02*
X101854000Y-72390000D01*
%TO.N,PICO_RESET_BTN*%
X118235000Y-77978000D02*
X118654000Y-78397000D01*
X110744000Y-77978000D02*
X118235000Y-77978000D01*
X109728000Y-78994000D02*
X110744000Y-77978000D01*
X118654000Y-78397000D02*
X118654000Y-70447000D01*
%TO.N,Net-(J10-Pin_1)*%
X122174000Y-68834000D02*
X125222000Y-65786000D01*
D53*
X101362800Y-68596800D02*
X113046800Y-68596800D01*
X93599000Y-77943000D02*
X93599000Y-76360600D01*
X114554000Y-70104000D02*
X114554000Y-71406000D01*
X113046800Y-68596800D02*
X114554000Y-70104000D01*
D48*
X117348000Y-68834000D02*
X122174000Y-68834000D01*
X128778000Y-65786000D02*
X131572000Y-62992000D01*
X114776000Y-71406000D02*
X117348000Y-68834000D01*
D53*
X93599000Y-76360600D02*
X101362800Y-68596800D01*
D48*
X114554000Y-71406000D02*
X114776000Y-71406000D01*
X125222000Y-65786000D02*
X128778000Y-65786000D01*
%TO.N,Net-(J10-Pin_2)*%
X111252000Y-70866000D02*
X112268000Y-69850000D01*
D53*
X94869000Y-77943000D02*
X94869000Y-76327000D01*
D48*
X111252000Y-71223500D02*
X111252000Y-70866000D01*
D53*
X94869000Y-76327000D02*
X100059200Y-71136800D01*
X111165300Y-71136800D02*
X111252000Y-71223500D01*
X100059200Y-71136800D02*
X111165300Y-71136800D01*
D50*
%TO.N,Net-(JP9-A)*%
X111355500Y-73152000D02*
X114300000Y-73152000D01*
X111252000Y-73048500D02*
X111355500Y-73152000D01*
X114300000Y-73152000D02*
X114554000Y-73406000D01*
D52*
%TO.N,CAN_TX*%
X93726000Y-81026000D02*
X92329000Y-82423000D01*
X92329000Y-82423000D02*
X92329000Y-83093000D01*
%TO.N,CAN_RX*%
X101092000Y-77470000D02*
X100330000Y-78232000D01*
X100330000Y-82042000D02*
X99279000Y-83093000D01*
X100330000Y-78232000D02*
X100330000Y-82042000D01*
X102616000Y-77470000D02*
X101092000Y-77470000D01*
X99279000Y-83093000D02*
X96139000Y-83093000D01*
D51*
%TO.N,Net-(IC1-BOOT)*%
X119446000Y-108138000D02*
X116967000Y-110617000D01*
X119446000Y-107696000D02*
X119446000Y-108138000D01*
X116967000Y-110617000D02*
X116414000Y-110617000D01*
%TO.N,Net-(IC1-PH)*%
X121838000Y-110617000D02*
X121412000Y-110191000D01*
D49*
X122616000Y-106426000D02*
X128720500Y-106426000D01*
D51*
X120142000Y-105918000D02*
X121346000Y-107122000D01*
X118382000Y-105918000D02*
X120142000Y-105918000D01*
D49*
X128720500Y-106426000D02*
X128740500Y-106446000D01*
D51*
X121412000Y-107762000D02*
X121346000Y-107696000D01*
X121412000Y-110191000D02*
X121412000Y-107762000D01*
X116604000Y-107696000D02*
X118382000Y-105918000D01*
X121346000Y-107122000D02*
X121346000Y-107696000D01*
D49*
X121346000Y-107696000D02*
X122616000Y-106426000D01*
D48*
%TO.N,Net-(IC1-VSENSE)*%
X115292500Y-114427000D02*
X116414000Y-114427000D01*
X114046000Y-113180500D02*
X115292500Y-114427000D01*
X111760000Y-113180500D02*
X114046000Y-113180500D01*
%TD*%
M02*
