%TF.GenerationSoftware,KiCad,Pcbnew,(7.0.0)*%
%TF.CreationDate,2023-03-06T19:08:15+13:00*%
%TF.ProjectId,pico_expansion_board,7069636f-5f65-4787-9061-6e73696f6e5f,rev?*%
%TF.SameCoordinates,Original*%
%TF.FileFunction,Soldermask,Bot*%
%TF.FilePolarity,Negative*%
%FSLAX46Y46*%
G04 Gerber Fmt 4.6, Leading zero omitted, Abs format (unit mm)*
G04 Created by KiCad (PCBNEW (7.0.0)) date 2023-03-06 19:08:15*
%MOMM*%
%LPD*%
G01*
G04 APERTURE LIST*
G04 Aperture macros list*
%AMRoundRect*
0 Rectangle with rounded corners*
0 $1 Rounding radius*
0 $2 $3 $4 $5 $6 $7 $8 $9 X,Y pos of 4 corners*
0 Add a 4 corners polygon primitive as box body*
4,1,4,$2,$3,$4,$5,$6,$7,$8,$9,$2,$3,0*
0 Add four circle primitives for the rounded corners*
1,1,$1+$1,$2,$3*
1,1,$1+$1,$4,$5*
1,1,$1+$1,$6,$7*
1,1,$1+$1,$8,$9*
0 Add four rect primitives between the rounded corners*
20,1,$1+$1,$2,$3,$4,$5,0*
20,1,$1+$1,$4,$5,$6,$7,0*
20,1,$1+$1,$6,$7,$8,$9,0*
20,1,$1+$1,$8,$9,$2,$3,0*%
G04 Aperture macros list end*
%ADD10R,1.350000X1.350000*%
%ADD11O,1.350000X1.350000*%
%ADD12R,3.000000X3.000000*%
%ADD13C,3.000000*%
%ADD14C,6.400000*%
%ADD15RoundRect,0.250000X0.600000X-0.600000X0.600000X0.600000X-0.600000X0.600000X-0.600000X-0.600000X0*%
%ADD16C,1.700000*%
%ADD17O,1.800000X1.800000*%
%ADD18O,1.500000X1.500000*%
%ADD19O,1.700000X1.700000*%
%ADD20R,1.700000X1.700000*%
%ADD21C,1.200000*%
%ADD22RoundRect,0.250000X-0.725000X0.600000X-0.725000X-0.600000X0.725000X-0.600000X0.725000X0.600000X0*%
%ADD23O,1.950000X1.700000*%
%ADD24C,4.000000*%
%ADD25R,1.600000X1.600000*%
%ADD26C,1.600000*%
%ADD27R,2.100000X2.100000*%
%ADD28C,2.100000*%
G04 APERTURE END LIST*
D10*
%TO.C,JP3*%
X68103999Y-94233999D03*
D11*
X70103999Y-94233999D03*
%TD*%
D12*
%TO.C,J1*%
X126237999Y-123189999D03*
D13*
X131318000Y-123190000D03*
%TD*%
D14*
%TO.C,H2*%
X55512000Y-123190000D03*
%TD*%
D11*
%TO.C,JP1*%
X69934999Y-68257999D03*
D10*
X67934999Y-68257999D03*
%TD*%
D14*
%TO.C,H4*%
X117488000Y-63246000D03*
%TD*%
D15*
%TO.C,J8*%
X94742000Y-121666000D03*
D16*
X94742000Y-119126000D03*
X97282000Y-121666000D03*
X97282000Y-119126000D03*
X99822000Y-121666000D03*
X99822000Y-119126000D03*
X102362000Y-121666000D03*
X102362000Y-119126000D03*
X104902000Y-121666000D03*
X104902000Y-119126000D03*
%TD*%
D10*
%TO.C,JP9*%
X114553999Y-73405999D03*
D11*
X114553999Y-71405999D03*
%TD*%
D12*
%TO.C,J10*%
X131571999Y-62991999D03*
D13*
X126492000Y-62992000D03*
%TD*%
D17*
%TO.C,U3*%
X91000999Y-62359999D03*
D18*
X91300999Y-65389999D03*
X96150999Y-65389999D03*
D17*
X96450999Y-62359999D03*
D19*
X84835999Y-62229999D03*
X84835999Y-64769999D03*
D20*
X84835999Y-67309999D03*
D19*
X84835999Y-69849999D03*
X84835999Y-72389999D03*
X84835999Y-74929999D03*
X84835999Y-77469999D03*
D20*
X84835999Y-80009999D03*
D19*
X84835999Y-82549999D03*
X84835999Y-85089999D03*
X84835999Y-87629999D03*
X84835999Y-90169999D03*
D20*
X84835999Y-92709999D03*
D19*
X84835999Y-95249999D03*
X84835999Y-97789999D03*
X84835999Y-100329999D03*
X84835999Y-102869999D03*
D20*
X84835999Y-105409999D03*
D19*
X84835999Y-107949999D03*
X84835999Y-110489999D03*
X102615999Y-110489999D03*
X102615999Y-107949999D03*
D20*
X102615999Y-105409999D03*
D19*
X102615999Y-102869999D03*
X102615999Y-100329999D03*
X102615999Y-97789999D03*
X102615999Y-95249999D03*
D20*
X102615999Y-92709999D03*
D19*
X102615999Y-90169999D03*
X102615999Y-87629999D03*
X102615999Y-85089999D03*
X102615999Y-82549999D03*
D20*
X102615999Y-80009999D03*
D19*
X102615999Y-77469999D03*
X102615999Y-74929999D03*
X102615999Y-72389999D03*
X102615999Y-69849999D03*
D20*
X102615999Y-67309999D03*
D19*
X102615999Y-64769999D03*
X102615999Y-62229999D03*
X91185999Y-110259999D03*
D20*
X93725999Y-110259999D03*
D19*
X96265999Y-110259999D03*
%TD*%
D21*
%TO.C,J4*%
X54134000Y-70910000D03*
D22*
X56134000Y-72510000D03*
D23*
X56133999Y-75009999D03*
X56133999Y-77509999D03*
X56133999Y-80009999D03*
%TD*%
D21*
%TO.C,J5*%
X54134000Y-96738000D03*
D22*
X56134000Y-98338000D03*
D23*
X56133999Y-100837999D03*
X56133999Y-103337999D03*
X56133999Y-105837999D03*
%TD*%
D14*
%TO.C,H1*%
X55512000Y-63246000D03*
%TD*%
D10*
%TO.C,JP4*%
X70087999Y-97535999D03*
D11*
X68087999Y-97535999D03*
%TD*%
D24*
%TO.C,J7*%
X140139669Y-88710000D03*
X140139669Y-63710000D03*
D25*
X138719668Y-81749999D03*
D26*
X138719669Y-78980000D03*
X138719669Y-76210000D03*
X138719669Y-73440000D03*
X138719669Y-70670000D03*
X141559669Y-80365000D03*
X141559669Y-77595000D03*
X141559669Y-74825000D03*
X141559669Y-72055000D03*
%TD*%
D27*
%TO.C,J3*%
X75945999Y-93217999D03*
D28*
X75946000Y-95758000D03*
X75946000Y-98298000D03*
X75946000Y-100838000D03*
X75946000Y-103378000D03*
X75946000Y-105918000D03*
X75946000Y-108458000D03*
X75946000Y-110998000D03*
X63246000Y-110998000D03*
X63246000Y-108458000D03*
X63246000Y-105918000D03*
X63246000Y-103378000D03*
X63246000Y-100838000D03*
X63246000Y-98298000D03*
X63246000Y-95758000D03*
X63246000Y-93218000D03*
%TD*%
D24*
%TO.C,J6*%
X140139669Y-123762000D03*
X140139669Y-98762000D03*
D25*
X138719668Y-116801999D03*
D26*
X138719669Y-114032000D03*
X138719669Y-111262000D03*
X138719669Y-108492000D03*
X138719669Y-105722000D03*
X141559669Y-115417000D03*
X141559669Y-112647000D03*
X141559669Y-109877000D03*
X141559669Y-107107000D03*
%TD*%
D27*
%TO.C,J2*%
X75945999Y-67241999D03*
D28*
X75946000Y-69782000D03*
X75946000Y-72322000D03*
X75946000Y-74862000D03*
X75946000Y-77402000D03*
X75946000Y-79942000D03*
X75946000Y-82482000D03*
X75946000Y-85022000D03*
X63246000Y-85022000D03*
X63246000Y-82482000D03*
X63246000Y-79942000D03*
X63246000Y-77402000D03*
X63246000Y-74862000D03*
X63246000Y-72322000D03*
X63246000Y-69782000D03*
X63246000Y-67242000D03*
%TD*%
D14*
%TO.C,H3*%
X117488000Y-123190000D03*
%TD*%
D15*
%TO.C,J9*%
X69596000Y-121666000D03*
D16*
X69596000Y-119126000D03*
X72136000Y-121666000D03*
X72136000Y-119126000D03*
X74676000Y-121666000D03*
X74676000Y-119126000D03*
X77216000Y-121666000D03*
X77216000Y-119126000D03*
X79756000Y-121666000D03*
X79756000Y-119126000D03*
%TD*%
D10*
%TO.C,JP2*%
X69960999Y-71627999D03*
D11*
X67960999Y-71627999D03*
%TD*%
M02*
