%TF.GenerationSoftware,KiCad,Pcbnew,(7.0.0)*%
%TF.CreationDate,2023-03-06T19:08:15+13:00*%
%TF.ProjectId,pico_expansion_board,7069636f-5f65-4787-9061-6e73696f6e5f,rev?*%
%TF.SameCoordinates,Original*%
%TF.FileFunction,Legend,Bot*%
%TF.FilePolarity,Positive*%
%FSLAX46Y46*%
G04 Gerber Fmt 4.6, Leading zero omitted, Abs format (unit mm)*
G04 Created by KiCad (PCBNEW (7.0.0)) date 2023-03-06 19:08:15*
%MOMM*%
%LPD*%
G01*
G04 APERTURE LIST*
G04 Aperture macros list*
%AMRoundRect*
0 Rectangle with rounded corners*
0 $1 Rounding radius*
0 $2 $3 $4 $5 $6 $7 $8 $9 X,Y pos of 4 corners*
0 Add a 4 corners polygon primitive as box body*
4,1,4,$2,$3,$4,$5,$6,$7,$8,$9,$2,$3,0*
0 Add four circle primitives for the rounded corners*
1,1,$1+$1,$2,$3*
1,1,$1+$1,$4,$5*
1,1,$1+$1,$6,$7*
1,1,$1+$1,$8,$9*
0 Add four rect primitives between the rounded corners*
20,1,$1+$1,$2,$3,$4,$5,0*
20,1,$1+$1,$4,$5,$6,$7,0*
20,1,$1+$1,$6,$7,$8,$9,0*
20,1,$1+$1,$8,$9,$2,$3,0*%
G04 Aperture macros list end*
%ADD10C,0.150000*%
%ADD11R,1.350000X1.350000*%
%ADD12O,1.350000X1.350000*%
%ADD13R,3.000000X3.000000*%
%ADD14C,3.000000*%
%ADD15C,6.400000*%
%ADD16RoundRect,0.250000X0.600000X-0.600000X0.600000X0.600000X-0.600000X0.600000X-0.600000X-0.600000X0*%
%ADD17C,1.700000*%
%ADD18O,1.800000X1.800000*%
%ADD19O,1.500000X1.500000*%
%ADD20O,1.700000X1.700000*%
%ADD21R,1.700000X1.700000*%
%ADD22C,1.200000*%
%ADD23RoundRect,0.250000X-0.725000X0.600000X-0.725000X-0.600000X0.725000X-0.600000X0.725000X0.600000X0*%
%ADD24O,1.950000X1.700000*%
%ADD25C,4.000000*%
%ADD26R,1.600000X1.600000*%
%ADD27C,1.600000*%
%ADD28R,2.100000X2.100000*%
%ADD29C,2.100000*%
G04 APERTURE END LIST*
D10*
X109982000Y-68834000D02*
X116586000Y-68834000D01*
X116586000Y-68834000D02*
X116586000Y-76454000D01*
X116586000Y-76454000D02*
X109982000Y-76454000D01*
X109982000Y-76454000D02*
X109982000Y-68834000D01*
X65786000Y-66226000D02*
X72644000Y-66226000D01*
X72644000Y-66226000D02*
X72644000Y-73592000D01*
X72644000Y-73592000D02*
X65786000Y-73592000D01*
X65786000Y-73592000D02*
X65786000Y-66226000D01*
X65786000Y-92202000D02*
X72644000Y-92202000D01*
X72644000Y-92202000D02*
X72644000Y-99568000D01*
X72644000Y-99568000D02*
X65786000Y-99568000D01*
X65786000Y-99568000D02*
X65786000Y-92202000D01*
X82543714Y-59498857D02*
X82315142Y-59498857D01*
X82315142Y-59498857D02*
X82200857Y-59556000D01*
X82200857Y-59556000D02*
X82086571Y-59670285D01*
X82086571Y-59670285D02*
X82029428Y-59898857D01*
X82029428Y-59898857D02*
X82029428Y-60298857D01*
X82029428Y-60298857D02*
X82086571Y-60527428D01*
X82086571Y-60527428D02*
X82200857Y-60641714D01*
X82200857Y-60641714D02*
X82315142Y-60698857D01*
X82315142Y-60698857D02*
X82543714Y-60698857D01*
X82543714Y-60698857D02*
X82658000Y-60641714D01*
X82658000Y-60641714D02*
X82772285Y-60527428D01*
X82772285Y-60527428D02*
X82829428Y-60298857D01*
X82829428Y-60298857D02*
X82829428Y-59898857D01*
X82829428Y-59898857D02*
X82772285Y-59670285D01*
X82772285Y-59670285D02*
X82658000Y-59556000D01*
X82658000Y-59556000D02*
X82543714Y-59498857D01*
X81515142Y-59898857D02*
X81515142Y-61098857D01*
X81515142Y-59956000D02*
X81400857Y-59898857D01*
X81400857Y-59898857D02*
X81172285Y-59898857D01*
X81172285Y-59898857D02*
X81057999Y-59956000D01*
X81057999Y-59956000D02*
X81000857Y-60013142D01*
X81000857Y-60013142D02*
X80943714Y-60127428D01*
X80943714Y-60127428D02*
X80943714Y-60470285D01*
X80943714Y-60470285D02*
X81000857Y-60584571D01*
X81000857Y-60584571D02*
X81057999Y-60641714D01*
X81057999Y-60641714D02*
X81172285Y-60698857D01*
X81172285Y-60698857D02*
X81400857Y-60698857D01*
X81400857Y-60698857D02*
X81515142Y-60641714D01*
X79972285Y-60641714D02*
X80086571Y-60698857D01*
X80086571Y-60698857D02*
X80315143Y-60698857D01*
X80315143Y-60698857D02*
X80429428Y-60641714D01*
X80429428Y-60641714D02*
X80486571Y-60527428D01*
X80486571Y-60527428D02*
X80486571Y-60070285D01*
X80486571Y-60070285D02*
X80429428Y-59956000D01*
X80429428Y-59956000D02*
X80315143Y-59898857D01*
X80315143Y-59898857D02*
X80086571Y-59898857D01*
X80086571Y-59898857D02*
X79972285Y-59956000D01*
X79972285Y-59956000D02*
X79915143Y-60070285D01*
X79915143Y-60070285D02*
X79915143Y-60184571D01*
X79915143Y-60184571D02*
X80486571Y-60298857D01*
X79400857Y-59898857D02*
X79400857Y-60698857D01*
X79400857Y-60013142D02*
X79343714Y-59956000D01*
X79343714Y-59956000D02*
X79229429Y-59898857D01*
X79229429Y-59898857D02*
X79058000Y-59898857D01*
X79058000Y-59898857D02*
X78943714Y-59956000D01*
X78943714Y-59956000D02*
X78886572Y-60070285D01*
X78886572Y-60070285D02*
X78886572Y-60698857D01*
X78486572Y-59498857D02*
X77800858Y-59498857D01*
X78143715Y-60698857D02*
X78143715Y-59498857D01*
X77400857Y-60698857D02*
X77400857Y-59898857D01*
X77400857Y-60127428D02*
X77343714Y-60013142D01*
X77343714Y-60013142D02*
X77286572Y-59956000D01*
X77286572Y-59956000D02*
X77172286Y-59898857D01*
X77172286Y-59898857D02*
X77058000Y-59898857D01*
X76658000Y-60698857D02*
X76658000Y-59898857D01*
X76658000Y-59498857D02*
X76715143Y-59556000D01*
X76715143Y-59556000D02*
X76658000Y-59613142D01*
X76658000Y-59613142D02*
X76600857Y-59556000D01*
X76600857Y-59556000D02*
X76658000Y-59498857D01*
X76658000Y-59498857D02*
X76658000Y-59613142D01*
X75572286Y-60641714D02*
X75686571Y-60698857D01*
X75686571Y-60698857D02*
X75915143Y-60698857D01*
X75915143Y-60698857D02*
X76029428Y-60641714D01*
X76029428Y-60641714D02*
X76086571Y-60584571D01*
X76086571Y-60584571D02*
X76143714Y-60470285D01*
X76143714Y-60470285D02*
X76143714Y-60127428D01*
X76143714Y-60127428D02*
X76086571Y-60013142D01*
X76086571Y-60013142D02*
X76029428Y-59956000D01*
X76029428Y-59956000D02*
X75915143Y-59898857D01*
X75915143Y-59898857D02*
X75686571Y-59898857D01*
X75686571Y-59898857D02*
X75572286Y-59956000D01*
X75058000Y-60698857D02*
X75058000Y-59498857D01*
X74943715Y-60241714D02*
X74600857Y-60698857D01*
X74600857Y-59898857D02*
X75058000Y-60356000D01*
X73629428Y-60641714D02*
X73743714Y-60698857D01*
X73743714Y-60698857D02*
X73972286Y-60698857D01*
X73972286Y-60698857D02*
X74086571Y-60641714D01*
X74086571Y-60641714D02*
X74143714Y-60527428D01*
X74143714Y-60527428D02*
X74143714Y-60070285D01*
X74143714Y-60070285D02*
X74086571Y-59956000D01*
X74086571Y-59956000D02*
X73972286Y-59898857D01*
X73972286Y-59898857D02*
X73743714Y-59898857D01*
X73743714Y-59898857D02*
X73629428Y-59956000D01*
X73629428Y-59956000D02*
X73572286Y-60070285D01*
X73572286Y-60070285D02*
X73572286Y-60184571D01*
X73572286Y-60184571D02*
X74143714Y-60298857D01*
X73058000Y-60698857D02*
X73058000Y-59898857D01*
X73058000Y-60127428D02*
X73000857Y-60013142D01*
X73000857Y-60013142D02*
X72943715Y-59956000D01*
X72943715Y-59956000D02*
X72829429Y-59898857D01*
X72829429Y-59898857D02*
X72715143Y-59898857D01*
X70909429Y-60584571D02*
X70966572Y-60641714D01*
X70966572Y-60641714D02*
X71138000Y-60698857D01*
X71138000Y-60698857D02*
X71252286Y-60698857D01*
X71252286Y-60698857D02*
X71423715Y-60641714D01*
X71423715Y-60641714D02*
X71538000Y-60527428D01*
X71538000Y-60527428D02*
X71595143Y-60413142D01*
X71595143Y-60413142D02*
X71652286Y-60184571D01*
X71652286Y-60184571D02*
X71652286Y-60013142D01*
X71652286Y-60013142D02*
X71595143Y-59784571D01*
X71595143Y-59784571D02*
X71538000Y-59670285D01*
X71538000Y-59670285D02*
X71423715Y-59556000D01*
X71423715Y-59556000D02*
X71252286Y-59498857D01*
X71252286Y-59498857D02*
X71138000Y-59498857D01*
X71138000Y-59498857D02*
X70966572Y-59556000D01*
X70966572Y-59556000D02*
X70909429Y-59613142D01*
X70223715Y-60698857D02*
X70338000Y-60641714D01*
X70338000Y-60641714D02*
X70395143Y-60584571D01*
X70395143Y-60584571D02*
X70452286Y-60470285D01*
X70452286Y-60470285D02*
X70452286Y-60127428D01*
X70452286Y-60127428D02*
X70395143Y-60013142D01*
X70395143Y-60013142D02*
X70338000Y-59956000D01*
X70338000Y-59956000D02*
X70223715Y-59898857D01*
X70223715Y-59898857D02*
X70052286Y-59898857D01*
X70052286Y-59898857D02*
X69938000Y-59956000D01*
X69938000Y-59956000D02*
X69880858Y-60013142D01*
X69880858Y-60013142D02*
X69823715Y-60127428D01*
X69823715Y-60127428D02*
X69823715Y-60470285D01*
X69823715Y-60470285D02*
X69880858Y-60584571D01*
X69880858Y-60584571D02*
X69938000Y-60641714D01*
X69938000Y-60641714D02*
X70052286Y-60698857D01*
X70052286Y-60698857D02*
X70223715Y-60698857D01*
X69309429Y-59898857D02*
X69309429Y-60698857D01*
X69309429Y-60013142D02*
X69252286Y-59956000D01*
X69252286Y-59956000D02*
X69138001Y-59898857D01*
X69138001Y-59898857D02*
X68966572Y-59898857D01*
X68966572Y-59898857D02*
X68852286Y-59956000D01*
X68852286Y-59956000D02*
X68795144Y-60070285D01*
X68795144Y-60070285D02*
X68795144Y-60698857D01*
X68395144Y-59898857D02*
X67938001Y-59898857D01*
X68223715Y-59498857D02*
X68223715Y-60527428D01*
X68223715Y-60527428D02*
X68166572Y-60641714D01*
X68166572Y-60641714D02*
X68052287Y-60698857D01*
X68052287Y-60698857D02*
X67938001Y-60698857D01*
X67538001Y-60698857D02*
X67538001Y-59898857D01*
X67538001Y-60127428D02*
X67480858Y-60013142D01*
X67480858Y-60013142D02*
X67423716Y-59956000D01*
X67423716Y-59956000D02*
X67309430Y-59898857D01*
X67309430Y-59898857D02*
X67195144Y-59898857D01*
X66623716Y-60698857D02*
X66738001Y-60641714D01*
X66738001Y-60641714D02*
X66795144Y-60584571D01*
X66795144Y-60584571D02*
X66852287Y-60470285D01*
X66852287Y-60470285D02*
X66852287Y-60127428D01*
X66852287Y-60127428D02*
X66795144Y-60013142D01*
X66795144Y-60013142D02*
X66738001Y-59956000D01*
X66738001Y-59956000D02*
X66623716Y-59898857D01*
X66623716Y-59898857D02*
X66452287Y-59898857D01*
X66452287Y-59898857D02*
X66338001Y-59956000D01*
X66338001Y-59956000D02*
X66280859Y-60013142D01*
X66280859Y-60013142D02*
X66223716Y-60127428D01*
X66223716Y-60127428D02*
X66223716Y-60470285D01*
X66223716Y-60470285D02*
X66280859Y-60584571D01*
X66280859Y-60584571D02*
X66338001Y-60641714D01*
X66338001Y-60641714D02*
X66452287Y-60698857D01*
X66452287Y-60698857D02*
X66623716Y-60698857D01*
X65538002Y-60698857D02*
X65652287Y-60641714D01*
X65652287Y-60641714D02*
X65709430Y-60527428D01*
X65709430Y-60527428D02*
X65709430Y-59498857D01*
X64909431Y-60698857D02*
X65023716Y-60641714D01*
X65023716Y-60641714D02*
X65080859Y-60527428D01*
X65080859Y-60527428D02*
X65080859Y-59498857D01*
X63995145Y-60641714D02*
X64109431Y-60698857D01*
X64109431Y-60698857D02*
X64338003Y-60698857D01*
X64338003Y-60698857D02*
X64452288Y-60641714D01*
X64452288Y-60641714D02*
X64509431Y-60527428D01*
X64509431Y-60527428D02*
X64509431Y-60070285D01*
X64509431Y-60070285D02*
X64452288Y-59956000D01*
X64452288Y-59956000D02*
X64338003Y-59898857D01*
X64338003Y-59898857D02*
X64109431Y-59898857D01*
X64109431Y-59898857D02*
X63995145Y-59956000D01*
X63995145Y-59956000D02*
X63938003Y-60070285D01*
X63938003Y-60070285D02*
X63938003Y-60184571D01*
X63938003Y-60184571D02*
X64509431Y-60298857D01*
X63423717Y-60698857D02*
X63423717Y-59898857D01*
X63423717Y-60127428D02*
X63366574Y-60013142D01*
X63366574Y-60013142D02*
X63309432Y-59956000D01*
X63309432Y-59956000D02*
X63195146Y-59898857D01*
X63195146Y-59898857D02*
X63080860Y-59898857D01*
X62075146Y-59898857D02*
X61789432Y-60698857D01*
X61789432Y-60698857D02*
X61503717Y-59898857D01*
X60818003Y-59498857D02*
X60703717Y-59498857D01*
X60703717Y-59498857D02*
X60589431Y-59556000D01*
X60589431Y-59556000D02*
X60532289Y-59613142D01*
X60532289Y-59613142D02*
X60475146Y-59727428D01*
X60475146Y-59727428D02*
X60418003Y-59956000D01*
X60418003Y-59956000D02*
X60418003Y-60241714D01*
X60418003Y-60241714D02*
X60475146Y-60470285D01*
X60475146Y-60470285D02*
X60532289Y-60584571D01*
X60532289Y-60584571D02*
X60589431Y-60641714D01*
X60589431Y-60641714D02*
X60703717Y-60698857D01*
X60703717Y-60698857D02*
X60818003Y-60698857D01*
X60818003Y-60698857D02*
X60932289Y-60641714D01*
X60932289Y-60641714D02*
X60989431Y-60584571D01*
X60989431Y-60584571D02*
X61046574Y-60470285D01*
X61046574Y-60470285D02*
X61103717Y-60241714D01*
X61103717Y-60241714D02*
X61103717Y-59956000D01*
X61103717Y-59956000D02*
X61046574Y-59727428D01*
X61046574Y-59727428D02*
X60989431Y-59613142D01*
X60989431Y-59613142D02*
X60932289Y-59556000D01*
X60932289Y-59556000D02*
X60818003Y-59498857D01*
X59903717Y-60584571D02*
X59846574Y-60641714D01*
X59846574Y-60641714D02*
X59903717Y-60698857D01*
X59903717Y-60698857D02*
X59960860Y-60641714D01*
X59960860Y-60641714D02*
X59903717Y-60584571D01*
X59903717Y-60584571D02*
X59903717Y-60698857D01*
X59389431Y-59613142D02*
X59332288Y-59556000D01*
X59332288Y-59556000D02*
X59218003Y-59498857D01*
X59218003Y-59498857D02*
X58932288Y-59498857D01*
X58932288Y-59498857D02*
X58818003Y-59556000D01*
X58818003Y-59556000D02*
X58760860Y-59613142D01*
X58760860Y-59613142D02*
X58703717Y-59727428D01*
X58703717Y-59727428D02*
X58703717Y-59841714D01*
X58703717Y-59841714D02*
X58760860Y-60013142D01*
X58760860Y-60013142D02*
X59446574Y-60698857D01*
X59446574Y-60698857D02*
X58703717Y-60698857D01*
X101821999Y-126050285D02*
X101421999Y-126050285D01*
X101250571Y-126678857D02*
X101821999Y-126678857D01*
X101821999Y-126678857D02*
X101821999Y-125478857D01*
X101821999Y-125478857D02*
X101250571Y-125478857D01*
X100850571Y-125478857D02*
X100050571Y-126678857D01*
X100050571Y-125478857D02*
X100850571Y-126678857D01*
X99593428Y-126678857D02*
X99593428Y-125478857D01*
X99593428Y-125478857D02*
X99136285Y-125478857D01*
X99136285Y-125478857D02*
X99022000Y-125536000D01*
X99022000Y-125536000D02*
X98964857Y-125593142D01*
X98964857Y-125593142D02*
X98907714Y-125707428D01*
X98907714Y-125707428D02*
X98907714Y-125878857D01*
X98907714Y-125878857D02*
X98964857Y-125993142D01*
X98964857Y-125993142D02*
X99022000Y-126050285D01*
X99022000Y-126050285D02*
X99136285Y-126107428D01*
X99136285Y-126107428D02*
X99593428Y-126107428D01*
X97764857Y-126678857D02*
X98450571Y-126678857D01*
X98107714Y-126678857D02*
X98107714Y-125478857D01*
X98107714Y-125478857D02*
X98222000Y-125650285D01*
X98222000Y-125650285D02*
X98336285Y-125764571D01*
X98336285Y-125764571D02*
X98450571Y-125821714D01*
X72659904Y-91476380D02*
X72659904Y-90476380D01*
X72659904Y-90476380D02*
X72278952Y-90476380D01*
X72278952Y-90476380D02*
X72183714Y-90524000D01*
X72183714Y-90524000D02*
X72136095Y-90571619D01*
X72136095Y-90571619D02*
X72088476Y-90666857D01*
X72088476Y-90666857D02*
X72088476Y-90809714D01*
X72088476Y-90809714D02*
X72136095Y-90904952D01*
X72136095Y-90904952D02*
X72183714Y-90952571D01*
X72183714Y-90952571D02*
X72278952Y-91000190D01*
X72278952Y-91000190D02*
X72659904Y-91000190D01*
X71659904Y-91476380D02*
X71659904Y-90476380D01*
X71659904Y-90476380D02*
X71421809Y-90476380D01*
X71421809Y-90476380D02*
X71278952Y-90524000D01*
X71278952Y-90524000D02*
X71183714Y-90619238D01*
X71183714Y-90619238D02*
X71136095Y-90714476D01*
X71136095Y-90714476D02*
X71088476Y-90904952D01*
X71088476Y-90904952D02*
X71088476Y-91047809D01*
X71088476Y-91047809D02*
X71136095Y-91238285D01*
X71136095Y-91238285D02*
X71183714Y-91333523D01*
X71183714Y-91333523D02*
X71278952Y-91428761D01*
X71278952Y-91428761D02*
X71421809Y-91476380D01*
X71421809Y-91476380D02*
X71659904Y-91476380D01*
X70659904Y-91476380D02*
X70659904Y-90476380D01*
X70659904Y-90476380D02*
X70088476Y-91476380D01*
X70088476Y-91476380D02*
X70088476Y-90476380D01*
X68898000Y-90428761D02*
X69755142Y-91714476D01*
X68564666Y-90476380D02*
X68564666Y-91285904D01*
X68564666Y-91285904D02*
X68517047Y-91381142D01*
X68517047Y-91381142D02*
X68469428Y-91428761D01*
X68469428Y-91428761D02*
X68374190Y-91476380D01*
X68374190Y-91476380D02*
X68183714Y-91476380D01*
X68183714Y-91476380D02*
X68088476Y-91428761D01*
X68088476Y-91428761D02*
X68040857Y-91381142D01*
X68040857Y-91381142D02*
X67993238Y-91285904D01*
X67993238Y-91285904D02*
X67993238Y-90476380D01*
X67564666Y-91190666D02*
X67088476Y-91190666D01*
X67659904Y-91476380D02*
X67326571Y-90476380D01*
X67326571Y-90476380D02*
X66993238Y-91476380D01*
X66088476Y-91476380D02*
X66421809Y-91000190D01*
X66659904Y-91476380D02*
X66659904Y-90476380D01*
X66659904Y-90476380D02*
X66278952Y-90476380D01*
X66278952Y-90476380D02*
X66183714Y-90524000D01*
X66183714Y-90524000D02*
X66136095Y-90571619D01*
X66136095Y-90571619D02*
X66088476Y-90666857D01*
X66088476Y-90666857D02*
X66088476Y-90809714D01*
X66088476Y-90809714D02*
X66136095Y-90904952D01*
X66136095Y-90904952D02*
X66183714Y-90952571D01*
X66183714Y-90952571D02*
X66278952Y-91000190D01*
X66278952Y-91000190D02*
X66659904Y-91000190D01*
X65802761Y-90476380D02*
X65231333Y-90476380D01*
X65517047Y-91476380D02*
X65517047Y-90476380D01*
X72786904Y-65500380D02*
X72786904Y-64500380D01*
X72786904Y-64500380D02*
X72405952Y-64500380D01*
X72405952Y-64500380D02*
X72310714Y-64548000D01*
X72310714Y-64548000D02*
X72263095Y-64595619D01*
X72263095Y-64595619D02*
X72215476Y-64690857D01*
X72215476Y-64690857D02*
X72215476Y-64833714D01*
X72215476Y-64833714D02*
X72263095Y-64928952D01*
X72263095Y-64928952D02*
X72310714Y-64976571D01*
X72310714Y-64976571D02*
X72405952Y-65024190D01*
X72405952Y-65024190D02*
X72786904Y-65024190D01*
X71786904Y-65500380D02*
X71786904Y-64500380D01*
X71786904Y-64500380D02*
X71548809Y-64500380D01*
X71548809Y-64500380D02*
X71405952Y-64548000D01*
X71405952Y-64548000D02*
X71310714Y-64643238D01*
X71310714Y-64643238D02*
X71263095Y-64738476D01*
X71263095Y-64738476D02*
X71215476Y-64928952D01*
X71215476Y-64928952D02*
X71215476Y-65071809D01*
X71215476Y-65071809D02*
X71263095Y-65262285D01*
X71263095Y-65262285D02*
X71310714Y-65357523D01*
X71310714Y-65357523D02*
X71405952Y-65452761D01*
X71405952Y-65452761D02*
X71548809Y-65500380D01*
X71548809Y-65500380D02*
X71786904Y-65500380D01*
X70786904Y-65500380D02*
X70786904Y-64500380D01*
X70786904Y-64500380D02*
X70215476Y-65500380D01*
X70215476Y-65500380D02*
X70215476Y-64500380D01*
X69025000Y-64452761D02*
X69882142Y-65738476D01*
X68691666Y-64500380D02*
X68691666Y-65309904D01*
X68691666Y-65309904D02*
X68644047Y-65405142D01*
X68644047Y-65405142D02*
X68596428Y-65452761D01*
X68596428Y-65452761D02*
X68501190Y-65500380D01*
X68501190Y-65500380D02*
X68310714Y-65500380D01*
X68310714Y-65500380D02*
X68215476Y-65452761D01*
X68215476Y-65452761D02*
X68167857Y-65405142D01*
X68167857Y-65405142D02*
X68120238Y-65309904D01*
X68120238Y-65309904D02*
X68120238Y-64500380D01*
X67691666Y-65214666D02*
X67215476Y-65214666D01*
X67786904Y-65500380D02*
X67453571Y-64500380D01*
X67453571Y-64500380D02*
X67120238Y-65500380D01*
X66215476Y-65500380D02*
X66548809Y-65024190D01*
X66786904Y-65500380D02*
X66786904Y-64500380D01*
X66786904Y-64500380D02*
X66405952Y-64500380D01*
X66405952Y-64500380D02*
X66310714Y-64548000D01*
X66310714Y-64548000D02*
X66263095Y-64595619D01*
X66263095Y-64595619D02*
X66215476Y-64690857D01*
X66215476Y-64690857D02*
X66215476Y-64833714D01*
X66215476Y-64833714D02*
X66263095Y-64928952D01*
X66263095Y-64928952D02*
X66310714Y-64976571D01*
X66310714Y-64976571D02*
X66405952Y-65024190D01*
X66405952Y-65024190D02*
X66786904Y-65024190D01*
X65929761Y-64500380D02*
X65358333Y-64500380D01*
X65644047Y-65500380D02*
X65644047Y-64500380D01*
X130778285Y-66540857D02*
X130778285Y-65340857D01*
X130778285Y-65912285D02*
X130092571Y-65912285D01*
X130092571Y-66540857D02*
X130092571Y-65340857D01*
X126789714Y-66540857D02*
X127361142Y-66540857D01*
X127361142Y-66540857D02*
X127361142Y-65340857D01*
X114909714Y-68318857D02*
X115595428Y-68318857D01*
X115252571Y-68318857D02*
X115252571Y-67118857D01*
X115252571Y-67118857D02*
X115366857Y-67290285D01*
X115366857Y-67290285D02*
X115481142Y-67404571D01*
X115481142Y-67404571D02*
X115595428Y-67461714D01*
X114452571Y-67233142D02*
X114395428Y-67176000D01*
X114395428Y-67176000D02*
X114281143Y-67118857D01*
X114281143Y-67118857D02*
X113995428Y-67118857D01*
X113995428Y-67118857D02*
X113881143Y-67176000D01*
X113881143Y-67176000D02*
X113824000Y-67233142D01*
X113824000Y-67233142D02*
X113766857Y-67347428D01*
X113766857Y-67347428D02*
X113766857Y-67461714D01*
X113766857Y-67461714D02*
X113824000Y-67633142D01*
X113824000Y-67633142D02*
X114509714Y-68318857D01*
X114509714Y-68318857D02*
X113766857Y-68318857D01*
X113024000Y-67118857D02*
X112909714Y-67118857D01*
X112909714Y-67118857D02*
X112795428Y-67176000D01*
X112795428Y-67176000D02*
X112738286Y-67233142D01*
X112738286Y-67233142D02*
X112681143Y-67347428D01*
X112681143Y-67347428D02*
X112624000Y-67576000D01*
X112624000Y-67576000D02*
X112624000Y-67861714D01*
X112624000Y-67861714D02*
X112681143Y-68090285D01*
X112681143Y-68090285D02*
X112738286Y-68204571D01*
X112738286Y-68204571D02*
X112795428Y-68261714D01*
X112795428Y-68261714D02*
X112909714Y-68318857D01*
X112909714Y-68318857D02*
X113024000Y-68318857D01*
X113024000Y-68318857D02*
X113138286Y-68261714D01*
X113138286Y-68261714D02*
X113195428Y-68204571D01*
X113195428Y-68204571D02*
X113252571Y-68090285D01*
X113252571Y-68090285D02*
X113309714Y-67861714D01*
X113309714Y-67861714D02*
X113309714Y-67576000D01*
X113309714Y-67576000D02*
X113252571Y-67347428D01*
X113252571Y-67347428D02*
X113195428Y-67233142D01*
X113195428Y-67233142D02*
X113138286Y-67176000D01*
X113138286Y-67176000D02*
X113024000Y-67118857D01*
X112166857Y-68318857D02*
X111881143Y-68318857D01*
X111881143Y-68318857D02*
X111881143Y-68090285D01*
X111881143Y-68090285D02*
X111995429Y-68033142D01*
X111995429Y-68033142D02*
X112109714Y-67918857D01*
X112109714Y-67918857D02*
X112166857Y-67747428D01*
X112166857Y-67747428D02*
X112166857Y-67461714D01*
X112166857Y-67461714D02*
X112109714Y-67290285D01*
X112109714Y-67290285D02*
X111995429Y-67176000D01*
X111995429Y-67176000D02*
X111824000Y-67118857D01*
X111824000Y-67118857D02*
X111595429Y-67118857D01*
X111595429Y-67118857D02*
X111424000Y-67176000D01*
X111424000Y-67176000D02*
X111309714Y-67290285D01*
X111309714Y-67290285D02*
X111252571Y-67461714D01*
X111252571Y-67461714D02*
X111252571Y-67747428D01*
X111252571Y-67747428D02*
X111309714Y-67918857D01*
X111309714Y-67918857D02*
X111424000Y-68033142D01*
X111424000Y-68033142D02*
X111538286Y-68090285D01*
X111538286Y-68090285D02*
X111538286Y-68318857D01*
X111538286Y-68318857D02*
X111252571Y-68318857D01*
X131270476Y-60393142D02*
X131318095Y-60440761D01*
X131318095Y-60440761D02*
X131460952Y-60488380D01*
X131460952Y-60488380D02*
X131556190Y-60488380D01*
X131556190Y-60488380D02*
X131699047Y-60440761D01*
X131699047Y-60440761D02*
X131794285Y-60345523D01*
X131794285Y-60345523D02*
X131841904Y-60250285D01*
X131841904Y-60250285D02*
X131889523Y-60059809D01*
X131889523Y-60059809D02*
X131889523Y-59916952D01*
X131889523Y-59916952D02*
X131841904Y-59726476D01*
X131841904Y-59726476D02*
X131794285Y-59631238D01*
X131794285Y-59631238D02*
X131699047Y-59536000D01*
X131699047Y-59536000D02*
X131556190Y-59488380D01*
X131556190Y-59488380D02*
X131460952Y-59488380D01*
X131460952Y-59488380D02*
X131318095Y-59536000D01*
X131318095Y-59536000D02*
X131270476Y-59583619D01*
X130889523Y-60202666D02*
X130413333Y-60202666D01*
X130984761Y-60488380D02*
X130651428Y-59488380D01*
X130651428Y-59488380D02*
X130318095Y-60488380D01*
X129984761Y-60488380D02*
X129984761Y-59488380D01*
X129984761Y-59488380D02*
X129413333Y-60488380D01*
X129413333Y-60488380D02*
X129413333Y-59488380D01*
X128937142Y-60107428D02*
X128175238Y-60107428D01*
X127365714Y-59964571D02*
X127699047Y-59964571D01*
X127699047Y-60488380D02*
X127699047Y-59488380D01*
X127699047Y-59488380D02*
X127222857Y-59488380D01*
X126841904Y-60488380D02*
X126841904Y-59488380D01*
X126841904Y-59488380D02*
X126603809Y-59488380D01*
X126603809Y-59488380D02*
X126460952Y-59536000D01*
X126460952Y-59536000D02*
X126365714Y-59631238D01*
X126365714Y-59631238D02*
X126318095Y-59726476D01*
X126318095Y-59726476D02*
X126270476Y-59916952D01*
X126270476Y-59916952D02*
X126270476Y-60059809D01*
X126270476Y-60059809D02*
X126318095Y-60250285D01*
X126318095Y-60250285D02*
X126365714Y-60345523D01*
X126365714Y-60345523D02*
X126460952Y-60440761D01*
X126460952Y-60440761D02*
X126603809Y-60488380D01*
X126603809Y-60488380D02*
X126841904Y-60488380D01*
X133064285Y-120896857D02*
X133064285Y-119696857D01*
X133064285Y-119696857D02*
X132778571Y-119696857D01*
X132778571Y-119696857D02*
X132607142Y-119754000D01*
X132607142Y-119754000D02*
X132492857Y-119868285D01*
X132492857Y-119868285D02*
X132435714Y-119982571D01*
X132435714Y-119982571D02*
X132378571Y-120211142D01*
X132378571Y-120211142D02*
X132378571Y-120382571D01*
X132378571Y-120382571D02*
X132435714Y-120611142D01*
X132435714Y-120611142D02*
X132492857Y-120725428D01*
X132492857Y-120725428D02*
X132607142Y-120839714D01*
X132607142Y-120839714D02*
X132778571Y-120896857D01*
X132778571Y-120896857D02*
X133064285Y-120896857D01*
X131178571Y-120782571D02*
X131235714Y-120839714D01*
X131235714Y-120839714D02*
X131407142Y-120896857D01*
X131407142Y-120896857D02*
X131521428Y-120896857D01*
X131521428Y-120896857D02*
X131692857Y-120839714D01*
X131692857Y-120839714D02*
X131807142Y-120725428D01*
X131807142Y-120725428D02*
X131864285Y-120611142D01*
X131864285Y-120611142D02*
X131921428Y-120382571D01*
X131921428Y-120382571D02*
X131921428Y-120211142D01*
X131921428Y-120211142D02*
X131864285Y-119982571D01*
X131864285Y-119982571D02*
X131807142Y-119868285D01*
X131807142Y-119868285D02*
X131692857Y-119754000D01*
X131692857Y-119754000D02*
X131521428Y-119696857D01*
X131521428Y-119696857D02*
X131407142Y-119696857D01*
X131407142Y-119696857D02*
X131235714Y-119754000D01*
X131235714Y-119754000D02*
X131178571Y-119811142D01*
X130664285Y-120896857D02*
X130664285Y-119696857D01*
X130092856Y-120896857D02*
X130092856Y-119696857D01*
X130092856Y-119696857D02*
X129407142Y-120896857D01*
X129407142Y-120896857D02*
X129407142Y-119696857D01*
X126767142Y-119754000D02*
X126881428Y-119696857D01*
X126881428Y-119696857D02*
X127052856Y-119696857D01*
X127052856Y-119696857D02*
X127224285Y-119754000D01*
X127224285Y-119754000D02*
X127338570Y-119868285D01*
X127338570Y-119868285D02*
X127395713Y-119982571D01*
X127395713Y-119982571D02*
X127452856Y-120211142D01*
X127452856Y-120211142D02*
X127452856Y-120382571D01*
X127452856Y-120382571D02*
X127395713Y-120611142D01*
X127395713Y-120611142D02*
X127338570Y-120725428D01*
X127338570Y-120725428D02*
X127224285Y-120839714D01*
X127224285Y-120839714D02*
X127052856Y-120896857D01*
X127052856Y-120896857D02*
X126938570Y-120896857D01*
X126938570Y-120896857D02*
X126767142Y-120839714D01*
X126767142Y-120839714D02*
X126709999Y-120782571D01*
X126709999Y-120782571D02*
X126709999Y-120382571D01*
X126709999Y-120382571D02*
X126938570Y-120382571D01*
X126195713Y-120896857D02*
X126195713Y-119696857D01*
X126195713Y-119696857D02*
X125509999Y-120896857D01*
X125509999Y-120896857D02*
X125509999Y-119696857D01*
X124938570Y-120896857D02*
X124938570Y-119696857D01*
X124938570Y-119696857D02*
X124652856Y-119696857D01*
X124652856Y-119696857D02*
X124481427Y-119754000D01*
X124481427Y-119754000D02*
X124367142Y-119868285D01*
X124367142Y-119868285D02*
X124309999Y-119982571D01*
X124309999Y-119982571D02*
X124252856Y-120211142D01*
X124252856Y-120211142D02*
X124252856Y-120382571D01*
X124252856Y-120382571D02*
X124309999Y-120611142D01*
X124309999Y-120611142D02*
X124367142Y-120725428D01*
X124367142Y-120725428D02*
X124481427Y-120839714D01*
X124481427Y-120839714D02*
X124652856Y-120896857D01*
X124652856Y-120896857D02*
X124938570Y-120896857D01*
X76675999Y-125796285D02*
X76275999Y-125796285D01*
X76104571Y-126424857D02*
X76675999Y-126424857D01*
X76675999Y-126424857D02*
X76675999Y-125224857D01*
X76675999Y-125224857D02*
X76104571Y-125224857D01*
X75704571Y-125224857D02*
X74904571Y-126424857D01*
X74904571Y-125224857D02*
X75704571Y-126424857D01*
X74447428Y-126424857D02*
X74447428Y-125224857D01*
X74447428Y-125224857D02*
X73990285Y-125224857D01*
X73990285Y-125224857D02*
X73876000Y-125282000D01*
X73876000Y-125282000D02*
X73818857Y-125339142D01*
X73818857Y-125339142D02*
X73761714Y-125453428D01*
X73761714Y-125453428D02*
X73761714Y-125624857D01*
X73761714Y-125624857D02*
X73818857Y-125739142D01*
X73818857Y-125739142D02*
X73876000Y-125796285D01*
X73876000Y-125796285D02*
X73990285Y-125853428D01*
X73990285Y-125853428D02*
X74447428Y-125853428D01*
X73304571Y-125339142D02*
X73247428Y-125282000D01*
X73247428Y-125282000D02*
X73133143Y-125224857D01*
X73133143Y-125224857D02*
X72847428Y-125224857D01*
X72847428Y-125224857D02*
X72733143Y-125282000D01*
X72733143Y-125282000D02*
X72676000Y-125339142D01*
X72676000Y-125339142D02*
X72618857Y-125453428D01*
X72618857Y-125453428D02*
X72618857Y-125567714D01*
X72618857Y-125567714D02*
X72676000Y-125739142D01*
X72676000Y-125739142D02*
X73361714Y-126424857D01*
X73361714Y-126424857D02*
X72618857Y-126424857D01*
X145220857Y-70811428D02*
X144020857Y-70811428D01*
X144020857Y-70811428D02*
X145220857Y-71497142D01*
X145220857Y-71497142D02*
X144020857Y-71497142D01*
X144020857Y-72068571D02*
X144992285Y-72068571D01*
X144992285Y-72068571D02*
X145106571Y-72125714D01*
X145106571Y-72125714D02*
X145163714Y-72182857D01*
X145163714Y-72182857D02*
X145220857Y-72297142D01*
X145220857Y-72297142D02*
X145220857Y-72525714D01*
X145220857Y-72525714D02*
X145163714Y-72639999D01*
X145163714Y-72639999D02*
X145106571Y-72697142D01*
X145106571Y-72697142D02*
X144992285Y-72754285D01*
X144992285Y-72754285D02*
X144020857Y-72754285D01*
X145220857Y-73897142D02*
X145220857Y-73325714D01*
X145220857Y-73325714D02*
X144020857Y-73325714D01*
X145220857Y-74868571D02*
X145220857Y-74297143D01*
X145220857Y-74297143D02*
X144020857Y-74297143D01*
X145220857Y-75988572D02*
X144020857Y-75988572D01*
X144020857Y-75988572D02*
X144878000Y-76388572D01*
X144878000Y-76388572D02*
X144020857Y-76788572D01*
X144020857Y-76788572D02*
X145220857Y-76788572D01*
X145220857Y-77531429D02*
X145163714Y-77417144D01*
X145163714Y-77417144D02*
X145106571Y-77360001D01*
X145106571Y-77360001D02*
X144992285Y-77302858D01*
X144992285Y-77302858D02*
X144649428Y-77302858D01*
X144649428Y-77302858D02*
X144535142Y-77360001D01*
X144535142Y-77360001D02*
X144478000Y-77417144D01*
X144478000Y-77417144D02*
X144420857Y-77531429D01*
X144420857Y-77531429D02*
X144420857Y-77702858D01*
X144420857Y-77702858D02*
X144478000Y-77817144D01*
X144478000Y-77817144D02*
X144535142Y-77874287D01*
X144535142Y-77874287D02*
X144649428Y-77931429D01*
X144649428Y-77931429D02*
X144992285Y-77931429D01*
X144992285Y-77931429D02*
X145106571Y-77874287D01*
X145106571Y-77874287D02*
X145163714Y-77817144D01*
X145163714Y-77817144D02*
X145220857Y-77702858D01*
X145220857Y-77702858D02*
X145220857Y-77531429D01*
X145220857Y-78960001D02*
X144020857Y-78960001D01*
X145163714Y-78960001D02*
X145220857Y-78845715D01*
X145220857Y-78845715D02*
X145220857Y-78617143D01*
X145220857Y-78617143D02*
X145163714Y-78502858D01*
X145163714Y-78502858D02*
X145106571Y-78445715D01*
X145106571Y-78445715D02*
X144992285Y-78388572D01*
X144992285Y-78388572D02*
X144649428Y-78388572D01*
X144649428Y-78388572D02*
X144535142Y-78445715D01*
X144535142Y-78445715D02*
X144478000Y-78502858D01*
X144478000Y-78502858D02*
X144420857Y-78617143D01*
X144420857Y-78617143D02*
X144420857Y-78845715D01*
X144420857Y-78845715D02*
X144478000Y-78960001D01*
X145163714Y-79988572D02*
X145220857Y-79874286D01*
X145220857Y-79874286D02*
X145220857Y-79645715D01*
X145220857Y-79645715D02*
X145163714Y-79531429D01*
X145163714Y-79531429D02*
X145049428Y-79474286D01*
X145049428Y-79474286D02*
X144592285Y-79474286D01*
X144592285Y-79474286D02*
X144478000Y-79531429D01*
X144478000Y-79531429D02*
X144420857Y-79645715D01*
X144420857Y-79645715D02*
X144420857Y-79874286D01*
X144420857Y-79874286D02*
X144478000Y-79988572D01*
X144478000Y-79988572D02*
X144592285Y-80045715D01*
X144592285Y-80045715D02*
X144706571Y-80045715D01*
X144706571Y-80045715D02*
X144820857Y-79474286D01*
X145220857Y-80560000D02*
X144420857Y-80560000D01*
X144535142Y-80560000D02*
X144478000Y-80617143D01*
X144478000Y-80617143D02*
X144420857Y-80731428D01*
X144420857Y-80731428D02*
X144420857Y-80902857D01*
X144420857Y-80902857D02*
X144478000Y-81017143D01*
X144478000Y-81017143D02*
X144592285Y-81074286D01*
X144592285Y-81074286D02*
X145220857Y-81074286D01*
X144592285Y-81074286D02*
X144478000Y-81131428D01*
X144478000Y-81131428D02*
X144420857Y-81245714D01*
X144420857Y-81245714D02*
X144420857Y-81417143D01*
X144420857Y-81417143D02*
X144478000Y-81531428D01*
X144478000Y-81531428D02*
X144592285Y-81588571D01*
X144592285Y-81588571D02*
X145220857Y-81588571D01*
%TO.C,J6*%
X145417714Y-104044858D02*
X145474857Y-104216287D01*
X145474857Y-104216287D02*
X145474857Y-104502001D01*
X145474857Y-104502001D02*
X145417714Y-104616287D01*
X145417714Y-104616287D02*
X145360571Y-104673429D01*
X145360571Y-104673429D02*
X145246285Y-104730572D01*
X145246285Y-104730572D02*
X145132000Y-104730572D01*
X145132000Y-104730572D02*
X145017714Y-104673429D01*
X145017714Y-104673429D02*
X144960571Y-104616287D01*
X144960571Y-104616287D02*
X144903428Y-104502001D01*
X144903428Y-104502001D02*
X144846285Y-104273429D01*
X144846285Y-104273429D02*
X144789142Y-104159144D01*
X144789142Y-104159144D02*
X144732000Y-104102001D01*
X144732000Y-104102001D02*
X144617714Y-104044858D01*
X144617714Y-104044858D02*
X144503428Y-104044858D01*
X144503428Y-104044858D02*
X144389142Y-104102001D01*
X144389142Y-104102001D02*
X144332000Y-104159144D01*
X144332000Y-104159144D02*
X144274857Y-104273429D01*
X144274857Y-104273429D02*
X144274857Y-104559144D01*
X144274857Y-104559144D02*
X144332000Y-104730572D01*
X144674857Y-105073429D02*
X144674857Y-105530572D01*
X144274857Y-105244858D02*
X145303428Y-105244858D01*
X145303428Y-105244858D02*
X145417714Y-105302001D01*
X145417714Y-105302001D02*
X145474857Y-105416286D01*
X145474857Y-105416286D02*
X145474857Y-105530572D01*
X145474857Y-105930572D02*
X144674857Y-105930572D01*
X144903428Y-105930572D02*
X144789142Y-105987715D01*
X144789142Y-105987715D02*
X144732000Y-106044858D01*
X144732000Y-106044858D02*
X144674857Y-106159143D01*
X144674857Y-106159143D02*
X144674857Y-106273429D01*
X145474857Y-107187715D02*
X144846285Y-107187715D01*
X144846285Y-107187715D02*
X144732000Y-107130572D01*
X144732000Y-107130572D02*
X144674857Y-107016286D01*
X144674857Y-107016286D02*
X144674857Y-106787715D01*
X144674857Y-106787715D02*
X144732000Y-106673429D01*
X145417714Y-107187715D02*
X145474857Y-107073429D01*
X145474857Y-107073429D02*
X145474857Y-106787715D01*
X145474857Y-106787715D02*
X145417714Y-106673429D01*
X145417714Y-106673429D02*
X145303428Y-106616286D01*
X145303428Y-106616286D02*
X145189142Y-106616286D01*
X145189142Y-106616286D02*
X145074857Y-106673429D01*
X145074857Y-106673429D02*
X145017714Y-106787715D01*
X145017714Y-106787715D02*
X145017714Y-107073429D01*
X145017714Y-107073429D02*
X144960571Y-107187715D01*
X145474857Y-107759143D02*
X144674857Y-107759143D01*
X144274857Y-107759143D02*
X144332000Y-107702000D01*
X144332000Y-107702000D02*
X144389142Y-107759143D01*
X144389142Y-107759143D02*
X144332000Y-107816286D01*
X144332000Y-107816286D02*
X144274857Y-107759143D01*
X144274857Y-107759143D02*
X144389142Y-107759143D01*
X144674857Y-108844858D02*
X145646285Y-108844858D01*
X145646285Y-108844858D02*
X145760571Y-108787715D01*
X145760571Y-108787715D02*
X145817714Y-108730572D01*
X145817714Y-108730572D02*
X145874857Y-108616286D01*
X145874857Y-108616286D02*
X145874857Y-108444858D01*
X145874857Y-108444858D02*
X145817714Y-108330572D01*
X145417714Y-108844858D02*
X145474857Y-108730572D01*
X145474857Y-108730572D02*
X145474857Y-108502000D01*
X145474857Y-108502000D02*
X145417714Y-108387715D01*
X145417714Y-108387715D02*
X145360571Y-108330572D01*
X145360571Y-108330572D02*
X145246285Y-108273429D01*
X145246285Y-108273429D02*
X144903428Y-108273429D01*
X144903428Y-108273429D02*
X144789142Y-108330572D01*
X144789142Y-108330572D02*
X144732000Y-108387715D01*
X144732000Y-108387715D02*
X144674857Y-108502000D01*
X144674857Y-108502000D02*
X144674857Y-108730572D01*
X144674857Y-108730572D02*
X144732000Y-108844858D01*
X145474857Y-109416286D02*
X144274857Y-109416286D01*
X145474857Y-109930572D02*
X144846285Y-109930572D01*
X144846285Y-109930572D02*
X144732000Y-109873429D01*
X144732000Y-109873429D02*
X144674857Y-109759143D01*
X144674857Y-109759143D02*
X144674857Y-109587714D01*
X144674857Y-109587714D02*
X144732000Y-109473429D01*
X144732000Y-109473429D02*
X144789142Y-109416286D01*
X144674857Y-110330571D02*
X144674857Y-110787714D01*
X144274857Y-110502000D02*
X145303428Y-110502000D01*
X145303428Y-110502000D02*
X145417714Y-110559143D01*
X145417714Y-110559143D02*
X145474857Y-110673428D01*
X145474857Y-110673428D02*
X145474857Y-110787714D01*
X144274857Y-111736285D02*
X144274857Y-112422000D01*
X145474857Y-112079142D02*
X144274857Y-112079142D01*
X145474857Y-112822000D02*
X144274857Y-112822000D01*
X145474857Y-113336286D02*
X144846285Y-113336286D01*
X144846285Y-113336286D02*
X144732000Y-113279143D01*
X144732000Y-113279143D02*
X144674857Y-113164857D01*
X144674857Y-113164857D02*
X144674857Y-112993428D01*
X144674857Y-112993428D02*
X144732000Y-112879143D01*
X144732000Y-112879143D02*
X144789142Y-112822000D01*
X145474857Y-113907714D02*
X144674857Y-113907714D01*
X144903428Y-113907714D02*
X144789142Y-113964857D01*
X144789142Y-113964857D02*
X144732000Y-114022000D01*
X144732000Y-114022000D02*
X144674857Y-114136285D01*
X144674857Y-114136285D02*
X144674857Y-114250571D01*
X145474857Y-114821999D02*
X145417714Y-114707714D01*
X145417714Y-114707714D02*
X145360571Y-114650571D01*
X145360571Y-114650571D02*
X145246285Y-114593428D01*
X145246285Y-114593428D02*
X144903428Y-114593428D01*
X144903428Y-114593428D02*
X144789142Y-114650571D01*
X144789142Y-114650571D02*
X144732000Y-114707714D01*
X144732000Y-114707714D02*
X144674857Y-114821999D01*
X144674857Y-114821999D02*
X144674857Y-114993428D01*
X144674857Y-114993428D02*
X144732000Y-115107714D01*
X144732000Y-115107714D02*
X144789142Y-115164857D01*
X144789142Y-115164857D02*
X144903428Y-115221999D01*
X144903428Y-115221999D02*
X145246285Y-115221999D01*
X145246285Y-115221999D02*
X145360571Y-115164857D01*
X145360571Y-115164857D02*
X145417714Y-115107714D01*
X145417714Y-115107714D02*
X145474857Y-114993428D01*
X145474857Y-114993428D02*
X145474857Y-114821999D01*
X144674857Y-116250571D02*
X145474857Y-116250571D01*
X144674857Y-115736285D02*
X145303428Y-115736285D01*
X145303428Y-115736285D02*
X145417714Y-115793428D01*
X145417714Y-115793428D02*
X145474857Y-115907713D01*
X145474857Y-115907713D02*
X145474857Y-116079142D01*
X145474857Y-116079142D02*
X145417714Y-116193428D01*
X145417714Y-116193428D02*
X145360571Y-116250571D01*
X144674857Y-117336285D02*
X145646285Y-117336285D01*
X145646285Y-117336285D02*
X145760571Y-117279142D01*
X145760571Y-117279142D02*
X145817714Y-117221999D01*
X145817714Y-117221999D02*
X145874857Y-117107713D01*
X145874857Y-117107713D02*
X145874857Y-116936285D01*
X145874857Y-116936285D02*
X145817714Y-116821999D01*
X145417714Y-117336285D02*
X145474857Y-117221999D01*
X145474857Y-117221999D02*
X145474857Y-116993427D01*
X145474857Y-116993427D02*
X145417714Y-116879142D01*
X145417714Y-116879142D02*
X145360571Y-116821999D01*
X145360571Y-116821999D02*
X145246285Y-116764856D01*
X145246285Y-116764856D02*
X144903428Y-116764856D01*
X144903428Y-116764856D02*
X144789142Y-116821999D01*
X144789142Y-116821999D02*
X144732000Y-116879142D01*
X144732000Y-116879142D02*
X144674857Y-116993427D01*
X144674857Y-116993427D02*
X144674857Y-117221999D01*
X144674857Y-117221999D02*
X144732000Y-117336285D01*
X145474857Y-117907713D02*
X144274857Y-117907713D01*
X145474857Y-118421999D02*
X144846285Y-118421999D01*
X144846285Y-118421999D02*
X144732000Y-118364856D01*
X144732000Y-118364856D02*
X144674857Y-118250570D01*
X144674857Y-118250570D02*
X144674857Y-118079141D01*
X144674857Y-118079141D02*
X144732000Y-117964856D01*
X144732000Y-117964856D02*
X144789142Y-117907713D01*
%TD*%
%LPC*%
D11*
%TO.C,JP3*%
X68103999Y-94233999D03*
D12*
X70103999Y-94233999D03*
%TD*%
D13*
%TO.C,J1*%
X126237999Y-123189999D03*
D14*
X131318000Y-123190000D03*
%TD*%
D15*
%TO.C,H2*%
X55512000Y-123190000D03*
%TD*%
D12*
%TO.C,JP1*%
X69934999Y-68257999D03*
D11*
X67934999Y-68257999D03*
%TD*%
D15*
%TO.C,H4*%
X117488000Y-63246000D03*
%TD*%
D16*
%TO.C,J8*%
X94742000Y-121666000D03*
D17*
X94742000Y-119126000D03*
X97282000Y-121666000D03*
X97282000Y-119126000D03*
X99822000Y-121666000D03*
X99822000Y-119126000D03*
X102362000Y-121666000D03*
X102362000Y-119126000D03*
X104902000Y-121666000D03*
X104902000Y-119126000D03*
%TD*%
D11*
%TO.C,JP9*%
X114553999Y-73405999D03*
D12*
X114553999Y-71405999D03*
%TD*%
D13*
%TO.C,J10*%
X131571999Y-62991999D03*
D14*
X126492000Y-62992000D03*
%TD*%
D18*
%TO.C,U3*%
X91000999Y-62359999D03*
D19*
X91300999Y-65389999D03*
X96150999Y-65389999D03*
D18*
X96450999Y-62359999D03*
D20*
X84835999Y-62229999D03*
X84835999Y-64769999D03*
D21*
X84835999Y-67309999D03*
D20*
X84835999Y-69849999D03*
X84835999Y-72389999D03*
X84835999Y-74929999D03*
X84835999Y-77469999D03*
D21*
X84835999Y-80009999D03*
D20*
X84835999Y-82549999D03*
X84835999Y-85089999D03*
X84835999Y-87629999D03*
X84835999Y-90169999D03*
D21*
X84835999Y-92709999D03*
D20*
X84835999Y-95249999D03*
X84835999Y-97789999D03*
X84835999Y-100329999D03*
X84835999Y-102869999D03*
D21*
X84835999Y-105409999D03*
D20*
X84835999Y-107949999D03*
X84835999Y-110489999D03*
X102615999Y-110489999D03*
X102615999Y-107949999D03*
D21*
X102615999Y-105409999D03*
D20*
X102615999Y-102869999D03*
X102615999Y-100329999D03*
X102615999Y-97789999D03*
X102615999Y-95249999D03*
D21*
X102615999Y-92709999D03*
D20*
X102615999Y-90169999D03*
X102615999Y-87629999D03*
X102615999Y-85089999D03*
X102615999Y-82549999D03*
D21*
X102615999Y-80009999D03*
D20*
X102615999Y-77469999D03*
X102615999Y-74929999D03*
X102615999Y-72389999D03*
X102615999Y-69849999D03*
D21*
X102615999Y-67309999D03*
D20*
X102615999Y-64769999D03*
X102615999Y-62229999D03*
X91185999Y-110259999D03*
D21*
X93725999Y-110259999D03*
D20*
X96265999Y-110259999D03*
%TD*%
D22*
%TO.C,J4*%
X54134000Y-70910000D03*
D23*
X56134000Y-72510000D03*
D24*
X56133999Y-75009999D03*
X56133999Y-77509999D03*
X56133999Y-80009999D03*
%TD*%
D22*
%TO.C,J5*%
X54134000Y-96738000D03*
D23*
X56134000Y-98338000D03*
D24*
X56133999Y-100837999D03*
X56133999Y-103337999D03*
X56133999Y-105837999D03*
%TD*%
D15*
%TO.C,H1*%
X55512000Y-63246000D03*
%TD*%
D11*
%TO.C,JP4*%
X70087999Y-97535999D03*
D12*
X68087999Y-97535999D03*
%TD*%
D25*
%TO.C,J7*%
X140139669Y-88710000D03*
X140139669Y-63710000D03*
D26*
X138719668Y-81749999D03*
D27*
X138719669Y-78980000D03*
X138719669Y-76210000D03*
X138719669Y-73440000D03*
X138719669Y-70670000D03*
X141559669Y-80365000D03*
X141559669Y-77595000D03*
X141559669Y-74825000D03*
X141559669Y-72055000D03*
%TD*%
D28*
%TO.C,J3*%
X75945999Y-93217999D03*
D29*
X75946000Y-95758000D03*
X75946000Y-98298000D03*
X75946000Y-100838000D03*
X75946000Y-103378000D03*
X75946000Y-105918000D03*
X75946000Y-108458000D03*
X75946000Y-110998000D03*
X63246000Y-110998000D03*
X63246000Y-108458000D03*
X63246000Y-105918000D03*
X63246000Y-103378000D03*
X63246000Y-100838000D03*
X63246000Y-98298000D03*
X63246000Y-95758000D03*
X63246000Y-93218000D03*
%TD*%
D25*
%TO.C,J6*%
X140139669Y-123762000D03*
X140139669Y-98762000D03*
D26*
X138719668Y-116801999D03*
D27*
X138719669Y-114032000D03*
X138719669Y-111262000D03*
X138719669Y-108492000D03*
X138719669Y-105722000D03*
X141559669Y-115417000D03*
X141559669Y-112647000D03*
X141559669Y-109877000D03*
X141559669Y-107107000D03*
%TD*%
D28*
%TO.C,J2*%
X75945999Y-67241999D03*
D29*
X75946000Y-69782000D03*
X75946000Y-72322000D03*
X75946000Y-74862000D03*
X75946000Y-77402000D03*
X75946000Y-79942000D03*
X75946000Y-82482000D03*
X75946000Y-85022000D03*
X63246000Y-85022000D03*
X63246000Y-82482000D03*
X63246000Y-79942000D03*
X63246000Y-77402000D03*
X63246000Y-74862000D03*
X63246000Y-72322000D03*
X63246000Y-69782000D03*
X63246000Y-67242000D03*
%TD*%
D15*
%TO.C,H3*%
X117488000Y-123190000D03*
%TD*%
D16*
%TO.C,J9*%
X69596000Y-121666000D03*
D17*
X69596000Y-119126000D03*
X72136000Y-121666000D03*
X72136000Y-119126000D03*
X74676000Y-121666000D03*
X74676000Y-119126000D03*
X77216000Y-121666000D03*
X77216000Y-119126000D03*
X79756000Y-121666000D03*
X79756000Y-119126000D03*
%TD*%
D11*
%TO.C,JP2*%
X69960999Y-71627999D03*
D12*
X67960999Y-71627999D03*
%TD*%
M02*
