%TF.GenerationSoftware,KiCad,Pcbnew,(7.0.0)*%
%TF.CreationDate,2023-04-01T01:02:28+13:00*%
%TF.ProjectId,pico_expansion_board,7069636f-5f65-4787-9061-6e73696f6e5f,rev?*%
%TF.SameCoordinates,Original*%
%TF.FileFunction,Soldermask,Bot*%
%TF.FilePolarity,Negative*%
%FSLAX46Y46*%
G04 Gerber Fmt 4.6, Leading zero omitted, Abs format (unit mm)*
G04 Created by KiCad (PCBNEW (7.0.0)) date 2023-04-01 01:02:28*
%MOMM*%
%LPD*%
G01*
G04 APERTURE LIST*
G04 Aperture macros list*
%AMRoundRect*
0 Rectangle with rounded corners*
0 $1 Rounding radius*
0 $2 $3 $4 $5 $6 $7 $8 $9 X,Y pos of 4 corners*
0 Add a 4 corners polygon primitive as box body*
4,1,4,$2,$3,$4,$5,$6,$7,$8,$9,$2,$3,0*
0 Add four circle primitives for the rounded corners*
1,1,$1+$1,$2,$3*
1,1,$1+$1,$4,$5*
1,1,$1+$1,$6,$7*
1,1,$1+$1,$8,$9*
0 Add four rect primitives between the rounded corners*
20,1,$1+$1,$2,$3,$4,$5,0*
20,1,$1+$1,$4,$5,$6,$7,0*
20,1,$1+$1,$6,$7,$8,$9,0*
20,1,$1+$1,$8,$9,$2,$3,0*%
G04 Aperture macros list end*
%ADD10C,6.400000*%
%ADD11C,4.000000*%
%ADD12R,1.600000X1.600000*%
%ADD13C,1.600000*%
%ADD14R,1.350000X1.350000*%
%ADD15O,1.350000X1.350000*%
%ADD16RoundRect,0.250000X0.600000X-0.600000X0.600000X0.600000X-0.600000X0.600000X-0.600000X-0.600000X0*%
%ADD17C,1.700000*%
%ADD18R,3.000000X3.000000*%
%ADD19C,3.000000*%
%ADD20RoundRect,0.250000X-0.725000X0.600000X-0.725000X-0.600000X0.725000X-0.600000X0.725000X0.600000X0*%
%ADD21O,1.950000X1.700000*%
%ADD22O,1.800000X1.800000*%
%ADD23O,1.500000X1.500000*%
%ADD24O,1.700000X1.700000*%
%ADD25R,1.700000X1.700000*%
%ADD26R,1.800000X1.800000*%
%ADD27C,1.800000*%
G04 APERTURE END LIST*
D10*
%TO.C,H4*%
X156718000Y-135890000D03*
%TD*%
D11*
%TO.C,J6*%
X152331669Y-116650000D03*
X152331669Y-91650000D03*
D12*
X150911668Y-109689999D03*
D13*
X150911669Y-106920000D03*
X150911669Y-104150000D03*
X150911669Y-101380000D03*
X150911669Y-98610000D03*
X153751669Y-108305000D03*
X153751669Y-105535000D03*
X153751669Y-102765000D03*
X153751669Y-99995000D03*
%TD*%
D10*
%TO.C,H2*%
X75184000Y-79248000D03*
%TD*%
D14*
%TO.C,JP5*%
X130555999Y-80961999D03*
D15*
X130555999Y-78961999D03*
X130555999Y-76961999D03*
%TD*%
D10*
%TO.C,H3*%
X156718000Y-79248000D03*
%TD*%
D16*
%TO.C,J8*%
X110490000Y-135890000D03*
D17*
X110490000Y-133350000D03*
X113030000Y-135890000D03*
X113030000Y-133350000D03*
X115570000Y-135890000D03*
X115570000Y-133350000D03*
X118110000Y-135890000D03*
X118110000Y-133350000D03*
X120650000Y-135890000D03*
X120650000Y-133350000D03*
%TD*%
D18*
%TO.C,J1*%
X147827999Y-78993999D03*
D19*
X142748000Y-78994000D03*
%TD*%
D10*
%TO.C,H1*%
X75184000Y-135890000D03*
%TD*%
D20*
%TO.C,J4*%
X75184000Y-89528000D03*
D21*
X75183999Y-92027999D03*
X75183999Y-94527999D03*
X75183999Y-97027999D03*
%TD*%
D14*
%TO.C,JP6*%
X137667999Y-80961999D03*
D15*
X137667999Y-78961999D03*
X137667999Y-76961999D03*
%TD*%
D20*
%TO.C,J5*%
X75184000Y-113070000D03*
D21*
X75183999Y-115569999D03*
X75183999Y-118069999D03*
X75183999Y-120569999D03*
%TD*%
D22*
%TO.C,U2*%
X110304999Y-77599999D03*
D23*
X110604999Y-80629999D03*
X115454999Y-80629999D03*
D22*
X115754999Y-77599999D03*
D24*
X104139999Y-77469999D03*
X104139999Y-80009999D03*
D25*
X104139999Y-82549999D03*
D24*
X104139999Y-85089999D03*
X104139999Y-87629999D03*
X104139999Y-90169999D03*
X104139999Y-92709999D03*
D25*
X104139999Y-95249999D03*
D24*
X104139999Y-97789999D03*
X104139999Y-100329999D03*
X104139999Y-102869999D03*
X104139999Y-105409999D03*
D25*
X104139999Y-107949999D03*
D24*
X104139999Y-110489999D03*
X104139999Y-113029999D03*
X104139999Y-115569999D03*
X104139999Y-118109999D03*
D25*
X104139999Y-120649999D03*
D24*
X104139999Y-123189999D03*
X104139999Y-125729999D03*
X121919999Y-125729999D03*
X121919999Y-123189999D03*
D25*
X121919999Y-120649999D03*
D24*
X121919999Y-118109999D03*
X121919999Y-115569999D03*
X121919999Y-113029999D03*
X121919999Y-110489999D03*
D25*
X121919999Y-107949999D03*
D24*
X121919999Y-105409999D03*
X121919999Y-102869999D03*
X121919999Y-100329999D03*
X121919999Y-97789999D03*
D25*
X121919999Y-95249999D03*
D24*
X121919999Y-92709999D03*
X121919999Y-90169999D03*
X121919999Y-87629999D03*
X121919999Y-85089999D03*
D25*
X121919999Y-82549999D03*
D24*
X121919999Y-80009999D03*
X121919999Y-77469999D03*
X110489999Y-125499999D03*
D25*
X113029999Y-125499999D03*
D24*
X115569999Y-125499999D03*
%TD*%
D16*
%TO.C,J9*%
X86360000Y-135890000D03*
D17*
X86360000Y-133350000D03*
X88900000Y-135890000D03*
X88900000Y-133350000D03*
X91440000Y-135890000D03*
X91440000Y-133350000D03*
X93980000Y-135890000D03*
X93980000Y-133350000D03*
X96520000Y-135890000D03*
X96520000Y-133350000D03*
%TD*%
D14*
%TO.C,JP7*%
X130555999Y-90359999D03*
D15*
X130555999Y-88359999D03*
X130555999Y-86359999D03*
%TD*%
D26*
%TO.C,J3*%
X94995999Y-107949999D03*
D27*
X94996000Y-110490000D03*
X94996000Y-113030000D03*
X94996000Y-115570000D03*
X94996000Y-118110000D03*
X94996000Y-120650000D03*
X94996000Y-123190000D03*
X94996000Y-125730000D03*
X82296000Y-125730000D03*
X82296000Y-123190000D03*
X82296000Y-120650000D03*
X82296000Y-118110000D03*
X82296000Y-115570000D03*
X82296000Y-113030000D03*
X82296000Y-110490000D03*
X82296000Y-107950000D03*
%TD*%
D26*
%TO.C,J2*%
X94995999Y-84259999D03*
D27*
X94996000Y-86800000D03*
X94996000Y-89340000D03*
X94996000Y-91880000D03*
X94996000Y-94420000D03*
X94996000Y-96960000D03*
X94996000Y-99500000D03*
X94996000Y-102040000D03*
X82296000Y-102040000D03*
X82296000Y-99500000D03*
X82296000Y-96960000D03*
X82296000Y-94420000D03*
X82296000Y-91880000D03*
X82296000Y-89340000D03*
X82296000Y-86800000D03*
X82296000Y-84260000D03*
%TD*%
M02*
