M48
; DRILL file {KiCad (7.0.0)} date Mon Mar  6 19:08:15 2023
; FORMAT={-:-/ absolute / inch / decimal}
; #@! TF.CreationDate,2023-03-06T19:08:15+13:00
; #@! TF.GenerationSoftware,Kicad,Pcbnew,(7.0.0)
; #@! TF.FileFunction,Plated,1,4,PTH
FMAT,2
INCH
; #@! TA.AperFunction,Plated,PTH,ViaDrill
T1C0.0157
; #@! TA.AperFunction,Plated,PTH,ViaDrill
T2C0.0197
; #@! TA.AperFunction,Plated,PTH,ComponentDrill
T3C0.0315
; #@! TA.AperFunction,Plated,PTH,ComponentDrill
T4C0.0374
; #@! TA.AperFunction,Plated,PTH,ComponentDrill
T5C0.0394
; #@! TA.AperFunction,Plated,PTH,ComponentDrill
T6C0.0402
; #@! TA.AperFunction,Plated,PTH,ComponentDrill
T7C0.0591
; #@! TA.AperFunction,Plated,PTH,ComponentDrill
T8C0.0598
; #@! TA.AperFunction,Plated,PTH,ComponentDrill
T9C0.1260
%
G90
G05
T1
X2.68Y-3.4
X3.04Y-4.58
X3.16Y-3.16
X3.16Y-3.35
X3.42Y-4.49
X3.49Y-3.86
X3.57Y-3.07
X3.66Y-3.46
X3.69Y-3.19
X3.69Y-3.76
X3.76Y-3.46
X3.88Y-3.19
X3.95Y-4.0
X4.18Y-2.55
X4.21Y-3.98
X4.32Y-3.11
X4.37Y-4.31
X4.3926Y-3.645
X4.42Y-2.75
X4.42Y-3.14
X4.46Y-4.31
X4.59Y-3.4
X4.64Y-3.47
X4.7Y-4.58
X4.72Y-3.67
X4.8486Y-2.9386
X4.9Y-3.17
X4.9Y-3.26
X5.01Y-4.58
X5.2Y-3.38
X5.23Y-4.44
T2
X2.83Y-3.12
X2.83Y-4.14
X4.55Y-3.83
X4.55Y-4.05
X4.64Y-3.83
X4.73Y-3.83
T3
X2.6746Y-2.6873
X2.6756Y-2.82
X2.6806Y-3.84
X2.6813Y-3.71
X2.7533Y-2.6873
X2.7544Y-2.82
X2.7594Y-3.84
X2.76Y-3.71
X4.51Y-2.8113
X4.51Y-2.89
T4
X2.21Y-2.8547
X2.21Y-2.9531
X2.21Y-3.0516
X2.21Y-3.15
X2.21Y-3.8716
X2.21Y-3.97
X2.21Y-4.0684
X2.21Y-4.1669
T5
X2.74Y-4.69
X2.74Y-4.79
X2.84Y-4.69
X2.84Y-4.79
X2.94Y-4.69
X2.94Y-4.79
X3.04Y-4.69
X3.04Y-4.79
X3.14Y-4.69
X3.14Y-4.79
X3.73Y-4.69
X3.73Y-4.79
X3.83Y-4.69
X3.83Y-4.79
X3.93Y-4.69
X3.93Y-4.79
X4.03Y-4.69
X4.03Y-4.79
X4.13Y-4.69
X4.13Y-4.79
X5.4614Y-2.7823
X5.4614Y-2.8913
X5.4614Y-3.0004
X5.4614Y-3.1094
X5.4614Y-3.2185
X5.4614Y-4.1623
X5.4614Y-4.2713
X5.4614Y-4.3804
X5.4614Y-4.4894
X5.4614Y-4.5985
X5.5732Y-2.8368
X5.5732Y-2.9459
X5.5732Y-3.0549
X5.5732Y-3.164
X5.5732Y-4.2168
X5.5732Y-4.3259
X5.5732Y-4.4349
X5.5732Y-4.544
T6
X3.34Y-2.45
X3.34Y-2.55
X3.34Y-2.65
X3.34Y-2.75
X3.34Y-2.85
X3.34Y-2.95
X3.34Y-3.05
X3.34Y-3.15
X3.34Y-3.25
X3.34Y-3.35
X3.34Y-3.45
X3.34Y-3.55
X3.34Y-3.65
X3.34Y-3.75
X3.34Y-3.85
X3.34Y-3.95
X3.34Y-4.05
X3.34Y-4.15
X3.34Y-4.25
X3.34Y-4.35
X3.59Y-4.3409
X3.69Y-4.3409
X3.79Y-4.3409
X4.04Y-2.45
X4.04Y-2.55
X4.04Y-2.65
X4.04Y-2.75
X4.04Y-2.85
X4.04Y-2.95
X4.04Y-3.05
X4.04Y-3.15
X4.04Y-3.25
X4.04Y-3.35
X4.04Y-3.45
X4.04Y-3.55
X4.04Y-3.65
X4.04Y-3.75
X4.04Y-3.85
X4.04Y-3.95
X4.04Y-4.05
X4.04Y-4.15
X4.04Y-4.25
X4.04Y-4.35
T7
X2.49Y-2.6473
X2.49Y-2.7473
X2.49Y-2.8473
X2.49Y-2.9473
X2.49Y-3.0473
X2.49Y-3.1473
X2.49Y-3.2473
X2.49Y-3.3473
X2.49Y-3.67
X2.49Y-3.77
X2.49Y-3.87
X2.49Y-3.97
X2.49Y-4.07
X2.49Y-4.17
X2.49Y-4.27
X2.49Y-4.37
X2.99Y-2.6473
X2.99Y-2.7473
X2.99Y-2.8473
X2.99Y-2.9473
X2.99Y-3.0473
X2.99Y-3.1473
X2.99Y-3.2473
X2.99Y-3.3473
X2.99Y-3.67
X2.99Y-3.77
X2.99Y-3.87
X2.99Y-3.97
X2.99Y-4.07
X2.99Y-4.17
X2.99Y-4.27
X2.99Y-4.37
T8
X4.97Y-4.85
X4.98Y-2.48
X5.17Y-4.85
X5.18Y-2.48
T9
X2.1855Y-2.49
X2.1855Y-4.85
X4.6255Y-2.49
X4.6255Y-4.85
X5.5173Y-2.5083
X5.5173Y-3.4925
X5.5173Y-3.8883
X5.5173Y-4.8725
T0
M30
